<svg width="762" height="425" viewBox="0 0 762 425" fill="none" xmlns="http://www.w3.org/2000/svg">
<g clip-path="url(#clip0_1817_4534)">
<path d="M668.333 470.028C652.295 483.482 627.275 496.229 593.274 507.028C514.687 532.167 406.269 541.727 304.907 536.062C240.754 532.521 179.489 522.784 130.091 507.028C72.6741 488.793 41.56 465.248 35.7863 441.348C28.7295 411.783 60.4851 381.51 131.374 358.849C238.83 324.504 402.099 319.016 527.197 342.208C551.254 346.634 574.028 352.122 594.878 358.849C688.22 388.945 712.919 432.673 668.333 470.028Z" fill="#EFF8FF"/>
<path d="M258.446 100.935V88.9023C258.446 87.734 257.512 86.7995 256.343 86.7995H253.306C252.372 86.7995 251.554 86.2153 251.437 85.2808C250.386 80.6079 248.516 76.2854 246.063 72.3135C245.596 71.4957 245.713 70.5611 246.297 69.8602L248.516 67.7574C249.334 66.9396 249.334 65.5378 248.516 64.72L240.105 56.3088C239.287 55.4911 237.886 55.4911 237.068 56.3088L234.848 58.5284C234.147 59.2294 233.213 59.2294 232.395 58.7621C228.423 56.3088 224.1 54.4397 219.428 53.3883C218.493 53.1546 217.909 52.3368 217.909 51.5191V48.4817C217.909 47.3135 216.974 46.3789 215.806 46.3789H203.89C202.722 46.3789 201.787 47.3135 201.787 48.4817V51.5191C201.787 52.4537 201.203 53.2714 200.269 53.3883C195.596 54.4397 191.273 56.3088 187.301 58.7621C186.484 59.2294 185.549 59.1125 184.848 58.5284L182.629 56.3088C181.811 55.4911 180.409 55.4911 179.591 56.3088L171.18 64.72C170.362 65.5378 170.362 66.9396 171.18 67.7574L173.4 69.977C174.1 70.678 174.1 71.6125 173.633 72.4303C171.18 76.4023 169.311 80.7247 168.259 85.3976C168.026 86.3322 167.208 86.9163 166.39 86.9163H163.353C162.185 86.9163 161.25 87.8509 161.25 89.0191V100.935C161.25 102.103 162.185 103.038 163.353 103.038H166.39C167.325 103.038 168.143 103.622 168.259 104.556C169.311 109.229 171.18 113.552 173.633 117.524C174.1 118.342 173.984 119.276 173.4 119.977L171.18 122.197C170.362 123.014 170.362 124.416 171.18 125.234L179.591 133.645C180.409 134.463 181.811 134.463 182.629 133.645L184.848 131.426C185.549 130.725 186.484 130.725 187.301 131.192C191.273 133.645 195.596 135.398 200.269 136.566C201.203 136.799 201.787 137.617 201.787 138.435V141.472C201.787 142.641 202.722 143.575 203.89 143.575H215.806C216.974 143.575 217.909 142.641 217.909 141.472V138.435C217.909 137.5 218.493 136.683 219.428 136.566C224.1 135.514 228.423 133.645 232.395 131.192C233.213 130.725 234.147 130.842 234.848 131.426L237.068 133.645C237.886 134.463 239.287 134.463 240.105 133.645L248.516 125.234C249.334 124.416 249.334 123.014 248.516 122.197L246.297 119.977C245.596 119.276 245.596 118.342 246.063 117.524C248.516 113.552 250.386 109.229 251.437 104.556C251.671 103.622 252.488 103.038 253.306 103.038H256.343C257.512 103.038 258.446 102.103 258.446 100.935ZM209.848 128.739C191.157 128.739 176.086 113.669 176.086 94.977C176.086 76.4023 191.157 61.2154 209.848 61.2154C228.54 61.2154 243.61 76.2854 243.61 94.977C243.61 113.552 228.54 128.739 209.848 128.739Z" stroke="#DEE3FC" stroke-width="0.7896" stroke-miterlimit="10"/>
<path d="M313.587 141.472V133.294C313.587 132.476 312.886 131.892 312.185 131.892H310.082C309.498 131.892 308.914 131.425 308.797 130.841C308.096 127.687 306.811 124.649 305.176 121.962C304.825 121.378 304.942 120.794 305.41 120.327L306.928 118.808C307.512 118.224 307.512 117.29 306.928 116.822L301.204 111.098C300.62 110.514 299.685 110.514 299.218 111.098L297.699 112.617C297.232 113.084 296.531 113.084 296.064 112.733C293.377 111.098 290.456 109.813 287.185 109.112C286.601 108.995 286.134 108.411 286.134 107.827V105.724C286.134 104.906 285.433 104.322 284.732 104.322H276.554C275.737 104.322 275.152 105.023 275.152 105.724V107.827C275.152 108.411 274.685 108.995 274.101 109.112C270.947 109.813 267.909 111.098 265.223 112.733C264.638 113.084 264.054 112.967 263.587 112.5L262.068 110.981C261.484 110.397 260.55 110.397 260.082 110.981L254.358 116.705C253.774 117.29 253.774 118.224 254.358 118.691L255.877 120.21C256.344 120.677 256.344 121.378 256.11 121.846C254.475 124.533 253.19 127.453 252.489 130.724C252.372 131.308 251.788 131.776 251.204 131.776H249.101C248.283 131.776 247.699 132.476 247.699 133.177V141.355C247.699 142.173 248.4 142.757 249.101 142.757H251.204C251.788 142.757 252.372 143.224 252.489 143.808C253.19 146.962 254.475 150 256.11 152.687C256.461 153.271 256.344 153.855 255.877 154.322L254.358 155.841C253.774 156.425 253.774 157.36 254.358 157.827L260.082 163.551C260.666 164.135 261.601 164.135 262.068 163.551L263.587 162.033C264.054 161.565 264.755 161.565 265.223 161.799C267.909 163.434 270.83 164.719 274.101 165.42C274.685 165.537 275.152 166.121 275.152 166.705V168.808C275.152 169.626 275.853 170.21 276.554 170.21H284.732C285.55 170.21 286.134 169.509 286.134 168.808V166.705C286.134 166.121 286.601 165.537 287.185 165.42C290.339 164.719 293.377 163.434 295.947 161.799C296.531 161.448 297.115 161.565 297.582 162.033L299.101 163.551C299.685 164.135 300.62 164.135 301.087 163.551L306.811 157.827C307.395 157.243 307.395 156.308 306.811 155.841L305.293 154.322C304.825 153.855 304.825 153.154 305.059 152.687C306.695 150 307.98 147.079 308.681 143.808C308.797 143.224 309.381 142.757 309.966 142.757H312.068C312.886 142.874 313.587 142.29 313.587 141.472ZM280.409 159.112C268.377 159.112 258.681 149.416 258.681 137.383C258.681 125.467 268.377 115.654 280.409 115.654C292.442 115.654 302.138 125.35 302.138 137.383C302.138 149.299 292.442 159.112 280.409 159.112Z" fill="#79A3FF"/>
<path d="M159.964 357.477C162.158 357.477 163.936 355.699 163.936 353.505C163.936 351.312 162.158 349.533 159.964 349.533C157.77 349.533 155.992 351.312 155.992 353.505C155.992 355.699 157.77 357.477 159.964 357.477Z" fill="#407BFF"/>
<path d="M689.87 249.417C692.064 249.417 693.842 247.638 693.842 245.445C693.842 243.251 692.064 241.473 689.87 241.473C687.677 241.473 685.898 243.251 685.898 245.445C685.898 247.638 687.677 249.417 689.87 249.417Z" fill="#407BFF"/>
<path d="M681.925 108.178C684.119 108.178 685.897 106.4 685.897 104.206C685.897 102.013 684.119 100.234 681.925 100.234C679.731 100.234 677.953 102.013 677.953 104.206C677.953 106.4 679.731 108.178 681.925 108.178Z" fill="#407BFF"/>
<path d="M539.75 58.6448C541.105 58.6448 542.203 57.5465 542.203 56.1915C542.203 54.8366 541.105 53.7383 539.75 53.7383C538.395 53.7383 537.297 54.8366 537.297 56.1915C537.297 57.5465 538.395 58.6448 539.75 58.6448Z" fill="#407BFF"/>
<path d="M175.383 23.131C175.383 24.5329 174.215 25.5843 172.93 25.5843C171.528 25.5843 170.477 24.416 170.477 23.131C170.477 21.7291 171.645 20.6777 172.93 20.6777C174.332 20.6777 175.383 21.7291 175.383 23.131Z" fill="#407BFF"/>
<path d="M230.289 175.936C230.289 177.338 229.121 178.389 227.836 178.389C226.434 178.389 225.383 177.221 225.383 175.936C225.383 174.534 226.551 173.482 227.836 173.482C229.238 173.482 230.289 174.534 230.289 175.936Z" fill="#407BFF"/>
<path d="M139.285 357.477C139.285 358.879 138.117 359.93 136.832 359.93C135.43 359.93 134.379 358.762 134.379 357.477C134.379 356.075 135.547 355.023 136.832 355.023C138.234 355.023 139.285 356.075 139.285 357.477Z" fill="#407BFF"/>
<path d="M631.808 359.815C634.002 359.815 635.78 358.037 635.78 355.843C635.78 353.649 634.002 351.871 631.808 351.871C629.614 351.871 627.836 353.649 627.836 355.843C627.836 358.037 629.614 359.815 631.808 359.815Z" fill="#407BFF"/>
<path d="M715.921 359.813C718.115 359.813 719.893 358.035 719.893 355.841C719.893 353.647 718.115 351.869 715.921 351.869C713.727 351.869 711.949 353.647 711.949 355.841C711.949 358.035 713.727 359.813 715.921 359.813Z" fill="#407BFF"/>
<path d="M243.609 16.356C245.802 16.356 247.581 14.5777 247.581 12.3841C247.581 10.1904 245.802 8.41211 243.609 8.41211C241.415 8.41211 239.637 10.1904 239.637 12.3841C239.637 14.5777 241.415 16.356 243.609 16.356Z" fill="#407BFF"/>
<path d="M516.506 192.29C516.506 195.211 514.17 197.547 511.249 197.547C508.329 197.547 505.992 195.211 505.992 192.29C505.992 189.37 508.329 187.033 511.249 187.033C514.17 187.033 516.506 189.37 516.506 192.29Z" fill="#407BFF"/>
<path d="M126.202 126.87C126.202 129.791 123.865 132.127 120.945 132.127C118.024 132.127 115.688 129.791 115.688 126.87C115.688 123.95 118.024 121.613 120.945 121.613C123.748 121.613 126.202 123.95 126.202 126.87Z" fill="#407BFF"/>
<path d="M111.25 47.8979H104.591C104.124 47.8979 103.773 47.5474 103.773 47.0801V40.4213C103.773 39.954 104.124 39.6035 104.591 39.6035H111.25C111.717 39.6035 112.068 39.954 112.068 40.4213V47.0801C112.068 47.5474 111.717 47.8979 111.25 47.8979Z" fill="white"/>
<path d="M122.231 47.8979H115.572C115.104 47.8979 114.754 47.5474 114.754 47.0801V40.4213C114.754 39.954 115.104 39.6035 115.572 39.6035H122.231C122.698 39.6035 123.048 39.954 123.048 40.4213V47.0801C123.048 47.5474 122.698 47.8979 122.231 47.8979Z" fill="white"/>
<path d="M133.211 47.8979H126.552C126.085 47.8979 125.734 47.5474 125.734 47.0801V40.4213C125.734 39.954 126.085 39.6035 126.552 39.6035H133.211C133.678 39.6035 134.029 39.954 134.029 40.4213V47.0801C134.029 47.5474 133.678 47.8979 133.211 47.8979Z" fill="white"/>
<path d="M670.359 336.099H663.701C663.233 336.099 662.883 335.749 662.883 335.281V328.622C662.883 328.155 663.233 327.805 663.701 327.805H670.359C670.827 327.805 671.177 328.155 671.177 328.622V335.281C671.06 335.749 670.71 336.099 670.359 336.099Z" fill="#79A3FF"/>
<path d="M681.34 336.099H674.681C674.214 336.099 673.863 335.749 673.863 335.281V328.622C673.863 328.155 674.214 327.805 674.681 327.805H681.34C681.807 327.805 682.158 328.155 682.158 328.622V335.281C682.041 335.749 681.69 336.099 681.34 336.099Z" fill="#79A3FF"/>
<path d="M692.32 336.099H685.662C685.194 336.099 684.844 335.749 684.844 335.281V328.622C684.844 328.155 685.194 327.805 685.662 327.805H692.32C692.788 327.805 693.138 328.155 693.138 328.622V335.281C693.021 335.749 692.671 336.099 692.32 336.099Z" fill="#79A3FF"/>
<path d="M162.77 331.66H156.111C155.643 331.66 155.293 331.309 155.293 330.842V324.183C155.293 323.716 155.643 323.365 156.111 323.365H162.77C163.237 323.365 163.587 323.716 163.587 324.183V330.842C163.587 331.309 163.237 331.66 162.77 331.66Z" fill="#79A3FF"/>
<path d="M173.75 331.66H167.091C166.624 331.66 166.273 331.309 166.273 330.842V324.183C166.273 323.716 166.624 323.365 167.091 323.365H173.75C174.217 323.365 174.568 323.716 174.568 324.183V330.842C174.568 331.309 174.217 331.66 173.75 331.66Z" fill="#79A3FF"/>
<path d="M184.734 331.66H178.076C177.608 331.66 177.258 331.309 177.258 330.842V324.183C177.258 323.716 177.608 323.365 178.076 323.365H184.734C185.202 323.365 185.552 323.716 185.552 324.183V330.842C185.552 331.309 185.202 331.66 184.734 331.66Z" fill="#79A3FF"/>
<path d="M460.319 402.221H302.258C288.473 402.221 277.375 391.006 277.375 377.338V25.3519C277.375 11.5669 288.59 0.46875 302.258 0.46875H460.319C474.104 0.46875 485.202 11.6837 485.202 25.3519V377.221C485.319 391.006 474.104 402.221 460.319 402.221Z" fill="#3945BA"/>
<path d="M459.501 396.496H303.076C291.044 396.496 281.23 386.683 281.23 374.65V25.8184C281.23 13.7857 291.044 3.97266 303.076 3.97266H459.501C471.534 3.97266 481.347 13.7857 481.347 25.8184V374.65C481.347 386.683 471.651 396.496 459.501 396.496Z" fill="white"/>
<path d="M472.585 25.1177V373.482C472.585 381.66 465.926 388.319 457.749 388.319H304.711C296.534 388.319 289.875 381.66 289.875 373.482V25.1177C289.875 16.9401 296.534 10.2812 304.711 10.2812H330.296C331.697 10.2812 332.982 11.099 333.683 12.3841L336.37 17.7579C337.655 20.2112 340.109 21.8467 342.912 21.8467H419.665C422.468 21.8467 425.039 20.328 426.207 17.7579L428.894 12.3841C429.478 11.099 430.88 10.2812 432.282 10.2812H457.749C466.043 10.3981 472.585 16.9401 472.585 25.1177Z" fill="#EEF3FF"/>
<path d="M413.471 15.5386H351.672C350.27 15.5386 349.102 14.3704 349.102 12.9685C349.102 11.5667 350.27 10.3984 351.672 10.3984H413.471C414.873 10.3984 416.041 11.5667 416.041 12.9685C416.158 14.3704 414.989 15.5386 413.471 15.5386Z" fill="#DEE3FC"/>
<path d="M448.285 376.17H310.669C305.295 376.17 300.855 371.73 300.855 366.357V317.758C300.855 312.385 305.295 307.945 310.669 307.945H448.285C453.659 307.945 458.098 312.385 458.098 317.758V366.357C458.098 371.847 453.776 376.17 448.285 376.17Z" stroke="#698BD1" stroke-miterlimit="10" stroke-linecap="round" stroke-linejoin="round" stroke-dasharray="2.84 2.84"/>
<path d="M441.394 208.997H373.17C369.314 208.997 366.16 205.843 366.16 201.988V168.226C366.16 164.371 369.314 161.217 373.17 161.217H441.394C445.249 161.217 448.403 164.371 448.403 168.226V201.988C448.403 205.843 445.249 208.997 441.394 208.997Z" stroke="#698BD1" stroke-miterlimit="10" stroke-linecap="round" stroke-linejoin="round" stroke-dasharray="2.84 2.84"/>
<path d="M455.994 296.73H315.107C310.434 296.73 306.695 292.992 306.695 288.319V228.857C306.695 224.184 310.434 220.445 315.107 220.445H456.111C460.784 220.445 464.522 224.184 464.522 228.857V288.319C464.406 292.992 460.667 296.73 455.994 296.73Z" fill="#3362CC"/>
<path d="M458.099 222.665V282.128C458.099 286.801 454.361 290.539 449.688 290.539H309.384C304.711 290.539 300.973 286.801 300.973 282.128V222.665C300.973 217.992 304.711 214.254 309.384 214.254H449.804C454.361 214.254 458.099 217.992 458.099 222.665Z" fill="#407BFF"/>
<path d="M355.181 284.347H313.826C310.672 284.347 308.102 281.777 308.102 278.622V237.267C308.102 234.113 310.672 231.543 313.826 231.543H355.181C358.335 231.543 360.905 234.113 360.905 237.267V278.622C360.905 281.777 358.335 284.347 355.181 284.347Z" fill="#EFF8FF"/>
<path d="M404.244 238.319H367.795C366.861 238.319 366.043 237.501 366.043 236.567C366.043 235.632 366.861 234.814 367.795 234.814H404.244C405.178 234.814 405.996 235.632 405.996 236.567C405.996 237.501 405.295 238.319 404.244 238.319Z" fill="#79A3FF"/>
<path d="M387.655 245.446H367.795C366.861 245.446 366.043 244.628 366.043 243.694C366.043 242.759 366.861 241.941 367.795 241.941H387.655C388.59 241.941 389.407 242.759 389.407 243.694C389.407 244.628 388.59 245.446 387.655 245.446Z" fill="#79A3FF"/>
<path d="M448.636 245.446H395.014C394.079 245.446 393.262 244.628 393.262 243.694C393.262 242.759 394.079 241.941 395.014 241.941H448.636C449.57 241.941 450.388 242.759 450.388 243.694C450.388 244.628 449.57 245.446 448.636 245.446Z" fill="#79A3FF"/>
<path d="M398.52 252.571H367.795C366.861 252.571 366.043 251.753 366.043 250.819C366.043 249.884 366.861 249.066 367.795 249.066H398.52C399.454 249.066 400.272 249.884 400.272 250.819C400.272 251.87 399.454 252.571 398.52 252.571Z" fill="#79A3FF"/>
<path d="M424.571 252.571H405.295C404.361 252.571 403.543 251.753 403.543 250.819C403.543 249.884 404.361 249.066 405.295 249.066H424.571C425.506 249.066 426.323 249.884 426.323 250.819C426.323 251.87 425.506 252.571 424.571 252.571Z" fill="#79A3FF"/>
<path d="M448.634 252.571H430.877C429.943 252.571 429.125 251.753 429.125 250.819C429.125 249.884 429.943 249.066 430.877 249.066H448.634C449.569 249.066 450.387 249.884 450.387 250.819C450.387 251.87 449.569 252.571 448.634 252.571Z" fill="#79A3FF"/>
<path d="M448.637 259.813H367.912C366.978 259.813 366.16 258.996 366.16 258.061C366.16 257.126 366.978 256.309 367.912 256.309H448.637C449.571 256.309 450.389 257.126 450.389 258.061C450.389 258.996 449.571 259.813 448.637 259.813Z" fill="#79A3FF"/>
<path d="M412.305 266.94H367.795C366.861 266.94 366.043 266.122 366.043 265.188C366.043 264.253 366.861 263.436 367.795 263.436H412.305C413.239 263.436 414.057 264.253 414.057 265.188C414.057 266.122 413.239 266.94 412.305 266.94Z" fill="#79A3FF"/>
<path d="M448.638 266.94H419.432C418.497 266.94 417.68 266.122 417.68 265.188C417.68 264.253 418.497 263.436 419.432 263.436H448.638C449.572 263.436 450.39 264.253 450.39 265.188C450.39 266.122 449.572 266.94 448.638 266.94Z" fill="#79A3FF"/>
<path d="M393.964 274.067H367.795C366.861 274.067 366.043 273.249 366.043 272.315C366.043 271.38 366.861 270.562 367.795 270.562H393.964C394.898 270.562 395.716 271.38 395.716 272.315C395.716 273.249 394.898 274.067 393.964 274.067Z" fill="#79A3FF"/>
<path d="M427.139 274.067H400.971C400.037 274.067 399.219 273.249 399.219 272.315C399.219 271.38 400.037 270.562 400.971 270.562H427.139C428.074 270.562 428.892 271.38 428.892 272.315C428.892 273.249 428.074 274.067 427.139 274.067Z" fill="#79A3FF"/>
<path d="M448.635 274.067H433.448C432.513 274.067 431.695 273.249 431.695 272.315C431.695 271.38 432.513 270.562 433.448 270.562H448.635C449.569 270.562 450.387 271.38 450.387 272.315C450.387 273.249 449.569 274.067 448.635 274.067Z" fill="#79A3FF"/>
<path d="M404.244 281.309H367.795C366.861 281.309 366.043 280.492 366.043 279.557C366.043 278.622 366.861 277.805 367.795 277.805H404.244C405.178 277.805 405.996 278.622 405.996 279.557C405.996 280.492 405.295 281.309 404.244 281.309Z" fill="#79A3FF"/>
<path d="M448.635 238.319H412.186C411.251 238.319 410.434 237.501 410.434 236.567C410.434 235.632 411.251 234.814 412.186 234.814H448.635C449.569 234.814 450.387 235.632 450.387 236.567C450.387 237.501 449.569 238.319 448.635 238.319Z" fill="#79A3FF"/>
<path d="M458.099 222.665V225.118H300.973V222.665C300.973 217.992 304.711 214.254 309.384 214.254H449.804C454.361 214.254 458.099 217.992 458.099 222.665Z" fill="#3362CC"/>
<path d="M428.542 219.861C428.542 220.912 427.725 221.847 426.556 221.847C425.505 221.847 424.57 221.029 424.57 219.861C424.57 218.81 425.388 217.875 426.556 217.875C427.608 217.992 428.542 218.81 428.542 219.861Z" fill="#DEE3FC"/>
<path d="M438.472 219.861C438.472 220.912 437.654 221.847 436.486 221.847C435.318 221.847 434.5 221.029 434.5 219.861C434.5 218.81 435.318 217.875 436.486 217.875C437.654 217.875 438.472 218.81 438.472 219.861Z" fill="#DEE3FC"/>
<path d="M448.402 219.861C448.402 220.912 447.584 221.847 446.416 221.847C445.364 221.847 444.43 221.029 444.43 219.861C444.43 218.81 445.247 217.875 446.416 217.875C447.584 217.992 448.402 218.81 448.402 219.861Z" fill="#DEE3FC"/>
<path d="M349.572 208.997H318.497C313.941 208.997 310.086 205.258 310.086 200.586V169.511C310.086 164.955 313.824 161.1 318.497 161.1H349.572C354.128 161.1 357.983 164.838 357.983 169.511V200.586C357.983 205.258 354.245 208.997 349.572 208.997Z" stroke="#495AD6" stroke-width="0.8956" stroke-miterlimit="10"/>
<path d="M326.557 178.156L319.664 185.049L326.673 191.941" stroke="#495AD6" stroke-width="1.6716" stroke-miterlimit="10" stroke-linecap="round" stroke-linejoin="round"/>
<path d="M341.507 178.156L348.4 185.049L341.391 191.941" stroke="#495AD6" stroke-width="1.6716" stroke-miterlimit="10" stroke-linecap="round" stroke-linejoin="round"/>
<path d="M337.304 178.156L330.762 191.941" stroke="#495AD6" stroke-width="1.6716" stroke-miterlimit="10" stroke-linecap="round" stroke-linejoin="round"/>
<path d="M458.098 44.3939V141.707C458.098 146.964 453.776 151.286 448.519 151.286H310.435C305.178 151.286 300.855 146.964 300.855 141.707V44.3939C300.855 39.1369 305.178 34.8145 310.435 34.8145H448.519C453.893 34.8145 458.098 39.1369 458.098 44.3939Z" fill="#79A3FF"/>
<path d="M426.323 88.4357C438.905 88.4357 449.104 78.2366 449.104 65.6554C449.104 53.0741 438.905 42.875 426.323 42.875C413.742 42.875 403.543 53.0741 403.543 65.6554C403.543 78.2366 413.742 88.4357 426.323 88.4357Z" fill="#EFF8FF"/>
<path d="M393.379 151.287H310.435C305.178 151.287 300.855 146.964 300.855 141.707V126.403L337.07 63.5529C338.94 60.2819 343.729 60.2819 345.598 63.5529L373.052 110.983L393.379 146.146C394.43 147.899 394.197 149.768 393.379 151.287Z" fill="#EFF8FF"/>
<path d="M429.01 151.286H349.805L373.052 110.982L385.552 89.2529C387.305 86.3324 391.51 86.3324 393.263 89.2529L429.01 151.286Z" fill="#ECF2FF"/>
<path d="M586.25 332.01H525.152V423.832H586.25V332.01Z" fill="#3362CC"/>
<path d="M586.237 423.803H609.602V331.98H586.237V423.803Z" fill="#407BFF"/>
<path d="M606.696 335.516H589.523V338.436H606.696V335.516Z" fill="#EFF8FF"/>
<path d="M606.696 341.824H589.523V344.745H606.696V341.824Z" fill="#EFF8FF"/>
<path d="M606.696 348.133H589.523V351.053H606.696V348.133Z" fill="#EFF8FF"/>
<path d="M606.696 354.441H589.523V357.362H606.696V354.441Z" fill="#EFF8FF"/>
<path d="M606.696 360.75H589.523V363.671H606.696V360.75Z" fill="#EFF8FF"/>
<path d="M606.696 367.059H589.523V369.979H606.696V367.059Z" fill="#EFF8FF"/>
<path d="M606.696 373.25H589.523V376.171H606.696V373.25Z" fill="#EFF8FF"/>
<path d="M606.696 379.559H589.523V382.479H606.696V379.559Z" fill="#EFF8FF"/>
<path d="M606.696 385.867H589.523V388.788H606.696V385.867Z" fill="#EFF8FF"/>
<path d="M606.696 392.174H589.523V395.094H606.696V392.174Z" fill="#EFF8FF"/>
<path d="M606.696 398.482H589.523V401.403H606.696V398.482Z" fill="#EFF8FF"/>
<path d="M606.696 404.791H589.523V407.712H606.696V404.791Z" fill="#EFF8FF"/>
<path d="M606.696 411.1H589.523V414.02H606.696V411.1Z" fill="#EFF8FF"/>
<path d="M606.696 417.291H589.523V420.212H606.696V417.291Z" fill="#EFF8FF"/>
<path d="M515.222 423.832H546.297C546.297 423.832 548.049 418.342 544.311 411.449C544.311 411.449 541.858 413.435 534.381 412.15C534.381 412.15 531.227 414.837 529.124 415.888C526.788 416.823 514.405 419.276 515.222 423.832Z" fill="#281616"/>
<path d="M517.326 336.332C519.312 348.248 528.541 388.785 532.512 412.617C539.755 413.201 543.26 412.383 545.129 412.033C544.779 403.738 544.078 383.762 544.078 375C544.195 360.164 544.896 340.771 538.354 330.023L516.508 331.776C516.625 332.944 516.741 333.879 516.858 334.58C517.092 335.164 517.209 335.748 517.326 336.332Z" fill="#263238"/>
<path d="M459.031 423.832H490.106C490.106 423.832 491.858 418.342 488.12 411.449C488.12 411.449 485.666 413.435 478.19 412.15C478.19 412.15 475.036 414.837 472.933 415.888C470.596 416.823 458.213 419.276 459.031 423.832Z" fill="#281616"/>
<path d="M477.141 411.917C483.099 413.435 487.421 413.202 489.407 412.968C491.042 403.389 493.613 382.244 496.066 372.314C499.687 356.893 503.309 335.749 500.739 328.155L479.243 322.781C479.127 323.482 477.374 388.319 477.141 411.917Z" fill="#263238"/>
<path d="M562.769 300.702C562.302 296.496 561.835 293.342 561.835 293.342L537.769 299.183L517.325 303.856C509.732 305.491 500.62 307.594 492.559 309.346C483.564 311.449 477.489 318.225 479.475 327.337L481.694 338.318C494.311 338.202 553.891 332.477 558.914 329.907C564.872 327.103 566.624 316.823 562.769 300.702Z" fill="#263238"/>
<path d="M598.75 300.703C598.283 296.497 596.297 291.941 596.297 291.941L573.867 299.301L553.423 303.974C545.83 305.61 536.717 307.712 528.657 309.465C519.661 311.568 513.587 318.343 515.573 327.455L517.792 338.437C530.409 338.32 583.33 336.451 595.012 330.026C600.619 326.871 602.488 316.825 598.75 300.703Z" fill="#263238"/>
<path d="M531.46 266.24C531.46 266.24 542.09 261.45 545.128 266.24C546.763 268.927 545.595 273.834 541.974 275.82C538.352 277.922 517.791 286.567 498.282 291.474C498.282 291.474 497.464 288.787 496.062 285.983C496.062 285.983 504.824 282.362 513.469 276.287C522.114 270.212 531.46 266.24 531.46 266.24Z" fill="#E5918F"/>
<path d="M534.03 232.945L524.918 269.511C524.918 269.511 525.853 278.74 535.198 274.184C544.544 269.628 550.736 240.539 550.736 240.539L534.03 232.945Z" fill="#E5918F"/>
<path d="M549.571 253.39C548.403 253.156 547.351 252.806 546.3 252.455C545.249 252.105 544.197 251.871 543.263 251.521C534.618 248.483 529.828 244.979 529.828 244.979C532.515 233.063 535.903 225.119 538.823 219.862C538.94 219.745 538.94 219.628 539.057 219.511C539.174 219.395 539.174 219.278 539.291 219.161C540.809 216.591 543.146 214.371 545.599 212.502C545.833 212.268 546.066 212.152 546.417 211.918L547.468 230.96L547.702 232.946L549.571 253.39Z" fill="white"/>
<path d="M549.566 253.39C548.398 253.156 547.347 252.806 546.295 252.455C545.244 252.105 544.192 251.871 543.258 251.521C545.127 238.67 546.762 230.609 546.762 230.609L547.697 232.946L549.566 253.39Z" fill="#C7E5F2"/>
<path d="M603.656 220.328C603.423 225.936 602.488 235.048 601.554 244.16C601.32 247.08 600.969 250.001 600.853 252.805C600.736 254.557 598.049 263.903 597.932 265.538C597.465 273.482 593.61 279.44 597.231 291.59C598.166 294.51 598.283 296.029 598.283 297.197C598.283 298.015 597.231 298.95 596.764 299.183C595.245 300.118 592.208 300.702 588.469 301.169C581.226 302.104 571.413 302.221 565.455 302.221C557.511 302.221 545.596 300.936 544.077 298.95C542.675 297.08 543.96 294.393 544.661 290.772C547.582 274.183 546.53 265.421 546.413 253.506C546.413 253.155 546.413 252.921 546.413 252.571C546.063 234.113 544.895 218.225 545.712 212.501C545.946 212.267 546.18 212.15 546.53 211.917C547.815 211.099 548.983 210.281 550.268 209.58C550.385 209.58 550.502 209.464 550.619 209.347C550.969 209.113 551.32 208.996 551.67 208.763C551.787 208.646 551.904 208.646 552.138 208.529C554.825 207.244 558.797 205.842 561.016 205.024C561.25 204.907 561.6 204.791 561.834 204.791C563.937 204.674 566.273 204.674 568.726 204.674C570.829 204.791 574.217 205.024 577.839 205.492C581.927 205.959 586.367 206.777 589.871 207.711C589.871 207.711 589.871 207.711 589.988 207.711C590.689 207.945 595.012 209.58 599.451 214.37C600.736 216.006 602.255 217.992 603.656 220.328Z" fill="white"/>
<path d="M597.233 291.589C598.168 294.51 598.284 296.028 598.284 297.197C598.284 298.014 597.233 298.949 596.766 299.183C595.247 300.117 592.21 300.701 588.471 301.168C589.99 300.935 592.677 298.598 592.677 296.379C592.677 294.86 590.691 284.58 591.275 277.921C591.859 271.262 592.911 260.748 590.808 252.22C588.705 243.809 586.836 232.594 586.836 232.594L598.401 239.603C598.401 239.603 599.92 241.706 601.556 244.276C601.322 247.197 600.971 250.117 600.855 252.921C600.621 254.556 593.495 279.44 597.233 291.589Z" fill="#C7E5F2"/>
<path d="M546.18 171.496C546.18 171.496 547.231 183.646 551.203 184.463C555.175 185.281 554.24 180.141 554.24 180.141L553.656 174.417L546.18 171.496Z" fill="#002C54"/>
<path d="M564.755 215.422C556.928 214.488 559.848 206.777 560.9 205.025C561.133 204.908 562.535 204.558 562.652 204.441C562.886 204.207 563.119 203.974 563.236 203.506C564.054 201.52 563.703 197.432 563.587 197.198V196.497C563.703 196.03 563.82 195.562 563.937 195.095L568.026 191.824L576.787 184.932C576.787 184.932 574.451 196.497 576.32 203.74C576.437 204.324 576.787 205.025 577.488 205.492C577.722 205.609 577.956 205.726 578.306 205.843C580.643 206.894 577.605 216.941 564.755 215.422Z" fill="#E5918F"/>
<path d="M571.646 192.291C571.646 192.291 571.529 200.001 563.234 203.506C564.052 201.52 563.702 197.431 563.585 197.198L567.09 194.511L571.646 192.291Z" fill="#CC6362"/>
<path d="M548.047 173.131C548.047 173.131 549.916 198.248 556.692 200.468C556.692 200.468 565.337 201.286 571.528 192.874C573.281 190.421 575.617 189.954 576.318 187.033C577.486 182.36 579.239 173.599 577.019 168.342C574.098 160.865 548.397 154.907 548.047 173.131Z" fill="#E5918F"/>
<path d="M577.255 164.253C577.138 159.697 572.466 157.945 572.466 157.945C567.91 155.842 558.33 156.777 548.4 158.88C546.064 159.347 543.143 157.945 541.508 159.113C539.522 160.515 541.508 166.707 541.508 166.707C545.363 178.272 559.382 174.534 563.587 173.015C564.639 175.936 564.405 180.141 566.975 182.244C568.377 183.412 570.83 183.529 573.4 183.062C573.751 183.646 574.919 184.113 575.153 184.931C575.97 187.618 575.853 191.824 575.853 195.095L577.022 194.511C577.138 193.693 589.405 164.604 577.255 164.253Z" fill="#002C54"/>
<path d="M555.057 181.661C555.407 183.764 554.356 185.633 552.72 185.984C551.085 186.217 549.449 184.815 549.099 182.713C548.748 180.61 549.8 178.741 551.435 178.39C553.071 178.04 554.706 179.558 555.057 181.661Z" stroke="white" stroke-width="0.501" stroke-miterlimit="10"/>
<path d="M563.236 180.142C563.587 182.245 562.535 184.114 560.9 184.464C559.264 184.698 557.629 183.296 557.278 181.193C556.928 179.09 557.979 177.221 559.615 176.871C561.367 176.52 562.886 178.039 563.236 180.142Z" stroke="white" stroke-width="0.501" stroke-miterlimit="10"/>
<path d="M555.055 181.66C555.055 181.66 555.405 181.076 557.274 181.193" stroke="white" stroke-width="0.501" stroke-miterlimit="10"/>
<path d="M563.352 180.61L570.361 179.441" stroke="white" stroke-width="0.501" stroke-miterlimit="10"/>
<path d="M570.948 188.436C575.738 190.305 577.257 178.39 572.701 177.805C569.196 177.455 569.079 182.245 569.079 182.245C569.079 182.245 568.145 187.385 570.948 188.436Z" fill="#E5918F"/>
<g opacity="0.5">
<g opacity="0.5">
<path opacity="0.5" d="M572.463 179.674C572.463 179.674 572.112 180.024 571.879 180.492C571.645 181.076 571.295 181.777 571.295 182.478C571.295 182.828 571.295 183.295 571.295 183.646C571.295 183.996 571.295 184.347 571.411 184.697C571.411 185.048 571.528 185.281 571.528 185.515C571.528 185.749 571.528 185.865 571.528 185.865C571.528 185.865 571.411 185.749 571.411 185.632C571.295 185.515 571.178 185.281 571.061 184.931C570.944 184.58 570.827 184.23 570.711 183.879C570.594 183.412 570.594 183.062 570.594 182.594C570.594 182.127 570.711 181.66 570.944 181.309C571.178 180.959 571.411 180.608 571.645 180.375C571.996 179.674 572.463 179.674 572.463 179.674Z" fill="#CC6362"/>
</g>
<g opacity="0.5">
<path opacity="0.5" d="M573.281 181.895C573.281 181.895 573.047 181.895 572.813 182.011C572.58 182.128 572.229 182.245 571.996 182.595C571.762 182.829 571.528 183.18 571.528 183.413C571.411 183.647 571.411 183.881 571.411 183.881L570.594 183.647C570.594 183.647 570.711 183.413 570.827 183.18C571.061 182.946 571.295 182.595 571.762 182.362C572.112 182.128 572.58 182.011 572.813 182.011C573.047 181.895 573.281 181.895 573.281 181.895Z" fill="#CC6362"/>
</g>
</g>
<path d="M617.325 271.145C615.222 273.598 607.162 275.468 603.307 271.963C602.138 270.912 600.736 267.991 599.335 264.486C595.947 255.374 592.676 241.823 592.676 241.823L610.666 232.594C610.666 232.594 613.003 242.991 614.989 252.921C614.989 252.921 614.989 253.038 614.989 253.154C615.69 256.309 616.274 259.463 616.741 262.15C616.741 262.267 616.741 262.267 616.741 262.383C617.325 265.538 617.676 268.809 617.325 271.145Z" fill="#E5918F"/>
<path d="M585.898 229.207C587.651 236.45 593.141 250.235 593.141 250.235C596.997 250.819 602.137 250.118 606.342 248.599C611.249 246.847 614.754 243.109 614.754 243.109C614.754 243.109 611.132 232.945 607.861 225.585C604.94 219.043 603.188 216.59 601.903 215.188C600.034 213.202 596.88 210.866 594.777 209.814L585.898 229.207Z" fill="white"/>
<path d="M608.683 233.88L598.052 229.323L589.758 207.828C589.758 207.828 591.277 208.295 593.262 209.113C593.262 209.113 593.379 209.113 593.496 209.23C593.496 209.23 593.613 209.23 593.613 209.347C595.365 210.165 602.375 214.253 607.164 229.207C607.164 229.323 607.281 229.44 607.281 229.557C607.748 231.309 608.216 232.711 608.333 233.412C608.333 233.529 608.333 233.529 608.333 233.646C608.566 233.646 608.683 233.763 608.683 233.88Z" fill="white"/>
<path d="M617.327 271.147C617.21 272.432 616.86 273.483 616.159 273.717C616.042 273.833 614.523 274.651 614.523 274.768C612.304 276.17 608.332 278.389 603.308 280.609C591.276 285.866 573.752 291.824 564.29 294.628C564.29 294.628 563.355 291.941 561.953 289.137C561.953 289.137 570.481 285.165 578.892 278.74C587.304 272.315 599.453 264.488 599.453 264.488L602.491 260.866C602.491 260.866 613.355 250.819 615.107 252.922C615.107 252.922 615.107 253.039 615.107 253.156C615.341 254.207 616.276 258.062 616.86 262.151C616.86 262.268 616.86 262.268 616.86 262.385C617.327 265.539 617.678 268.81 617.327 271.147Z" fill="#E5918F"/>
<path d="M563.12 288.437C563.12 288.437 561.017 289.722 558.798 289.254C557.629 289.021 557.162 288.554 556.227 288.32C555.293 288.203 552.956 287.853 551.788 287.268C550.62 286.684 550.153 286.684 550.153 287.853C550.153 289.021 552.489 290.072 553.073 290.306C553.657 290.656 554.475 291.708 554.592 291.825C554.709 291.941 550.737 294.044 549.685 293.577C549.685 293.577 549.335 294.511 549.569 295.096C549.802 295.68 550.503 295.796 550.62 296.03C550.737 296.264 550.386 296.848 550.62 297.315C550.737 297.782 551.555 297.782 551.788 298.367C552.022 299.068 551.788 299.068 552.022 299.768C552.256 300.469 553.19 300.586 553.307 300.937C553.424 301.287 553.424 301.754 553.774 301.988C554.125 302.222 557.629 301.053 559.031 300.586C560.316 300.002 563.704 295.096 567.559 293.343L563.12 288.437Z" fill="#E5918F"/>
<path d="M581.11 310.632H553.656V307.945H581.11C581.81 307.945 582.395 308.529 582.395 309.23C582.511 310.048 581.927 310.632 581.11 310.632Z" fill="#375F84"/>
<path d="M566.272 310.632H497.58C496.762 310.632 496.061 310.048 495.828 309.347L481.809 258.763C481.459 257.594 482.393 256.543 483.561 256.543H549.916C551.435 256.543 552.837 257.594 553.187 259.113L567.206 309.58C567.44 310.048 566.972 310.632 566.272 310.632Z" fill="#375F84"/>
<path d="M563.818 310.632H495.127C494.309 310.632 493.608 310.048 493.375 309.347L479.356 258.763C479.005 257.594 479.94 256.543 481.108 256.543H547.58C549.099 256.543 550.501 257.594 550.851 259.113L564.87 309.58C564.987 310.048 564.519 310.632 563.818 310.632Z" fill="#3362CC"/>
<path d="M291.391 277.921L299.335 269.744C299.335 269.744 299.568 266.122 300.035 265.304C300.503 264.487 301.554 261.683 302.138 261.332C302.722 260.982 303.774 261.332 303.774 261.332C303.774 261.332 304.825 260.982 305.409 260.982C305.877 260.982 306.811 261.449 306.811 261.449C306.811 261.449 307.979 261.332 308.447 261.332C308.914 261.332 309.148 261.449 309.148 261.449C309.148 261.449 311.017 259.23 311.951 258.529C312.886 257.828 314.288 256.426 314.755 256.426C315.106 256.426 315.339 257.127 314.989 257.828C314.755 258.529 313.47 259.814 313.47 259.814L309.849 265.304C309.849 265.304 310.433 265.071 310.783 264.837C311.134 264.603 313.353 262.617 313.47 262.501C313.587 262.384 314.638 261.8 315.222 262.384C315.807 262.968 311.367 268.342 310.666 269.043C309.965 269.744 305.993 271.73 305.993 271.73C305.993 271.73 301.788 279.323 301.321 279.907C300.97 280.491 291.391 277.921 291.391 277.921Z" fill="#E49191"/>
<path d="M298.867 240.187C298.867 240.187 294.428 266.004 290.223 266.589C290.223 266.589 273.517 267.289 269.779 246.962C266.508 229.439 279.475 225.584 285.55 226.986C291.741 228.388 300.269 229.205 298.867 240.187Z" fill="#E49191"/>
<path d="M284.151 262.501C284.151 262.501 281.815 265.655 280.997 273.249C280.997 273.249 273.988 274.3 267.562 270.912C267.562 270.912 271.067 260.165 271.418 248.482" fill="#E49191"/>
<path d="M279.477 222.664C270.365 224.65 271.066 230.374 271.066 230.374C266.744 231.426 265.926 233.178 265.926 241.122C265.926 249.066 268.846 258.529 270.365 259.23C271.884 260.047 280.879 260.047 281.58 259.814C282.281 259.58 285.435 252.337 284.734 251.052C284.033 249.767 284.734 244.744 286.837 244.627C288.94 244.393 288.473 247.664 288.473 247.664L290.225 247.314L291.51 244.043C303.543 244.744 306.697 230.959 306.697 230.959C303.893 228.973 288.589 220.678 279.477 222.664Z" fill="#002C54"/>
<path d="M178.074 397.079L187.303 398.364L184.266 409.112L174.219 406.542C174.219 406.542 170.13 401.051 176.322 396.962C176.555 396.846 177.607 396.962 178.074 397.079Z" fill="#E5918F"/>
<path d="M247 369.394L233.332 328.155C233.332 328.155 229.243 326.637 227.141 328.155C227.141 328.155 213.005 335.749 214.524 357.478C215.692 373.833 219.08 391.59 220.482 398.716L184.15 397.431C184.15 397.431 179.711 402.805 182.515 409.698C182.515 409.698 228.192 421.964 234.617 423.132C239.874 424.067 245.599 424.768 248.286 422.431C253.192 418.226 247 369.394 247 369.394Z" fill="#263238"/>
<path d="M221.066 397.079L230.295 398.364L227.258 409.112L217.211 406.542C217.211 406.542 213.122 401.051 219.314 396.962C219.664 396.846 220.599 396.962 221.066 397.079Z" fill="#E5918F"/>
<path d="M217.679 402.687C217.445 404.79 219.314 406.776 218.964 407.243C218.614 407.827 212.422 418.224 212.422 418.224C212.422 418.224 217.095 420.21 216.394 423.248H204.478C204.478 423.248 201.324 420.444 201.441 416.472C201.441 416.472 202.258 411.916 204.361 407.827C206.464 403.738 211.254 394.509 211.254 394.509C211.254 394.509 212.656 393.925 215.226 394.626C218.146 395.444 220.95 397.196 220.95 397.196C220.95 397.196 218.263 397.43 217.679 402.687Z" fill="#3362CC"/>
<path d="M312.773 413.785C309.852 402.804 282.282 356.192 272.936 343.575C253.778 335.28 233.334 328.154 233.334 328.154C224.922 330.14 220.717 347.196 225.507 358.528C228.778 366.355 249.689 385.865 262.422 397.43H227.025C227.025 397.43 222.82 403.622 226.675 409.58C226.675 409.58 285.553 423.014 290.694 423.715C295.834 424.416 307.399 423.715 307.399 423.715C307.399 423.715 315.226 422.897 312.773 413.785Z" fill="#263238"/>
<path d="M174.687 402.687C174.453 404.79 176.322 406.776 175.972 407.243C175.621 407.827 169.43 418.224 169.43 418.224C169.43 418.224 174.103 420.21 173.402 423.248H161.486C161.486 423.248 158.332 420.444 158.448 416.472C158.448 416.472 159.266 411.916 161.369 407.827C163.472 403.738 168.262 394.509 168.262 394.509C168.262 394.509 169.663 393.925 172.234 394.626C175.154 395.444 177.958 397.196 177.958 397.196C177.958 397.196 175.271 397.43 174.687 402.687Z" fill="#3362CC"/>
<path d="M357.164 269.977L338.122 303.388L324.57 289.836L313.355 306.542L316.626 308.061L315.458 308.995C315.458 308.995 341.743 321.729 344.898 318.925C348.052 316.121 362.655 273.598 362.655 273.598L357.164 269.977Z" fill="#E49191"/>
<path d="M326.908 291.939C326.908 291.939 323.286 307.126 316.16 314.253L297.819 307.243C297.819 307.243 289.291 321.612 280.997 332.594C277.843 336.799 276.674 342.757 272.936 343.575C272.702 343.458 272.469 343.458 272.235 343.341C262.071 340.304 247.001 343.575 234.618 338.902C220.95 333.762 223.52 330.958 223.52 330.958C223.52 330.958 231.814 316.005 236.604 300.117C238.707 293.108 240.226 286.566 241.16 281.542C242.913 272.547 250.156 265.538 259.151 264.252C259.268 264.252 259.385 264.252 259.501 264.252C269.899 262.967 297.118 266.122 302.375 268.458C307.632 270.561 326.908 291.939 326.908 291.939Z" fill="#79A3FF"/>
<path d="M297.817 307.242C297.817 307.242 289.289 321.612 280.994 332.593C277.84 336.798 276.672 342.756 272.934 343.574C274.569 342.99 277.373 334.345 278.307 332.359C279.242 330.373 280.878 328.504 284.265 321.611C287.653 314.836 292.209 304.789 292.209 304.789L297.817 307.242Z" fill="#5996EF"/>
<path d="M262.422 397.429C262.422 397.429 262.656 397.313 263.24 397.313C263.707 397.313 264.525 397.196 265.342 397.079C267.095 396.962 269.431 397.079 271.768 397.429C272.936 397.546 274.104 397.78 275.156 398.014C276.207 398.247 277.258 398.598 278.076 398.831C278.894 399.065 279.595 399.415 280.062 399.649C280.529 399.883 280.763 400 280.763 400C280.763 400 280.413 400 279.945 399.883C279.478 399.766 278.777 399.649 277.842 399.532C276.09 399.299 273.87 398.831 271.534 398.598C270.366 398.364 269.198 398.247 268.146 398.13C267.095 398.014 266.043 397.897 265.226 397.78C263.59 397.546 262.422 397.429 262.422 397.429Z" fill="black"/>
<path d="M371.3 257.711C370.949 257.711 369.08 259.23 368.146 260.048L369.197 257.945C369.197 257.945 370.599 256.543 371.183 255.842C371.65 255.024 371.417 254.323 371.066 254.323C370.833 254.323 369.08 255.608 368.029 256.426L368.262 255.959C368.262 255.959 369.664 254.557 370.248 253.856C370.716 253.038 370.482 252.337 370.132 252.337C369.781 252.337 366.393 255.024 366.393 255.024L364.758 257.127L365.926 254.791C365.926 254.791 366.51 253.973 366.977 253.155C367.445 252.337 367.094 252.104 366.861 251.753C366.627 251.519 364.407 253.155 363.823 253.739C363.239 254.44 361.487 257.127 361.37 257.477L359.501 261.333C359.384 260.164 359.15 258.295 359.033 257.127C358.8 255.375 357.281 255.024 357.164 255.842C357.164 256.66 356.23 260.865 356.463 263.085C356.697 265.305 357.047 266.823 357.164 268.108C357.281 269.393 355.996 271.963 355.996 271.963C355.996 271.963 361.253 275.234 362.188 274.3C363.005 273.365 364.875 271.146 365.809 269.627C367.094 267.641 367.912 264.954 367.912 264.954L369.547 261.449C369.547 261.449 370.949 260.048 371.533 259.347C372.001 258.412 371.767 257.711 371.3 257.711Z" fill="#E49191"/>
<path d="M674.803 151.285H612.77C608.798 151.285 605.527 154.556 605.527 158.528V173.131C605.527 176.752 608.214 179.79 611.836 180.257C612.303 180.374 612.77 180.724 612.77 181.309V189.369C612.77 189.837 613.354 190.07 613.588 189.603L619.897 180.724C620.13 180.491 620.364 180.257 620.714 180.257H674.686C678.658 180.257 681.929 176.986 681.929 173.014V158.411C681.929 154.439 678.775 151.285 674.803 151.285Z" stroke="white" stroke-width="0.8956" stroke-miterlimit="10"/>
<path d="M622.235 165.77C622.235 167.055 621.184 168.106 619.899 168.106C618.614 168.106 617.562 167.055 617.562 165.77C617.562 164.485 618.614 163.434 619.899 163.434C621.184 163.434 622.235 164.485 622.235 165.77Z" stroke="white" stroke-width="0.8956" stroke-miterlimit="10"/>
<path d="M634.149 165.77C634.149 167.055 633.098 168.106 631.813 168.106C630.528 168.106 629.477 167.055 629.477 165.77C629.477 164.485 630.528 163.434 631.813 163.434C633.098 163.434 634.149 164.485 634.149 165.77Z" stroke="white" stroke-width="0.8956" stroke-miterlimit="10"/>
<path d="M646.185 165.77C646.185 167.055 645.133 168.106 643.848 168.106C642.563 168.106 641.512 167.055 641.512 165.77C641.512 164.485 642.563 163.434 643.848 163.434C645.016 163.434 646.185 164.485 646.185 165.77Z" stroke="white" stroke-width="0.8956" stroke-miterlimit="10"/>
<path d="M658.103 165.77C658.103 167.055 657.051 168.106 655.766 168.106C654.481 168.106 653.43 167.055 653.43 165.77C653.43 164.485 654.481 163.434 655.766 163.434C657.051 163.434 658.103 164.485 658.103 165.77Z" stroke="white" stroke-width="0.8956" stroke-miterlimit="10"/>
<path d="M670.017 165.77C670.017 167.055 668.965 168.106 667.68 168.106C666.395 168.106 665.344 167.055 665.344 165.77C665.344 164.485 666.395 163.434 667.68 163.434C668.965 163.434 670.017 164.485 670.017 165.77Z" stroke="white" stroke-width="0.8956" stroke-miterlimit="10"/>
<path d="M184.965 215.422H246.998C250.97 215.422 254.241 218.693 254.241 222.665V237.268C254.241 240.889 251.554 243.927 247.932 244.394C247.465 244.511 246.998 244.861 246.998 245.445V253.506C246.998 253.973 246.414 254.207 246.18 253.74L239.872 244.861C239.638 244.627 239.404 244.394 239.054 244.394H185.082C181.11 244.394 177.839 241.123 177.839 237.151V222.548C177.722 218.693 180.993 215.422 184.965 215.422Z" stroke="white" stroke-width="0.8956" stroke-miterlimit="10"/>
<path d="M237.422 229.907C237.422 231.192 238.473 232.243 239.758 232.243C241.043 232.243 242.095 231.192 242.095 229.907C242.095 228.622 241.043 227.57 239.758 227.57C238.473 227.57 237.422 228.622 237.422 229.907Z" stroke="white" stroke-width="0.8956" stroke-miterlimit="10"/>
<path d="M225.508 229.907C225.508 231.192 226.559 232.243 227.844 232.243C229.129 232.243 230.181 231.192 230.181 229.907C230.181 228.622 229.129 227.57 227.844 227.57C226.559 227.57 225.508 228.622 225.508 229.907Z" stroke="white" stroke-width="0.8956" stroke-miterlimit="10"/>
<path d="M213.59 229.907C213.59 231.192 214.641 232.243 215.926 232.243C217.211 232.243 218.263 231.192 218.263 229.907C218.263 228.622 217.211 227.57 215.926 227.57C214.641 227.57 213.59 228.622 213.59 229.907Z" stroke="white" stroke-width="0.8956" stroke-miterlimit="10"/>
<path d="M201.672 229.907C201.672 231.192 202.723 232.243 204.008 232.243C205.293 232.243 206.345 231.192 206.345 229.907C206.345 228.622 205.293 227.57 204.008 227.57C202.723 227.57 201.672 228.622 201.672 229.907Z" stroke="white" stroke-width="0.8956" stroke-miterlimit="10"/>
<path d="M189.641 229.907C189.641 231.192 190.692 232.243 191.977 232.243C193.262 232.243 194.314 231.192 194.314 229.907C194.314 228.622 193.262 227.57 191.977 227.57C190.809 227.57 189.641 228.622 189.641 229.907Z" stroke="white" stroke-width="0.8956" stroke-miterlimit="10"/>
<path d="M559.268 117.525H446.301C440.109 117.525 434.969 112.502 434.969 106.193C434.969 100.002 439.992 94.8613 446.301 94.8613H559.268C565.459 94.8613 570.6 99.8847 570.6 106.193C570.6 112.385 565.576 117.525 559.268 117.525Z" fill="white" stroke="#3362CC" stroke-width="0.8956" stroke-miterlimit="10"/>
<path d="M557.635 105.376C557.635 108.647 554.948 111.334 551.677 111.334C548.406 111.334 545.719 108.647 545.719 105.376C545.719 102.105 548.406 99.418 551.677 99.418C554.948 99.418 557.635 102.105 557.635 105.376Z" stroke="#3362CC" stroke-width="1.6716" stroke-miterlimit="10"/>
<path d="M555.883 109.699L559.154 112.97" stroke="#3362CC" stroke-width="1.6716" stroke-miterlimit="10" stroke-linecap="round"/>
<path d="M388.118 424.3H359.73C354.706 424.3 350.734 420.212 350.734 415.305V386.917C350.734 381.894 354.823 377.922 359.73 377.922H388.118C393.141 377.922 397.113 382.011 397.113 386.917V415.305C397.113 420.328 393.141 424.3 388.118 424.3Z" fill="#234CA9"/>
<path d="M379.707 424.3H351.32C346.296 424.3 342.324 420.212 342.324 415.305V386.917C342.324 381.894 346.413 377.922 351.32 377.922H379.707C384.731 377.922 388.703 382.011 388.703 386.917V415.305C388.703 420.328 384.614 424.3 379.707 424.3Z" fill="#3362CC"/>
<path d="M359.963 392.407L373.281 400.117C374.098 400.584 374.098 401.752 373.281 402.22L359.963 409.93C359.145 410.397 358.094 409.813 358.094 408.879V393.458C358.094 392.523 359.145 391.939 359.963 392.407Z" fill="white"/>
<path d="M682.16 424.3H645.01C638.468 424.3 633.211 419.043 633.211 412.501V375.352C633.211 368.81 638.468 363.553 645.01 363.553H682.16C688.702 363.553 693.959 368.81 693.959 375.352V412.501C693.959 419.043 688.702 424.3 682.16 424.3Z" fill="#3362CC"/>
<path d="M671.062 424.3H633.912C627.37 424.3 622.113 419.043 622.113 412.501V375.352C622.113 368.81 627.37 363.553 633.912 363.553H671.062C677.604 363.553 682.861 368.81 682.861 375.352V412.501C682.861 419.043 677.604 424.3 671.062 424.3Z" fill="#407BFF"/>
<path d="M659.845 378.507C659.845 382.479 656.574 385.75 652.602 385.75C648.63 385.75 645.359 382.479 645.359 378.507C645.359 374.535 648.63 371.264 652.602 371.264C656.574 371.264 659.845 374.535 659.845 378.507Z" fill="white"/>
<path d="M667.675 403.272V414.02C667.675 414.955 666.857 415.772 665.922 415.772H639.053C638.119 415.772 637.301 414.955 637.301 414.02V403.272C637.301 394.861 644.076 388.085 652.488 388.085C660.899 387.969 667.675 394.861 667.675 403.272Z" fill="white"/>
<path d="M516.74 130.491H492.909C491.974 130.491 491.156 129.673 491.156 128.739C491.156 127.804 491.974 126.986 492.909 126.986H516.74C517.675 126.986 518.493 127.804 518.493 128.739C518.609 129.673 517.792 130.491 516.74 130.491Z" fill="#F0F4FF"/>
<path d="M540.691 130.491H523.401C522.466 130.491 521.648 129.673 521.648 128.739C521.648 127.804 522.466 126.986 523.401 126.986H540.691C541.625 126.986 542.443 127.804 542.443 128.739C542.443 129.673 541.625 130.491 540.691 130.491Z" fill="#F0F4FF"/>
<path d="M503.072 138.317H492.909C491.974 138.317 491.156 137.499 491.156 136.565C491.156 135.63 491.974 134.812 492.909 134.812H503.072C504.007 134.812 504.824 135.63 504.824 136.565C504.824 137.499 504.007 138.317 503.072 138.317Z" fill="#F0F4FF"/>
<path d="M540.689 138.317H509.147C508.212 138.317 507.395 137.499 507.395 136.565C507.395 135.63 508.212 134.812 509.147 134.812H540.689C541.623 134.812 542.441 135.63 542.441 136.565C542.441 137.499 541.623 138.317 540.689 138.317Z" fill="#F0F4FF"/>
<path d="M524.334 146.262H492.909C491.974 146.262 491.156 145.445 491.156 144.51C491.156 143.576 491.974 142.758 492.909 142.758H524.334C525.268 142.758 526.086 143.576 526.086 144.51C526.203 145.445 525.385 146.262 524.334 146.262Z" fill="#F0F4FF"/>
<path d="M540.689 146.262H530.526C529.591 146.262 528.773 145.445 528.773 144.51C528.773 143.576 529.591 142.758 530.526 142.758H540.689C541.624 142.758 542.442 143.576 542.442 144.51C542.442 145.445 541.624 146.262 540.689 146.262Z" fill="#F0F4FF"/>
<path d="M214.523 313.669H131.228C128.775 313.669 126.789 311.683 126.789 309.23V267.174C126.789 264.72 128.775 262.734 131.228 262.734H214.523C216.976 262.734 218.962 264.72 218.962 267.174V309.23C219.079 311.683 217.093 313.669 214.523 313.669Z" fill="#234CA9"/>
<path d="M130.762 269.51H215.108" stroke="white" stroke-width="0.8956" stroke-miterlimit="10" stroke-linecap="round"/>
<path d="M212.887 267.056C213.468 267.056 213.939 266.585 213.939 266.005C213.939 265.424 213.468 264.953 212.887 264.953C212.307 264.953 211.836 265.424 211.836 266.005C211.836 266.585 212.307 267.056 212.887 267.056Z" fill="white"/>
<path d="M207.512 267.056C208.093 267.056 208.564 266.585 208.564 266.005C208.564 265.424 208.093 264.953 207.512 264.953C206.932 264.953 206.461 265.424 206.461 266.005C206.461 266.585 206.932 267.056 207.512 267.056Z" fill="white"/>
<path d="M202.255 267.056C202.835 267.056 203.306 266.585 203.306 266.005C203.306 265.424 202.835 264.953 202.255 264.953C201.674 264.953 201.203 265.424 201.203 266.005C201.203 266.585 201.674 267.056 202.255 267.056Z" fill="white"/>
<path d="M146.416 276.403H132.046C131.229 276.403 130.645 275.819 130.645 275.001C130.645 274.184 131.229 273.6 132.046 273.6H146.416C147.233 273.6 147.817 274.184 147.817 275.001C147.817 275.819 147.233 276.403 146.416 276.403Z" fill="#EFF8FF"/>
<path d="M146.416 282.946H132.046C131.229 282.946 130.645 282.362 130.645 281.544C130.645 280.727 131.229 280.143 132.046 280.143H146.416C147.233 280.143 147.817 280.727 147.817 281.544C147.817 282.245 147.233 282.946 146.416 282.946Z" fill="#EFF8FF"/>
<path d="M146.416 289.487H132.046C131.229 289.487 130.645 288.903 130.645 288.085C130.645 287.268 131.229 286.684 132.046 286.684H146.416C147.233 286.684 147.817 287.268 147.817 288.085C147.817 288.786 147.233 289.487 146.416 289.487Z" fill="#EFF8FF"/>
<path d="M146.416 296.03H132.046C131.229 296.03 130.645 295.446 130.645 294.628C130.645 293.811 131.229 293.227 132.046 293.227H146.416C147.233 293.227 147.817 293.811 147.817 294.628C147.817 295.329 147.233 296.03 146.416 296.03Z" fill="#EFF8FF"/>
<path d="M146.416 302.454H132.046C131.229 302.454 130.645 301.87 130.645 301.052C130.645 300.235 131.229 299.65 132.046 299.65H146.416C147.233 299.65 147.817 300.235 147.817 301.052C147.817 301.87 147.233 302.454 146.416 302.454Z" fill="#EFF8FF"/>
<path d="M146.416 308.997H132.046C131.229 308.997 130.645 308.413 130.645 307.595C130.645 306.777 131.229 306.193 132.046 306.193H146.416C147.233 306.193 147.817 306.777 147.817 307.595C147.817 308.413 147.233 308.997 146.416 308.997Z" fill="#EFF8FF"/>
<path d="M213.705 276.403H152.023C151.205 276.403 150.621 275.819 150.621 275.001C150.621 274.184 151.205 273.6 152.023 273.6H213.705C214.523 273.6 215.107 274.184 215.107 275.001C215.107 275.819 214.523 276.403 213.705 276.403Z" fill="#3B5FB7"/>
<path d="M213.705 282.946H152.023C151.205 282.946 150.621 282.362 150.621 281.544C150.621 280.727 151.205 280.143 152.023 280.143H213.705C214.523 280.143 215.107 280.727 215.107 281.544C215.107 282.245 214.523 282.946 213.705 282.946Z" fill="#3B5FB7"/>
<path d="M213.705 289.487H152.023C151.205 289.487 150.621 288.903 150.621 288.085C150.621 287.268 151.205 286.684 152.023 286.684H213.705C214.523 286.684 215.107 287.268 215.107 288.085C215.107 288.786 214.523 289.487 213.705 289.487Z" fill="#3B5FB7"/>
<path d="M213.705 296.03H152.023C151.205 296.03 150.621 295.446 150.621 294.628C150.621 293.811 151.205 293.227 152.023 293.227H213.705C214.523 293.227 215.107 293.811 215.107 294.628C215.107 295.329 214.523 296.03 213.705 296.03Z" fill="#3B5FB7"/>
<path d="M213.705 302.454H152.023C151.205 302.454 150.621 301.87 150.621 301.052C150.621 300.235 151.205 299.65 152.023 299.65H213.705C214.523 299.65 215.107 300.235 215.107 301.052C215.107 301.87 214.523 302.454 213.705 302.454Z" fill="#3B5FB7"/>
<path d="M213.705 308.997H152.023C151.205 308.997 150.621 308.413 150.621 307.595C150.621 306.777 151.205 306.193 152.023 306.193H213.705C214.523 306.193 215.107 306.777 215.107 307.595C215.107 308.413 214.523 308.997 213.705 308.997Z" fill="#3B5FB7"/>
<path d="M647.037 47.3047C651.922 26.9126 639.352 6.42087 618.96 1.53515C598.568 -3.35057 578.076 9.21985 573.19 29.612C568.304 50.0041 580.875 70.4958 601.267 75.3815C621.659 80.2673 642.151 67.6968 647.037 47.3047Z" stroke="#DEE3FC" stroke-width="0.7896" stroke-miterlimit="10"/>
<path d="M623.471 68.705C640.169 61.3174 647.716 41.7924 640.329 25.0946C632.941 8.39678 613.416 0.849338 596.718 8.23691C580.021 15.6245 572.473 35.1495 579.861 51.8473C587.248 68.5451 606.773 76.0926 623.471 68.705Z" fill="#3362CC"/>
<path d="M613.114 38.4358C613.114 40.0713 611.712 41.4732 610.076 41.4732C608.441 41.4732 607.039 40.0713 607.039 38.4358C607.039 36.8003 608.441 35.3984 610.076 35.3984C611.829 35.3984 613.114 36.8003 613.114 38.4358Z" fill="white"/>
<path d="M609.844 37.8519C609.377 38.0855 608.793 37.9687 608.559 37.5014L598.863 19.978C598.629 19.5108 598.746 18.9266 599.213 18.693C599.681 18.4593 600.265 18.5762 600.498 19.0435L610.195 36.5668C610.428 37.0341 610.195 37.6182 609.844 37.8519Z" fill="white"/>
<path d="M610.544 38.9015C610.895 38.5511 611.479 38.5511 611.829 38.9015L620.24 47.3127C620.591 47.6632 620.591 48.2473 620.24 48.5978C619.89 48.9483 619.306 48.9483 618.955 48.5978L610.544 40.1866C610.194 39.8361 610.194 39.252 610.544 38.9015Z" fill="white"/>
<path d="M610.312 12.0329V8.17773" stroke="white" stroke-width="2" stroke-miterlimit="10" stroke-linecap="round"/>
<path d="M636.594 38.668H640.332" stroke="white" stroke-width="2" stroke-miterlimit="10" stroke-linecap="round"/>
<path d="M609.961 64.8359V68.6911" stroke="white" stroke-width="2" stroke-miterlimit="10" stroke-linecap="round"/>
<path d="M583.676 38.2012H579.938" stroke="white" stroke-width="2" stroke-miterlimit="10" stroke-linecap="round"/>
<g opacity="0.5">
<path opacity="0.5" d="M597.111 15.4214L595.125 12.1504" stroke="#DEE3FC" stroke-miterlimit="10" stroke-linecap="round"/>
<path opacity="0.5" d="M633.094 25.3516L636.365 23.4824" stroke="#DEE3FC" stroke-miterlimit="10" stroke-linecap="round"/>
<path opacity="0.5" d="M623.164 61.4492L625.033 64.7203" stroke="#DEE3FC" stroke-miterlimit="10" stroke-linecap="round"/>
<path opacity="0.5" d="M587.181 51.5195L583.793 53.3887" stroke="#DEE3FC" stroke-miterlimit="10" stroke-linecap="round"/>
</g>
<g opacity="0.5">
<path opacity="0.5" d="M587.298 25L584.027 23.1309" stroke="#DEE3FC" stroke-miterlimit="10" stroke-linecap="round"/>
<path opacity="0.5" d="M623.516 15.6538L625.385 12.3828" stroke="#DEE3FC" stroke-miterlimit="10" stroke-linecap="round"/>
<path opacity="0.5" d="M632.859 51.8691L636.13 53.7383" stroke="#DEE3FC" stroke-miterlimit="10" stroke-linecap="round"/>
<path opacity="0.5" d="M596.759 61.2148L594.773 64.4859" stroke="#DEE3FC" stroke-miterlimit="10" stroke-linecap="round"/>
</g>
<path d="M158.913 229.557H117.207C111.016 229.557 105.992 224.534 105.992 218.342V176.637C105.992 170.445 111.016 165.422 117.207 165.422H158.913C165.104 165.422 170.128 170.445 170.128 176.637V218.342C170.128 224.534 165.104 229.557 158.913 229.557Z" fill="#234CA9"/>
<path d="M156.226 223.95H110.081C105.175 223.95 101.086 219.978 101.086 214.955V168.81C101.086 163.903 105.058 159.814 110.081 159.814H156.226C161.133 159.814 165.221 163.786 165.221 168.81V214.955C165.105 219.978 161.133 223.95 156.226 223.95Z" fill="#407BFF" stroke="#DEE3FC" stroke-miterlimit="10"/>
<path d="M144.195 184.581H143.844V180.96C143.844 174.885 138.938 169.979 132.98 169.979C126.905 169.979 122.115 174.885 122.115 180.96V184.581H121.998C120.363 184.581 118.961 185.983 118.961 187.619V201.404C118.961 203.039 120.363 204.441 121.998 204.441H144.195C145.83 204.441 147.232 203.039 147.232 201.404V187.619C147.232 185.983 145.947 184.581 144.195 184.581ZM124.802 180.96C124.802 176.521 128.424 172.782 132.98 172.782C137.419 172.782 141.157 176.404 141.157 180.96V184.581H124.802V180.96Z" fill="#DEE3FC"/>
<path d="M136.716 191.708C136.716 189.488 134.73 187.736 132.393 188.203C130.992 188.437 129.94 189.605 129.59 190.89C129.239 192.525 130.057 194.044 131.225 194.745C131.459 194.862 131.576 195.212 131.576 195.446L130.992 197.782C130.641 199.184 131.692 200.469 133.094 200.469C134.496 200.469 135.548 199.184 135.197 197.782L134.613 195.563C134.496 195.329 134.73 194.979 134.964 194.862C136.015 194.161 136.716 193.109 136.716 191.708Z" fill="#7E89FD"/>
<path d="M145.947 209.465H120.246C119.545 209.465 118.961 208.88 118.961 208.18C118.961 207.479 119.545 206.895 120.246 206.895H145.947C146.648 206.895 147.232 207.479 147.232 208.18C147.232 208.88 146.648 209.465 145.947 209.465Z" fill="#DEE3FC"/>
<path d="M145.947 213.904H120.246C119.545 213.904 118.961 213.32 118.961 212.619C118.961 211.918 119.545 211.334 120.246 211.334H145.947C146.648 211.334 147.232 211.918 147.232 212.619C147.232 213.32 146.648 213.904 145.947 213.904Z" fill="#DEE3FC"/>
<path d="M663.473 304.789H638.941C635.319 304.789 632.398 301.868 632.398 298.247V273.714C632.398 270.092 635.319 267.172 638.941 267.172H663.473C667.095 267.172 670.015 270.092 670.015 273.714V298.247C670.132 301.868 667.212 304.789 663.473 304.789Z" fill="#3362CC"/>
<path d="M661.953 301.519H634.734C631.813 301.519 629.477 299.182 629.477 296.262V269.042C629.477 266.122 631.813 263.785 634.734 263.785H661.953C664.874 263.785 667.21 266.122 667.21 269.042V296.262C667.21 299.182 664.874 301.519 661.953 301.519Z" fill="#407BFF" stroke="#DEE3FC" stroke-miterlimit="10"/>
<path d="M640.691 293.925C640.574 293.925 640.457 293.925 640.34 293.925C639.756 293.808 639.406 293.107 639.522 292.523L645.247 272.313C645.363 271.729 646.064 271.378 646.649 271.495C647.233 271.612 647.583 272.313 647.466 272.897L641.742 293.107C641.625 293.691 641.158 293.925 640.691 293.925Z" fill="white"/>
<path d="M650.269 293.925C650.152 293.925 650.035 293.925 649.918 293.925C649.334 293.808 648.984 293.107 649.101 292.523L654.825 272.313C654.942 271.729 655.643 271.378 656.227 271.495C656.811 271.612 657.161 272.313 657.044 272.897L651.32 293.107C651.203 293.691 650.736 293.925 650.269 293.925Z" fill="white"/>
<path d="M658.449 279.323H638.239C637.538 279.323 637.07 278.855 637.07 278.155C637.07 277.454 637.538 276.986 638.239 276.986H658.449C659.15 276.986 659.617 277.454 659.617 278.155C659.617 278.855 659.033 279.323 658.449 279.323Z" fill="white"/>
<path d="M658.449 288.551H638.239C637.538 288.551 637.07 288.084 637.07 287.383C637.07 286.682 637.538 286.215 638.239 286.215H658.449C659.15 286.215 659.617 286.682 659.617 287.383C659.617 287.967 659.033 288.551 658.449 288.551Z" fill="white"/>
<path d="M208.215 185.046H193.612C192.677 185.046 191.977 184.345 191.977 183.411C191.977 182.476 192.677 181.775 193.612 181.775H208.215C209.149 181.775 209.85 182.476 209.85 183.411C209.85 184.345 209.149 185.046 208.215 185.046Z" fill="#F0F4FF"/>
<path d="M222.934 192.173H193.612C192.677 192.173 191.977 191.472 191.977 190.538C191.977 189.603 192.677 188.902 193.612 188.902H222.934C223.869 188.902 224.57 189.603 224.57 190.538C224.57 191.472 223.869 192.173 222.934 192.173Z" fill="#F0F4FF"/>
<path d="M197.117 199.298H193.612C192.677 199.298 191.977 198.597 191.977 197.663C191.977 196.728 192.677 196.027 193.612 196.027H197.117C198.051 196.027 198.752 196.728 198.752 197.663C198.752 198.481 198.051 199.298 197.117 199.298Z" fill="#F0F4FF"/>
<path d="M222.935 199.298H202.491C201.556 199.298 200.855 198.597 200.855 197.663C200.855 196.728 201.556 196.027 202.491 196.027H222.935C223.869 196.027 224.57 196.728 224.57 197.663C224.57 198.481 223.869 199.298 222.935 199.298Z" fill="#F0F4FF"/>
<path d="M222.936 185.046H214.057C213.123 185.046 212.422 184.345 212.422 183.411C212.422 182.476 213.123 181.775 214.057 181.775H222.936C223.87 181.775 224.571 182.476 224.571 183.411C224.571 184.345 223.87 185.046 222.936 185.046Z" fill="#F0F4FF"/>
<path d="M140.69 403.388C138.821 403.388 136.952 403.855 135.433 404.79C134.849 399.299 130.176 395.094 124.569 395.094C118.494 395.094 113.704 400 113.704 405.958C113.704 406.309 113.704 406.776 113.821 407.126C113.354 407.01 112.769 407.01 112.302 407.01C107.746 407.01 104.008 410.748 104.008 415.304C104.008 419.86 107.746 423.598 112.302 423.598H140.807C146.414 423.598 150.97 419.042 150.97 413.435C150.854 407.944 146.298 403.388 140.69 403.388Z" fill="white"/>
<path d="M68.2604 359.58C68.0268 358.061 68.0268 356.542 68.3772 355.024C69.6623 350 71.181 340.538 67.9099 330.374C62.4193 313.318 40.3398 298.248 40.3398 298.248C40.3398 298.248 46.2978 323.365 51.3212 334.113C54.9426 341.94 61.2511 350.818 64.7557 355.608C65.6903 356.893 66.3912 358.412 66.7417 360.047C70.3632 379.79 69.7791 395.094 69.7791 395.444L71.4146 395.561C71.4146 395.094 71.8819 379.673 68.2604 359.58Z" fill="#ECF2FF"/>
<path d="M85.9009 343.575C90.3401 329.673 92.3261 313.318 92.3261 313.318C92.3261 313.318 72.4663 329.673 70.8308 342.29C69.7794 350.001 71.0644 356.309 72.2327 359.931C72.6999 361.449 72.8168 363.085 72.6999 364.72C70.714 383.295 72.2327 397.664 72.2327 397.898L73.7513 397.781C73.7513 397.547 72.2327 384.23 73.985 366.706C74.2186 364.253 75.1532 362.033 76.6719 360.164C79.5925 356.543 83.6813 350.702 85.9009 343.575Z" fill="#79A3FF"/>
<path d="M106.109 312.734C106.109 312.734 84.7306 320.678 79.1231 338.085C75.7353 348.716 77.3708 358.529 78.6558 363.552C79.0063 364.954 79.0063 366.473 78.6558 367.875C73.6324 387.968 73.5156 408.762 73.5156 408.996H75.268C75.268 408.762 75.3848 388.435 80.1745 368.692C80.6418 366.706 81.4595 364.954 82.7446 363.318C86.3661 358.412 92.5577 349.533 96.1792 341.823C101.203 330.959 106.109 312.734 106.109 312.734Z" fill="#ECF2FF"/>
<path d="M68.3777 386.331C67.7935 378.972 65.8076 372.43 63.4711 366.939C63.0038 365.887 62.7702 364.602 63.0038 363.434C63.3543 361.098 63.4711 357.593 62.5365 353.037C60.7842 344.509 49.4524 325.934 32.9805 324.883C32.9805 324.883 38.7048 333.995 41.6253 341.588C45.3636 351.285 50.6207 361.331 59.3823 365.187C60.901 365.887 62.0693 367.173 62.7702 368.691C64.873 373.831 66.6253 379.789 67.0926 386.331H68.3777Z" fill="#79A3FF"/>
<path d="M57.2819 423.833H84.3847L91.394 380.842C91.7445 378.973 90.2258 377.221 88.3567 377.221H53.3099C51.324 377.221 49.9221 378.973 50.2726 380.842L57.2819 423.833Z" fill="#ECF2FF"/>
<path d="M1.55469 423.832H761.134" stroke="white" stroke-width="1.1144" stroke-miterlimit="10" stroke-linecap="round"/>
</g>
<defs>
<clipPath id="clip0_1817_4534">
<rect width="760.864" height="424.416" fill="white" transform="translate(0.855469)"/>
</clipPath>
</defs>
</svg>
