<svg width="451" height="468" viewBox="0 0 451 468" fill="none" xmlns="http://www.w3.org/2000/svg">
<circle cx="60" cy="234" r="60" fill="#DA291C"/>
<path d="M28.9344 226.14C27.961 226.14 27.081 225.973 26.2944 225.64C25.521 225.307 24.9077 224.827 24.4544 224.2C24.001 223.573 23.7677 222.833 23.7544 221.98H26.7544C26.7944 222.553 26.9944 223.007 27.3544 223.34C27.7277 223.673 28.2344 223.84 28.8744 223.84C29.5277 223.84 30.041 223.687 30.4144 223.38C30.7877 223.06 30.9744 222.647 30.9744 222.14C30.9744 221.727 30.8477 221.387 30.5944 221.12C30.341 220.853 30.021 220.647 29.6344 220.5C29.261 220.34 28.741 220.167 28.0744 219.98C27.1677 219.713 26.4277 219.453 25.8544 219.2C25.2944 218.933 24.8077 218.54 24.3944 218.02C23.9944 217.487 23.7944 216.78 23.7944 215.9C23.7944 215.073 24.001 214.353 24.4144 213.74C24.8277 213.127 25.4077 212.66 26.1544 212.34C26.901 212.007 27.7544 211.84 28.7144 211.84C30.1544 211.84 31.321 212.193 32.2144 212.9C33.121 213.593 33.621 214.567 33.7144 215.82H30.6344C30.6077 215.34 30.401 214.947 30.0144 214.64C29.641 214.32 29.141 214.16 28.5144 214.16C27.9677 214.16 27.5277 214.3 27.1944 214.58C26.8744 214.86 26.7144 215.267 26.7144 215.8C26.7144 216.173 26.8344 216.487 27.0744 216.74C27.3277 216.98 27.6344 217.18 27.9944 217.34C28.3677 217.487 28.8877 217.66 29.5544 217.86C30.461 218.127 31.201 218.393 31.7744 218.66C32.3477 218.927 32.841 219.327 33.2544 219.86C33.6677 220.393 33.8744 221.093 33.8744 221.96C33.8744 222.707 33.681 223.4 33.2944 224.04C32.9077 224.68 32.341 225.193 31.5944 225.58C30.8477 225.953 29.961 226.14 28.9344 226.14ZM46.6019 220.22C46.6019 220.62 46.5752 220.98 46.5219 221.3H38.4219C38.4885 222.1 38.7685 222.727 39.2619 223.18C39.7552 223.633 40.3619 223.86 41.0819 223.86C42.1219 223.86 42.8619 223.413 43.3019 222.52H46.3219C46.0019 223.587 45.3885 224.467 44.4819 225.16C43.5752 225.84 42.4619 226.18 41.1419 226.18C40.0752 226.18 39.1152 225.947 38.2619 225.48C37.4219 225 36.7619 224.327 36.2819 223.46C35.8152 222.593 35.5819 221.593 35.5819 220.46C35.5819 219.313 35.8152 218.307 36.2819 217.44C36.7485 216.573 37.4019 215.907 38.2419 215.44C39.0819 214.973 40.0485 214.74 41.1419 214.74C42.1952 214.74 43.1352 214.967 43.9619 215.42C44.8019 215.873 45.4485 216.52 45.9019 217.36C46.3685 218.187 46.6019 219.14 46.6019 220.22ZM43.7019 219.42C43.6885 218.7 43.4285 218.127 42.9219 217.7C42.4152 217.26 41.7952 217.04 41.0619 217.04C40.3685 217.04 39.7819 217.253 39.3019 217.68C38.8352 218.093 38.5485 218.673 38.4419 219.42H43.7019ZM51.4456 216.64C51.8056 216.053 52.2723 215.593 52.8456 215.26C53.4323 214.927 54.099 214.76 54.8456 214.76V217.7H54.1056C53.2256 217.7 52.559 217.907 52.1056 218.32C51.6656 218.733 51.4456 219.453 51.4456 220.48V226H48.6456V214.92H51.4456V216.64ZM61.3516 223.42L64.1516 214.92H67.1316L63.0316 226H59.6316L55.5516 214.92H58.5516L61.3516 223.42ZM70.1242 213.6C69.6309 213.6 69.2176 213.447 68.8842 213.14C68.5642 212.82 68.4042 212.427 68.4042 211.96C68.4042 211.493 68.5642 211.107 68.8842 210.8C69.2176 210.48 69.6309 210.32 70.1242 210.32C70.6176 210.32 71.0242 210.48 71.3442 210.8C71.6776 211.107 71.8442 211.493 71.8442 211.96C71.8442 212.427 71.6776 212.82 71.3442 213.14C71.0242 213.447 70.6176 213.6 70.1242 213.6ZM71.5042 214.92V226H68.7042V214.92H71.5042ZM73.5506 220.46C73.5506 219.313 73.784 218.313 74.2506 217.46C74.7173 216.593 75.364 215.927 76.1906 215.46C77.0173 214.98 77.964 214.74 79.0306 214.74C80.404 214.74 81.5373 215.087 82.4306 215.78C83.3373 216.46 83.944 217.42 84.2506 218.66H81.2306C81.0706 218.18 80.7973 217.807 80.4106 217.54C80.0373 217.26 79.5706 217.12 79.0106 217.12C78.2106 217.12 77.5773 217.413 77.1106 218C76.644 218.573 76.4106 219.393 76.4106 220.46C76.4106 221.513 76.644 222.333 77.1106 222.92C77.5773 223.493 78.2106 223.78 79.0106 223.78C80.144 223.78 80.884 223.273 81.2306 222.26H84.2506C83.944 223.46 83.3373 224.413 82.4306 225.12C81.524 225.827 80.3906 226.18 79.0306 226.18C77.964 226.18 77.0173 225.947 76.1906 225.48C75.364 225 74.7173 224.333 74.2506 223.48C73.784 222.613 73.5506 221.607 73.5506 220.46ZM96.6019 220.22C96.6019 220.62 96.5752 220.98 96.5219 221.3H88.4219C88.4885 222.1 88.7685 222.727 89.2619 223.18C89.7552 223.633 90.3619 223.86 91.0819 223.86C92.1219 223.86 92.8619 223.413 93.3019 222.52H96.3219C96.0019 223.587 95.3885 224.467 94.4819 225.16C93.5752 225.84 92.4619 226.18 91.1419 226.18C90.0752 226.18 89.1152 225.947 88.2619 225.48C87.4219 225 86.7619 224.327 86.2819 223.46C85.8152 222.593 85.5819 221.593 85.5819 220.46C85.5819 219.313 85.8152 218.307 86.2819 217.44C86.7485 216.573 87.4019 215.907 88.2419 215.44C89.0819 214.973 90.0485 214.74 91.1419 214.74C92.1952 214.74 93.1352 214.967 93.9619 215.42C94.8019 215.873 95.4485 216.52 95.9019 217.36C96.3685 218.187 96.6019 219.14 96.6019 220.22ZM93.7019 219.42C93.6885 218.7 93.4285 218.127 92.9219 217.7C92.4152 217.26 91.7952 217.04 91.0619 217.04C90.3685 217.04 89.7819 217.253 89.3019 217.68C88.8352 218.093 88.5485 218.673 88.4419 219.42H93.7019ZM19.6195 246.52C19.9795 246.013 20.4728 245.593 21.0995 245.26C21.7395 244.913 22.4661 244.74 23.2795 244.74C24.2261 244.74 25.0795 244.973 25.8395 245.44C26.6128 245.907 27.2195 246.573 27.6595 247.44C28.1128 248.293 28.3395 249.287 28.3395 250.42C28.3395 251.553 28.1128 252.56 27.6595 253.44C27.2195 254.307 26.6128 254.98 25.8395 255.46C25.0795 255.94 24.2261 256.18 23.2795 256.18C22.4661 256.18 21.7461 256.013 21.1195 255.68C20.5061 255.347 20.0061 254.927 19.6195 254.42V261.28H16.8195V244.92H19.6195V246.52ZM25.4795 250.42C25.4795 249.753 25.3395 249.18 25.0595 248.7C24.7928 248.207 24.4328 247.833 23.9795 247.58C23.5395 247.327 23.0595 247.2 22.5395 247.2C22.0328 247.2 21.5528 247.333 21.0995 247.6C20.6595 247.853 20.2995 248.227 20.0195 248.72C19.7528 249.213 19.6195 249.793 19.6195 250.46C19.6195 251.127 19.7528 251.707 20.0195 252.2C20.2995 252.693 20.6595 253.073 21.0995 253.34C21.5528 253.593 22.0328 253.72 22.5395 253.72C23.0595 253.72 23.5395 253.587 23.9795 253.32C24.4328 253.053 24.7928 252.673 25.0595 252.18C25.3395 251.687 25.4795 251.1 25.4795 250.42ZM33.1741 241.2V256H30.3741V241.2H33.1741ZM35.2205 250.42C35.2205 249.3 35.4405 248.307 35.8805 247.44C36.3339 246.573 36.9405 245.907 37.7005 245.44C38.4739 244.973 39.3339 244.74 40.2805 244.74C41.1072 244.74 41.8272 244.907 42.4405 245.24C43.0672 245.573 43.5672 245.993 43.9405 246.5V244.92H46.7605V256H43.9405V254.38C43.5805 254.9 43.0805 255.333 42.4405 255.68C41.8139 256.013 41.0872 256.18 40.2605 256.18C39.3272 256.18 38.4739 255.94 37.7005 255.46C36.9405 254.98 36.3339 254.307 35.8805 253.44C35.4405 252.56 35.2205 251.553 35.2205 250.42ZM43.9405 250.46C43.9405 249.78 43.8072 249.2 43.5405 248.72C43.2739 248.227 42.9139 247.853 42.4605 247.6C42.0072 247.333 41.5205 247.2 41.0005 247.2C40.4805 247.2 40.0005 247.327 39.5605 247.58C39.1205 247.833 38.7605 248.207 38.4805 248.7C38.2139 249.18 38.0805 249.753 38.0805 250.42C38.0805 251.087 38.2139 251.673 38.4805 252.18C38.7605 252.673 39.1205 253.053 39.5605 253.32C40.0139 253.587 40.4939 253.72 41.0005 253.72C41.5205 253.72 42.0072 253.593 42.4605 253.34C42.9139 253.073 43.2739 252.7 43.5405 252.22C43.8072 251.727 43.9405 251.14 43.9405 250.46ZM52.7552 247.22V252.58C52.7552 252.953 52.8419 253.227 53.0152 253.4C53.2019 253.56 53.5086 253.64 53.9352 253.64H55.2352V256H53.4752C51.1152 256 49.9352 254.853 49.9352 252.56V247.22H48.6152V244.92H49.9352V242.18H52.7552V244.92H55.2352V247.22H52.7552ZM62.3291 247.22H60.3891V256H57.5491V247.22H56.2891V244.92H57.5491V244.36C57.5491 243 57.9358 242 58.7091 241.36C59.4825 240.72 60.6491 240.42 62.2091 240.46V242.82C61.5291 242.807 61.0558 242.92 60.7891 243.16C60.5225 243.4 60.3891 243.833 60.3891 244.46V244.92H62.3291V247.22ZM69.0637 256.18C67.997 256.18 67.037 255.947 66.1837 255.48C65.3303 255 64.657 254.327 64.1637 253.46C63.6837 252.593 63.4437 251.593 63.4437 250.46C63.4437 249.327 63.6903 248.327 64.1837 247.46C64.6903 246.593 65.377 245.927 66.2437 245.46C67.1103 244.98 68.077 244.74 69.1437 244.74C70.2103 244.74 71.177 244.98 72.0437 245.46C72.9103 245.927 73.5903 246.593 74.0837 247.46C74.5903 248.327 74.8437 249.327 74.8437 250.46C74.8437 251.593 74.5837 252.593 74.0637 253.46C73.557 254.327 72.8637 255 71.9837 255.48C71.117 255.947 70.1437 256.18 69.0637 256.18ZM69.0637 253.74C69.5703 253.74 70.0437 253.62 70.4837 253.38C70.937 253.127 71.297 252.753 71.5637 252.26C71.8303 251.767 71.9637 251.167 71.9637 250.46C71.9637 249.407 71.6837 248.6 71.1237 248.04C70.577 247.467 69.9037 247.18 69.1037 247.18C68.3037 247.18 67.6303 247.467 67.0837 248.04C66.5503 248.6 66.2837 249.407 66.2837 250.46C66.2837 251.513 66.5437 252.327 67.0637 252.9C67.597 253.46 68.2637 253.74 69.0637 253.74ZM79.6976 246.64C80.0576 246.053 80.5242 245.593 81.0976 245.26C81.6842 244.927 82.3509 244.76 83.0976 244.76V247.7H82.3576C81.4776 247.7 80.8109 247.907 80.3576 248.32C79.9176 248.733 79.6976 249.453 79.6976 250.48V256H76.8976V244.92H79.6976V246.64ZM98.7435 244.76C100.104 244.76 101.197 245.18 102.024 246.02C102.864 246.847 103.284 248.007 103.284 249.5V256H100.484V249.88C100.484 249.013 100.264 248.353 99.8235 247.9C99.3835 247.433 98.7835 247.2 98.0235 247.2C97.2635 247.2 96.6568 247.433 96.2035 247.9C95.7635 248.353 95.5435 249.013 95.5435 249.88V256H92.7435V249.88C92.7435 249.013 92.5235 248.353 92.0835 247.9C91.6435 247.433 91.0435 247.2 90.2835 247.2C89.5102 247.2 88.8968 247.433 88.4435 247.9C88.0035 248.353 87.7835 249.013 87.7835 249.88V256H84.9835V244.92H87.7835V246.26C88.1435 245.793 88.6035 245.427 89.1635 245.16C89.7368 244.893 90.3635 244.76 91.0435 244.76C91.9102 244.76 92.6835 244.947 93.3635 245.32C94.0435 245.68 94.5702 246.2 94.9435 246.88C95.3035 246.24 95.8235 245.727 96.5035 245.34C97.1968 244.953 97.9435 244.76 98.7435 244.76Z" fill="white"/>
<path d="M175.592 27.416C175.592 26.328 175.843 25.352 176.344 24.488C176.856 23.624 177.544 22.952 178.408 22.472C179.283 21.9813 180.237 21.736 181.272 21.736C182.456 21.736 183.507 22.0293 184.424 22.616C185.352 23.192 186.024 24.0133 186.44 25.08H184.248C183.96 24.4933 183.56 24.056 183.048 23.768C182.536 23.48 181.944 23.336 181.272 23.336C180.536 23.336 179.88 23.5013 179.304 23.832C178.728 24.1627 178.275 24.6373 177.944 25.256C177.624 25.8747 177.464 26.5947 177.464 27.416C177.464 28.2373 177.624 28.9573 177.944 29.576C178.275 30.1947 178.728 30.6747 179.304 31.016C179.88 31.3467 180.536 31.512 181.272 31.512C181.944 31.512 182.536 31.368 183.048 31.08C183.56 30.792 183.96 30.3547 184.248 29.768H186.44C186.024 30.8347 185.352 31.656 184.424 32.232C183.507 32.808 182.456 33.096 181.272 33.096C180.227 33.096 179.272 32.856 178.408 32.376C177.544 31.8853 176.856 31.208 176.344 30.344C175.843 29.48 175.592 28.504 175.592 27.416ZM200.287 21.88V33H198.463V25.384L195.071 33H193.807L190.399 25.384V33H188.575V21.88H190.543L194.447 30.6L198.335 21.88H200.287ZM203.42 33.112C203.09 33.112 202.812 33 202.588 32.776C202.364 32.552 202.252 32.2747 202.252 31.944C202.252 31.6133 202.364 31.336 202.588 31.112C202.812 30.888 203.09 30.776 203.42 30.776C203.74 30.776 204.012 30.888 204.236 31.112C204.46 31.336 204.572 31.6133 204.572 31.944C204.572 32.2747 204.46 32.552 204.236 32.776C204.012 33 203.74 33.112 203.42 33.112ZM203.42 26.392C203.09 26.392 202.812 26.28 202.588 26.056C202.364 25.832 202.252 25.5547 202.252 25.224C202.252 24.8933 202.364 24.616 202.588 24.392C202.812 24.168 203.09 24.056 203.42 24.056C203.74 24.056 204.012 24.168 204.236 24.392C204.46 24.616 204.572 24.8933 204.572 25.224C204.572 25.5547 204.46 25.832 204.236 26.056C204.012 26.28 203.74 26.392 203.42 26.392ZM215.323 24.04C215.995 24.04 216.592 24.184 217.115 24.472C217.648 24.76 218.064 25.1867 218.363 25.752C218.672 26.3173 218.827 27 218.827 27.8V33H217.019V28.072C217.019 27.2827 216.821 26.68 216.427 26.264C216.032 25.8373 215.493 25.624 214.811 25.624C214.128 25.624 213.584 25.8373 213.179 26.264C212.784 26.68 212.587 27.2827 212.587 28.072V33H210.763V21.16H212.587V25.208C212.896 24.8347 213.285 24.5467 213.755 24.344C214.235 24.1413 214.757 24.04 215.323 24.04ZM223.281 25.672V30.552C223.281 30.8827 223.356 31.1227 223.505 31.272C223.665 31.4107 223.932 31.48 224.305 31.48H225.425V33H223.985C223.164 33 222.534 32.808 222.097 32.424C221.66 32.04 221.441 31.416 221.441 30.552V25.672H220.401V24.184H221.441V21.992H223.281V24.184H225.425V25.672H223.281ZM229.234 25.672V30.552C229.234 30.8827 229.309 31.1227 229.458 31.272C229.618 31.4107 229.885 31.48 230.258 31.48H231.378V33H229.938C229.117 33 228.488 32.808 228.05 32.424C227.613 32.04 227.394 31.416 227.394 30.552V25.672H226.354V24.184H227.394V21.992H229.234V24.184H231.378V25.672H229.234ZM234.883 25.48C235.193 25.0747 235.614 24.7333 236.147 24.456C236.681 24.1787 237.283 24.04 237.955 24.04C238.723 24.04 239.422 24.232 240.051 24.616C240.691 24.9893 241.193 25.5173 241.555 26.2C241.918 26.8827 242.099 27.6667 242.099 28.552C242.099 29.4373 241.918 30.232 241.555 30.936C241.193 31.6293 240.691 32.1733 240.051 32.568C239.422 32.952 238.723 33.144 237.955 33.144C237.283 33.144 236.686 33.0107 236.163 32.744C235.641 32.4667 235.214 32.1253 234.883 31.72V37.192H233.059V24.184H234.883V25.48ZM240.243 28.552C240.243 27.944 240.115 27.4213 239.859 26.984C239.614 26.536 239.283 26.2 238.867 25.976C238.462 25.7413 238.025 25.624 237.555 25.624C237.097 25.624 236.659 25.7413 236.243 25.976C235.838 26.2107 235.507 26.552 235.251 27C235.006 27.448 234.883 27.976 234.883 28.584C234.883 29.192 235.006 29.7253 235.251 30.184C235.507 30.632 235.838 30.9733 236.243 31.208C236.659 31.4427 237.097 31.56 237.555 31.56C238.025 31.56 238.462 31.4427 238.867 31.208C239.283 30.9627 239.614 30.6107 239.859 30.152C240.115 29.6933 240.243 29.16 240.243 28.552ZM247.103 33.144C246.41 33.144 245.786 33.0213 245.231 32.776C244.687 32.52 244.255 32.1787 243.935 31.752C243.615 31.3147 243.444 30.8293 243.423 30.296H245.311C245.343 30.6693 245.519 30.984 245.839 31.24C246.17 31.4853 246.58 31.608 247.071 31.608C247.583 31.608 247.978 31.512 248.255 31.32C248.543 31.1173 248.687 30.8613 248.687 30.552C248.687 30.2213 248.527 29.976 248.207 29.816C247.898 29.656 247.402 29.48 246.719 29.288C246.058 29.1067 245.519 28.9307 245.103 28.76C244.687 28.5893 244.324 28.328 244.015 27.976C243.716 27.624 243.567 27.16 243.567 26.584C243.567 26.1147 243.706 25.688 243.983 25.304C244.26 24.9093 244.655 24.6 245.167 24.376C245.69 24.152 246.287 24.04 246.959 24.04C247.962 24.04 248.767 24.296 249.375 24.808C249.994 25.3093 250.324 25.9973 250.367 26.872H248.543C248.511 26.4773 248.351 26.1627 248.063 25.928C247.775 25.6933 247.386 25.576 246.895 25.576C246.415 25.576 246.047 25.6667 245.791 25.848C245.535 26.0293 245.407 26.2693 245.407 26.568C245.407 26.8027 245.492 27 245.663 27.16C245.834 27.32 246.042 27.448 246.287 27.544C246.532 27.6293 246.895 27.7413 247.375 27.88C248.015 28.0507 248.538 28.2267 248.943 28.408C249.359 28.5787 249.716 28.8347 250.015 29.176C250.314 29.5173 250.468 29.9707 250.479 30.536C250.479 31.0373 250.34 31.4853 250.063 31.88C249.786 32.2747 249.391 32.584 248.879 32.808C248.378 33.032 247.786 33.144 247.103 33.144ZM175.592 51.416C175.592 50.328 175.843 49.352 176.344 48.488C176.856 47.624 177.544 46.952 178.408 46.472C179.283 45.9813 180.237 45.736 181.272 45.736C182.456 45.736 183.507 46.0293 184.424 46.616C185.352 47.192 186.024 48.0133 186.44 49.08H184.248C183.96 48.4933 183.56 48.056 183.048 47.768C182.536 47.48 181.944 47.336 181.272 47.336C180.536 47.336 179.88 47.5013 179.304 47.832C178.728 48.1627 178.275 48.6373 177.944 49.256C177.624 49.8747 177.464 50.5947 177.464 51.416C177.464 52.2373 177.624 52.9573 177.944 53.576C178.275 54.1947 178.728 54.6747 179.304 55.016C179.88 55.3467 180.536 55.512 181.272 55.512C181.944 55.512 182.536 55.368 183.048 55.08C183.56 54.792 183.96 54.3547 184.248 53.768H186.44C186.024 54.8347 185.352 55.656 184.424 56.232C183.507 56.808 182.456 57.096 181.272 57.096C180.227 57.096 179.272 56.856 178.408 56.376C177.544 55.8853 176.856 55.208 176.344 54.344C175.843 53.48 175.592 52.504 175.592 51.416ZM195.759 45.88V47.368H192.799V57H190.975V47.368H187.999V45.88H195.759ZM198.342 57.112C198.012 57.112 197.734 57 197.51 56.776C197.286 56.552 197.174 56.2747 197.174 55.944C197.174 55.6133 197.286 55.336 197.51 55.112C197.734 54.888 198.012 54.776 198.342 54.776C198.662 54.776 198.934 54.888 199.158 55.112C199.382 55.336 199.494 55.6133 199.494 55.944C199.494 56.2747 199.382 56.552 199.158 56.776C198.934 57 198.662 57.112 198.342 57.112ZM198.342 50.392C198.012 50.392 197.734 50.28 197.51 50.056C197.286 49.832 197.174 49.5547 197.174 49.224C197.174 48.8933 197.286 48.616 197.51 48.392C197.734 48.168 198.012 48.056 198.342 48.056C198.662 48.056 198.934 48.168 199.158 48.392C199.382 48.616 199.494 48.8933 199.494 49.224C199.494 49.5547 199.382 49.832 199.158 50.056C198.934 50.28 198.662 50.392 198.342 50.392ZM210.788 51.448L214.244 57H212.196L209.684 52.968L207.332 57H205.3L208.756 51.448L205.284 45.88H207.332L209.86 49.944L212.228 45.88H214.26L210.788 51.448ZM226.919 48.04C227.612 48.04 228.231 48.184 228.775 48.472C229.33 48.76 229.762 49.1867 230.071 49.752C230.391 50.3173 230.551 51 230.551 51.8V57H228.743V52.072C228.743 51.2827 228.546 50.68 228.151 50.264C227.756 49.8373 227.218 49.624 226.535 49.624C225.852 49.624 225.308 49.8373 224.903 50.264C224.508 50.68 224.311 51.2827 224.311 52.072V57H222.503V52.072C222.503 51.2827 222.306 50.68 221.911 50.264C221.516 49.8373 220.978 49.624 220.295 49.624C219.612 49.624 219.068 49.8373 218.663 50.264C218.268 50.68 218.071 51.2827 218.071 52.072V57H216.247V48.184H218.071V49.192C218.37 48.8293 218.748 48.5467 219.207 48.344C219.666 48.1413 220.156 48.04 220.679 48.04C221.383 48.04 222.012 48.1893 222.567 48.488C223.122 48.7867 223.548 49.2187 223.847 49.784C224.114 49.2507 224.53 48.8293 225.095 48.52C225.66 48.2 226.268 48.04 226.919 48.04ZM234.696 45.16V57H232.872V45.16H234.696Z" fill="#666666"/>
<path d="M175.592 105.416C175.592 104.328 175.843 103.352 176.344 102.488C176.856 101.624 177.544 100.952 178.408 100.472C179.283 99.9813 180.237 99.736 181.272 99.736C182.456 99.736 183.507 100.029 184.424 100.616C185.352 101.192 186.024 102.013 186.44 103.08H184.248C183.96 102.493 183.56 102.056 183.048 101.768C182.536 101.48 181.944 101.336 181.272 101.336C180.536 101.336 179.88 101.501 179.304 101.832C178.728 102.163 178.275 102.637 177.944 103.256C177.624 103.875 177.464 104.595 177.464 105.416C177.464 106.237 177.624 106.957 177.944 107.576C178.275 108.195 178.728 108.675 179.304 109.016C179.88 109.347 180.536 109.512 181.272 109.512C181.944 109.512 182.536 109.368 183.048 109.08C183.56 108.792 183.96 108.355 184.248 107.768H186.44C186.024 108.835 185.352 109.656 184.424 110.232C183.507 110.808 182.456 111.096 181.272 111.096C180.227 111.096 179.272 110.856 178.408 110.376C177.544 109.885 176.856 109.208 176.344 108.344C175.843 107.48 175.592 106.504 175.592 105.416ZM200.287 99.88V111H198.463V103.384L195.071 111H193.807L190.399 103.384V111H188.575V99.88H190.543L194.447 108.6L198.335 99.88H200.287ZM203.42 111.112C203.09 111.112 202.812 111 202.588 110.776C202.364 110.552 202.252 110.275 202.252 109.944C202.252 109.613 202.364 109.336 202.588 109.112C202.812 108.888 203.09 108.776 203.42 108.776C203.74 108.776 204.012 108.888 204.236 109.112C204.46 109.336 204.572 109.613 204.572 109.944C204.572 110.275 204.46 110.552 204.236 110.776C204.012 111 203.74 111.112 203.42 111.112ZM203.42 104.392C203.09 104.392 202.812 104.28 202.588 104.056C202.364 103.832 202.252 103.555 202.252 103.224C202.252 102.893 202.364 102.616 202.588 102.392C202.812 102.168 203.09 102.056 203.42 102.056C203.74 102.056 204.012 102.168 204.236 102.392C204.46 102.616 204.572 102.893 204.572 103.224C204.572 103.555 204.46 103.832 204.236 104.056C204.012 104.28 203.74 104.392 203.42 104.392ZM214.395 99.88C215.579 99.88 216.613 100.109 217.499 100.568C218.395 101.016 219.083 101.667 219.562 102.52C220.053 103.363 220.299 104.349 220.299 105.48C220.299 106.611 220.053 107.592 219.562 108.424C219.083 109.256 218.395 109.896 217.499 110.344C216.613 110.781 215.579 111 214.395 111H210.763V99.88H214.395ZM214.395 109.512C215.696 109.512 216.693 109.16 217.387 108.456C218.08 107.752 218.427 106.76 218.427 105.48C218.427 104.189 218.08 103.181 217.387 102.456C216.693 101.731 215.696 101.368 214.395 101.368H212.587V109.512H214.395ZM228.058 105.288C228.656 105.395 229.162 105.709 229.578 106.232C229.994 106.755 230.202 107.347 230.202 108.008C230.202 108.573 230.053 109.085 229.754 109.544C229.466 109.992 229.045 110.349 228.49 110.616C227.936 110.872 227.29 111 226.554 111H222.106V99.88H226.346C227.104 99.88 227.754 100.008 228.298 100.264C228.842 100.52 229.253 100.867 229.53 101.304C229.808 101.731 229.946 102.211 229.946 102.744C229.946 103.384 229.776 103.917 229.434 104.344C229.093 104.771 228.634 105.085 228.058 105.288ZM223.93 104.552H226.186C226.784 104.552 227.248 104.419 227.578 104.152C227.92 103.875 228.09 103.48 228.09 102.968C228.09 102.467 227.92 102.077 227.578 101.8C227.248 101.512 226.784 101.368 226.186 101.368H223.93V104.552ZM226.394 109.512C227.013 109.512 227.498 109.363 227.85 109.064C228.202 108.765 228.378 108.349 228.378 107.816C228.378 107.272 228.192 106.84 227.818 106.52C227.445 106.2 226.949 106.04 226.33 106.04H223.93V109.512H226.394ZM175.592 129.416C175.592 128.328 175.843 127.352 176.344 126.488C176.856 125.624 177.544 124.952 178.408 124.472C179.283 123.981 180.237 123.736 181.272 123.736C182.456 123.736 183.507 124.029 184.424 124.616C185.352 125.192 186.024 126.013 186.44 127.08H184.248C183.96 126.493 183.56 126.056 183.048 125.768C182.536 125.48 181.944 125.336 181.272 125.336C180.536 125.336 179.88 125.501 179.304 125.832C178.728 126.163 178.275 126.637 177.944 127.256C177.624 127.875 177.464 128.595 177.464 129.416C177.464 130.237 177.624 130.957 177.944 131.576C178.275 132.195 178.728 132.675 179.304 133.016C179.88 133.347 180.536 133.512 181.272 133.512C181.944 133.512 182.536 133.368 183.048 133.08C183.56 132.792 183.96 132.355 184.248 131.768H186.44C186.024 132.835 185.352 133.656 184.424 134.232C183.507 134.808 182.456 135.096 181.272 135.096C180.227 135.096 179.272 134.856 178.408 134.376C177.544 133.885 176.856 133.208 176.344 132.344C175.843 131.48 175.592 130.504 175.592 129.416ZM195.759 123.88V125.368H192.799V135H190.975V125.368H187.999V123.88H195.759ZM198.342 135.112C198.012 135.112 197.734 135 197.51 134.776C197.286 134.552 197.174 134.275 197.174 133.944C197.174 133.613 197.286 133.336 197.51 133.112C197.734 132.888 198.012 132.776 198.342 132.776C198.662 132.776 198.934 132.888 199.158 133.112C199.382 133.336 199.494 133.613 199.494 133.944C199.494 134.275 199.382 134.552 199.158 134.776C198.934 135 198.662 135.112 198.342 135.112ZM198.342 128.392C198.012 128.392 197.734 128.28 197.51 128.056C197.286 127.832 197.174 127.555 197.174 127.224C197.174 126.893 197.286 126.616 197.51 126.392C197.734 126.168 198.012 126.056 198.342 126.056C198.662 126.056 198.934 126.168 199.158 126.392C199.382 126.616 199.494 126.893 199.494 127.224C199.494 127.555 199.382 127.832 199.158 128.056C198.934 128.28 198.662 128.392 198.342 128.392ZM207.508 127.464C207.775 127.016 208.127 126.669 208.564 126.424C209.012 126.168 209.54 126.04 210.148 126.04V127.928H209.684C208.97 127.928 208.426 128.109 208.052 128.472C207.69 128.835 207.508 129.464 207.508 130.36V135H205.684V126.184H207.508V127.464ZM211.217 130.552C211.217 129.667 211.398 128.883 211.761 128.2C212.134 127.517 212.636 126.989 213.265 126.616C213.905 126.232 214.609 126.04 215.377 126.04C216.07 126.04 216.673 126.179 217.185 126.456C217.708 126.723 218.124 127.059 218.433 127.464V126.184H220.273V135H218.433V133.688C218.124 134.104 217.702 134.451 217.169 134.728C216.636 135.005 216.028 135.144 215.345 135.144C214.588 135.144 213.894 134.952 213.265 134.568C212.636 134.173 212.134 133.629 211.761 132.936C211.398 132.232 211.217 131.437 211.217 130.552ZM218.433 130.584C218.433 129.976 218.305 129.448 218.049 129C217.804 128.552 217.478 128.211 217.073 127.976C216.668 127.741 216.23 127.624 215.761 127.624C215.292 127.624 214.854 127.741 214.449 127.976C214.044 128.2 213.713 128.536 213.457 128.984C213.212 129.421 213.089 129.944 213.089 130.552C213.089 131.16 213.212 131.693 213.457 132.152C213.713 132.611 214.044 132.963 214.449 133.208C214.865 133.443 215.302 133.56 215.761 133.56C216.23 133.56 216.668 133.443 217.073 133.208C217.478 132.973 217.804 132.632 218.049 132.184C218.305 131.725 218.433 131.192 218.433 130.584ZM234.509 126.184L231.773 135H229.853L228.077 128.488L226.301 135H224.381L221.629 126.184H223.485L225.325 133.272L227.197 126.184H229.101L230.893 133.24L232.717 126.184H234.509Z" fill="#666666"/>
<path d="M175.592 183.416C175.592 182.328 175.843 181.352 176.344 180.488C176.856 179.624 177.544 178.952 178.408 178.472C179.283 177.981 180.237 177.736 181.272 177.736C182.456 177.736 183.507 178.029 184.424 178.616C185.352 179.192 186.024 180.013 186.44 181.08H184.248C183.96 180.493 183.56 180.056 183.048 179.768C182.536 179.48 181.944 179.336 181.272 179.336C180.536 179.336 179.88 179.501 179.304 179.832C178.728 180.163 178.275 180.637 177.944 181.256C177.624 181.875 177.464 182.595 177.464 183.416C177.464 184.237 177.624 184.957 177.944 185.576C178.275 186.195 178.728 186.675 179.304 187.016C179.88 187.347 180.536 187.512 181.272 187.512C181.944 187.512 182.536 187.368 183.048 187.08C183.56 186.792 183.96 186.355 184.248 185.768H186.44C186.024 186.835 185.352 187.656 184.424 188.232C183.507 188.808 182.456 189.096 181.272 189.096C180.227 189.096 179.272 188.856 178.408 188.376C177.544 187.885 176.856 187.208 176.344 186.344C175.843 185.48 175.592 184.504 175.592 183.416ZM200.287 177.88V189H198.463V181.384L195.071 189H193.807L190.399 181.384V189H188.575V177.88H190.543L194.447 186.6L198.335 177.88H200.287ZM203.42 189.112C203.09 189.112 202.812 189 202.588 188.776C202.364 188.552 202.252 188.275 202.252 187.944C202.252 187.613 202.364 187.336 202.588 187.112C202.812 186.888 203.09 186.776 203.42 186.776C203.74 186.776 204.012 186.888 204.236 187.112C204.46 187.336 204.572 187.613 204.572 187.944C204.572 188.275 204.46 188.552 204.236 188.776C204.012 189 203.74 189.112 203.42 189.112ZM203.42 182.392C203.09 182.392 202.812 182.28 202.588 182.056C202.364 181.832 202.252 181.555 202.252 181.224C202.252 180.893 202.364 180.616 202.588 180.392C202.812 180.168 203.09 180.056 203.42 180.056C203.74 180.056 204.012 180.168 204.236 180.392C204.46 180.616 204.572 180.893 204.572 181.224C204.572 181.555 204.46 181.832 204.236 182.056C204.012 182.28 203.74 182.392 203.42 182.392ZM215.323 180.04C215.995 180.04 216.592 180.184 217.115 180.472C217.648 180.76 218.064 181.187 218.363 181.752C218.672 182.317 218.827 183 218.827 183.8V189H217.019V184.072C217.019 183.283 216.821 182.68 216.427 182.264C216.032 181.837 215.493 181.624 214.811 181.624C214.128 181.624 213.584 181.837 213.179 182.264C212.784 182.68 212.587 183.283 212.587 184.072V189H210.763V177.16H212.587V181.208C212.896 180.835 213.285 180.547 213.755 180.344C214.235 180.141 214.757 180.04 215.323 180.04ZM223.281 181.672V186.552C223.281 186.883 223.356 187.123 223.505 187.272C223.665 187.411 223.932 187.48 224.305 187.48H225.425V189H223.985C223.164 189 222.534 188.808 222.097 188.424C221.66 188.04 221.441 187.416 221.441 186.552V181.672H220.401V180.184H221.441V177.992H223.281V180.184H225.425V181.672H223.281ZM229.234 181.672V186.552C229.234 186.883 229.309 187.123 229.458 187.272C229.618 187.411 229.885 187.48 230.258 187.48H231.378V189H229.938C229.117 189 228.488 188.808 228.05 188.424C227.613 188.04 227.394 187.416 227.394 186.552V181.672H226.354V180.184H227.394V177.992H229.234V180.184H231.378V181.672H229.234ZM234.883 181.48C235.193 181.075 235.614 180.733 236.147 180.456C236.681 180.179 237.283 180.04 237.955 180.04C238.723 180.04 239.422 180.232 240.051 180.616C240.691 180.989 241.193 181.517 241.555 182.2C241.918 182.883 242.099 183.667 242.099 184.552C242.099 185.437 241.918 186.232 241.555 186.936C241.193 187.629 240.691 188.173 240.051 188.568C239.422 188.952 238.723 189.144 237.955 189.144C237.283 189.144 236.686 189.011 236.163 188.744C235.641 188.467 235.214 188.125 234.883 187.72V193.192H233.059V180.184H234.883V181.48ZM240.243 184.552C240.243 183.944 240.115 183.421 239.859 182.984C239.614 182.536 239.283 182.2 238.867 181.976C238.462 181.741 238.025 181.624 237.555 181.624C237.097 181.624 236.659 181.741 236.243 181.976C235.838 182.211 235.507 182.552 235.251 183C235.006 183.448 234.883 183.976 234.883 184.584C234.883 185.192 235.006 185.725 235.251 186.184C235.507 186.632 235.838 186.973 236.243 187.208C236.659 187.443 237.097 187.56 237.555 187.56C238.025 187.56 238.462 187.443 238.867 187.208C239.283 186.963 239.614 186.611 239.859 186.152C240.115 185.693 240.243 185.16 240.243 184.552ZM247.103 189.144C246.41 189.144 245.786 189.021 245.231 188.776C244.687 188.52 244.255 188.179 243.935 187.752C243.615 187.315 243.444 186.829 243.423 186.296H245.311C245.343 186.669 245.519 186.984 245.839 187.24C246.17 187.485 246.58 187.608 247.071 187.608C247.583 187.608 247.978 187.512 248.255 187.32C248.543 187.117 248.687 186.861 248.687 186.552C248.687 186.221 248.527 185.976 248.207 185.816C247.898 185.656 247.402 185.48 246.719 185.288C246.058 185.107 245.519 184.931 245.103 184.76C244.687 184.589 244.324 184.328 244.015 183.976C243.716 183.624 243.567 183.16 243.567 182.584C243.567 182.115 243.706 181.688 243.983 181.304C244.26 180.909 244.655 180.6 245.167 180.376C245.69 180.152 246.287 180.04 246.959 180.04C247.962 180.04 248.767 180.296 249.375 180.808C249.994 181.309 250.324 181.997 250.367 182.872H248.543C248.511 182.477 248.351 182.163 248.063 181.928C247.775 181.693 247.386 181.576 246.895 181.576C246.415 181.576 246.047 181.667 245.791 181.848C245.535 182.029 245.407 182.269 245.407 182.568C245.407 182.803 245.492 183 245.663 183.16C245.834 183.32 246.042 183.448 246.287 183.544C246.532 183.629 246.895 183.741 247.375 183.88C248.015 184.051 248.538 184.227 248.943 184.408C249.359 184.579 249.716 184.835 250.015 185.176C250.314 185.517 250.468 185.971 250.479 186.536C250.479 187.037 250.34 187.485 250.063 187.88C249.786 188.275 249.391 188.584 248.879 188.808C248.378 189.032 247.786 189.144 247.103 189.144ZM175.592 207.416C175.592 206.328 175.843 205.352 176.344 204.488C176.856 203.624 177.544 202.952 178.408 202.472C179.283 201.981 180.237 201.736 181.272 201.736C182.456 201.736 183.507 202.029 184.424 202.616C185.352 203.192 186.024 204.013 186.44 205.08H184.248C183.96 204.493 183.56 204.056 183.048 203.768C182.536 203.48 181.944 203.336 181.272 203.336C180.536 203.336 179.88 203.501 179.304 203.832C178.728 204.163 178.275 204.637 177.944 205.256C177.624 205.875 177.464 206.595 177.464 207.416C177.464 208.237 177.624 208.957 177.944 209.576C178.275 210.195 178.728 210.675 179.304 211.016C179.88 211.347 180.536 211.512 181.272 211.512C181.944 211.512 182.536 211.368 183.048 211.08C183.56 210.792 183.96 210.355 184.248 209.768H186.44C186.024 210.835 185.352 211.656 184.424 212.232C183.507 212.808 182.456 213.096 181.272 213.096C180.227 213.096 179.272 212.856 178.408 212.376C177.544 211.885 176.856 211.208 176.344 210.344C175.843 209.48 175.592 208.504 175.592 207.416ZM195.759 201.88V203.368H192.799V213H190.975V203.368H187.999V201.88H195.759ZM198.342 213.112C198.012 213.112 197.734 213 197.51 212.776C197.286 212.552 197.174 212.275 197.174 211.944C197.174 211.613 197.286 211.336 197.51 211.112C197.734 210.888 198.012 210.776 198.342 210.776C198.662 210.776 198.934 210.888 199.158 211.112C199.382 211.336 199.494 211.613 199.494 211.944C199.494 212.275 199.382 212.552 199.158 212.776C198.934 213 198.662 213.112 198.342 213.112ZM198.342 206.392C198.012 206.392 197.734 206.28 197.51 206.056C197.286 205.832 197.174 205.555 197.174 205.224C197.174 204.893 197.286 204.616 197.51 204.392C197.734 204.168 198.012 204.056 198.342 204.056C198.662 204.056 198.934 204.168 199.158 204.392C199.382 204.616 199.494 204.893 199.494 205.224C199.494 205.555 199.382 205.832 199.158 206.056C198.934 206.28 198.662 206.392 198.342 206.392ZM211.748 201.88V209.896C211.748 210.888 211.444 211.672 210.836 212.248C210.239 212.824 209.45 213.112 208.468 213.112C207.487 213.112 206.692 212.824 206.084 212.248C205.487 211.672 205.188 210.888 205.188 209.896H207.028C207.039 210.387 207.162 210.776 207.396 211.064C207.642 211.352 207.999 211.496 208.468 211.496C208.938 211.496 209.295 211.352 209.54 211.064C209.786 210.765 209.908 210.376 209.908 209.896V201.88H211.748ZM214.108 208.552C214.108 207.667 214.289 206.883 214.652 206.2C215.025 205.517 215.526 204.989 216.156 204.616C216.796 204.232 217.5 204.04 218.268 204.04C218.961 204.04 219.564 204.179 220.076 204.456C220.598 204.723 221.014 205.059 221.324 205.464V204.184H223.164V213H221.324V211.688C221.014 212.104 220.593 212.451 220.06 212.728C219.526 213.005 218.918 213.144 218.236 213.144C217.478 213.144 216.785 212.952 216.156 212.568C215.526 212.173 215.025 211.629 214.652 210.936C214.289 210.232 214.108 209.437 214.108 208.552ZM221.324 208.584C221.324 207.976 221.196 207.448 220.94 207C220.694 206.552 220.369 206.211 219.964 205.976C219.558 205.741 219.121 205.624 218.652 205.624C218.182 205.624 217.745 205.741 217.34 205.976C216.934 206.2 216.604 206.536 216.348 206.984C216.102 207.421 215.98 207.944 215.98 208.552C215.98 209.16 216.102 209.693 216.348 210.152C216.604 210.611 216.934 210.963 217.34 211.208C217.756 211.443 218.193 211.56 218.652 211.56C219.121 211.56 219.558 211.443 219.964 211.208C220.369 210.973 220.694 210.632 220.94 210.184C221.196 209.725 221.324 209.192 221.324 208.584ZM228.759 213.144C228.066 213.144 227.442 213.021 226.887 212.776C226.343 212.52 225.911 212.179 225.591 211.752C225.271 211.315 225.101 210.829 225.079 210.296H226.967C226.999 210.669 227.175 210.984 227.495 211.24C227.826 211.485 228.237 211.608 228.727 211.608C229.239 211.608 229.634 211.512 229.911 211.32C230.199 211.117 230.343 210.861 230.343 210.552C230.343 210.221 230.183 209.976 229.863 209.816C229.554 209.656 229.058 209.48 228.375 209.288C227.714 209.107 227.175 208.931 226.759 208.76C226.343 208.589 225.981 208.328 225.671 207.976C225.373 207.624 225.223 207.16 225.223 206.584C225.223 206.115 225.362 205.688 225.639 205.304C225.917 204.909 226.311 204.6 226.823 204.376C227.346 204.152 227.943 204.04 228.615 204.04C229.618 204.04 230.423 204.296 231.031 204.808C231.65 205.309 231.981 205.997 232.023 206.872H230.199C230.167 206.477 230.007 206.163 229.719 205.928C229.431 205.693 229.042 205.576 228.551 205.576C228.071 205.576 227.703 205.667 227.447 205.848C227.191 206.029 227.063 206.269 227.063 206.568C227.063 206.803 227.149 207 227.319 207.16C227.49 207.32 227.698 207.448 227.943 207.544C228.189 207.629 228.551 207.741 229.031 207.88C229.671 208.051 230.194 208.227 230.599 208.408C231.015 208.579 231.373 208.835 231.671 209.176C231.97 209.517 232.125 209.971 232.135 210.536C232.135 211.037 231.997 211.485 231.719 211.88C231.442 212.275 231.047 212.584 230.535 212.808C230.034 213.032 229.442 213.144 228.759 213.144ZM237.93 213.144C237.098 213.144 236.346 212.957 235.674 212.584C235.002 212.2 234.474 211.667 234.09 210.984C233.706 210.291 233.514 209.491 233.514 208.584C233.514 207.688 233.712 206.893 234.106 206.2C234.501 205.507 235.04 204.973 235.722 204.6C236.405 204.227 237.168 204.04 238.01 204.04C238.853 204.04 239.616 204.227 240.298 204.6C240.981 204.973 241.52 205.507 241.914 206.2C242.309 206.893 242.506 207.688 242.506 208.584C242.506 209.48 242.304 210.275 241.898 210.968C241.493 211.661 240.938 212.2 240.234 212.584C239.541 212.957 238.773 213.144 237.93 213.144ZM237.93 211.56C238.4 211.56 238.837 211.448 239.242 211.224C239.658 211 239.994 210.664 240.25 210.216C240.506 209.768 240.634 209.224 240.634 208.584C240.634 207.944 240.512 207.405 240.266 206.968C240.021 206.52 239.696 206.184 239.29 205.96C238.885 205.736 238.448 205.624 237.978 205.624C237.509 205.624 237.072 205.736 236.666 205.96C236.272 206.184 235.957 206.52 235.722 206.968C235.488 207.405 235.37 207.944 235.37 208.584C235.37 209.533 235.61 210.269 236.09 210.792C236.581 211.304 237.194 211.56 237.93 211.56ZM248.757 204.04C249.451 204.04 250.069 204.184 250.613 204.472C251.168 204.76 251.6 205.187 251.909 205.752C252.219 206.317 252.373 207 252.373 207.8V213H250.565V208.072C250.565 207.283 250.368 206.68 249.973 206.264C249.579 205.837 249.04 205.624 248.357 205.624C247.675 205.624 247.131 205.837 246.725 206.264C246.331 206.68 246.133 207.283 246.133 208.072V213H244.309V204.184H246.133V205.192C246.432 204.829 246.811 204.547 247.269 204.344C247.739 204.141 248.235 204.04 248.757 204.04Z" fill="#666666"/>
<path d="M175.592 261.416C175.592 260.328 175.843 259.352 176.344 258.488C176.856 257.624 177.544 256.952 178.408 256.472C179.283 255.981 180.237 255.736 181.272 255.736C182.456 255.736 183.507 256.029 184.424 256.616C185.352 257.192 186.024 258.013 186.44 259.08H184.248C183.96 258.493 183.56 258.056 183.048 257.768C182.536 257.48 181.944 257.336 181.272 257.336C180.536 257.336 179.88 257.501 179.304 257.832C178.728 258.163 178.275 258.637 177.944 259.256C177.624 259.875 177.464 260.595 177.464 261.416C177.464 262.237 177.624 262.957 177.944 263.576C178.275 264.195 178.728 264.675 179.304 265.016C179.88 265.347 180.536 265.512 181.272 265.512C181.944 265.512 182.536 265.368 183.048 265.08C183.56 264.792 183.96 264.355 184.248 263.768H186.44C186.024 264.835 185.352 265.656 184.424 266.232C183.507 266.808 182.456 267.096 181.272 267.096C180.227 267.096 179.272 266.856 178.408 266.376C177.544 265.885 176.856 265.208 176.344 264.344C175.843 263.48 175.592 262.504 175.592 261.416ZM200.287 255.88V267H198.463V259.384L195.071 267H193.807L190.399 259.384V267H188.575V255.88H190.543L194.447 264.6L198.335 255.88H200.287ZM203.42 267.112C203.09 267.112 202.812 267 202.588 266.776C202.364 266.552 202.252 266.275 202.252 265.944C202.252 265.613 202.364 265.336 202.588 265.112C202.812 264.888 203.09 264.776 203.42 264.776C203.74 264.776 204.012 264.888 204.236 265.112C204.46 265.336 204.572 265.613 204.572 265.944C204.572 266.275 204.46 266.552 204.236 266.776C204.012 267 203.74 267.112 203.42 267.112ZM203.42 260.392C203.09 260.392 202.812 260.28 202.588 260.056C202.364 259.832 202.252 259.555 202.252 259.224C202.252 258.893 202.364 258.616 202.588 258.392C202.812 258.168 203.09 258.056 203.42 258.056C203.74 258.056 204.012 258.168 204.236 258.392C204.46 258.616 204.572 258.893 204.572 259.224C204.572 259.555 204.46 259.832 204.236 260.056C204.012 260.28 203.74 260.392 203.42 260.392ZM213.963 267.144C213.269 267.144 212.645 267.021 212.091 266.776C211.547 266.52 211.115 266.179 210.795 265.752C210.475 265.315 210.304 264.829 210.283 264.296H212.171C212.203 264.669 212.379 264.984 212.699 265.24C213.029 265.485 213.44 265.608 213.931 265.608C214.443 265.608 214.837 265.512 215.115 265.32C215.403 265.117 215.547 264.861 215.547 264.552C215.547 264.221 215.387 263.976 215.067 263.816C214.757 263.656 214.261 263.48 213.579 263.288C212.917 263.107 212.379 262.931 211.963 262.76C211.547 262.589 211.184 262.328 210.875 261.976C210.576 261.624 210.427 261.16 210.427 260.584C210.427 260.115 210.565 259.688 210.843 259.304C211.12 258.909 211.515 258.6 212.027 258.376C212.549 258.152 213.147 258.04 213.819 258.04C214.821 258.04 215.627 258.296 216.235 258.808C216.853 259.309 217.184 259.997 217.227 260.872H215.403C215.371 260.477 215.211 260.163 214.923 259.928C214.635 259.693 214.245 259.576 213.755 259.576C213.275 259.576 212.907 259.667 212.651 259.848C212.395 260.029 212.267 260.269 212.267 260.568C212.267 260.803 212.352 261 212.523 261.16C212.693 261.32 212.901 261.448 213.147 261.544C213.392 261.629 213.755 261.741 214.235 261.88C214.875 262.051 215.397 262.227 215.803 262.408C216.219 262.579 216.576 262.835 216.875 263.176C217.173 263.517 217.328 263.971 217.339 264.536C217.339 265.037 217.2 265.485 216.923 265.88C216.645 266.275 216.251 266.584 215.739 266.808C215.237 267.032 214.645 267.144 213.963 267.144ZM225.853 255.88V257.368H221.133V260.648H224.813V262.136H221.133V267H219.309V255.88H225.853ZM229.672 259.672V264.552C229.672 264.883 229.746 265.123 229.896 265.272C230.056 265.411 230.322 265.48 230.696 265.48H231.816V267H230.376C229.554 267 228.925 266.808 228.488 266.424C228.05 266.04 227.832 265.416 227.832 264.552V259.672H226.792V258.184H227.832V255.992H229.672V258.184H231.816V259.672H229.672ZM235.321 259.48C235.63 259.075 236.052 258.733 236.585 258.456C237.118 258.179 237.721 258.04 238.393 258.04C239.161 258.04 239.86 258.232 240.489 258.616C241.129 258.989 241.63 259.517 241.993 260.2C242.356 260.883 242.537 261.667 242.537 262.552C242.537 263.437 242.356 264.232 241.993 264.936C241.63 265.629 241.129 266.173 240.489 266.568C239.86 266.952 239.161 267.144 238.393 267.144C237.721 267.144 237.124 267.011 236.601 266.744C236.078 266.467 235.652 266.125 235.321 265.72V271.192H233.497V258.184H235.321V259.48ZM240.681 262.552C240.681 261.944 240.553 261.421 240.297 260.984C240.052 260.536 239.721 260.2 239.305 259.976C238.9 259.741 238.462 259.624 237.993 259.624C237.534 259.624 237.097 259.741 236.681 259.976C236.276 260.211 235.945 260.552 235.689 261C235.444 261.448 235.321 261.976 235.321 262.584C235.321 263.192 235.444 263.725 235.689 264.184C235.945 264.632 236.276 264.973 236.681 265.208C237.097 265.443 237.534 265.56 237.993 265.56C238.462 265.56 238.9 265.443 239.305 265.208C239.721 264.963 240.052 264.611 240.297 264.152C240.553 263.693 240.681 263.16 240.681 262.552ZM175.592 285.416C175.592 284.328 175.843 283.352 176.344 282.488C176.856 281.624 177.544 280.952 178.408 280.472C179.283 279.981 180.237 279.736 181.272 279.736C182.456 279.736 183.507 280.029 184.424 280.616C185.352 281.192 186.024 282.013 186.44 283.08H184.248C183.96 282.493 183.56 282.056 183.048 281.768C182.536 281.48 181.944 281.336 181.272 281.336C180.536 281.336 179.88 281.501 179.304 281.832C178.728 282.163 178.275 282.637 177.944 283.256C177.624 283.875 177.464 284.595 177.464 285.416C177.464 286.237 177.624 286.957 177.944 287.576C178.275 288.195 178.728 288.675 179.304 289.016C179.88 289.347 180.536 289.512 181.272 289.512C181.944 289.512 182.536 289.368 183.048 289.08C183.56 288.792 183.96 288.355 184.248 287.768H186.44C186.024 288.835 185.352 289.656 184.424 290.232C183.507 290.808 182.456 291.096 181.272 291.096C180.227 291.096 179.272 290.856 178.408 290.376C177.544 289.885 176.856 289.208 176.344 288.344C175.843 287.48 175.592 286.504 175.592 285.416ZM195.759 279.88V281.368H192.799V291H190.975V281.368H187.999V279.88H195.759ZM198.342 291.112C198.012 291.112 197.734 291 197.51 290.776C197.286 290.552 197.174 290.275 197.174 289.944C197.174 289.613 197.286 289.336 197.51 289.112C197.734 288.888 198.012 288.776 198.342 288.776C198.662 288.776 198.934 288.888 199.158 289.112C199.382 289.336 199.494 289.613 199.494 289.944C199.494 290.275 199.382 290.552 199.158 290.776C198.934 291 198.662 291.112 198.342 291.112ZM198.342 284.392C198.012 284.392 197.734 284.28 197.51 284.056C197.286 283.832 197.174 283.555 197.174 283.224C197.174 282.893 197.286 282.616 197.51 282.392C197.734 282.168 198.012 282.056 198.342 282.056C198.662 282.056 198.934 282.168 199.158 282.392C199.382 282.616 199.494 282.893 199.494 283.224C199.494 283.555 199.382 283.832 199.158 284.056C198.934 284.28 198.662 284.392 198.342 284.392ZM212.868 279.88V281.368H209.908V291H208.084V281.368H205.108V279.88H212.868ZM222.796 286.376C222.796 286.707 222.774 287.005 222.732 287.272H215.996C216.049 287.976 216.31 288.541 216.78 288.968C217.249 289.395 217.825 289.608 218.508 289.608C219.489 289.608 220.182 289.197 220.588 288.376H222.556C222.289 289.187 221.804 289.853 221.1 290.376C220.406 290.888 219.542 291.144 218.508 291.144C217.665 291.144 216.908 290.957 216.236 290.584C215.574 290.2 215.052 289.667 214.668 288.984C214.294 288.291 214.108 287.491 214.108 286.584C214.108 285.677 214.289 284.883 214.652 284.2C215.025 283.507 215.542 282.973 216.204 282.6C216.876 282.227 217.644 282.04 218.508 282.04C219.34 282.04 220.081 282.221 220.732 282.584C221.382 282.947 221.889 283.459 222.252 284.12C222.614 284.771 222.796 285.523 222.796 286.376ZM220.892 285.8C220.881 285.128 220.641 284.589 220.172 284.184C219.702 283.779 219.121 283.576 218.428 283.576C217.798 283.576 217.26 283.779 216.812 284.184C216.364 284.579 216.097 285.117 216.012 285.8H220.892ZM228.367 286.536L231.215 291H229.151L227.247 288.008L225.455 291H223.551L226.399 286.664L223.551 282.184H225.615L227.519 285.176L229.311 282.184H231.215L228.367 286.536ZM234.703 283.672V288.552C234.703 288.883 234.778 289.123 234.927 289.272C235.087 289.411 235.354 289.48 235.727 289.48H236.847V291H235.407C234.586 291 233.956 290.808 233.519 290.424C233.082 290.04 232.863 289.416 232.863 288.552V283.672H231.823V282.184H232.863V279.992H234.703V282.184H236.847V283.672H234.703Z" fill="#666666"/>
<path d="M175.592 339.416C175.592 338.328 175.843 337.352 176.344 336.488C176.856 335.624 177.544 334.952 178.408 334.472C179.283 333.981 180.237 333.736 181.272 333.736C182.456 333.736 183.507 334.029 184.424 334.616C185.352 335.192 186.024 336.013 186.44 337.08H184.248C183.96 336.493 183.56 336.056 183.048 335.768C182.536 335.48 181.944 335.336 181.272 335.336C180.536 335.336 179.88 335.501 179.304 335.832C178.728 336.163 178.275 336.637 177.944 337.256C177.624 337.875 177.464 338.595 177.464 339.416C177.464 340.237 177.624 340.957 177.944 341.576C178.275 342.195 178.728 342.675 179.304 343.016C179.88 343.347 180.536 343.512 181.272 343.512C181.944 343.512 182.536 343.368 183.048 343.08C183.56 342.792 183.96 342.355 184.248 341.768H186.44C186.024 342.835 185.352 343.656 184.424 344.232C183.507 344.808 182.456 345.096 181.272 345.096C180.227 345.096 179.272 344.856 178.408 344.376C177.544 343.885 176.856 343.208 176.344 342.344C175.843 341.48 175.592 340.504 175.592 339.416ZM200.287 333.88V345H198.463V337.384L195.071 345H193.807L190.399 337.384V345H188.575V333.88H190.543L194.447 342.6L198.335 333.88H200.287ZM203.42 345.112C203.09 345.112 202.812 345 202.588 344.776C202.364 344.552 202.252 344.275 202.252 343.944C202.252 343.613 202.364 343.336 202.588 343.112C202.812 342.888 203.09 342.776 203.42 342.776C203.74 342.776 204.012 342.888 204.236 343.112C204.46 343.336 204.572 343.613 204.572 343.944C204.572 344.275 204.46 344.552 204.236 344.776C204.012 345 203.74 345.112 203.42 345.112ZM203.42 338.392C203.09 338.392 202.812 338.28 202.588 338.056C202.364 337.832 202.252 337.555 202.252 337.224C202.252 336.893 202.364 336.616 202.588 336.392C202.812 336.168 203.09 336.056 203.42 336.056C203.74 336.056 204.012 336.168 204.236 336.392C204.46 336.616 204.572 336.893 204.572 337.224C204.572 337.555 204.46 337.832 204.236 338.056C204.012 338.28 203.74 338.392 203.42 338.392ZM215.323 336.04C215.995 336.04 216.592 336.184 217.115 336.472C217.648 336.76 218.064 337.187 218.363 337.752C218.672 338.317 218.827 339 218.827 339.8V345H217.019V340.072C217.019 339.283 216.821 338.68 216.427 338.264C216.032 337.837 215.493 337.624 214.811 337.624C214.128 337.624 213.584 337.837 213.179 338.264C212.784 338.68 212.587 339.283 212.587 340.072V345H210.763V333.16H212.587V337.208C212.896 336.835 213.285 336.547 213.755 336.344C214.235 336.141 214.757 336.04 215.323 336.04ZM223.281 337.672V342.552C223.281 342.883 223.356 343.123 223.505 343.272C223.665 343.411 223.932 343.48 224.305 343.48H225.425V345H223.985C223.164 345 222.534 344.808 222.097 344.424C221.66 344.04 221.441 343.416 221.441 342.552V337.672H220.401V336.184H221.441V333.992H223.281V336.184H225.425V337.672H223.281ZM229.234 337.672V342.552C229.234 342.883 229.309 343.123 229.458 343.272C229.618 343.411 229.885 343.48 230.258 343.48H231.378V345H229.938C229.117 345 228.488 344.808 228.05 344.424C227.613 344.04 227.394 343.416 227.394 342.552V337.672H226.354V336.184H227.394V333.992H229.234V336.184H231.378V337.672H229.234ZM234.883 337.48C235.193 337.075 235.614 336.733 236.147 336.456C236.681 336.179 237.283 336.04 237.955 336.04C238.723 336.04 239.422 336.232 240.051 336.616C240.691 336.989 241.193 337.517 241.555 338.2C241.918 338.883 242.099 339.667 242.099 340.552C242.099 341.437 241.918 342.232 241.555 342.936C241.193 343.629 240.691 344.173 240.051 344.568C239.422 344.952 238.723 345.144 237.955 345.144C237.283 345.144 236.686 345.011 236.163 344.744C235.641 344.467 235.214 344.125 234.883 343.72V349.192H233.059V336.184H234.883V337.48ZM240.243 340.552C240.243 339.944 240.115 339.421 239.859 338.984C239.614 338.536 239.283 338.2 238.867 337.976C238.462 337.741 238.025 337.624 237.555 337.624C237.097 337.624 236.659 337.741 236.243 337.976C235.838 338.211 235.507 338.552 235.251 339C235.006 339.448 234.883 339.976 234.883 340.584C234.883 341.192 235.006 341.725 235.251 342.184C235.507 342.632 235.838 342.973 236.243 343.208C236.659 343.443 237.097 343.56 237.555 343.56C238.025 343.56 238.462 343.443 238.867 343.208C239.283 342.963 239.614 342.611 239.859 342.152C240.115 341.693 240.243 341.16 240.243 340.552ZM247.103 345.144C246.41 345.144 245.786 345.021 245.231 344.776C244.687 344.52 244.255 344.179 243.935 343.752C243.615 343.315 243.444 342.829 243.423 342.296H245.311C245.343 342.669 245.519 342.984 245.839 343.24C246.17 343.485 246.58 343.608 247.071 343.608C247.583 343.608 247.978 343.512 248.255 343.32C248.543 343.117 248.687 342.861 248.687 342.552C248.687 342.221 248.527 341.976 248.207 341.816C247.898 341.656 247.402 341.48 246.719 341.288C246.058 341.107 245.519 340.931 245.103 340.76C244.687 340.589 244.324 340.328 244.015 339.976C243.716 339.624 243.567 339.16 243.567 338.584C243.567 338.115 243.706 337.688 243.983 337.304C244.26 336.909 244.655 336.6 245.167 336.376C245.69 336.152 246.287 336.04 246.959 336.04C247.962 336.04 248.767 336.296 249.375 336.808C249.994 337.309 250.324 337.997 250.367 338.872H248.543C248.511 338.477 248.351 338.163 248.063 337.928C247.775 337.693 247.386 337.576 246.895 337.576C246.415 337.576 246.047 337.667 245.791 337.848C245.535 338.029 245.407 338.269 245.407 338.568C245.407 338.803 245.492 339 245.663 339.16C245.834 339.32 246.042 339.448 246.287 339.544C246.532 339.629 246.895 339.741 247.375 339.88C248.015 340.051 248.538 340.227 248.943 340.408C249.359 340.579 249.716 340.835 250.015 341.176C250.314 341.517 250.468 341.971 250.479 342.536C250.479 343.037 250.34 343.485 250.063 343.88C249.786 344.275 249.391 344.584 248.879 344.808C248.378 345.032 247.786 345.144 247.103 345.144ZM175.592 363.416C175.592 362.328 175.843 361.352 176.344 360.488C176.856 359.624 177.544 358.952 178.408 358.472C179.283 357.981 180.237 357.736 181.272 357.736C182.456 357.736 183.507 358.029 184.424 358.616C185.352 359.192 186.024 360.013 186.44 361.08H184.248C183.96 360.493 183.56 360.056 183.048 359.768C182.536 359.48 181.944 359.336 181.272 359.336C180.536 359.336 179.88 359.501 179.304 359.832C178.728 360.163 178.275 360.637 177.944 361.256C177.624 361.875 177.464 362.595 177.464 363.416C177.464 364.237 177.624 364.957 177.944 365.576C178.275 366.195 178.728 366.675 179.304 367.016C179.88 367.347 180.536 367.512 181.272 367.512C181.944 367.512 182.536 367.368 183.048 367.08C183.56 366.792 183.96 366.355 184.248 365.768H186.44C186.024 366.835 185.352 367.656 184.424 368.232C183.507 368.808 182.456 369.096 181.272 369.096C180.227 369.096 179.272 368.856 178.408 368.376C177.544 367.885 176.856 367.208 176.344 366.344C175.843 365.48 175.592 364.504 175.592 363.416ZM195.759 357.88V359.368H192.799V369H190.975V359.368H187.999V357.88H195.759ZM198.342 369.112C198.012 369.112 197.734 369 197.51 368.776C197.286 368.552 197.174 368.275 197.174 367.944C197.174 367.613 197.286 367.336 197.51 367.112C197.734 366.888 198.012 366.776 198.342 366.776C198.662 366.776 198.934 366.888 199.158 367.112C199.382 367.336 199.494 367.613 199.494 367.944C199.494 368.275 199.382 368.552 199.158 368.776C198.934 369 198.662 369.112 198.342 369.112ZM198.342 362.392C198.012 362.392 197.734 362.28 197.51 362.056C197.286 361.832 197.174 361.555 197.174 361.224C197.174 360.893 197.286 360.616 197.51 360.392C197.734 360.168 198.012 360.056 198.342 360.056C198.662 360.056 198.934 360.168 199.158 360.392C199.382 360.616 199.494 360.893 199.494 361.224C199.494 361.555 199.382 361.832 199.158 362.056C198.934 362.28 198.662 362.392 198.342 362.392ZM205.076 363.416C205.076 362.328 205.327 361.352 205.828 360.488C206.34 359.624 207.028 358.952 207.892 358.472C208.767 357.981 209.722 357.736 210.756 357.736C211.94 357.736 212.991 358.029 213.908 358.616C214.836 359.192 215.508 360.013 215.924 361.08H213.732C213.444 360.493 213.044 360.056 212.532 359.768C212.02 359.48 211.428 359.336 210.756 359.336C210.02 359.336 209.364 359.501 208.788 359.832C208.212 360.163 207.759 360.637 207.428 361.256C207.108 361.875 206.948 362.595 206.948 363.416C206.948 364.237 207.108 364.957 207.428 365.576C207.759 366.195 208.212 366.675 208.788 367.016C209.364 367.347 210.02 367.512 210.756 367.512C211.428 367.512 212.02 367.368 212.532 367.08C213.044 366.792 213.444 366.355 213.732 365.768H215.924C215.508 366.835 214.836 367.656 213.908 368.232C212.991 368.808 211.94 369.096 210.756 369.096C209.711 369.096 208.756 368.856 207.892 368.376C207.028 367.885 206.34 367.208 205.828 366.344C205.327 365.48 205.076 364.504 205.076 363.416ZM221.259 369.144C220.566 369.144 219.942 369.021 219.387 368.776C218.843 368.52 218.411 368.179 218.091 367.752C217.771 367.315 217.601 366.829 217.579 366.296H219.467C219.499 366.669 219.675 366.984 219.995 367.24C220.326 367.485 220.737 367.608 221.227 367.608C221.739 367.608 222.134 367.512 222.411 367.32C222.699 367.117 222.843 366.861 222.843 366.552C222.843 366.221 222.683 365.976 222.363 365.816C222.054 365.656 221.558 365.48 220.875 365.288C220.214 365.107 219.675 364.931 219.259 364.76C218.843 364.589 218.481 364.328 218.171 363.976C217.873 363.624 217.723 363.16 217.723 362.584C217.723 362.115 217.862 361.688 218.139 361.304C218.417 360.909 218.811 360.6 219.323 360.376C219.846 360.152 220.443 360.04 221.115 360.04C222.118 360.04 222.923 360.296 223.531 360.808C224.15 361.309 224.481 361.997 224.523 362.872H222.699C222.667 362.477 222.507 362.163 222.219 361.928C221.931 361.693 221.542 361.576 221.051 361.576C220.571 361.576 220.203 361.667 219.947 361.848C219.691 362.029 219.563 362.269 219.563 362.568C219.563 362.803 219.649 363 219.819 363.16C219.99 363.32 220.198 363.448 220.443 363.544C220.689 363.629 221.051 363.741 221.531 363.88C222.171 364.051 222.694 364.227 223.099 364.408C223.515 364.579 223.873 364.835 224.171 365.176C224.47 365.517 224.625 365.971 224.635 366.536C224.635 367.037 224.497 367.485 224.219 367.88C223.942 368.275 223.547 368.584 223.035 368.808C222.534 369.032 221.942 369.144 221.259 369.144ZM230.014 367.368L232.51 360.184H234.446L231.086 369H228.91L225.566 360.184H227.518L230.014 367.368Z" fill="#666666"/>
<path d="M175.592 417.416C175.592 416.328 175.843 415.352 176.344 414.488C176.856 413.624 177.544 412.952 178.408 412.472C179.283 411.981 180.237 411.736 181.272 411.736C182.456 411.736 183.507 412.029 184.424 412.616C185.352 413.192 186.024 414.013 186.44 415.08H184.248C183.96 414.493 183.56 414.056 183.048 413.768C182.536 413.48 181.944 413.336 181.272 413.336C180.536 413.336 179.88 413.501 179.304 413.832C178.728 414.163 178.275 414.637 177.944 415.256C177.624 415.875 177.464 416.595 177.464 417.416C177.464 418.237 177.624 418.957 177.944 419.576C178.275 420.195 178.728 420.675 179.304 421.016C179.88 421.347 180.536 421.512 181.272 421.512C181.944 421.512 182.536 421.368 183.048 421.08C183.56 420.792 183.96 420.355 184.248 419.768H186.44C186.024 420.835 185.352 421.656 184.424 422.232C183.507 422.808 182.456 423.096 181.272 423.096C180.227 423.096 179.272 422.856 178.408 422.376C177.544 421.885 176.856 421.208 176.344 420.344C175.843 419.48 175.592 418.504 175.592 417.416ZM200.287 411.88V423H198.463V415.384L195.071 423H193.807L190.399 415.384V423H188.575V411.88H190.543L194.447 420.6L198.335 411.88H200.287ZM203.42 423.112C203.09 423.112 202.812 423 202.588 422.776C202.364 422.552 202.252 422.275 202.252 421.944C202.252 421.613 202.364 421.336 202.588 421.112C202.812 420.888 203.09 420.776 203.42 420.776C203.74 420.776 204.012 420.888 204.236 421.112C204.46 421.336 204.572 421.613 204.572 421.944C204.572 422.275 204.46 422.552 204.236 422.776C204.012 423 203.74 423.112 203.42 423.112ZM203.42 416.392C203.09 416.392 202.812 416.28 202.588 416.056C202.364 415.832 202.252 415.555 202.252 415.224C202.252 414.893 202.364 414.616 202.588 414.392C202.812 414.168 203.09 414.056 203.42 414.056C203.74 414.056 204.012 414.168 204.236 414.392C204.46 414.616 204.572 414.893 204.572 415.224C204.572 415.555 204.46 415.832 204.236 416.056C204.012 416.28 203.74 416.392 203.42 416.392ZM214.395 411.88C215.579 411.88 216.613 412.109 217.499 412.568C218.395 413.016 219.083 413.667 219.562 414.52C220.053 415.363 220.299 416.349 220.299 417.48C220.299 418.611 220.053 419.592 219.562 420.424C219.083 421.256 218.395 421.896 217.499 422.344C216.613 422.781 215.579 423 214.395 423H210.763V411.88H214.395ZM214.395 421.512C215.696 421.512 216.693 421.16 217.387 420.456C218.08 419.752 218.427 418.76 218.427 417.48C218.427 416.189 218.08 415.181 217.387 414.456C216.693 413.731 215.696 413.368 214.395 413.368H212.587V421.512H214.395ZM228.058 417.288C228.656 417.395 229.162 417.709 229.578 418.232C229.994 418.755 230.202 419.347 230.202 420.008C230.202 420.573 230.053 421.085 229.754 421.544C229.466 421.992 229.045 422.349 228.49 422.616C227.936 422.872 227.29 423 226.554 423H222.106V411.88H226.346C227.104 411.88 227.754 412.008 228.298 412.264C228.842 412.52 229.253 412.867 229.53 413.304C229.808 413.731 229.946 414.211 229.946 414.744C229.946 415.384 229.776 415.917 229.434 416.344C229.093 416.771 228.634 417.085 228.058 417.288ZM223.93 416.552H226.186C226.784 416.552 227.248 416.419 227.578 416.152C227.92 415.875 228.09 415.48 228.09 414.968C228.09 414.467 227.92 414.077 227.578 413.8C227.248 413.512 226.784 413.368 226.186 413.368H223.93V416.552ZM226.394 421.512C227.013 421.512 227.498 421.363 227.85 421.064C228.202 420.765 228.378 420.349 228.378 419.816C228.378 419.272 228.192 418.84 227.818 418.52C227.445 418.2 226.949 418.04 226.33 418.04H223.93V421.512H226.394ZM175.592 441.416C175.592 440.328 175.843 439.352 176.344 438.488C176.856 437.624 177.544 436.952 178.408 436.472C179.283 435.981 180.237 435.736 181.272 435.736C182.456 435.736 183.507 436.029 184.424 436.616C185.352 437.192 186.024 438.013 186.44 439.08H184.248C183.96 438.493 183.56 438.056 183.048 437.768C182.536 437.48 181.944 437.336 181.272 437.336C180.536 437.336 179.88 437.501 179.304 437.832C178.728 438.163 178.275 438.637 177.944 439.256C177.624 439.875 177.464 440.595 177.464 441.416C177.464 442.237 177.624 442.957 177.944 443.576C178.275 444.195 178.728 444.675 179.304 445.016C179.88 445.347 180.536 445.512 181.272 445.512C181.944 445.512 182.536 445.368 183.048 445.08C183.56 444.792 183.96 444.355 184.248 443.768H186.44C186.024 444.835 185.352 445.656 184.424 446.232C183.507 446.808 182.456 447.096 181.272 447.096C180.227 447.096 179.272 446.856 178.408 446.376C177.544 445.885 176.856 445.208 176.344 444.344C175.843 443.48 175.592 442.504 175.592 441.416ZM195.759 435.88V437.368H192.799V447H190.975V437.368H187.999V435.88H195.759ZM198.342 447.112C198.012 447.112 197.734 447 197.51 446.776C197.286 446.552 197.174 446.275 197.174 445.944C197.174 445.613 197.286 445.336 197.51 445.112C197.734 444.888 198.012 444.776 198.342 444.776C198.662 444.776 198.934 444.888 199.158 445.112C199.382 445.336 199.494 445.613 199.494 445.944C199.494 446.275 199.382 446.552 199.158 446.776C198.934 447 198.662 447.112 198.342 447.112ZM198.342 440.392C198.012 440.392 197.734 440.28 197.51 440.056C197.286 439.832 197.174 439.555 197.174 439.224C197.174 438.893 197.286 438.616 197.51 438.392C197.734 438.168 198.012 438.056 198.342 438.056C198.662 438.056 198.934 438.168 199.158 438.392C199.382 438.616 199.494 438.893 199.494 439.224C199.494 439.555 199.382 439.832 199.158 440.056C198.934 440.28 198.662 440.392 198.342 440.392ZM207.508 439.464C207.775 439.016 208.127 438.669 208.564 438.424C209.012 438.168 209.54 438.04 210.148 438.04V439.928H209.684C208.97 439.928 208.426 440.109 208.052 440.472C207.69 440.835 207.508 441.464 207.508 442.36V447H205.684V438.184H207.508V439.464ZM211.217 442.552C211.217 441.667 211.398 440.883 211.761 440.2C212.134 439.517 212.636 438.989 213.265 438.616C213.905 438.232 214.609 438.04 215.377 438.04C216.07 438.04 216.673 438.179 217.185 438.456C217.708 438.723 218.124 439.059 218.433 439.464V438.184H220.273V447H218.433V445.688C218.124 446.104 217.702 446.451 217.169 446.728C216.636 447.005 216.028 447.144 215.345 447.144C214.588 447.144 213.894 446.952 213.265 446.568C212.636 446.173 212.134 445.629 211.761 444.936C211.398 444.232 211.217 443.437 211.217 442.552ZM218.433 442.584C218.433 441.976 218.305 441.448 218.049 441C217.804 440.552 217.478 440.211 217.073 439.976C216.668 439.741 216.23 439.624 215.761 439.624C215.292 439.624 214.854 439.741 214.449 439.976C214.044 440.2 213.713 440.536 213.457 440.984C213.212 441.421 213.089 441.944 213.089 442.552C213.089 443.16 213.212 443.693 213.457 444.152C213.713 444.611 214.044 444.963 214.449 445.208C214.865 445.443 215.302 445.56 215.761 445.56C216.23 445.56 216.668 445.443 217.073 445.208C217.478 444.973 217.804 444.632 218.049 444.184C218.305 443.725 218.433 443.192 218.433 442.584ZM234.509 438.184L231.773 447H229.853L228.077 440.488L226.301 447H224.381L221.629 438.184H223.485L225.325 445.272L227.197 438.184H229.101L230.893 445.24L232.717 438.184H234.509Z" fill="#666666"/>
<rect x="161" y="1" width="107" height="466" rx="14" stroke="#FF4646" stroke-width="2" stroke-dasharray="8 8"/>
<rect x="316" y="15" width="135" height="44" rx="10" fill="#877669"/>
<path d="M349.265 35.192C349.265 35.7573 349.132 36.2907 348.865 36.792C348.598 37.2933 348.172 37.704 347.585 38.024C346.998 38.3333 346.246 38.488 345.329 38.488H343.313V43H341.489V31.88H345.329C346.182 31.88 346.902 32.0293 347.489 32.328C348.086 32.616 348.529 33.0107 348.817 33.512C349.116 34.0133 349.265 34.5733 349.265 35.192ZM345.329 37C346.022 37 346.54 36.8453 346.881 36.536C347.222 36.216 347.393 35.768 347.393 35.192C347.393 33.976 346.705 33.368 345.329 33.368H343.313V37H345.329ZM350.397 38.552C350.397 37.6667 350.578 36.8827 350.941 36.2C351.314 35.5173 351.815 34.9893 352.445 34.616C353.085 34.232 353.789 34.04 354.557 34.04C355.25 34.04 355.853 34.1787 356.365 34.456C356.887 34.7227 357.303 35.0587 357.613 35.464V34.184H359.453V43H357.613V41.688C357.303 42.104 356.882 42.4507 356.349 42.728C355.815 43.0053 355.207 43.144 354.525 43.144C353.767 43.144 353.074 42.952 352.445 42.568C351.815 42.1733 351.314 41.6293 350.941 40.936C350.578 40.232 350.397 39.4373 350.397 38.552ZM357.613 38.584C357.613 37.976 357.485 37.448 357.229 37C356.983 36.552 356.658 36.2107 356.253 35.976C355.847 35.7413 355.41 35.624 354.941 35.624C354.471 35.624 354.034 35.7413 353.629 35.976C353.223 36.2 352.893 36.536 352.637 36.984C352.391 37.4213 352.269 37.944 352.269 38.552C352.269 39.16 352.391 39.6933 352.637 40.152C352.893 40.6107 353.223 40.9627 353.629 41.208C354.045 41.4427 354.482 41.56 354.941 41.56C355.41 41.56 355.847 41.4427 356.253 41.208C356.658 40.9733 356.983 40.632 357.229 40.184C357.485 39.7253 357.613 39.192 357.613 38.584ZM369.784 34.184L364.376 47.144H362.488L364.28 42.856L360.808 34.184H362.84L365.32 40.904L367.896 34.184H369.784ZM381.833 34.04C382.526 34.04 383.145 34.184 383.689 34.472C384.244 34.76 384.676 35.1867 384.985 35.752C385.305 36.3173 385.465 37 385.465 37.8V43H383.657V38.072C383.657 37.2827 383.46 36.68 383.065 36.264C382.67 35.8373 382.132 35.624 381.449 35.624C380.766 35.624 380.222 35.8373 379.817 36.264C379.422 36.68 379.225 37.2827 379.225 38.072V43H377.417V38.072C377.417 37.2827 377.22 36.68 376.825 36.264C376.43 35.8373 375.892 35.624 375.209 35.624C374.526 35.624 373.982 35.8373 373.577 36.264C373.182 36.68 372.985 37.2827 372.985 38.072V43H371.161V34.184H372.985V35.192C373.284 34.8293 373.662 34.5467 374.121 34.344C374.58 34.1413 375.07 34.04 375.593 34.04C376.297 34.04 376.926 34.1893 377.481 34.488C378.036 34.7867 378.462 35.2187 378.761 35.784C379.028 35.2507 379.444 34.8293 380.009 34.52C380.574 34.2 381.182 34.04 381.833 34.04ZM395.866 38.376C395.866 38.7067 395.845 39.0053 395.802 39.272H389.066C389.119 39.976 389.381 40.5413 389.85 40.968C390.319 41.3947 390.895 41.608 391.578 41.608C392.559 41.608 393.253 41.1973 393.658 40.376H395.626C395.359 41.1867 394.874 41.8533 394.17 42.376C393.477 42.888 392.613 43.144 391.578 43.144C390.735 43.144 389.978 42.9573 389.306 42.584C388.645 42.2 388.122 41.6667 387.738 40.984C387.365 40.2907 387.178 39.4907 387.178 38.584C387.178 37.6773 387.359 36.8827 387.722 36.2C388.095 35.5067 388.613 34.9733 389.274 34.6C389.946 34.2267 390.714 34.04 391.578 34.04C392.41 34.04 393.151 34.2213 393.802 34.584C394.453 34.9467 394.959 35.4587 395.322 36.12C395.685 36.7707 395.866 37.5227 395.866 38.376ZM393.962 37.8C393.951 37.128 393.711 36.5893 393.242 36.184C392.773 35.7787 392.191 35.576 391.498 35.576C390.869 35.576 390.33 35.7787 389.882 36.184C389.434 36.5787 389.167 37.1173 389.082 37.8H393.962ZM402.109 34.04C402.802 34.04 403.421 34.184 403.965 34.472C404.52 34.76 404.952 35.1867 405.261 35.752C405.57 36.3173 405.725 37 405.725 37.8V43H403.917V38.072C403.917 37.2827 403.72 36.68 403.325 36.264C402.93 35.8373 402.392 35.624 401.709 35.624C401.026 35.624 400.482 35.8373 400.077 36.264C399.682 36.68 399.485 37.2827 399.485 38.072V43H397.661V34.184H399.485V35.192C399.784 34.8293 400.162 34.5467 400.621 34.344C401.09 34.1413 401.586 34.04 402.109 34.04ZM410.18 35.672V40.552C410.18 40.8827 410.254 41.1227 410.404 41.272C410.564 41.4107 410.83 41.48 411.204 41.48H412.324V43H410.884C410.062 43 409.433 42.808 408.996 42.424C408.558 42.04 408.34 41.416 408.34 40.552V35.672H407.3V34.184H408.34V31.992H410.18V34.184H412.324V35.672H410.18ZM417.681 33V31.336H421.009V43H419.169V33H417.681Z" fill="white"/>
<rect x="316" y="94" width="135" height="44" rx="10" fill="#877669"/>
<path d="M349.523 114.192C349.523 114.757 349.39 115.291 349.123 115.792C348.856 116.293 348.43 116.704 347.843 117.024C347.256 117.333 346.504 117.488 345.587 117.488H343.571V122H341.747V110.88H345.587C346.44 110.88 347.16 111.029 347.747 111.328C348.344 111.616 348.787 112.011 349.075 112.512C349.374 113.013 349.523 113.573 349.523 114.192ZM345.587 116C346.28 116 346.798 115.845 347.139 115.536C347.48 115.216 347.651 114.768 347.651 114.192C347.651 112.976 346.963 112.368 345.587 112.368H343.571V116H345.587ZM350.655 117.552C350.655 116.667 350.836 115.883 351.199 115.2C351.572 114.517 352.073 113.989 352.703 113.616C353.343 113.232 354.047 113.04 354.815 113.04C355.508 113.04 356.111 113.179 356.623 113.456C357.145 113.723 357.561 114.059 357.871 114.464V113.184H359.711V122H357.871V120.688C357.561 121.104 357.14 121.451 356.607 121.728C356.073 122.005 355.465 122.144 354.783 122.144C354.025 122.144 353.332 121.952 352.703 121.568C352.073 121.173 351.572 120.629 351.199 119.936C350.836 119.232 350.655 118.437 350.655 117.552ZM357.871 117.584C357.871 116.976 357.743 116.448 357.487 116C357.241 115.552 356.916 115.211 356.511 114.976C356.105 114.741 355.668 114.624 355.199 114.624C354.729 114.624 354.292 114.741 353.887 114.976C353.481 115.2 353.151 115.536 352.895 115.984C352.649 116.421 352.527 116.944 352.527 117.552C352.527 118.16 352.649 118.693 352.895 119.152C353.151 119.611 353.481 119.963 353.887 120.208C354.303 120.443 354.74 120.56 355.199 120.56C355.668 120.56 356.105 120.443 356.511 120.208C356.916 119.973 357.241 119.632 357.487 119.184C357.743 118.725 357.871 118.192 357.871 117.584ZM370.042 113.184L364.634 126.144H362.746L364.538 121.856L361.066 113.184H363.098L365.578 119.904L368.154 113.184H370.042ZM382.091 113.04C382.784 113.04 383.403 113.184 383.947 113.472C384.501 113.76 384.933 114.187 385.243 114.752C385.563 115.317 385.723 116 385.723 116.8V122H383.915V117.072C383.915 116.283 383.717 115.68 383.323 115.264C382.928 114.837 382.389 114.624 381.707 114.624C381.024 114.624 380.48 114.837 380.075 115.264C379.68 115.68 379.483 116.283 379.483 117.072V122H377.675V117.072C377.675 116.283 377.477 115.68 377.083 115.264C376.688 114.837 376.149 114.624 375.467 114.624C374.784 114.624 374.24 114.837 373.835 115.264C373.44 115.68 373.243 116.283 373.243 117.072V122H371.419V113.184H373.243V114.192C373.541 113.829 373.92 113.547 374.379 113.344C374.837 113.141 375.328 113.04 375.851 113.04C376.555 113.04 377.184 113.189 377.739 113.488C378.293 113.787 378.72 114.219 379.019 114.784C379.285 114.251 379.701 113.829 380.267 113.52C380.832 113.2 381.44 113.04 382.091 113.04ZM396.124 117.376C396.124 117.707 396.102 118.005 396.06 118.272H389.324C389.377 118.976 389.638 119.541 390.108 119.968C390.577 120.395 391.153 120.608 391.836 120.608C392.817 120.608 393.51 120.197 393.916 119.376H395.884C395.617 120.187 395.132 120.853 394.428 121.376C393.734 121.888 392.87 122.144 391.836 122.144C390.993 122.144 390.236 121.957 389.564 121.584C388.902 121.2 388.38 120.667 387.996 119.984C387.622 119.291 387.436 118.491 387.436 117.584C387.436 116.677 387.617 115.883 387.98 115.2C388.353 114.507 388.87 113.973 389.532 113.6C390.204 113.227 390.972 113.04 391.836 113.04C392.668 113.04 393.409 113.221 394.06 113.584C394.71 113.947 395.217 114.459 395.58 115.12C395.942 115.771 396.124 116.523 396.124 117.376ZM394.22 116.8C394.209 116.128 393.969 115.589 393.5 115.184C393.03 114.779 392.449 114.576 391.756 114.576C391.126 114.576 390.588 114.779 390.14 115.184C389.692 115.579 389.425 116.117 389.34 116.8H394.22ZM402.367 113.04C403.06 113.04 403.679 113.184 404.223 113.472C404.777 113.76 405.209 114.187 405.519 114.752C405.828 115.317 405.983 116 405.983 116.8V122H404.175V117.072C404.175 116.283 403.977 115.68 403.583 115.264C403.188 114.837 402.649 114.624 401.967 114.624C401.284 114.624 400.74 114.837 400.335 115.264C399.94 115.68 399.743 116.283 399.743 117.072V122H397.919V113.184H399.743V114.192C400.041 113.829 400.42 113.547 400.879 113.344C401.348 113.141 401.844 113.04 402.367 113.04ZM410.437 114.672V119.552C410.437 119.883 410.512 120.123 410.661 120.272C410.821 120.411 411.088 120.48 411.461 120.48H412.581V122H411.141C410.32 122 409.691 121.808 409.253 121.424C408.816 121.04 408.597 120.416 408.597 119.552V114.672H407.557V113.184H408.597V110.992H410.437V113.184H412.581V114.672H410.437ZM419.187 119.52C420.211 118.635 421.016 117.909 421.603 117.344C422.2 116.768 422.696 116.171 423.091 115.552C423.485 114.933 423.683 114.315 423.683 113.696C423.683 113.056 423.528 112.555 423.219 112.192C422.92 111.829 422.445 111.648 421.795 111.648C421.165 111.648 420.675 111.851 420.323 112.256C419.981 112.651 419.8 113.184 419.779 113.856H418.019C418.051 112.64 418.413 111.712 419.107 111.072C419.811 110.421 420.701 110.096 421.779 110.096C422.941 110.096 423.848 110.416 424.499 111.056C425.16 111.696 425.491 112.549 425.491 113.616C425.491 114.384 425.293 115.125 424.899 115.84C424.515 116.544 424.051 117.179 423.507 117.744C422.973 118.299 422.291 118.944 421.459 119.68L420.739 120.32H425.811V121.84H418.035V120.512L419.187 119.52Z" fill="white"/>
<rect x="316" y="173" width="135" height="44" rx="10" fill="#877669"/>
<path d="M351.355 189.88C352.539 189.88 353.574 190.109 354.459 190.568C355.355 191.016 356.043 191.667 356.523 192.52C357.014 193.363 357.259 194.349 357.259 195.48C357.259 196.611 357.014 197.592 356.523 198.424C356.043 199.256 355.355 199.896 354.459 200.344C353.574 200.781 352.539 201 351.355 201H347.723V189.88H351.355ZM351.355 199.512C352.657 199.512 353.654 199.16 354.347 198.456C355.041 197.752 355.387 196.76 355.387 195.48C355.387 194.189 355.041 193.181 354.347 192.456C353.654 191.731 352.657 191.368 351.355 191.368H349.547V199.512H351.355ZM367.147 196.376C367.147 196.707 367.126 197.005 367.083 197.272H360.347C360.401 197.976 360.662 198.541 361.131 198.968C361.601 199.395 362.177 199.608 362.859 199.608C363.841 199.608 364.534 199.197 364.939 198.376H366.907C366.641 199.187 366.155 199.853 365.451 200.376C364.758 200.888 363.894 201.144 362.859 201.144C362.017 201.144 361.259 200.957 360.587 200.584C359.926 200.2 359.403 199.667 359.019 198.984C358.646 198.291 358.459 197.491 358.459 196.584C358.459 195.677 358.641 194.883 359.003 194.2C359.377 193.507 359.894 192.973 360.555 192.6C361.227 192.227 361.995 192.04 362.859 192.04C363.691 192.04 364.433 192.221 365.083 192.584C365.734 192.947 366.241 193.459 366.603 194.12C366.966 194.771 367.147 195.523 367.147 196.376ZM365.243 195.8C365.233 195.128 364.993 194.589 364.523 194.184C364.054 193.779 363.473 193.576 362.779 193.576C362.15 193.576 361.611 193.779 361.163 194.184C360.715 194.579 360.449 195.117 360.363 195.8H365.243ZM370.766 189.16V201H368.942V189.16H370.766ZM374.089 191.016C373.758 191.016 373.481 190.904 373.257 190.68C373.033 190.456 372.921 190.179 372.921 189.848C372.921 189.517 373.033 189.24 373.257 189.016C373.481 188.792 373.758 188.68 374.089 188.68C374.409 188.68 374.681 188.792 374.905 189.016C375.129 189.24 375.241 189.517 375.241 189.848C375.241 190.179 375.129 190.456 374.905 190.68C374.681 190.904 374.409 191.016 374.089 191.016ZM374.985 192.184V201H373.161V192.184H374.985ZM380.788 199.368L383.284 192.184H385.22L381.86 201H379.684L376.34 192.184H378.292L380.788 199.368ZM394.678 196.376C394.678 196.707 394.657 197.005 394.614 197.272H387.878C387.932 197.976 388.193 198.541 388.662 198.968C389.132 199.395 389.708 199.608 390.39 199.608C391.372 199.608 392.065 199.197 392.47 198.376H394.438C394.172 199.187 393.686 199.853 392.982 200.376C392.289 200.888 391.425 201.144 390.39 201.144C389.548 201.144 388.79 200.957 388.118 200.584C387.457 200.2 386.934 199.667 386.55 198.984C386.177 198.291 385.99 197.491 385.99 196.584C385.99 195.677 386.172 194.883 386.534 194.2C386.908 193.507 387.425 192.973 388.086 192.6C388.758 192.227 389.526 192.04 390.39 192.04C391.222 192.04 391.964 192.221 392.614 192.584C393.265 192.947 393.772 193.459 394.134 194.12C394.497 194.771 394.678 195.523 394.678 196.376ZM392.774 195.8C392.764 195.128 392.524 194.589 392.054 194.184C391.585 193.779 391.004 193.576 390.31 193.576C389.681 193.576 389.142 193.779 388.694 194.184C388.246 194.579 387.98 195.117 387.894 195.8H392.774ZM398.297 193.464C398.564 193.016 398.916 192.669 399.353 192.424C399.801 192.168 400.329 192.04 400.937 192.04V193.928H400.473C399.759 193.928 399.215 194.109 398.841 194.472C398.479 194.835 398.297 195.464 398.297 196.36V201H396.473V192.184H398.297V193.464ZM410.55 192.184L405.142 205.144H403.254L405.046 200.856L401.574 192.184H403.606L406.086 198.904L408.662 192.184H410.55ZM415.603 191V189.336H418.931V201H417.091V191H415.603Z" fill="white"/>
<rect x="316" y="252" width="135" height="44" rx="10" fill="#877669"/>
<path d="M349.535 268.88C350.719 268.88 351.754 269.109 352.639 269.568C353.535 270.016 354.223 270.667 354.703 271.52C355.194 272.363 355.439 273.349 355.439 274.48C355.439 275.611 355.194 276.592 354.703 277.424C354.223 278.256 353.535 278.896 352.639 279.344C351.754 279.781 350.719 280 349.535 280H345.903V268.88H349.535ZM349.535 278.512C350.836 278.512 351.834 278.16 352.527 277.456C353.22 276.752 353.567 275.76 353.567 274.48C353.567 273.189 353.22 272.181 352.527 271.456C351.834 270.731 350.836 270.368 349.535 270.368H347.727V278.512H349.535ZM365.327 275.376C365.327 275.707 365.306 276.005 365.263 276.272H358.527C358.58 276.976 358.842 277.541 359.311 277.968C359.78 278.395 360.356 278.608 361.039 278.608C362.02 278.608 362.714 278.197 363.119 277.376H365.087C364.82 278.187 364.335 278.853 363.631 279.376C362.938 279.888 362.074 280.144 361.039 280.144C360.196 280.144 359.439 279.957 358.767 279.584C358.106 279.2 357.583 278.667 357.199 277.984C356.826 277.291 356.639 276.491 356.639 275.584C356.639 274.677 356.82 273.883 357.183 273.2C357.556 272.507 358.074 271.973 358.735 271.6C359.407 271.227 360.175 271.04 361.039 271.04C361.871 271.04 362.612 271.221 363.263 271.584C363.914 271.947 364.42 272.459 364.783 273.12C365.146 273.771 365.327 274.523 365.327 275.376ZM363.423 274.8C363.412 274.128 363.172 273.589 362.703 273.184C362.234 272.779 361.652 272.576 360.959 272.576C360.33 272.576 359.791 272.779 359.343 273.184C358.895 273.579 358.628 274.117 358.543 274.8H363.423ZM368.946 268.16V280H367.122V268.16H368.946ZM372.269 270.016C371.938 270.016 371.661 269.904 371.437 269.68C371.213 269.456 371.101 269.179 371.101 268.848C371.101 268.517 371.213 268.24 371.437 268.016C371.661 267.792 371.938 267.68 372.269 267.68C372.589 267.68 372.861 267.792 373.085 268.016C373.309 268.24 373.421 268.517 373.421 268.848C373.421 269.179 373.309 269.456 373.085 269.68C372.861 269.904 372.589 270.016 372.269 270.016ZM373.165 271.184V280H371.341V271.184H373.165ZM378.967 278.368L381.463 271.184H383.399L380.039 280H377.863L374.519 271.184H376.471L378.967 278.368ZM392.858 275.376C392.858 275.707 392.837 276.005 392.794 276.272H386.058C386.111 276.976 386.373 277.541 386.842 277.968C387.311 278.395 387.887 278.608 388.57 278.608C389.551 278.608 390.245 278.197 390.65 277.376H392.618C392.351 278.187 391.866 278.853 391.162 279.376C390.469 279.888 389.605 280.144 388.57 280.144C387.727 280.144 386.97 279.957 386.298 279.584C385.637 279.2 385.114 278.667 384.73 277.984C384.357 277.291 384.17 276.491 384.17 275.584C384.17 274.677 384.351 273.883 384.714 273.2C385.087 272.507 385.605 271.973 386.266 271.6C386.938 271.227 387.706 271.04 388.57 271.04C389.402 271.04 390.143 271.221 390.794 271.584C391.445 271.947 391.951 272.459 392.314 273.12C392.677 273.771 392.858 274.523 392.858 275.376ZM390.954 274.8C390.943 274.128 390.703 273.589 390.234 273.184C389.765 272.779 389.183 272.576 388.49 272.576C387.861 272.576 387.322 272.779 386.874 273.184C386.426 273.579 386.159 274.117 386.074 274.8H390.954ZM396.477 272.464C396.744 272.016 397.096 271.669 397.533 271.424C397.981 271.168 398.509 271.04 399.117 271.04V272.928H398.653C397.938 272.928 397.394 273.109 397.021 273.472C396.658 273.835 396.477 274.464 396.477 275.36V280H394.653V271.184H396.477V272.464ZM408.73 271.184L403.322 284.144H401.434L403.226 279.856L399.754 271.184H401.786L404.266 277.904L406.842 271.184H408.73ZM415.031 277.52C416.055 276.635 416.86 275.909 417.447 275.344C418.044 274.768 418.54 274.171 418.935 273.552C419.329 272.933 419.527 272.315 419.527 271.696C419.527 271.056 419.372 270.555 419.063 270.192C418.764 269.829 418.289 269.648 417.639 269.648C417.009 269.648 416.519 269.851 416.167 270.256C415.825 270.651 415.644 271.184 415.623 271.856H413.863C413.895 270.64 414.257 269.712 414.951 269.072C415.655 268.421 416.545 268.096 417.623 268.096C418.785 268.096 419.692 268.416 420.343 269.056C421.004 269.696 421.335 270.549 421.335 271.616C421.335 272.384 421.137 273.125 420.743 273.84C420.359 274.544 419.895 275.179 419.351 275.744C418.817 276.299 418.135 276.944 417.303 277.68L416.583 278.32H421.655V279.84H413.879V278.512L415.031 277.52Z" fill="white"/>
<rect x="316" y="331" width="135" height="44" rx="10" fill="#877669"/>
<path d="M340.803 347.88V359H338.979V351.384L335.587 359H334.323L330.915 351.384V359H329.091V347.88H331.059L334.963 356.6L338.851 347.88H340.803ZM351.28 354.376C351.28 354.707 351.259 355.005 351.216 355.272H344.48C344.533 355.976 344.795 356.541 345.264 356.968C345.733 357.395 346.309 357.608 346.992 357.608C347.973 357.608 348.667 357.197 349.072 356.376H351.04C350.773 357.187 350.288 357.853 349.584 358.376C348.891 358.888 348.027 359.144 346.992 359.144C346.149 359.144 345.392 358.957 344.72 358.584C344.059 358.2 343.536 357.667 343.152 356.984C342.779 356.291 342.592 355.491 342.592 354.584C342.592 353.677 342.773 352.883 343.136 352.2C343.509 351.507 344.027 350.973 344.688 350.6C345.36 350.227 346.128 350.04 346.992 350.04C347.824 350.04 348.565 350.221 349.216 350.584C349.867 350.947 350.373 351.459 350.736 352.12C351.099 352.771 351.28 353.523 351.28 354.376ZM349.376 353.8C349.365 353.128 349.125 352.589 348.656 352.184C348.187 351.779 347.605 351.576 346.912 351.576C346.283 351.576 345.744 351.779 345.296 352.184C344.848 352.579 344.581 353.117 344.496 353.8H349.376ZM363.747 350.04C364.44 350.04 365.059 350.184 365.603 350.472C366.158 350.76 366.59 351.187 366.899 351.752C367.219 352.317 367.379 353 367.379 353.8V359H365.571V354.072C365.571 353.283 365.374 352.68 364.979 352.264C364.584 351.837 364.046 351.624 363.363 351.624C362.68 351.624 362.136 351.837 361.731 352.264C361.336 352.68 361.139 353.283 361.139 354.072V359H359.331V354.072C359.331 353.283 359.134 352.68 358.739 352.264C358.344 351.837 357.806 351.624 357.123 351.624C356.44 351.624 355.896 351.837 355.491 352.264C355.096 352.68 354.899 353.283 354.899 354.072V359H353.075V350.184H354.899V351.192C355.198 350.829 355.576 350.547 356.035 350.344C356.494 350.141 356.984 350.04 357.507 350.04C358.211 350.04 358.84 350.189 359.395 350.488C359.95 350.787 360.376 351.219 360.675 351.784C360.942 351.251 361.358 350.829 361.923 350.52C362.488 350.2 363.096 350.04 363.747 350.04ZM371.524 351.496C371.833 351.069 372.255 350.723 372.788 350.456C373.332 350.179 373.935 350.04 374.596 350.04C375.375 350.04 376.079 350.227 376.708 350.6C377.337 350.973 377.833 351.507 378.196 352.2C378.559 352.883 378.74 353.667 378.74 354.552C378.74 355.437 378.559 356.232 378.196 356.936C377.833 357.629 377.332 358.173 376.692 358.568C376.063 358.952 375.364 359.144 374.596 359.144C373.913 359.144 373.305 359.011 372.772 358.744C372.249 358.477 371.833 358.136 371.524 357.72V359H369.7V347.16H371.524V351.496ZM376.884 354.552C376.884 353.944 376.756 353.421 376.5 352.984C376.255 352.536 375.924 352.2 375.508 351.976C375.103 351.741 374.665 351.624 374.196 351.624C373.737 351.624 373.3 351.741 372.884 351.976C372.479 352.211 372.148 352.552 371.892 353C371.647 353.448 371.524 353.976 371.524 354.584C371.524 355.192 371.647 355.725 371.892 356.184C372.148 356.632 372.479 356.973 372.884 357.208C373.3 357.443 373.737 357.56 374.196 357.56C374.665 357.56 375.103 357.443 375.508 357.208C375.924 356.963 376.255 356.611 376.5 356.152C376.756 355.693 376.884 355.16 376.884 354.552ZM388.624 354.376C388.624 354.707 388.602 355.005 388.56 355.272H381.824C381.877 355.976 382.138 356.541 382.608 356.968C383.077 357.395 383.653 357.608 384.336 357.608C385.317 357.608 386.01 357.197 386.416 356.376H388.384C388.117 357.187 387.632 357.853 386.928 358.376C386.234 358.888 385.37 359.144 384.336 359.144C383.493 359.144 382.736 358.957 382.064 358.584C381.402 358.2 380.88 357.667 380.496 356.984C380.122 356.291 379.936 355.491 379.936 354.584C379.936 353.677 380.117 352.883 380.48 352.2C380.853 351.507 381.37 350.973 382.032 350.6C382.704 350.227 383.472 350.04 384.336 350.04C385.168 350.04 385.909 350.221 386.56 350.584C387.21 350.947 387.717 351.459 388.08 352.12C388.442 352.771 388.624 353.523 388.624 354.376ZM386.72 353.8C386.709 353.128 386.469 352.589 386 352.184C385.53 351.779 384.949 351.576 384.256 351.576C383.626 351.576 383.088 351.779 382.64 352.184C382.192 352.579 381.925 353.117 381.84 353.8H386.72ZM392.243 351.464C392.509 351.016 392.861 350.669 393.299 350.424C393.747 350.168 394.275 350.04 394.883 350.04V351.928H394.419C393.704 351.928 393.16 352.109 392.787 352.472C392.424 352.835 392.243 353.464 392.243 354.36V359H390.419V350.184H392.243V351.464ZM399.759 359.144C399.066 359.144 398.442 359.021 397.887 358.776C397.343 358.52 396.911 358.179 396.591 357.752C396.271 357.315 396.101 356.829 396.079 356.296H397.967C397.999 356.669 398.175 356.984 398.495 357.24C398.826 357.485 399.237 357.608 399.727 357.608C400.239 357.608 400.634 357.512 400.911 357.32C401.199 357.117 401.343 356.861 401.343 356.552C401.343 356.221 401.183 355.976 400.863 355.816C400.554 355.656 400.058 355.48 399.375 355.288C398.714 355.107 398.175 354.931 397.759 354.76C397.343 354.589 396.981 354.328 396.671 353.976C396.373 353.624 396.223 353.16 396.223 352.584C396.223 352.115 396.362 351.688 396.639 351.304C396.917 350.909 397.311 350.6 397.823 350.376C398.346 350.152 398.943 350.04 399.615 350.04C400.618 350.04 401.423 350.296 402.031 350.808C402.65 351.309 402.981 351.997 403.023 352.872H401.199C401.167 352.477 401.007 352.163 400.719 351.928C400.431 351.693 400.042 351.576 399.551 351.576C399.071 351.576 398.703 351.667 398.447 351.848C398.191 352.029 398.063 352.269 398.063 352.568C398.063 352.803 398.149 353 398.319 353.16C398.49 353.32 398.698 353.448 398.943 353.544C399.189 353.629 399.551 353.741 400.031 353.88C400.671 354.051 401.194 354.227 401.599 354.408C402.015 354.579 402.373 354.835 402.671 355.176C402.97 355.517 403.125 355.971 403.135 356.536C403.135 357.037 402.997 357.485 402.719 357.88C402.442 358.275 402.047 358.584 401.535 358.808C401.034 359.032 400.442 359.144 399.759 359.144ZM409.666 350.04C410.338 350.04 410.936 350.184 411.458 350.472C411.992 350.76 412.408 351.187 412.706 351.752C413.016 352.317 413.17 353 413.17 353.8V359H411.362V354.072C411.362 353.283 411.165 352.68 410.77 352.264C410.376 351.837 409.837 351.624 409.154 351.624C408.472 351.624 407.928 351.837 407.522 352.264C407.128 352.68 406.93 353.283 406.93 354.072V359H405.106V347.16H406.93V351.208C407.24 350.835 407.629 350.547 408.098 350.344C408.578 350.141 409.101 350.04 409.666 350.04ZM416.425 349.016C416.094 349.016 415.817 348.904 415.593 348.68C415.369 348.456 415.257 348.179 415.257 347.848C415.257 347.517 415.369 347.24 415.593 347.016C415.817 346.792 416.094 346.68 416.425 346.68C416.745 346.68 417.017 346.792 417.241 347.016C417.465 347.24 417.577 347.517 417.577 347.848C417.577 348.179 417.465 348.456 417.241 348.68C417.017 348.904 416.745 349.016 416.425 349.016ZM417.321 350.184V359H415.497V350.184H417.321ZM421.54 351.48C421.849 351.075 422.27 350.733 422.804 350.456C423.337 350.179 423.94 350.04 424.612 350.04C425.38 350.04 426.078 350.232 426.708 350.616C427.348 350.989 427.849 351.517 428.212 352.2C428.574 352.883 428.756 353.667 428.756 354.552C428.756 355.437 428.574 356.232 428.212 356.936C427.849 357.629 427.348 358.173 426.708 358.568C426.078 358.952 425.38 359.144 424.612 359.144C423.94 359.144 423.342 359.011 422.82 358.744C422.297 358.467 421.87 358.125 421.54 357.72V363.192H419.716V350.184H421.54V351.48ZM426.9 354.552C426.9 353.944 426.772 353.421 426.516 352.984C426.27 352.536 425.94 352.2 425.524 351.976C425.118 351.741 424.681 351.624 424.212 351.624C423.753 351.624 423.316 351.741 422.9 351.976C422.494 352.211 422.164 352.552 421.908 353C421.662 353.448 421.54 353.976 421.54 354.584C421.54 355.192 421.662 355.725 421.908 356.184C422.164 356.632 422.494 356.973 422.9 357.208C423.316 357.443 423.753 357.56 424.212 357.56C424.681 357.56 425.118 357.443 425.524 357.208C425.94 356.963 426.27 356.611 426.516 356.152C426.772 355.693 426.9 355.16 426.9 354.552ZM434.236 349V347.336H437.564V359H435.724V349H434.236Z" fill="white"/>
<rect x="316" y="410" width="135" height="44" rx="10" fill="#877669"/>
<path d="M338.982 426.88V438H337.158V430.384L333.766 438H332.502L329.094 430.384V438H327.27V426.88H329.238L333.142 435.6L337.03 426.88H338.982ZM349.46 433.376C349.46 433.707 349.438 434.005 349.396 434.272H342.66C342.713 434.976 342.974 435.541 343.444 435.968C343.913 436.395 344.489 436.608 345.172 436.608C346.153 436.608 346.846 436.197 347.252 435.376H349.22C348.953 436.187 348.468 436.853 347.764 437.376C347.07 437.888 346.206 438.144 345.172 438.144C344.329 438.144 343.572 437.957 342.9 437.584C342.238 437.2 341.716 436.667 341.332 435.984C340.958 435.291 340.772 434.491 340.772 433.584C340.772 432.677 340.953 431.883 341.316 431.2C341.689 430.507 342.206 429.973 342.868 429.6C343.54 429.227 344.308 429.04 345.172 429.04C346.004 429.04 346.745 429.221 347.396 429.584C348.046 429.947 348.553 430.459 348.916 431.12C349.278 431.771 349.46 432.523 349.46 433.376ZM347.556 432.8C347.545 432.128 347.305 431.589 346.836 431.184C346.366 430.779 345.785 430.576 345.092 430.576C344.462 430.576 343.924 430.779 343.476 431.184C343.028 431.579 342.761 432.117 342.676 432.8H347.556ZM361.927 429.04C362.62 429.04 363.239 429.184 363.783 429.472C364.337 429.76 364.769 430.187 365.079 430.752C365.399 431.317 365.559 432 365.559 432.8V438H363.751V433.072C363.751 432.283 363.553 431.68 363.159 431.264C362.764 430.837 362.225 430.624 361.543 430.624C360.86 430.624 360.316 430.837 359.911 431.264C359.516 431.68 359.319 432.283 359.319 433.072V438H357.511V433.072C357.511 432.283 357.313 431.68 356.919 431.264C356.524 430.837 355.985 430.624 355.303 430.624C354.62 430.624 354.076 430.837 353.671 431.264C353.276 431.68 353.079 432.283 353.079 433.072V438H351.255V429.184H353.079V430.192C353.377 429.829 353.756 429.547 354.215 429.344C354.673 429.141 355.164 429.04 355.687 429.04C356.391 429.04 357.02 429.189 357.575 429.488C358.129 429.787 358.556 430.219 358.855 430.784C359.121 430.251 359.537 429.829 360.103 429.52C360.668 429.2 361.276 429.04 361.927 429.04ZM369.704 430.496C370.013 430.069 370.434 429.723 370.968 429.456C371.512 429.179 372.114 429.04 372.776 429.04C373.554 429.04 374.258 429.227 374.888 429.6C375.517 429.973 376.013 430.507 376.376 431.2C376.738 431.883 376.92 432.667 376.92 433.552C376.92 434.437 376.738 435.232 376.376 435.936C376.013 436.629 375.512 437.173 374.872 437.568C374.242 437.952 373.544 438.144 372.776 438.144C372.093 438.144 371.485 438.011 370.952 437.744C370.429 437.477 370.013 437.136 369.704 436.72V438H367.88V426.16H369.704V430.496ZM375.064 433.552C375.064 432.944 374.936 432.421 374.68 431.984C374.434 431.536 374.104 431.2 373.688 430.976C373.282 430.741 372.845 430.624 372.376 430.624C371.917 430.624 371.48 430.741 371.064 430.976C370.658 431.211 370.328 431.552 370.072 432C369.826 432.448 369.704 432.976 369.704 433.584C369.704 434.192 369.826 434.725 370.072 435.184C370.328 435.632 370.658 435.973 371.064 436.208C371.48 436.443 371.917 436.56 372.376 436.56C372.845 436.56 373.282 436.443 373.688 436.208C374.104 435.963 374.434 435.611 374.68 435.152C374.936 434.693 375.064 434.16 375.064 433.552ZM386.803 433.376C386.803 433.707 386.782 434.005 386.739 434.272H380.003C380.057 434.976 380.318 435.541 380.787 435.968C381.257 436.395 381.833 436.608 382.515 436.608C383.497 436.608 384.19 436.197 384.595 435.376H386.563C386.297 436.187 385.811 436.853 385.107 437.376C384.414 437.888 383.55 438.144 382.515 438.144C381.673 438.144 380.915 437.957 380.243 437.584C379.582 437.2 379.059 436.667 378.675 435.984C378.302 435.291 378.115 434.491 378.115 433.584C378.115 432.677 378.297 431.883 378.659 431.2C379.033 430.507 379.55 429.973 380.211 429.6C380.883 429.227 381.651 429.04 382.515 429.04C383.347 429.04 384.089 429.221 384.739 429.584C385.39 429.947 385.897 430.459 386.259 431.12C386.622 431.771 386.803 432.523 386.803 433.376ZM384.899 432.8C384.889 432.128 384.649 431.589 384.179 431.184C383.71 430.779 383.129 430.576 382.435 430.576C381.806 430.576 381.267 430.779 380.819 431.184C380.371 431.579 380.105 432.117 380.019 432.8H384.899ZM390.422 430.464C390.689 430.016 391.041 429.669 391.478 429.424C391.926 429.168 392.454 429.04 393.062 429.04V430.928H392.598C391.884 430.928 391.34 431.109 390.966 431.472C390.604 431.835 390.422 432.464 390.422 433.36V438H388.598V429.184H390.422V430.464ZM397.939 438.144C397.246 438.144 396.622 438.021 396.067 437.776C395.523 437.52 395.091 437.179 394.771 436.752C394.451 436.315 394.28 435.829 394.259 435.296H396.147C396.179 435.669 396.355 435.984 396.675 436.24C397.006 436.485 397.416 436.608 397.907 436.608C398.419 436.608 398.814 436.512 399.091 436.32C399.379 436.117 399.523 435.861 399.523 435.552C399.523 435.221 399.363 434.976 399.043 434.816C398.734 434.656 398.238 434.48 397.555 434.288C396.894 434.107 396.355 433.931 395.939 433.76C395.523 433.589 395.16 433.328 394.851 432.976C394.552 432.624 394.403 432.16 394.403 431.584C394.403 431.115 394.542 430.688 394.819 430.304C395.096 429.909 395.491 429.6 396.003 429.376C396.526 429.152 397.123 429.04 397.795 429.04C398.798 429.04 399.603 429.296 400.211 429.808C400.83 430.309 401.16 430.997 401.203 431.872H399.379C399.347 431.477 399.187 431.163 398.899 430.928C398.611 430.693 398.222 430.576 397.731 430.576C397.251 430.576 396.883 430.667 396.627 430.848C396.371 431.029 396.243 431.269 396.243 431.568C396.243 431.803 396.328 432 396.499 432.16C396.67 432.32 396.878 432.448 397.123 432.544C397.368 432.629 397.731 432.741 398.211 432.88C398.851 433.051 399.374 433.227 399.779 433.408C400.195 433.579 400.552 433.835 400.851 434.176C401.15 434.517 401.304 434.971 401.315 435.536C401.315 436.037 401.176 436.485 400.899 436.88C400.622 437.275 400.227 437.584 399.715 437.808C399.214 438.032 398.622 438.144 397.939 438.144ZM407.846 429.04C408.518 429.04 409.115 429.184 409.638 429.472C410.171 429.76 410.587 430.187 410.886 430.752C411.195 431.317 411.35 432 411.35 432.8V438H409.542V433.072C409.542 432.283 409.345 431.68 408.95 431.264C408.555 430.837 408.017 430.624 407.334 430.624C406.651 430.624 406.107 430.837 405.702 431.264C405.307 431.68 405.11 432.283 405.11 433.072V438H403.286V426.16H405.11V430.208C405.419 429.835 405.809 429.547 406.278 429.344C406.758 429.141 407.281 429.04 407.846 429.04ZM414.605 428.016C414.274 428.016 413.997 427.904 413.773 427.68C413.549 427.456 413.437 427.179 413.437 426.848C413.437 426.517 413.549 426.24 413.773 426.016C413.997 425.792 414.274 425.68 414.605 425.68C414.925 425.68 415.197 425.792 415.421 426.016C415.645 426.24 415.757 426.517 415.757 426.848C415.757 427.179 415.645 427.456 415.421 427.68C415.197 427.904 414.925 428.016 414.605 428.016ZM415.501 429.184V438H413.677V429.184H415.501ZM419.719 430.48C420.029 430.075 420.45 429.733 420.983 429.456C421.517 429.179 422.119 429.04 422.791 429.04C423.559 429.04 424.258 429.232 424.887 429.616C425.527 429.989 426.029 430.517 426.391 431.2C426.754 431.883 426.935 432.667 426.935 433.552C426.935 434.437 426.754 435.232 426.391 435.936C426.029 436.629 425.527 437.173 424.887 437.568C424.258 437.952 423.559 438.144 422.791 438.144C422.119 438.144 421.522 438.011 420.999 437.744C420.477 437.467 420.05 437.125 419.719 436.72V442.192H417.895V429.184H419.719V430.48ZM425.079 433.552C425.079 432.944 424.951 432.421 424.695 431.984C424.45 431.536 424.119 431.2 423.703 430.976C423.298 430.741 422.861 430.624 422.391 430.624C421.933 430.624 421.495 430.741 421.079 430.976C420.674 431.211 420.343 431.552 420.087 432C419.842 432.448 419.719 432.976 419.719 433.584C419.719 434.192 419.842 434.725 420.087 435.184C420.343 435.632 420.674 435.973 421.079 436.208C421.495 436.443 421.933 436.56 422.391 436.56C422.861 436.56 423.298 436.443 423.703 436.208C424.119 435.963 424.45 435.611 424.695 435.152C424.951 434.693 425.079 434.16 425.079 433.552ZM433.663 435.52C434.687 434.635 435.493 433.909 436.079 433.344C436.677 432.768 437.173 432.171 437.567 431.552C437.962 430.933 438.159 430.315 438.159 429.696C438.159 429.056 438.005 428.555 437.695 428.192C437.397 427.829 436.922 427.648 436.271 427.648C435.642 427.648 435.151 427.851 434.799 428.256C434.458 428.651 434.277 429.184 434.255 429.856H432.495C432.527 428.64 432.89 427.712 433.583 427.072C434.287 426.421 435.178 426.096 436.255 426.096C437.418 426.096 438.325 426.416 438.975 427.056C439.637 427.696 439.967 428.549 439.967 429.616C439.967 430.384 439.77 431.125 439.375 431.84C438.991 432.544 438.527 433.179 437.983 433.744C437.45 434.299 436.767 434.944 435.935 435.68L435.215 436.32H440.287V437.84H432.511V436.512L433.663 435.52Z" fill="white"/>
<path d="M316 39L306 33.2265L306 44.7735L316 39ZM269 40L307 40L307 38L269 38L269 40Z" fill="#FF7878"/>
<path d="M316 117L306 111.227L306 122.774L316 117ZM269 118L307 118L307 116L269 116L269 118Z" fill="#FF7878"/>
<path d="M316 195L306 189.227L306 200.774L316 195ZM269 196L307 196L307 194L269 194L269 196Z" fill="#FF7878"/>
<path d="M316 273L306 267.227L306 278.774L316 273ZM269 274L307 274L307 272L269 272L269 274Z" fill="#FF7878"/>
<path d="M316 351L306 345.227L306 356.774L316 351ZM269 352L307 352L307 350L269 350L269 352Z" fill="#FF7878"/>
<path d="M316 429L306 423.227L306 434.774L316 429ZM269 430L307 430L307 428L269 428L269 430Z" fill="#FF7878"/>
<path d="M160 39L139.5 39L139.5 234" stroke="#FF7878" stroke-width="2"/>
<path d="M160 117L139 117" stroke="#FF7878" stroke-width="2"/>
<path d="M120 234L130 239.774L130 228.226L120 234ZM139.5 233L129 233L129 235L139.5 235L139.5 233Z" fill="#FF7878"/>
<path d="M160 195L139 195" stroke="#FF7878" stroke-width="2"/>
<path d="M160 273L139 273" stroke="#FF7878" stroke-width="2"/>
<path d="M160 351L139 351" stroke="#FF7878" stroke-width="2"/>
<path d="M160 429L139.5 429L139.5 233.5" stroke="#FF7878" stroke-width="2"/>
</svg>
