<?xml version="1.0" encoding="UTF-8"?><svg id="Layer_1" xmlns="http://www.w3.org/2000/svg" viewBox="0 0 500 500"><defs><style>.cls-1{fill:#686de0;}.cls-2{fill:#f0932b;}.cls-3,.cls-4{fill:#6ab04c;}.cls-4{opacity:.8;}</style></defs><path class="cls-1" d="M189.5,240.5c-10.2,0-18.5,8.3-18.5,18.5,0,23.2-18.8,42.1-42.1,42.1s-42.1-18.8-42.1-42.1-8.3-18.5-18.5-18.5-18.5,8.3-18.5,18.5c0,43.6,35.4,79,79,79s79-35.4,79-79-8.3-18.5-18.5-18.5Z"/><circle class="cls-1" cx="129" cy="205.7" r="43.6"/><circle class="cls-3" cx="250" cy="205.7" r="43.6"/><path class="cls-2" d="M431.5,240.5c-10.2,0-18.5,8.3-18.5,18.5,0,23.2-18.8,42.1-42.1,42.1s-42.1-18.8-42.1-42.1-8.3-18.5-18.5-18.5-18.5,8.3-18.5,18.5c0,43.6,35.4,79,79,79s79-35.4,79-79-8.3-18.5-18.5-18.5Z"/><circle class="cls-2" cx="371" cy="205.7" r="43.6"/><path class="cls-4" d="M310.5,240.5c-10.2,0-18.5,8.3-18.5,18.5,0,23.2-18.8,42.1-42.1,42.1s-42.1-18.8-42.1-42.1-8.3-18.5-18.5-18.5-18.5,8.3-18.5,18.5c0,43.6,35.4,79,79,79s79-35.4,79-79-8.3-18.5-18.5-18.5Z"/></svg>