<?xml version="1.0" encoding="UTF-8"?><svg id="Layer_1" xmlns="http://www.w3.org/2000/svg" viewBox="0 0 500 500"><defs><style>.cls-1{fill:#ee3130;}</style></defs><path class="cls-1" d="M253.5,50c-110.9,0-204.4,90.7-203.5,201.6,.4,54.7,22.8,104.1,58.8,140,36.2,36.1,86.1,58.4,141.2,58.4s105.1-22.3,141.2-58.4c36.3-36.2,58.8-86.3,58.8-141.6V68.5c0-10.2-8.3-18.5-18.5-18.5H253.5Zm-110.5,286.6c-21-26-32.8-59.7-30.3-96.3,4.7-67.9,59.7-122.9,127.6-127.6,80.4-5.5,147.4,58.1,147.4,137.3s-11.5,62.9-30.6,86.5c-4.3,5.3-12.2,5.7-16.8,.7l-37.8-40.3c13-14.5,20.1-34.2,17.5-55.7-3.9-31.9-29.8-57.5-61.7-61.1-42.5-4.7-78.5,28.4-78.5,69.9s6.8,34.4,18,46.9l-37.8,40.3c-4.6,4.9-12.5,4.6-16.8-.6Z"/></svg>