<?xml version="1.0" encoding="UTF-8"?><svg id="Layer_1" xmlns="http://www.w3.org/2000/svg" viewBox="0 0 240 240"><defs><style>.cls-1{letter-spacing:0em;}.cls-2{fill:#fff;}.cls-3{fill:#254edb;}.cls-4{letter-spacing:0em;}.cls-5{fill:#231f20;font-family:ReadexPro-SemiBold, 'Readex Pro';font-size:36px;}</style></defs><text class="cls-5" transform="translate(76 177.3)"><tspan class="cls-1" x="0" y="0">E</tspan><tspan class="cls-4" x="21.8" y="0">doc</tspan></text><rect class="cls-3" x="79.6" y="44.2" width="80" height="80" rx="25.5" ry="25.5"/><g><path class="cls-2" d="M125,65.9c1.6,0,3,1.3,3,3v23.5c0,1.6-1.3,3-3,3h-18c-1.6,0-3-1.3-3-3v-23.5c0-1.6,1.3-3,3-3h18m0-2.9h-18c-3.2,0-5.9,2.6-5.9,5.9v23.5c0,3.2,2.6,5.9,5.9,5.9h18c3.2,0,5.9-2.6,5.9-5.9v-23.5c0-3.2-2.6-5.9-5.9-5.9h0Z"/><g><path class="cls-2" d="M114.1,103.9c-1.9,0-3.5-1.2-4.2-2.9h0c.6,1.7,2.3,2.9,4.1,2.9Z"/><path class="cls-2" d="M132.2,70.1v2.9c1.6,0,2.9,1.4,2.9,3v23.5c0,1.6-1.3,3-3,3h-18c-1.6,0-2.9-1.3-3-2.9h-2.9c0,3.2,2.6,5.8,5.9,5.8h18c3.2,0,5.9-2.6,5.9-5.9v-23.5c0-3.2-2.6-5.8-5.8-5.9h0Z"/></g><rect class="cls-2" x="106.9" y="71.4" width="7.4" height="6.8" rx="1.3" ry="1.3"/><rect class="cls-2" x="115.9" y="75.9" width="9.5" height="2.4" rx=".5" ry=".5"/><rect class="cls-2" x="115.9" y="71.4" width="9.5" height="2.4" rx=".5" ry=".5"/><rect class="cls-2" x="107" y="79.8" width="18.4" height="2.4" rx=".5" ry=".5"/><rect class="cls-2" x="107" y="83.8" width="18.4" height="2.4" rx=".5" ry=".5"/><rect class="cls-2" x="107" y="88" width="18.4" height="2.4" rx=".5" ry=".5"/></g></svg>