<?xml version="1.0" encoding="UTF-8"?><svg id="Layer_1" xmlns="http://www.w3.org/2000/svg" viewBox="0 0 500 500"><defs><style>.cls-1{fill:#1e90ff;}.cls-2{fill:#231f20;}</style></defs><path class="cls-1" d="M54.6,262.5c-6.2-6.2-6.2-16.2,0-22.4l11.2-11.2h0S228.9,65.8,228.9,65.8h0s11.2-11.2,11.2-11.2c6.2-6.2,16.2-6.2,22.4,0l182.9,182.9c6.2,6.2,6.2,16.2,0,22.4h0c-6.2,6.2-16.2,6.2-22.4,0L262.5,99.4c-6.2-6.2-16.2-6.2-22.4,0L99.4,240.1c-6.2,6.2-6.2,16.2,0,22.4l160.5,160.5c6.2,6.2,6.2,16.2,0,22.4h0c-6.2,6.2-16.2,6.2-22.4,0L54.6,262.5Z"/><path class="cls-2" d="M304.8,403l93.6-93.6c6.2-6.2,6.2-16.2,0-22.4h0c-6.2-6.2-16.2-6.2-22.4,0l-71.2,71.2c-6.2,6.2-16.2,6.2-22.4,0l-18.9-18.9c-6.2-6.2-16.2-6.2-22.4,0h0c-6.2,6.2-6.2,16.2,0,22.4l41.3,41.3c6.2,6.2,16.2,6.2,22.4,0Z"/></svg>