<svg id="outlines_--_combound_path" data-name="outlines -- combound path" xmlns="http://www.w3.org/2000/svg" viewBox="0 0 337.79 337.79"><defs><style>.cls-1{fill:#008fd3;}.cls-2,.cls-3,.cls-4{fill:#f0ab00;}.cls-2{opacity:0.7;}.cls-3{opacity:0.4;}.cls-5{fill:#fff;}</style></defs><path class="cls-1" d="M118.9,266.43h40.62c2.42,0,4.37,1.68,4.37,3.76h0c0,2.08-1.95,3.76-4.37,3.76H126.6Z"/><rect class="cls-2" x="132.16" y="266.43" width="10.3" height="7.53"/><rect class="cls-3" x="142.46" y="266.43" width="10.3" height="7.53"/><polygon class="cls-4" points="118.9 266.43 126.6 273.95 132.16 273.95 132.16 266.43 118.9 266.43"/><path class="cls-5" d="M294,136.41a64.2,64.2,0,0,0-22.7-12.83C268.7,113.84,262.71,96.51,250,82c-14.85-16.91-34.6-25.48-58.71-25.48h-.1A83.69,83.69,0,0,0,130.32,82a92.15,92.15,0,0,0-17.25,24.24c-34.29,1.54-44.64,33.54-46.53,40.7-8.54,1.28-51.63,9.84-48.94,51a50.9,50.9,0,0,0,16.86,33.33,52.38,52.38,0,0,0,35,13.37h33.76a72.2,72.2,0,0,0,137.77,0l.42,0c2,.11,4,.16,5.86.16a86.13,86.13,0,0,0,30.59-5.2c20.66-7.87,32.9-24.38,35.39-47.73C316.38,162.76,304.48,145.64,294,136.41ZM228.69,261a10.13,10.13,0,0,0-10.83.59l-2.55,1.92a6.14,6.14,0,0,1-7-.08l-1.93-1.54a10,10,0,0,0-4.55-2.07,8.73,8.73,0,0,0-7.55,2.62A5.86,5.86,0,0,1,190,264h-.22v-5.65c6.86-6.86,20.15-13.77,44-6.21A67.77,67.77,0,0,1,228.69,261ZM156.39,264v-7.54a7.47,7.47,0,0,0-7.46-7.47,3.45,3.45,0,0,1-3.1-1.91l-2.78-5.57c-.08-.17-.19-.32-.29-.49V223.36L172.84,209v55Zm-11,0c0-.08,0-.15,0-.23a7.34,7.34,0,1,0-14.67,0,1.79,1.79,0,0,0,0,.23H117.67a67.63,67.63,0,0,1-6.79-11h38.05a3.47,3.47,0,0,1,3.46,3.47V264h-7Zm-10.63,0a1.79,1.79,0,0,1,0-.23,3.34,3.34,0,1,1,6.67,0,1.79,1.79,0,0,1,0,.23Zm4-21.61a3.24,3.24,0,0,1,.65.89l2.79,5.57.07.12H128.69v-7.6h7.68a3.41,3.41,0,0,1,2.39,1v.06ZM124.69,249H109.43l3-4.5a7,7,0,0,1,5.81-3.1h6.43Zm52.15.54h6.81v-4h-6.81v-6h6.81v-4h-6.81V212.13h6.81v-4h-6.81V203h6.81v-4h-6.81v-6.74h8.89V264h-8.89ZM205,214.81a4.31,4.31,0,1,1,4.3-4.31A4.31,4.31,0,0,1,205,214.81Zm-1.29,3.89a9.1,9.1,0,0,0,1.29.11,8.22,8.22,0,0,0,1.41-.13l1.3,26.73a42.09,42.09,0,0,0-5.27,1.16Zm15.54,26.39c1.45-5.1,6.22-15.75,21-19.6a67.88,67.88,0,0,1-4.9,23A72.66,72.66,0,0,0,219.27,245.09Zm-4.05-.19c-1.21,0-2.37,0-3.5.09l-1.37-28.13a8.3,8.3,0,1,0-10.54.1l-1.42,31a35.68,35.68,0,0,0-8.66,5.19V188.25H172.84v16.33l-34.08,16.25v16.92a7.53,7.53,0,0,0-2.39-.4H118.26a11,11,0,0,0-9.13,4.87l-1.65,2.46a67,67,0,0,1-3-13.41l10.22-8.47,5.41,6.52a5.9,5.9,0,0,0,4.56,2.14,6.21,6.21,0,0,0,2-.34l3.47,4.22,3.09-2.54-3.48-4.22a5.9,5.9,0,0,0-.6-6.9L123.35,215c0-.21,0-.41,0-.62a8.26,8.26,0,0,0-16.51-.55l-2.61,2.26a68.19,68.19,0,0,1,136,5.27C222.17,225.62,216.72,239.25,215.22,244.9ZM103.91,223c0-.44,0-.88,0-1.31l3.88-3.36a8.24,8.24,0,0,0,2.55,2.86L104,226.44C103.94,225.29,103.91,224.13,103.91,223Zm11.2-4.31a4.27,4.27,0,1,1,4.27-4.27A4.28,4.28,0,0,1,115.11,218.66Zm6.65.63,4.32,5a1.94,1.94,0,0,1,.46,1.42,1.92,1.92,0,0,1-3.39,1.06l-4.2-5.06A8.41,8.41,0,0,0,121.76,219.29ZM120.94,268h38.34a2.6,2.6,0,0,1,0,5.2H126A69.25,69.25,0,0,1,120.94,268Zm51.17,23.19a67.86,67.86,0,0,1-41.31-14h28.45a6.61,6.61,0,0,0,6.6-6.6,6.47,6.47,0,0,0-.54-2.6H179l11,0a9.71,9.71,0,0,0,7.11-2.73,4.78,4.78,0,0,1,4.06-1.51,6,6,0,0,1,2.73,1.26l1.93,1.54a10.1,10.1,0,0,0,11.93.14l2.54-1.91a6.21,6.21,0,0,1,6.07-.53A68.12,68.12,0,0,1,172.11,291.17Zm137.18-99.74c-1.69,15.76-11.61,52-67.18,49.22a72.2,72.2,0,1,0-140-.06H69.47c-24.63,0-45.66-18.92-47.88-43-2.72-41.53,46.25-46.81,46.74-46.85l1.5-.13.3-1.48c.07-.38,8-38.11,44.3-38.94l1.3,0,.5-1.19a87,87,0,0,1,17-24.28c15.77-16,35.25-24.1,57.9-24.13h.08c18.14,0,61.71,6.38,76.4,65.12l.29,1.17,1.17.29a59.86,59.86,0,0,1,22.31,12.39C305.63,152,311.63,169.51,309.29,191.43Z"/><path class="cls-1" d="M237.82,229.57a2,2,0,0,1-1.91.8c-1.84,0-4.63-1-7.3-2.15a83.06,83.06,0,0,1-7.75-3.93h0a79.42,79.42,0,0,1-7.28-4.73c-.93-.69-1.78-1.37-2.54-2-3.76-3.26-3.65-4.59-3.24-5.3,1-1.71,5.23-.39,9.22,1.35a85.2,85.2,0,0,1,7.75,3.93c.3.17,3.91,2.27,7.28,4.75S238.8,227.86,237.82,229.57Z"/><path class="cls-1" d="M202.31,212.24c-1-1.71-5.21-.4-9.2,1.34-3.77,1.65-7.33,3.69-7.75,3.93h0a79.21,79.21,0,0,0-7.27,4.72c-.94.7-1.8,1.38-2.55,2-3.76,3.25-3.65,4.58-3.24,5.29a2,2,0,0,0,1.91.8c1.85,0,4.64-1,7.32-2.16,3.83-1.67,7.44-3.74,7.74-3.91h0a78,78,0,0,0,7.28-4.75c.92-.68,1.77-1.35,2.52-2C202.83,214.28,202.72,213,202.31,212.24Z"/><path class="cls-1" d="M208.49,181.49c-.49-4.34-1.46-8.67-3.44-8.67s-3,4.33-3.44,8.67c-.46,4.15-.47,8.32-.47,8.66s0,4.51.47,8.67c.49,4.34,1.46,8.67,3.44,8.67s2.95-4.33,3.44-8.67c.46-4.16.47-8.33.47-8.67S209,185.64,208.49,181.49Z"/><path class="cls-4" d="M237.82,229.57a2,2,0,0,1-1.91.8c-1.84,0-4.63-1-7.3-2.15l3.43-5.95C235.55,224.85,238.8,227.86,237.82,229.57Z"/><path class="cls-2" d="M232,222.27l-3.43,5.95a83.06,83.06,0,0,1-7.75-3.93l3.9-6.77C225.06,217.69,228.67,219.79,232,222.27Z"/><path class="cls-3" d="M224.76,217.52l-3.9,6.77h0a79.42,79.42,0,0,1-7.28-4.73l3.44-6A85.2,85.2,0,0,1,224.76,217.52Z"/><path class="cls-2" d="M189.27,224.29h0c-.3.17-3.91,2.24-7.74,3.91l-3.44-6a79.21,79.21,0,0,1,7.27-4.72h0Z"/><path class="cls-3" d="M196.55,219.54a78,78,0,0,1-7.28,4.75l-3.91-6.78c.42-.24,4-2.28,7.75-3.93Z"/><path class="cls-4" d="M181.51,228.21c-2.68,1.18-5.47,2.16-7.32,2.16a2,2,0,0,1-1.91-.8c-.41-.71-.52-2,3.24-5.29.75-.66,1.61-1.34,2.55-2Z"/><path class="cls-2" d="M209,190.15h-7.82c0-.34,0-4.51.47-8.66h6.88C209,185.64,209,189.81,209,190.15Z"/><path class="cls-3" d="M209,190.15c0,.34,0,4.51-.47,8.67h-6.88c-.46-4.16-.47-8.33-.47-8.67Z"/><path class="cls-4" d="M208.49,181.49h-6.88c.49-4.34,1.46-8.67,3.44-8.67S208,177.15,208.49,181.49Z"/><path class="cls-1" d="M159.13,225.76l-5.34,10.91a5.63,5.63,0,0,0,4.26,8.1,7.44,7.44,0,0,0,1.08.07h.17a5.66,5.66,0,0,0,5-8.08Z"/><polygon class="cls-4" points="159.13 225.76 156.79 230.53 161.36 230.53 159.13 225.76"/><polygon class="cls-2" points="154.46 235.3 163.59 235.3 161.36 230.53 156.79 230.53 154.46 235.3"/><path class="cls-3" d="M153.79,236.67a5.58,5.58,0,0,0-.51,3.4h11.46a5.59,5.59,0,0,0-.47-3.31l-.68-1.46h-9.13Z"/></svg>