<svg id="Pictograms" xmlns="http://www.w3.org/2000/svg" viewBox="0 0 240 240"><defs><style>.cls-1{fill:#970a82;}.cls-2,.cls-3,.cls-4{fill:#f0ab00;}.cls-3{opacity:0.4;}.cls-4{opacity:0.7;}.cls-5{fill:#fff;}</style></defs><title>281214-pictogram-neg</title><path class="cls-1" d="M169,44l-13,0c-9.27,0-15.92,6.58-16,15.82,0,.06,0,8.18,0,8.18V91.19l-14.86,8.43,9.64,17.4,5.21-3V140h40V116h0V92h0V56C180,49.32,175.5,44.46,169,44Z"/><path class="cls-2" d="M180,56c0-6.68-4.5-11.54-11-12l-13,0c-9.27,0-15.92,6.58-16,15.82,0,.06,0,8.18,0,8.18h40Z"/><polygon class="cls-3" points="139.95 92 139.95 92 140 92 140 91.19 125.14 99.62 134.78 117.03 140 114.07 140 116 179.95 116 179.95 92 139.95 92"/><rect class="cls-4" x="140" y="68" width="40" height="24"/><path class="cls-1" d="M114.35,100.08,100,91.94V59.83C100,50.58,93.28,44,84,44L71,44c-6.51.43-11,5.28-11,12v84h40V114.09l5.17,2.93Z"/><path class="cls-2" d="M60,56c0-6.68,4.52-11.54,11-12l13,0c9.27,0,16,6.58,16,15.82V68H60Z"/><polygon class="cls-3" points="99.99 91.94 99.99 92 59.99 92 59.99 116 99.99 116 99.99 114.09 105.16 117.03 114.34 100.08 99.99 91.94"/><rect class="cls-4" x="60" y="68" width="40" height="24"/><path class="cls-5" d="M75.94,44h-4V15.91a16,16,0,0,1,32,0V28H99.81A13.78,13.78,0,0,1,86.16,40H83.88V36h2.28a9.77,9.77,0,0,0,9.76-9.76V24h4V15.91a12,12,0,0,0-24,0Zm52.26,72a5.53,5.53,0,0,1-5.47,0l.06-.09a9.49,9.49,0,0,0,.92-7.26,9.59,9.59,0,0,0-1-2.33l4.7-2.67-2-3.48-4.75,2.7c-.25.14-.48.31-.71.48-.24-.17-.49-.33-.76-.48l-4.74-2.69h0L93.54,88.26l-7.28-22-3.8,1.26L90.23,91l22.36,12.69h0l4.66,2.64a5.56,5.56,0,1,1-5.52,9.64l-4.7-2.67-2,3.48,4.69,2.66a9.49,9.49,0,0,0,4.73,1.27A9.54,9.54,0,0,0,120,119a9.52,9.52,0,0,0,10.22.47l4.7-2.67-2-3.48Zm25.59-76h2.28V36h-2.28A9.77,9.77,0,0,1,144,26.21V24h-4V15.91a12,12,0,0,1,24,0V44h4V15.91a16,16,0,0,0-32,0V28h4.14A13.78,13.78,0,0,0,153.79,40ZM180,140h-4v0h-4v2.15a6,6,0,1,1-12,0V67.83h-4v74.33a10,10,0,1,0,20,0V220H155.83l-5.46-80h-4l5.56,81.4L137.75,240H172v-4H145.83l9.12-12H177.5v0H180Zm-86.41,0h-4l-5.46,80H64V140H60v84h3v0H85l9.12,12H67.95v4h34.25L88,221.4Z"/></svg>