<svg xmlns="http://www.w3.org/2000/svg" viewBox="0 0 248 248"><defs><style>.cls-1{fill:#fff;}.cls-2{fill:#e35500;}.cls-3,.cls-4,.cls-5{fill:#f0ab00;}.cls-4{opacity:0.7;}.cls-5{opacity:0.4;}</style></defs><title>284139-pictogram-neg</title><g id="outlines_--_combound_path" data-name="outlines -- combound path"><path class="cls-1" d="M40.6,161.67h-.71c-9.13-.51-17.67-5.1-24-12.91a43.57,43.57,0,0,1-9.7-26.17,34.82,34.82,0,0,1,9.32-25.12c6.88-7.33,16.91-11.88,29.84-13.54-1.47-9.4,1.24-19.31,7.75-28.13A60.13,60.13,0,0,1,80.72,35.63c21.57-7.85,50.4-4.92,67.46,26.36,19.27-10.11,38-7.06,52.94,8.63l-2.9,2.76c-13.77-14.5-31.18-17.13-49-7.4-1,.56-1.58.87-2.45.6l-1.2-1C129.82,35,102.46,32,82.09,39.39,56.36,48.76,46.15,70,49.62,85.22l.5,2.21-2.25.23C12.23,91.24,10,115.23,10.14,122.5c.45,20.7,15.91,34.37,30,35.17,1.14,0,46.44-.21,70.21-.34l0,4C95,161.42,47.05,161.67,40.6,161.67Zm199.28-6.3a16.58,16.58,0,0,1-10.14,7.78,16.92,16.92,0,0,1-4.35.57,16.63,16.63,0,0,1-6.36-1.27L207.58,183.6l-.11-.07-.63-.4a23.08,23.08,0,0,0-2.64-1.3l-.12,0v0l11.51-21.24a16.7,16.7,0,0,1-5.24-6.3l-19.8,6.3,3,19.75h-.12a21.64,21.64,0,0,0-3.62.69l-.12,0-2.95-19.29-40.84,13a16.41,16.41,0,0,1-.15,6.44l30.54,10.69-.07.11a22.71,22.71,0,0,0-1.45,3.4l0,.12-30.31-10.61a16.68,16.68,0,1,1-19.3-23.46,16.48,16.48,0,0,1,10.9.8l32.09-55.42a16.7,16.7,0,1,1,24.67-4.86,16.9,16.9,0,0,1-1.94,2.7L216,133.24a16.89,16.89,0,0,1,5.08-2.36,16.7,16.7,0,0,1,18.79,24.49ZM181.66,105.9a12.77,12.77,0,0,0-3.28-25.11,13.08,13.08,0,0,0-3.33.44,12.77,12.77,0,0,0,6.61,24.67Zm-39.84,68.31a12.8,12.8,0,0,0-12.34-9.46,12.53,12.53,0,0,0-3.3.44,12.77,12.77,0,1,0,15.64,9Zm44.34-16.42-7.27-47.54h0l-.49,0a16.42,16.42,0,0,1-6.83-1.49l-32.06,55.37a16.66,16.66,0,0,1,5.34,6.78Zm26.88-22L188,107.23a17,17,0,0,1-5.17,2.44L190,156.59l19.15-6.08A16.71,16.71,0,0,1,213,135.83Zm24.71,7.88a12.77,12.77,0,0,0-12.32-9.46,13,13,0,0,0-3.32.43,12.77,12.77,0,1,0,15.64,9Z"/></g><g id="color_band" data-name="color band"><path class="cls-2" d="M206.84,183.13a23.08,23.08,0,0,0-2.64-1.3l-.12,0a21.77,21.77,0,0,0-8.29-1.64,20.17,20.17,0,0,0-2.21.13h-.12a21.64,21.64,0,0,0-3.62.69l-.12,0a22.05,22.05,0,0,0-13.4,10.81l-.07.11a22.71,22.71,0,0,0-1.45,3.4l0,.12a21.79,21.79,0,0,0-1.08,6.79,22.1,22.1,0,1,0,33.89-18.65l-.11-.07Z"/></g><g id="_100_band" data-name="100% band"><path class="cls-3" d="M206.84,221.37a22,22,0,0,0,.63-37.84l-.63-.4Z"/></g><g id="_70_band" data-name="70% band"><path class="cls-4" d="M206.84,183.13a23.08,23.08,0,0,0-2.64-1.3,22,22,0,0,0-8.41-1.68v44.21a21.91,21.91,0,0,0,11.05-3Z"/></g><g id="_40_band" data-name="40% band"><path class="cls-5" d="M195.79,180.15a22.26,22.26,0,0,0-2.33.14,21.64,21.64,0,0,0-3.62.69,22.13,22.13,0,0,0-5.1,2.15v38.24a21.91,21.91,0,0,0,11,3Z"/></g></svg>