<svg width="24" height="24" viewBox="0 0 24 24" fill="none" xmlns="http://www.w3.org/2000/svg">
<path d="M22.6493 17.8582L14.2403 3.29344C13.7727 2.48357 12.9352 2 12 2C11.0648 2 10.2272 2.48357 9.75964 3.29344L1.35072 17.8581C0.883093 18.6681 0.883093 19.6351 1.35072 20.4451C1.81835 21.255 2.65581 21.7385 3.59106 21.7385H20.4089C21.3441 21.7385 22.1816 21.2549 22.6493 20.4451C23.1169 19.6351 23.1169 18.6681 22.6493 17.8582ZM21.533 19.8007C21.2984 20.2071 20.8782 20.4497 20.4089 20.4497H3.59106C3.12176 20.4497 2.70153 20.2071 2.46692 19.8007C2.23231 19.3943 2.23231 18.9091 2.46692 18.5027L10.8759 3.93793C11.1105 3.53153 11.5308 3.28893 12 3.28893C12.4692 3.28893 12.8895 3.53153 13.1241 3.93793L21.5331 18.5027C21.7677 18.9091 21.7677 19.3943 21.533 19.8007Z" fill="#FF9F29" stroke="#FF9F29" stroke-width="0.5"/>
<path d="M11.3555 8.43219H12.6444V14.8767H11.3555V8.43219Z" fill="#FF9F29"/>
<path d="M11.1407 17.0249C11.1407 16.5511 11.5262 16.1656 12 16.1656C12.4738 16.1656 12.8593 16.5511 12.8593 17.0249C12.8593 17.4988 12.4737 17.8842 12 17.8842C11.5262 17.8842 11.1407 17.4988 11.1407 17.0249Z" fill="#FF9F29"/>
<path d="M11.3555 8.43219H12.6444V14.8767H11.3555V8.43219Z" stroke="#FF9F29" stroke-width="0.5"/>
<path d="M11.1407 17.0249C11.1407 16.5511 11.5262 16.1656 12 16.1656C12.4738 16.1656 12.8593 16.5511 12.8593 17.0249C12.8593 17.4988 12.4737 17.8842 12 17.8842C11.5262 17.8842 11.1407 17.4988 11.1407 17.0249Z" stroke="#FF9F29" stroke-width="0.5"/>
</svg>
