<svg width="204" height="50" viewBox="0 0 204 50" fill="none" xmlns="http://www.w3.org/2000/svg">
<g clip-path="url(#clip0_36_61)">
<path d="M46.0688 31.4904V33.2922L33.3333 24.9793L46.0688 16.6664V18.4682C46.0688 19.6148 46.9697 20.5157 48.1163 20.5157H54.2179C55.3645 20.5157 56.2654 19.6148 56.2654 18.4682V5.24138C56.2654 1.88348 52.457 -0.0411742 49.7543 1.92443L28.1327 17.854L6.51106 1.92443C3.80835 -0.0411742 0 1.88348 0 5.24138V18.5092C0 19.6558 0.900901 20.5567 2.0475 20.5567H7.69861C8.84521 20.5567 9.74611 19.6558 9.74611 18.5092V16.7074L22.4816 24.9793L9.74611 33.2922V31.4904C9.74611 30.3438 8.84521 29.4429 7.69861 29.4429H2.0475C0.900901 29.4429 0 30.3438 0 31.4904V44.7582C0 48.1161 3.8493 50.0407 6.55201 48.0342L28.1327 31.818L49.7134 48.0342C52.4161 50.0407 56.2654 48.1161 56.2654 44.7582V31.4904C56.2654 30.3438 55.3645 29.4429 54.2179 29.4429H48.1163C46.9697 29.4429 46.0688 30.3438 46.0688 31.4904Z" fill="url(#paint0_linear_36_61)"/>
<path d="M74.5291 29.1155H91.6462V35.0123H67.9771V0.614258H74.5291V29.1155Z" fill="#333333"/>
<path d="M122.809 27.7232H108.108L105.324 35.0533H98.5258L112.162 0.655273H118.919L132.555 35.0533H125.553L122.809 27.7232ZM120.721 22.2359L115.479 8.43578L110.197 22.2359H120.721Z" fill="#333333"/>
<path d="M135.012 0.655273H163.718V6.55208H152.662V35.0124H146.11V6.55208H135.012V0.655273Z" fill="#333333"/>
<path d="M188.329 5.92179e-05C195.045 5.92179e-05 200.491 3.11226 203.481 7.82152L197.871 10.9747C195.864 7.94437 192.547 6.10162 188.329 6.10162C181.572 6.10162 176.945 11.1794 176.945 17.8543C176.945 24.5291 181.818 29.6479 188.698 29.6479C192.465 29.6479 195.823 28.6241 197.707 26.9452V21.4169H188.247V15.9296H203.767V29.8526C202.416 31.5316 200.328 32.9239 197.543 33.9886C194.799 35.0942 191.851 35.6675 188.739 35.6675C178.46 35.8723 170.229 27.8461 170.434 17.8133C170.229 7.73962 178.133 -0.163741 188.329 5.92179e-05Z" fill="#333333"/>
<path d="M70.1065 47.0517H73.6282V47.9116H69.0827V41.1958H70.0655V47.0517H70.1065Z" fill="#333333"/>
<path d="M77.2727 42.957C78.7469 42.957 79.8526 44.0627 79.8526 45.4959C79.8526 46.9701 78.7469 48.0348 77.2727 48.0348C75.7985 48.0348 74.6929 46.9292 74.6929 45.4959C74.6929 44.0627 75.7985 42.957 77.2727 42.957ZM77.2727 43.817C76.3309 43.817 75.6347 44.5541 75.6347 45.5369C75.6347 46.4787 76.3309 47.2568 77.2727 47.2568C78.2146 47.2568 78.9107 46.5197 78.9107 45.5369C78.8698 44.5541 78.2146 43.817 77.2727 43.817Z" fill="#333333"/>
<path d="M88.493 47.7482C88.2473 47.912 87.7969 48.0758 87.3464 48.0758C86.1998 48.0758 85.5856 47.4206 85.5856 46.0693V43.9399H82.8829V46.0283C82.8829 46.8064 83.1695 47.2159 83.7428 47.2159C84.0704 47.2159 84.3161 47.134 84.5618 47.0111L84.8075 47.7892C84.5618 47.953 84.1114 48.1168 83.6609 48.1168C82.5143 48.1168 81.9001 47.4616 81.9001 46.1102V43.9808H80.7944V43.1209H81.9001V41.7695H82.8419V43.0799H85.5446V41.7695H86.4865V43.0799H88.2883V43.9399H86.4865V46.0283C86.4865 46.8064 86.7731 47.2159 87.3464 47.2159C87.674 47.2159 87.9197 47.134 88.1654 47.0111L88.493 47.7482Z" fill="#333333"/>
<path d="M90.4996 45.8645C90.6634 46.7244 91.3186 47.2158 92.1785 47.2158C92.7928 47.2158 93.3251 46.9701 93.6527 46.5197L94.3898 47.0111C93.9803 47.6253 93.1204 48.0348 92.1785 48.0348C90.6634 48.0348 89.5577 46.9292 89.5577 45.4959C89.5577 44.0217 90.6224 42.957 92.0557 42.957C93.4889 42.957 94.5536 43.9398 94.5536 45.3731C94.5536 45.5369 94.5536 45.7007 94.5536 45.8645H90.4996ZM93.6118 45.1274C93.5708 44.3084 92.9566 43.776 92.0557 43.776C91.2776 43.776 90.6224 44.3084 90.4996 45.1274H93.6118Z" fill="#333333"/>
<path d="M102.989 46.3146H99.8772L99.222 47.9116H98.1982L100.901 41.1958H101.925L104.627 47.9116H103.604L102.989 46.3146ZM102.621 45.4546L101.392 42.3834L100.164 45.4546H102.621Z" fill="#333333"/>
<path d="M108.272 45.7003H107.002V47.9116H106.02V41.1958H108.272C110.074 41.1958 111.097 42.1377 111.097 43.4481C111.097 44.7585 110.033 45.7003 108.272 45.7003ZM108.272 42.0967H107.002V44.8404H108.272C109.459 44.8404 110.115 44.349 110.115 43.489C110.115 42.6291 109.5 42.0967 108.272 42.0967Z" fill="#333333"/>
<path d="M113.636 47.9116H112.654V41.1958H113.636V47.9116Z" fill="#333333"/>
<path d="M117.772 41.2368H123.342V42.0968H121.048V47.9117H120.066V42.0968H117.772V41.2368Z" fill="#333333"/>
<path d="M127.518 43.9398C127.396 43.8989 127.191 43.8579 126.986 43.8579C126.126 43.8579 125.512 44.5541 125.512 45.414V47.912H124.57V43.0799H125.512V43.9808C125.758 43.3665 126.29 42.957 126.986 42.957C127.232 42.957 127.396 42.998 127.518 43.0389V43.9398Z" fill="#333333"/>
<path d="M133.702 43.0799V47.912H132.76V47.1339C132.432 47.7072 131.818 48.0348 131.04 48.0348C129.689 48.0348 128.665 46.9292 128.665 45.4959C128.665 44.0627 129.689 42.957 131.04 42.957C131.818 42.957 132.432 43.2846 132.76 43.8579V43.0799H133.702ZM131.163 43.776C130.221 43.776 129.566 44.5541 129.566 45.4959C129.566 46.4378 130.221 47.2158 131.163 47.2158C132.064 47.2158 132.76 46.5606 132.76 45.4959C132.719 44.4312 132.064 43.776 131.163 43.776Z" fill="#333333"/>
<path d="M140.254 47.912H139.312V45.2502C139.312 44.2674 138.862 43.776 138.002 43.776C137.183 43.776 136.527 44.4722 136.527 45.3321V47.912H135.545V43.0799H136.486V43.8579C136.732 43.3256 137.346 42.957 138.124 42.957C139.394 42.957 140.213 43.776 140.213 45.2093V47.912H140.254Z" fill="#333333"/>
<path d="M142.424 46.5197C142.711 46.9701 143.284 47.2568 143.98 47.2568C144.677 47.2568 145.25 47.0111 145.25 46.6425C145.25 46.274 145.004 46.1511 144.226 45.9464L143.448 45.7826C142.424 45.5369 141.933 45.1274 141.933 44.4312C141.933 43.5303 142.793 42.957 143.98 42.957C144.431 42.957 144.881 43.0389 145.25 43.2437C145.659 43.4484 145.946 43.6941 146.11 43.9808L145.373 44.4312C145.127 44.0217 144.554 43.776 143.98 43.776C143.366 43.776 142.875 44.0217 142.875 44.3903C142.875 44.7179 143.12 44.8817 143.898 45.0455L144.676 45.2093C145.7 45.455 146.192 45.8645 146.192 46.6016C146.192 47.5025 145.25 48.0758 143.98 48.0758C143.448 48.0758 142.998 47.9529 142.588 47.7482C142.179 47.5434 141.892 47.2568 141.687 46.9701L142.424 46.5197Z" fill="#333333"/>
<path d="M148.157 41.0322C148.526 41.0322 148.812 41.2779 148.812 41.6465C148.812 42.015 148.526 42.2607 148.157 42.2607C147.789 42.2607 147.502 42.015 147.502 41.6465C147.502 41.2779 147.789 41.0322 148.157 41.0322ZM148.649 47.9118H147.707V43.0797H148.649V47.9118Z" fill="#333333"/>
<path d="M154.013 47.7482C153.767 47.912 153.317 48.0758 152.866 48.0758C151.72 48.0758 151.106 47.4206 151.106 46.0693V43.9399H150V43.0799H151.106V41.7695H152.047V43.0799H153.849V43.9399H152.047V46.0283C152.047 46.8064 152.334 47.2159 152.907 47.2159C153.235 47.2159 153.481 47.134 153.726 47.0111L154.013 47.7482Z" fill="#333333"/>
<path d="M161.302 41.1141C162.572 41.1141 163.636 41.6874 164.21 42.5883L163.35 43.0797C162.899 42.4245 162.203 42.015 161.302 42.015C159.828 41.974 158.804 43.1616 158.804 44.5948C158.804 46.0281 159.869 47.1747 161.343 47.1747C162.162 47.1747 162.94 46.929 163.35 46.5195V45.2091H161.302V44.3491H164.292V46.929C164.005 47.2566 163.595 47.5432 163.063 47.748C162.531 47.9527 161.957 48.0756 161.384 48.0756C159.378 48.1165 157.821 46.5604 157.862 44.5948C157.781 42.6292 159.296 41.0731 161.302 41.1141Z" fill="#333333"/>
<path d="M170.803 43.0799V47.912H169.861V47.1339C169.533 47.7072 168.919 48.0348 168.141 48.0348C166.79 48.0348 165.766 46.9292 165.766 45.4959C165.766 44.0627 166.79 42.957 168.141 42.957C168.919 42.957 169.533 43.2846 169.861 43.8579V43.0799H170.803ZM168.264 43.776C167.322 43.776 166.667 44.5541 166.667 45.4959C166.667 46.4378 167.322 47.2158 168.264 47.2158C169.165 47.2158 169.861 46.5606 169.861 45.4959C169.82 44.4312 169.165 43.776 168.264 43.776Z" fill="#333333"/>
<path d="M176.167 47.7482C175.921 47.912 175.471 48.0758 175.02 48.0758C173.874 48.0758 173.26 47.4206 173.26 46.0693V43.9399H172.154V43.0799H173.26V41.7695H174.201V43.0799H176.003V43.9399H174.201V46.0283C174.201 46.8064 174.488 47.2159 175.061 47.2159C175.389 47.2159 175.635 47.134 175.88 47.0111L176.167 47.7482Z" fill="#333333"/>
<path d="M178.133 45.8645C178.296 46.7244 178.952 47.2158 179.812 47.2158C180.426 47.2158 180.958 46.9701 181.286 46.5197L182.023 47.0111C181.613 47.6253 180.753 48.0348 179.812 48.0348C178.296 48.0348 177.191 46.9292 177.191 45.4959C177.191 44.0217 178.256 42.957 179.689 42.957C181.122 42.957 182.187 43.9398 182.187 45.3731C182.187 45.5369 182.187 45.7007 182.187 45.8645H178.133ZM181.286 45.1274C181.245 44.3084 180.631 43.776 179.73 43.776C178.952 43.776 178.296 44.3084 178.174 45.1274H181.286Z" fill="#333333"/>
<path d="M185.258 46.7241L186.446 43.1205H187.305L188.493 46.7241L189.722 43.0796H190.745L188.984 47.9117H188.043L186.855 44.5128L185.667 47.9117H184.726L182.965 43.0796H183.989L185.258 46.7241Z" fill="#333333"/>
<path d="M196.56 43.0799V47.912H195.618V47.1339C195.291 47.7072 194.676 48.0348 193.898 48.0348C192.547 48.0348 191.523 46.9292 191.523 45.4959C191.523 44.0627 192.547 42.957 193.898 42.957C194.676 42.957 195.291 43.2846 195.618 43.8579V43.0799H196.56ZM194.021 43.776C193.079 43.776 192.424 44.5541 192.424 45.4959C192.424 46.4378 193.079 47.2158 194.021 47.2158C194.922 47.2158 195.618 46.5606 195.618 45.4959C195.618 44.4312 194.922 43.776 194.021 43.776Z" fill="#333333"/>
<path d="M203.153 43.0795L200.983 48.0754C200.655 48.8125 200.328 49.3039 200 49.5906C199.672 49.8772 199.304 50.0001 198.853 50.0001C198.485 50.0001 198.116 49.9182 197.83 49.7544L198.075 48.9763C198.28 49.0582 198.526 49.1401 198.772 49.1401C199.304 49.1401 199.631 48.8535 200 48.0345L200.082 47.8707L197.871 43.0386H198.894L200.532 46.765L202.129 43.0386H203.153V43.0795Z" fill="#333333"/>
</g>
<defs>
<linearGradient id="paint0_linear_36_61" x1="0" y1="25.0043" x2="56.2496" y2="25.0043" gradientUnits="userSpaceOnUse">
<stop offset="1.06556e-08" stop-color="#12C2E9"/>
<stop offset="0.5056" stop-color="#C471ED"/>
<stop offset="1" stop-color="#F64F59"/>
</linearGradient>
<clipPath id="clip0_36_61">
<rect width="203.767" height="50" fill="white"/>
</clipPath>
</defs>
</svg>
