<svg width="72" height="72" viewBox="0 0 72 72" fill="none" xmlns="http://www.w3.org/2000/svg">
<path d="M60.5862 50.8962H37V47.172C37 46.4864 36.4442 45.9307 35.7586 45.9307C35.073 45.9307 34.5172 46.4864 34.5172 47.172V50.8962H10.931C9.55981 50.8962 8.44824 52.0078 8.44824 53.3789V57.1031C8.44824 57.7887 9.00403 58.3445 9.68962 58.3445C10.3752 58.3445 10.931 57.7887 10.931 57.1031V53.3789H34.5172V57.1031C34.5172 57.7887 35.073 58.3445 35.7586 58.3445C36.4442 58.3445 37 57.7887 37 57.1031V53.3789H60.5862V57.1031C60.5862 57.7887 61.142 58.3445 61.8275 58.3445C62.5131 58.3445 63.0689 57.7887 63.0689 57.1031V53.3789C63.0689 52.0078 61.9574 50.8962 60.5862 50.8962Z" fill="#955BA5"/>
<path d="M55.62 0H15.8958C14.5247 0 13.4131 1.11157 13.4131 2.48276V9.93104C13.4131 11.3022 14.5247 12.4138 15.8958 12.4138H55.62C56.9912 12.4138 58.1027 11.3022 58.1027 9.93104V2.48276C58.1027 1.11157 56.9912 0 55.62 0Z" fill="#547580"/>
<path d="M55.62 17.3789H15.8958C14.5247 17.3789 13.4131 18.4905 13.4131 19.8617V27.3099C13.4131 28.6811 14.5247 29.7927 15.8958 29.7927H55.62C56.9912 29.7927 58.1027 28.6811 58.1027 27.3099V19.8617C58.1027 18.4905 56.9912 17.3789 55.62 17.3789Z" fill="#547580"/>
<path d="M55.62 34.7588H15.8958C14.5247 34.7588 13.4131 35.8704 13.4131 37.2415V44.6898C13.4131 46.061 14.5247 47.1726 15.8958 47.1726H55.62C56.9912 47.1726 58.1027 46.061 58.1027 44.6898V37.2415C58.1027 35.8704 56.9912 34.7588 55.62 34.7588Z" fill="#547580"/>
<path d="M15.8965 29.793H55.6206V34.7585H15.8965V29.793Z" fill="#35495E"/>
<path d="M15.8965 12.4141H55.6206V17.3796H15.8965V12.4141Z" fill="#35495E"/>
<path d="M18.3791 7.44858C19.0647 7.44858 19.6205 6.89279 19.6205 6.2072C19.6205 5.5216 19.0647 4.96582 18.3791 4.96582C17.6935 4.96582 17.1377 5.5216 17.1377 6.2072C17.1377 6.89279 17.6935 7.44858 18.3791 7.44858Z" fill="#F0C419"/>
<path d="M23.3449 7.44858C24.0305 7.44858 24.5863 6.89279 24.5863 6.2072C24.5863 5.5216 24.0305 4.96582 23.3449 4.96582C22.6593 4.96582 22.1035 5.5216 22.1035 6.2072C22.1035 6.89279 22.6593 7.44858 23.3449 7.44858Z" fill="#FF5364"/>
<path d="M53.1379 7.44858H38.2414C37.5558 7.44858 37 6.89279 37 6.2072C37 5.5216 37.5558 4.96582 38.2414 4.96582H53.1379C53.8235 4.96582 54.3793 5.5216 54.3793 6.2072C54.3793 6.89279 53.8235 7.44858 53.1379 7.44858Z" fill="#3F5C6C"/>
<path d="M18.3791 24.8275C19.0647 24.8275 19.6205 24.2717 19.6205 23.5861C19.6205 22.9005 19.0647 22.3447 18.3791 22.3447C17.6935 22.3447 17.1377 22.9005 17.1377 23.5861C17.1377 24.2717 17.6935 24.8275 18.3791 24.8275Z" fill="#F0C419"/>
<path d="M23.3449 24.8275C24.0305 24.8275 24.5863 24.2717 24.5863 23.5861C24.5863 22.9005 24.0305 22.3447 23.3449 22.3447C22.6593 22.3447 22.1035 22.9005 22.1035 23.5861C22.1035 24.2717 22.6593 24.8275 23.3449 24.8275Z" fill="#FF5364"/>
<path d="M53.1379 24.8275H38.2414C37.5558 24.8275 37 24.2717 37 23.5861C37 22.9005 37.5558 22.3447 38.2414 22.3447H53.1379C53.8235 22.3447 54.3793 22.9005 54.3793 23.5861C54.3793 24.2717 53.8235 24.8275 53.1379 24.8275Z" fill="#3F5C6C"/>
<path d="M18.3791 42.2064C19.0647 42.2064 19.6205 41.6506 19.6205 40.965C19.6205 40.2794 19.0647 39.7236 18.3791 39.7236C17.6935 39.7236 17.1377 40.2794 17.1377 40.965C17.1377 41.6506 17.6935 42.2064 18.3791 42.2064Z" fill="#F0C419"/>
<path d="M23.3449 42.2064C24.0305 42.2064 24.5863 41.6506 24.5863 40.965C24.5863 40.2794 24.0305 39.7236 23.3449 39.7236C22.6593 39.7236 22.1035 40.2794 22.1035 40.965C22.1035 41.6506 22.6593 42.2064 23.3449 42.2064Z" fill="#FF5364"/>
<path d="M53.1379 42.2064H38.2414C37.5558 42.2064 37 41.6506 37 40.965C37 40.2794 37.5558 39.7236 38.2414 39.7236H53.1379C53.8235 39.7236 54.3793 40.2794 54.3793 40.965C54.3793 41.6506 53.8235 42.2064 53.1379 42.2064Z" fill="#3F5C6C"/>
<path d="M43.2073 57.1035H28.3107C27.6251 57.1035 27.0693 57.6593 27.0693 58.3449V70.7587C27.0693 71.4443 27.6251 72.0001 28.3107 72.0001H43.2073C43.8929 72.0001 44.4486 71.4443 44.4486 70.7587V58.3449C44.4486 57.6593 43.8929 57.1035 43.2073 57.1035Z" fill="#F0C419"/>
<path d="M40.724 57.1035V59.5863C40.724 60.2719 40.1682 60.8277 39.4826 60.8277C38.797 60.8277 38.2412 60.2719 38.2412 59.5863V57.1035H40.724Z" fill="#3F5C6C"/>
<path d="M32.0342 71.9999V67.0343C32.0342 66.3488 32.59 65.793 33.2756 65.793H38.2411C38.9267 65.793 39.4825 66.3488 39.4825 67.0343V71.9999H32.0342Z" fill="#ECF0F1"/>
<path d="M69.2756 57.1035H54.3791C53.6935 57.1035 53.1377 57.6593 53.1377 58.3449V70.7587C53.1377 71.4443 53.6935 72.0001 54.3791 72.0001H69.2756C69.9612 72.0001 70.517 71.4443 70.517 70.7587V58.3449C70.517 57.6593 69.9612 57.1035 69.2756 57.1035Z" fill="#F0C419"/>
<path d="M58.1035 71.9999V67.0343C58.1035 66.3488 58.6593 65.793 59.3449 65.793H64.3104C64.996 65.793 65.5518 66.3488 65.5518 67.0343V71.9999H58.1035Z" fill="#ECF0F1"/>
<path d="M66.7933 57.1035V59.5863C66.7933 60.2719 66.2375 60.8277 65.5519 60.8277C64.8663 60.8277 64.3105 60.2719 64.3105 59.5863V57.1035H66.7933Z" fill="#3F5C6C"/>
<path d="M17.1379 57.1035H2.24138C1.55578 57.1035 1 57.6593 1 58.3449V70.7587C1 71.4443 1.55578 72.0001 2.24138 72.0001H17.1379C17.8235 72.0001 18.3793 71.4443 18.3793 70.7587V58.3449C18.3793 57.6593 17.8235 57.1035 17.1379 57.1035Z" fill="#F0C419"/>
<path d="M5.96582 71.9999V67.0343C5.96582 66.3488 6.5216 65.793 7.2072 65.793H12.1727C12.8583 65.793 13.4141 66.3488 13.4141 67.0343V71.9999H5.96582Z" fill="#ECF0F1"/>
<path d="M14.6556 57.1035V59.5863C14.6556 60.2719 14.0998 60.8277 13.4142 60.8277C12.7286 60.8277 12.1729 60.2719 12.1729 59.5863V57.1035H14.6556Z" fill="#3F5C6C"/>
</svg>
