<svg width="72" height="72" viewBox="0 0 72 72" fill="none" xmlns="http://www.w3.org/2000/svg">
<path d="M55.3976 57.413H16.6016V54.5707C16.6016 53.3987 17.5516 52.4487 18.7236 52.4487H53.2756C54.4476 52.4487 55.3976 53.3987 55.3976 54.5707V57.413Z" fill="#7BAC51"/>
<path d="M53.2756 52.4487H50.8779C52.0499 52.4487 52.9999 53.3987 52.9999 54.5707V57.413H55.3976V54.5707C55.3976 53.3987 54.4476 52.4487 53.2756 52.4487Z" fill="#5D8E33"/>
<path d="M18.7236 52.4487H21.1213C19.9493 52.4487 18.9993 53.3987 18.9993 54.5707V57.413H16.6016V54.5707C16.6016 53.3987 17.5516 52.4487 18.7236 52.4487Z" fill="#99CA6F"/>
<path d="M24.6113 48.8145H47.3885V52.4485H24.6113V48.8145Z" fill="#5D8E33"/>
<path d="M55.3977 57.9846H16.6017C16.2863 57.9846 16.0303 57.7286 16.0303 57.4132V54.5709C16.0303 53.0857 17.2386 51.8774 18.7237 51.8774H53.276C54.7611 51.8774 55.9694 53.0857 55.9694 54.5709V57.4132C55.9691 57.7286 55.7134 57.9846 55.3977 57.9846ZM17.1731 56.8417H54.8263V54.5709C54.8263 53.716 54.1306 53.0203 53.2757 53.0203H18.7237C17.8688 53.0203 17.1731 53.716 17.1731 54.5709V56.8417Z" fill="#690589"/>
<path d="M47.3886 53.0205H24.6115C24.296 53.0205 24.04 52.7645 24.04 52.4491V48.8151C24.04 48.4997 24.296 48.2437 24.6115 48.2437H47.3886C47.704 48.2437 47.96 48.4997 47.96 48.8151V52.4491C47.96 52.7645 47.704 53.0205 47.3886 53.0205ZM25.1829 51.8777H46.8172V49.3865H25.1829V51.8777Z" fill="#690589"/>
<path d="M63.6096 48.8144H8.38958C7.21758 48.8144 6.26758 47.8644 6.26758 46.6924V12.6933C6.26758 11.5213 7.21758 10.5713 8.38958 10.5713H63.6099C64.7819 10.5713 65.7319 11.5213 65.7319 12.6933V46.6927C65.7316 47.8644 64.7816 48.8144 63.6096 48.8144Z" fill="#F4EFED"/>
<path d="M32.8742 28.6378V22.2983L25.8965 23.1821V28.6378H32.8742Z" fill="#FCC24C"/>
<path d="M34.8184 28.6382H44.1546V20.9756L34.8184 22.1579V28.6382Z" fill="#FCC24C"/>
<path d="M32.8742 30.583H25.8965V36.1147L32.8742 37.279V30.583Z" fill="#FCC24C"/>
<path d="M34.8184 30.583V37.4647L44.1546 39.0227V30.583H34.8184Z" fill="#FCC24C"/>
<path d="M63.6096 10.5713H61.2119C62.3839 10.5713 63.3339 11.5213 63.3339 12.6933V46.6927C63.3339 47.8647 62.3839 48.8147 61.2119 48.8147H63.6096C64.7816 48.8147 65.7316 47.8647 65.7316 46.6927V12.6933C65.7316 11.5213 64.7816 10.5713 63.6096 10.5713Z" fill="#D6D1CF"/>
<path d="M8.38958 48.8144H10.7873C9.61529 48.8144 8.66529 47.8644 8.66529 46.6924V12.6933C8.66529 11.5213 9.61529 10.5713 10.7873 10.5713H8.38958C7.21758 10.5713 6.26758 11.5213 6.26758 12.6933V46.6927C6.26758 47.8644 7.21758 48.8144 8.38958 48.8144Z" fill="white"/>
<path d="M63.6107 49.3863H8.39069C6.90555 49.3863 5.69727 48.178 5.69727 46.6926V12.6934C5.69727 11.2083 6.90555 10 8.39069 10H63.611C65.0961 10 66.3044 11.2083 66.3044 12.6934V46.6926C66.3041 48.1777 65.0958 49.3863 63.6107 49.3863ZM8.39069 11.1429C7.53555 11.1429 6.84012 11.8386 6.84012 12.6934V46.6926C6.84012 47.5477 7.53584 48.2434 8.39069 48.2434H63.611C64.4661 48.2434 65.1616 47.5477 65.1616 46.6926V12.6934C65.1616 11.8386 64.4658 11.1429 63.611 11.1429H8.39069Z" fill="#690589"/>
<path d="M8.18666 19.8595C7.87123 19.8595 7.61523 19.6035 7.61523 19.2881V15.8595C7.61523 15.5441 7.87123 15.2881 8.18666 15.2881C8.50209 15.2881 8.75809 15.5441 8.75809 15.8595V19.2881C8.75809 19.6035 8.50238 19.8595 8.18666 19.8595Z" fill="#690589"/>
<path d="M32.8743 29.2093H25.8966C25.5812 29.2093 25.3252 28.9533 25.3252 28.6379V23.1821C25.3252 22.8941 25.5395 22.6516 25.8249 22.6153L32.8023 21.7316C32.9652 21.711 33.1289 21.7613 33.2521 21.8699C33.3752 21.9781 33.4458 22.1344 33.4458 22.2984V28.6379C33.4458 28.9533 33.1898 29.2093 32.8743 29.2093ZM26.4681 28.0664H32.3026V22.947L26.4681 23.6859V28.0664Z" fill="#690589"/>
<path d="M44.1558 29.2093H34.8195C34.504 29.2093 34.248 28.9533 34.248 28.6378V22.1576C34.248 21.8696 34.4623 21.627 34.7478 21.5907L44.084 20.4084C44.2466 20.3876 44.4106 20.4381 44.5338 20.5467C44.6569 20.655 44.7275 20.8113 44.7275 20.9753V28.6376C44.7272 28.9533 44.4715 29.2093 44.1558 29.2093ZM35.3909 28.0664H43.5843V21.6238L35.3909 22.6613V28.0664Z" fill="#690589"/>
<path d="M32.8741 37.8506C32.8429 37.8506 32.8112 37.848 32.7801 37.8429L25.8026 36.6783C25.5272 36.6323 25.3252 36.394 25.3252 36.1146V30.5831C25.3252 30.2677 25.5812 30.0117 25.8966 30.0117H32.8741C33.1895 30.0117 33.4455 30.2677 33.4455 30.5831V37.2794C33.4455 37.4474 33.3715 37.6069 33.2432 37.7154C33.1392 37.8031 33.0081 37.8506 32.8741 37.8506ZM26.4678 35.6303L32.3023 36.6043V31.1543H26.4678V35.6303Z" fill="#690589"/>
<path d="M44.1558 39.5938C44.1246 39.5938 44.0929 39.5912 44.0618 39.5861L34.7255 38.0278C34.45 37.9818 34.248 37.7435 34.248 37.4641V30.5827C34.248 30.2672 34.504 30.0112 34.8195 30.0112H44.1558C44.4712 30.0112 44.7272 30.2672 44.7272 30.5827V39.0224C44.7272 39.1904 44.6532 39.3498 44.5249 39.4584C44.4212 39.5464 44.2901 39.5938 44.1558 39.5938ZM35.3909 36.9801L43.5843 38.3478V31.1541H35.3909V36.9801Z" fill="#690589"/>
<path d="M18.5001 61.7194H2.261C1.32786 61.7194 0.571289 60.9628 0.571289 60.0297V34.0774C0.571289 33.1443 1.32786 32.3877 2.261 32.3877H18.5004C19.4336 32.3877 20.1901 33.1443 20.1901 34.0774V60.0297C20.1899 60.9628 19.4333 61.7194 18.5001 61.7194Z" fill="#F4EFED"/>
<path d="M18.5003 32.3882H16.8105C17.7437 32.3882 18.5003 33.1448 18.5003 34.0779V60.0302C18.5003 60.9633 17.7437 61.7199 16.8105 61.7199H18.5003C19.4334 61.7199 20.19 60.9633 20.19 60.0302V34.0779C20.19 33.1448 19.4334 32.3882 18.5003 32.3882Z" fill="#D6D1CF"/>
<path d="M2.261 61.7194H3.95072C3.01757 61.7194 2.261 60.9628 2.261 60.0297V34.0774C2.261 33.1443 3.01757 32.3877 3.95072 32.3877H2.261C1.32786 32.3877 0.571289 33.1443 0.571289 34.0774V60.0297C0.571289 60.9628 1.32786 61.7194 2.261 61.7194Z" fill="white"/>
<path d="M14.1483 35.1808H6.61375C6.13889 35.1808 5.71003 34.8968 5.5246 34.4593L4.64746 32.3882H16.1146L15.2375 34.4593C15.052 34.8965 14.6232 35.1808 14.1483 35.1808Z" fill="#7BAC51"/>
<path d="M18.5003 62.2907H2.26114C1.01429 62.2907 0 61.2764 0 60.0298V34.0775C0 32.8307 1.01429 31.8164 2.26114 31.8164H18.5003C19.7471 31.8164 20.7614 32.8307 20.7614 34.0775V60.0298C20.7614 61.2764 19.7471 62.2907 18.5003 62.2907ZM2.26114 32.9593C1.64457 32.9593 1.14286 33.461 1.14286 34.0775V60.0298C1.14286 60.6461 1.64457 61.1478 2.26114 61.1478H18.5003C19.1169 61.1478 19.6186 60.6461 19.6186 60.0298V34.0775C19.6186 33.461 19.1169 32.9593 18.5003 32.9593H2.26114Z" fill="#690589"/>
<path d="M14.1482 35.7521H6.61363C5.90763 35.7521 5.27363 35.3318 4.99848 34.6821L4.12134 32.611C4.04677 32.4344 4.06534 32.2324 4.17106 32.0724C4.27706 31.9124 4.45591 31.8164 4.64734 31.8164H16.1142C16.3059 31.8164 16.4848 31.9124 16.5905 32.0724C16.6962 32.2324 16.7151 32.4344 16.6402 32.611L15.7631 34.6821C15.4879 35.3321 14.8539 35.7521 14.1482 35.7521ZM5.50991 32.9595L6.05077 34.2364C6.14648 34.463 6.36763 34.6095 6.61363 34.6095H14.1482C14.3942 34.6095 14.6151 34.463 14.7113 34.2364L15.2519 32.9595H5.50991Z" fill="#690589"/>
<path d="M70.1149 27.6636H47.4446C46.7191 27.6636 46.1309 28.2519 46.1309 28.9773V60.4056C46.1309 61.131 46.7191 61.7193 47.4446 61.7193H70.1149C70.8403 61.7193 71.4286 61.131 71.4286 60.4056V28.9773C71.4286 28.2519 70.8403 27.6636 70.1149 27.6636Z" fill="#7BAC51"/>
<path d="M70.1145 27.6636H67.8916C68.6173 27.6636 69.2053 28.2516 69.2053 28.9773V60.4056C69.2053 61.1313 68.617 61.7193 67.8916 61.7193H70.1145C70.8399 61.7193 71.4282 61.1313 71.4282 60.4056V28.9773C71.4282 28.2516 70.8399 27.6636 70.1145 27.6636Z" fill="#5D8E33"/>
<path d="M47.4446 27.6636H49.6674C48.942 27.6636 48.3537 28.2516 48.3537 28.9773V60.4056C48.3537 61.1313 48.942 61.7193 49.6674 61.7193H47.4446C46.7191 61.7193 46.1309 61.1313 46.1309 60.4056V28.9773C46.1309 28.2516 46.7189 27.6636 47.4446 27.6636Z" fill="#99CA6F"/>
<path d="M70.115 62.2909H47.4447C46.4053 62.2909 45.5596 61.4451 45.5596 60.4057V28.9774C45.5596 27.938 46.405 27.0923 47.4447 27.0923H70.115C71.1544 27.0923 72.0001 27.938 72.0001 28.9774V60.4057C72.0001 61.4451 71.1544 62.2909 70.115 62.2909ZM47.4447 28.2351C47.0356 28.2351 46.7024 28.568 46.7024 28.9774V60.4057C46.7024 60.8151 47.0356 61.148 47.4447 61.148H70.115C70.5244 61.148 70.8573 60.8151 70.8573 60.4057V28.9774C70.8573 28.568 70.5241 28.2351 70.115 28.2351H47.4447Z" fill="#690589"/>
<path d="M48.6484 30.3745H68.9113V56.6442H48.6484V30.3745Z" fill="#F4EFED"/>
<path d="M68.9114 57.2155H48.6486C48.3331 57.2155 48.0771 56.9595 48.0771 56.6441V30.3747C48.0771 30.0592 48.3331 29.8032 48.6486 29.8032H68.9114C69.2269 29.8032 69.4829 30.0592 69.4829 30.3747V56.6441C69.4829 56.9598 69.2269 57.2155 68.9114 57.2155ZM49.22 56.0726H68.34V30.9461H49.22V56.0726Z" fill="#690589"/>
<path d="M59.8302 59.2374C59.8302 59.818 59.3597 60.2882 58.7794 60.2882C58.1988 60.2882 57.7285 59.8177 57.7285 59.2374C57.7285 58.6571 58.1991 58.1865 58.7794 58.1865C59.3597 58.1865 59.8302 58.6571 59.8302 59.2374Z" fill="#690589"/>
<path d="M64.2204 48.5532H53.3398V46.2704C53.3398 43.2658 55.7756 40.8301 58.7801 40.8301C61.7847 40.8301 64.2204 43.2658 64.2204 46.2704V48.5532Z" fill="#7BAC51"/>
<path d="M64.2196 49.1245H53.339C53.0236 49.1245 52.7676 48.8685 52.7676 48.5531V46.2705C52.7676 42.9556 55.4644 40.2588 58.7793 40.2588C62.0942 40.2588 64.791 42.9556 64.791 46.2705V48.5531C64.791 48.8685 64.5353 49.1245 64.2196 49.1245ZM53.9104 47.9816H63.6482V46.2705C63.6482 43.5859 61.4639 41.4016 58.7793 41.4016C56.0947 41.4016 53.9104 43.5859 53.9104 46.2705V47.9816Z" fill="#690589"/>
<path d="M55.2282 42.5953C55.0819 42.5953 54.9359 42.5395 54.8242 42.4278L52.7865 40.3904C52.5634 40.1675 52.5634 39.8055 52.7865 39.5824C53.0096 39.3593 53.3714 39.3593 53.5948 39.5824L55.6325 41.6198C55.8556 41.8427 55.8556 42.2047 55.6325 42.4278C55.5208 42.5395 55.3745 42.5953 55.2282 42.5953Z" fill="#690589"/>
<path d="M62.3314 42.5953C62.1851 42.5953 62.0388 42.5395 61.9271 42.4278C61.704 42.2047 61.704 41.8427 61.9271 41.6198L63.9648 39.5824C64.188 39.3593 64.5497 39.3593 64.7731 39.5824C64.9963 39.8055 64.9963 40.1675 64.7731 40.3904L62.7354 42.4278C62.624 42.5395 62.4777 42.5953 62.3314 42.5953Z" fill="#690589"/>
<path d="M56.3732 46.626C56.0578 46.626 55.8018 46.37 55.8018 46.0546V44.9757C55.8018 44.6603 56.0578 44.4043 56.3732 44.4043C56.6886 44.4043 56.9446 44.6603 56.9446 44.9757V46.0546C56.9446 46.37 56.6889 46.626 56.3732 46.626Z" fill="#690589"/>
<path d="M61.1867 46.626C60.8712 46.626 60.6152 46.37 60.6152 46.0546V44.9757C60.6152 44.6603 60.8712 44.4043 61.1867 44.4043C61.5021 44.4043 61.7581 44.6603 61.7581 44.9757V46.0546C61.7581 46.37 61.5021 46.626 61.1867 46.626Z" fill="#690589"/>
<path d="M13.457 48.1333C13.457 47.1136 14.0832 46.241 14.9715 45.8767C14.2904 44.7493 12.981 44.2373 10.8032 45.1507C10.5335 45.2639 10.2267 45.2639 9.95695 45.1507C4.66724 42.9325 4.49153 49.1116 6.03238 52.1385C7.25667 54.5433 9.1921 53.8667 10.003 53.439C10.239 53.3145 10.5207 53.3145 10.7567 53.439C11.5675 53.8667 13.503 54.5433 14.7272 52.1385C14.9724 51.657 15.1735 51.0953 15.3181 50.5007C14.2507 50.2407 13.457 49.281 13.457 48.1333Z" fill="#FF4397"/>
<path d="M10.8531 41.1696C10.2629 41.7598 10.032 42.5713 10.1551 43.337C10.9209 43.4601 11.7323 43.2293 12.3226 42.639C12.9129 42.0487 13.1437 41.2373 13.0206 40.4716C12.2549 40.3484 11.4431 40.5793 10.8531 41.1696Z" fill="#FF4397"/>
<path d="M12.3318 54.4352C11.5623 54.4352 10.8846 54.1526 10.4903 53.9446C10.4212 53.9078 10.3386 53.908 10.2698 53.9443C9.72978 54.2295 8.65806 54.654 7.54806 54.3015C6.71263 54.036 6.0312 53.3955 5.5232 52.3975C4.38549 50.1623 4.18549 46.6729 5.70149 45.0406C6.40149 44.2872 7.74606 43.6043 10.1781 44.6235C10.3066 44.6775 10.4538 44.6775 10.5826 44.6235C13.5675 43.3715 14.9203 44.6858 15.4609 45.5812C15.5472 45.724 15.5669 45.8972 15.5143 46.0558C15.4621 46.2143 15.3429 46.342 15.1886 46.4055C14.4841 46.6946 14.0286 47.3729 14.0286 48.1335C14.0286 48.9963 14.6146 49.7415 15.4535 49.9458C15.7601 50.0206 15.9481 50.3295 15.8735 50.636C15.7181 51.2758 15.4978 51.8852 15.2366 52.3978C14.7286 53.396 14.0472 54.0366 13.2118 54.3018C12.9123 54.3966 12.6158 54.4352 12.3318 54.4352ZM10.3801 52.774C10.6009 52.774 10.8221 52.8275 11.0235 52.9335C11.4052 53.1352 12.1523 53.4389 12.8661 53.2123C13.3992 53.0432 13.8541 52.5946 14.2183 51.8792C14.3726 51.5763 14.5106 51.2306 14.6258 50.8615C13.5781 50.3766 12.8858 49.3243 12.8858 48.1332C12.8858 47.1595 13.3483 46.2698 14.1069 45.7112C13.4383 45.1106 12.4046 45.0989 11.0241 45.6775C10.6141 45.8492 10.1443 45.8489 9.73549 45.6772C8.27149 45.0629 7.19549 45.1103 6.53863 45.8183C5.39892 47.0452 5.60006 50.0298 6.54149 51.8789C6.90578 52.5943 7.36063 53.0426 7.89378 53.212C8.60778 53.4392 9.35492 53.1349 9.73663 52.9332C9.93806 52.8275 10.1589 52.774 10.3801 52.774Z" fill="#690589"/>
<path d="M10.5525 43.9399C10.3902 43.9399 10.2267 43.9271 10.0642 43.9008C9.82074 43.8614 9.62989 43.6708 9.59074 43.4274C9.43417 42.4545 9.75503 41.4591 10.4487 40.7654C11.1427 40.0714 12.1393 39.7516 13.111 39.9074C13.3545 39.9468 13.5453 40.1374 13.5845 40.3805C13.741 41.3534 13.4205 42.3488 12.7265 43.0428C12.1485 43.6208 11.3616 43.9399 10.5525 43.9399ZM11.257 41.5734C10.9296 41.9008 10.7347 42.3359 10.7002 42.7916C11.1559 42.7574 11.5907 42.5622 11.9185 42.2351C12.2459 41.9076 12.4407 41.4725 12.4753 41.0168C12.0193 41.0511 11.5845 41.2462 11.257 41.5734Z" fill="#690589"/>
</svg>
