<svg width="72" height="72" viewBox="0 0 72 72" fill="none" xmlns="http://www.w3.org/2000/svg">
<path d="M54.9844 11.3906H59.2031V2.10938C59.2031 0.944437 58.2587 0 57.0938 0C55.9288 0 54.9844 0.944437 54.9844 2.10938V11.3906Z" fill="#39326C"/>
<path d="M46.5469 11.3906H50.7656V2.10938C50.7656 0.944437 49.8212 0 48.6562 0C47.4913 0 46.5469 0.944437 46.5469 2.10938V11.3906Z" fill="#39326C"/>
<path d="M38.1094 11.3906H42.3281V2.10938C42.3281 0.944437 41.3837 0 40.2188 0C39.0538 0 38.1094 0.944437 38.1094 2.10938V11.3906Z" fill="#39326C"/>
<path d="M29.6719 11.3906H33.8906V2.10938C33.8906 0.944437 32.9462 0 31.7812 0C30.6163 0 29.6719 0.944437 29.6719 2.10938V11.3906Z" fill="#5F55AF"/>
<path d="M21.2344 11.3906H25.4531V2.10938C25.4531 0.944437 24.5087 0 23.3438 0C22.1788 0 21.2344 0.944437 21.2344 2.10938V11.3906Z" fill="#5F55AF"/>
<path d="M12.7969 11.3906H17.0156V2.10938C17.0156 0.944437 16.0712 0 14.9062 0C13.7413 0 12.7969 0.944437 12.7969 2.10938V11.3906Z" fill="#5F55AF"/>
<path d="M57.0938 72C58.2587 72 59.2031 71.0556 59.2031 69.8906V60.6094H54.9844V69.8906C54.9844 71.0556 55.9288 72 57.0938 72Z" fill="#39326C"/>
<path d="M48.6562 72C49.8212 72 50.7656 71.0556 50.7656 69.8906V60.6094H46.5469V69.8906C46.5469 71.0556 47.4913 72 48.6562 72Z" fill="#39326C"/>
<path d="M40.2188 72C41.3837 72 42.3281 71.0556 42.3281 69.8906V60.6094H38.1094V69.8906C38.1094 71.0556 39.0538 72 40.2188 72Z" fill="#39326C"/>
<path d="M31.7812 72C32.9462 72 33.8906 71.0556 33.8906 69.8906V60.6094H29.6719V69.8906C29.6719 71.0556 30.6163 72 31.7812 72Z" fill="#5F55AF"/>
<path d="M23.3438 72C24.5087 72 25.4531 71.0556 25.4531 69.8906V60.6094H21.2344V69.8906C21.2344 71.0556 22.1788 72 23.3438 72Z" fill="#5F55AF"/>
<path d="M14.9062 72C16.0712 72 17.0156 71.0556 17.0156 69.8906V60.6094H12.7969V69.8906C12.7969 71.0556 13.7413 72 14.9062 72Z" fill="#5F55AF"/>
<path d="M2.10938 17.0156H11.3906V12.7969H2.10938C0.944437 12.7969 0 13.7413 0 14.9062C0 16.0712 0.944437 17.0156 2.10938 17.0156Z" fill="#5F55AF"/>
<path d="M2.10938 25.4531H11.3906V21.2344H2.10938C0.944437 21.2344 0 22.1788 0 23.3438C0 24.5087 0.944437 25.4531 2.10938 25.4531Z" fill="#5F55AF"/>
<path d="M2.10938 33.8906H11.3906V29.6719H2.10938C0.944437 29.6719 0 30.6163 0 31.7812C0 32.9462 0.944437 33.8906 2.10938 33.8906Z" fill="#5F55AF"/>
<path d="M2.10938 42.3281H11.3906V38.1094H2.10938C0.944437 38.1094 0 39.0538 0 40.2188C0 41.3837 0.944437 42.3281 2.10938 42.3281Z" fill="#5F55AF"/>
<path d="M2.10938 50.7656H11.3906V46.5469H2.10938C0.944437 46.5469 0 47.4913 0 48.6562C0 49.8212 0.944437 50.7656 2.10938 50.7656Z" fill="#5F55AF"/>
<path d="M2.10938 59.2031H11.3906V54.9844H2.10938C0.944437 54.9844 0 55.9288 0 57.0938C0 58.2587 0.944437 59.2031 2.10938 59.2031Z" fill="#5F55AF"/>
<path d="M60.6094 12.7969V17.0156H69.8906C71.0556 17.0156 72 16.0712 72 14.9062C72 13.7413 71.0556 12.7969 69.8906 12.7969H60.6094Z" fill="#39326C"/>
<path d="M60.6094 25.4531H69.8906C71.0556 25.4531 72 24.5087 72 23.3438C72 22.1788 71.0556 21.2344 69.8906 21.2344H60.6094V25.4531Z" fill="#39326C"/>
<path d="M60.6094 33.8906H69.8906C71.0556 33.8906 72 32.9462 72 31.7812C72 30.6163 71.0556 29.6719 69.8906 29.6719H60.6094V33.8906Z" fill="#39326C"/>
<path d="M60.6094 42.3281H69.8906C71.0556 42.3281 72 41.3837 72 40.2188C72 39.0538 71.0556 38.1094 69.8906 38.1094H60.6094V42.3281Z" fill="#39326C"/>
<path d="M60.6094 50.7656H69.8906C71.0556 50.7656 72 49.8212 72 48.6562C72 47.4913 71.0556 46.5469 69.8906 46.5469H60.6094V50.7656Z" fill="#39326C"/>
<path d="M60.6094 59.2031H69.8906C71.0556 59.2031 72 58.2587 72 57.0938C72 55.9288 71.0556 54.9844 69.8906 54.9844H60.6094V59.2031Z" fill="#39326C"/>
<path d="M62.7188 7.17188H9.28125C8.11631 7.17188 7.17188 8.11631 7.17188 9.28125V62.7188C7.17188 63.8837 8.11631 64.8281 9.28125 64.8281H62.7188C63.8837 64.8281 64.8281 63.8837 64.8281 62.7188V9.28125C64.8281 8.11631 63.8837 7.17188 62.7188 7.17188Z" fill="#AED0FF"/>
<path d="M54.2812 15.6094H17.7188C16.5538 15.6094 15.6094 16.5538 15.6094 17.7188V54.2812C15.6094 55.4462 16.5538 56.3906 17.7188 56.3906H54.2812C55.4462 56.3906 56.3906 55.4462 56.3906 54.2812V17.7188C56.3906 16.5538 55.4462 15.6094 54.2812 15.6094Z" fill="#5F55AF"/>
<path d="M56.3906 54.2812V17.7188C56.3906 16.5538 55.4462 15.6094 54.2812 15.6094H36V56.3906H54.2812C55.4462 56.3906 56.3906 55.4462 56.3906 54.2812Z" fill="#39326C"/>
<path d="M34.823 27.0547C34.8157 27.0353 34.8081 27.0162 34.8003 26.9969C34.4144 26.0588 33.51 25.4531 32.4958 25.4531C32.495 25.4531 32.4942 25.4531 32.4933 25.4531C31.4781 25.4541 30.5738 26.0619 30.1894 27.0014C30.183 27.0173 30.1767 27.0333 30.1706 27.0494L23.834 43.6867C23.4193 44.7754 23.9658 45.9941 25.0545 46.4086C26.1432 46.8235 27.3619 46.2769 27.7765 45.1882L28.8372 42.4032H36.1062L37.155 45.1822C37.4738 46.027 38.2764 46.5474 39.1288 46.5474C39.3763 46.5474 39.6281 46.5036 39.8733 46.411C40.9632 45.9997 41.5134 44.7827 41.1019 43.6928L34.823 27.0547ZM30.444 38.1846L32.4884 32.8168L34.5142 38.1846H30.444Z" fill="#F9F9F9"/>
<path d="M37.1554 45.182C37.4742 46.0268 38.2767 46.5472 39.1292 46.5472C39.3767 46.5472 39.6284 46.5033 39.8736 46.4108C40.9635 45.9995 41.5138 44.7825 41.1023 43.6925L36.001 30.1748V42.403H36.1066L37.1554 45.182Z" fill="#E2DFF4"/>
<path d="M46.1963 25.4531C45.0314 25.4531 44.0869 26.3976 44.0869 27.5625V44.4375C44.0869 45.6024 45.0314 46.5469 46.1963 46.5469C47.3612 46.5469 48.3057 45.6024 48.3057 44.4375V27.5625C48.3057 26.3976 47.3612 25.4531 46.1963 25.4531Z" fill="#E2DFF4"/>
</svg>
