<svg width="73" height="73" viewBox="0 0 73 73" fill="none" xmlns="http://www.w3.org/2000/svg">
<path d="M19 28C25.8345 28 31.375 22.4595 31.375 15.625C31.375 8.79048 25.8345 3.25 19 3.25C12.1655 3.25 6.625 8.79048 6.625 15.625C6.625 22.4595 12.1655 28 19 28Z" fill="#69D6F4"/>
<path d="M43.75 23.5V15.625V12.25H70.75V23.5C70.75 24.7375 69.7375 25.75 68.5 25.75H57.25H46C44.7625 25.75 43.75 24.7375 43.75 23.5Z" fill="#E6E9ED"/>
<path d="M70.75 5.5V12.25H43.75V10C43.75 8.7625 44.7625 7.75 46 7.75H56.125L58.825 4.15C59.2525 3.5875 59.9163 3.25 60.625 3.25H68.5C69.7375 3.25 70.75 4.2625 70.75 5.5Z" fill="#FF826E"/>
<path d="M57.25 70.75C64.7058 70.75 70.75 64.7058 70.75 57.25C70.75 49.7942 64.7058 43.75 57.25 43.75C49.7942 43.75 43.75 49.7942 43.75 57.25C43.75 64.7058 49.7942 70.75 57.25 70.75Z" fill="#5CD6B3"/>
<path d="M67.1388 66.4412C64.6751 69.0962 61.1538 70.75 57.2501 70.75C53.3463 70.75 49.8251 69.0962 47.3613 66.4412C48.2951 62.4587 51.8613 59.5 56.1251 59.5H57.2501H58.3751C62.6388 59.5 66.2051 62.4587 67.1388 66.4412Z" fill="#FF826E"/>
<path d="M57.25 59.5C60.3566 59.5 62.875 56.9816 62.875 53.875C62.875 50.7684 60.3566 48.25 57.25 48.25C54.1434 48.25 51.625 50.7684 51.625 53.875C51.625 56.9816 54.1434 59.5 57.25 59.5Z" fill="#F0D0B4"/>
<path d="M34.75 58.375V65.125C34.75 68.23 27.6963 70.75 19 70.75C10.3038 70.75 3.25 68.23 3.25 65.125V58.375C3.25 61.48 10.3038 64 19 64C27.6963 64 34.75 61.48 34.75 58.375Z" fill="#FFEAA7"/>
<path d="M19 50.5C27.6963 50.5 34.75 47.4737 34.75 43.75V51.625C34.75 54.73 27.6963 57.25 19 57.25C10.3038 57.25 3.25 54.73 3.25 51.625V43.75C3.25 47.4737 10.3038 50.5 19 50.5Z" fill="#FFEAA7"/>
<path d="M34.75 57.25V58.375C34.75 61.48 27.6963 64 19 64C10.3038 64 3.25 61.48 3.25 58.375V51.625C3.25 54.73 10.3038 57.25 19 57.25C27.6963 57.25 34.75 54.73 34.75 51.625V57.25Z" fill="#FCD770"/>
<path d="M34.75 43.75C34.75 47.4738 27.6963 50.5 19 50.5C10.3038 50.5 3.25 47.4738 3.25 43.75C3.25 40.0263 10.3038 37 19 37C27.6963 37 34.75 40.0263 34.75 43.75Z" fill="#FCD770"/>
<path d="M24.625 41.5C25.8625 41.5 26.875 42.5125 26.875 43.75C26.875 44.3688 26.6275 44.9312 26.2113 45.3362C25.8062 45.7525 25.2437 46 24.625 46H13.375C12.1375 46 11.125 44.9875 11.125 43.75C11.125 43.1313 11.3725 42.5688 11.7888 42.1638C12.1938 41.7475 12.7563 41.5 13.375 41.5H24.625Z" fill="#5CD6B3"/>
<path d="M13.375 47.125H24.625C26.4858 47.125 28 45.6108 28 43.75C28 41.8892 26.4858 40.375 24.625 40.375H13.375C11.5142 40.375 10 41.8892 10 43.75C10 45.6108 11.5142 47.125 13.375 47.125ZM13.375 42.625H24.625C25.246 42.625 25.75 43.129 25.75 43.75C25.75 44.371 25.246 44.875 24.625 44.875H13.375C12.754 44.875 12.25 44.371 12.25 43.75C12.25 43.129 12.754 42.625 13.375 42.625Z" fill="black"/>
<path d="M68.5 26.875C70.3607 26.875 71.875 25.3608 71.875 23.5V5.5C71.875 3.63925 70.3607 2.125 68.5 2.125H60.625C59.5675 2.125 58.5584 2.63013 57.9261 3.475L55.5625 6.625H46C44.1393 6.625 42.625 8.13925 42.625 10V14.5H32.4426C31.8678 7.58237 26.065 2.125 19 2.125C11.5559 2.125 5.5 8.18087 5.5 15.625C5.5 22.6889 10.9563 28.4928 17.875 29.0676V35.8997C8.82325 36.154 2.125 39.439 2.125 43.75V65.125C2.125 69.5091 10.8201 71.875 19 71.875C27.1799 71.875 35.875 69.5091 35.875 65.125V58.375H42.6824C43.2606 65.9136 49.5662 71.875 57.25 71.875C65.314 71.875 71.875 65.314 71.875 57.25C71.875 49.5662 65.9136 43.2606 58.375 42.6824V26.875H68.5ZM68.5 24.625H46C45.379 24.625 44.875 24.1199 44.875 23.5V13.375H69.625V23.5C69.625 24.1199 69.121 24.625 68.5 24.625ZM46 8.875H56.6875L59.7261 4.82387C59.9365 4.54262 60.2729 4.375 60.625 4.375H68.5C69.121 4.375 69.625 4.88013 69.625 5.5V11.125H44.875V10C44.875 9.38013 45.379 8.875 46 8.875ZM7.75 15.625C7.75 14.4494 7.93337 13.3165 8.26862 12.25H12.5898C12.3816 13.3007 12.25 14.4213 12.25 15.625C12.25 16.8287 12.3816 17.9493 12.5909 19H8.26862C7.93337 17.9335 7.75 16.8006 7.75 15.625ZM14.5 15.625C14.5 14.4111 14.6553 13.2895 14.8983 12.25H23.1062C23.347 13.2884 23.5 14.41 23.5 15.625C23.5 16.8389 23.3447 17.9605 23.1017 19H14.8938C14.653 17.9616 14.5 16.84 14.5 15.625ZM19.0023 4.79238C19.8764 5.68113 21.3693 7.45525 22.3975 10H15.6093C16.6398 7.462 18.1315 5.6845 19.0023 4.79238ZM22.3908 21.25C21.3603 23.7891 19.8685 25.5666 18.9977 26.4576C18.1236 25.5689 16.6307 23.7948 15.6025 21.25H22.3908ZM24.8129 21.25H28.7279C27.2631 23.7722 24.8523 25.6701 21.9801 26.4621C22.9645 25.1931 24.0569 23.4494 24.8129 21.25ZM30.25 15.625C30.25 16.8006 30.0677 17.9335 29.7314 19H25.4102C25.6184 17.9493 25.75 16.8287 25.75 15.625C25.75 14.4213 25.6184 13.3007 25.4091 12.25H29.7302C30.0678 13.3165 30.25 14.4494 30.25 15.625ZM28.7279 10H24.8129C24.0569 7.80062 22.9645 6.05688 21.9801 4.78788C24.8523 5.57987 27.2631 7.47775 28.7279 10ZM16.0199 4.78788C15.0355 6.05688 13.9431 7.80062 13.1871 10H9.27213C10.7369 7.47775 13.1477 5.57987 16.0199 4.78788ZM9.27213 21.25H13.1871C13.9431 23.4494 15.0355 25.1931 16.0199 26.4621C13.1477 25.6701 10.7369 23.7722 9.27213 21.25ZM19 38.125C27.6186 38.125 33.625 41.0894 33.625 43.75C33.625 46.4106 27.6186 49.375 19 49.375C10.3814 49.375 4.375 46.4106 4.375 43.75C4.375 41.0894 10.3814 38.125 19 38.125ZM4.375 47.7809C7.237 50.1141 12.5852 51.625 19 51.625C25.4148 51.625 30.763 50.1141 33.625 47.7809V51.625C33.625 53.4599 27.928 56.125 19 56.125C10.072 56.125 4.375 53.4599 4.375 51.625V47.7809ZM4.375 55.1204C7.48787 57.2522 13.3649 58.375 19 58.375C24.6351 58.375 30.5121 57.2522 33.625 55.1204V58.375C33.625 60.2099 27.928 62.875 19 62.875C10.072 62.875 4.375 60.2099 4.375 58.375V55.1204ZM19 69.625C10.072 69.625 4.375 66.9599 4.375 65.125V61.8704C7.48787 64.0022 13.3649 65.125 19 65.125C24.6351 65.125 30.5121 64.0022 33.625 61.8704V65.125C33.625 66.9599 27.928 69.625 19 69.625ZM48.6437 66.124C49.6731 62.8649 52.6533 60.625 56.125 60.625H58.375C61.849 60.625 64.8291 62.8649 65.8563 66.124C63.6265 68.2862 60.5935 69.625 57.25 69.625C53.9065 69.625 50.8735 68.2862 48.6437 66.124ZM57.25 58.375C54.7682 58.375 52.75 56.3568 52.75 53.875C52.75 51.3932 54.7682 49.375 57.25 49.375C59.7318 49.375 61.75 51.3932 61.75 53.875C61.75 56.3568 59.7318 58.375 57.25 58.375ZM69.625 57.25C69.625 59.8037 68.8465 62.1786 67.5167 64.1519C66.3524 61.6836 64.2542 59.8116 61.7061 58.933C63.109 57.6944 64 55.8887 64 53.875C64 50.1524 60.9726 47.125 57.25 47.125C53.5274 47.125 50.5 50.1524 50.5 53.875C50.5 55.8887 51.391 57.6944 52.795 58.933C50.2469 59.8127 48.1499 61.6847 46.9844 64.1519C45.6535 62.1786 44.875 59.8037 44.875 57.25C44.875 50.4269 50.4269 44.875 57.25 44.875C64.0731 44.875 69.625 50.4269 69.625 57.25ZM56.125 42.6824C48.9588 43.2314 43.2314 48.9588 42.6824 56.125H35.875V43.75C35.875 39.439 29.1768 36.154 20.125 35.8997V29.0676C26.6714 28.5231 31.8993 23.2964 32.4426 16.75H42.625V23.5C42.625 25.3608 44.1393 26.875 46 26.875H56.125V42.6824Z" fill="black"/>
<path d="M65.125 6.625H67.375V8.875H65.125V6.625Z" fill="black"/>
<path d="M60.625 6.625H62.875V8.875H60.625V6.625Z" fill="black"/>
<path d="M47.125 20.125H49.375V22.375H47.125V20.125Z" fill="black"/>
<path d="M51.625 20.125H53.875V22.375H51.625V20.125Z" fill="black"/>
<path d="M56.125 20.125H58.375V22.375H56.125V20.125Z" fill="black"/>
<path d="M20.125 14.5H22.375V16.75H20.125V14.5Z" fill="black"/>
<path d="M15.625 14.5H17.875V16.75H15.625V14.5Z" fill="black"/>
</svg>
