<svg width="72" height="72" viewBox="0 0 72 72" fill="none" xmlns="http://www.w3.org/2000/svg">
<path d="M68.625 3H3.375C1.51104 3 0 4.51104 0 6.375V53.625C0 55.489 1.51104 57 3.375 57H68.625C70.489 57 72 55.489 72 53.625V6.375C72 4.51104 70.489 3 68.625 3Z" fill="#00BEBD"/>
<path d="M44.7861 68.3059L26.7861 68.1934L27.9899 56.9434L43.7399 57.0559L44.7861 68.3059Z" fill="#00AAA8"/>
<path d="M52.6611 69.4877L18.9111 69.2627C18.6128 69.2627 18.3266 69.1442 18.1156 68.9332C17.9047 68.7222 17.7861 68.4361 17.7861 68.1377C17.7861 67.8393 17.9047 67.5532 18.1156 67.3422C18.3266 67.1312 18.6128 67.0127 18.9111 67.0127L52.6611 67.2377C52.9595 67.2377 53.2456 67.3562 53.4566 67.5672C53.6676 67.7782 53.7861 68.0643 53.7861 68.3627C53.7861 68.6611 53.6676 68.9472 53.4566 69.1582C53.2456 69.3692 52.9595 69.4877 52.6611 69.4877Z" fill="#50D9D7"/>
<path d="M3.375 5.25H68.625C68.9234 5.25 69.2095 5.36853 69.4205 5.57951C69.6315 5.79048 69.75 6.07663 69.75 6.375V50.25H2.25V6.375C2.25 6.07663 2.36853 5.79048 2.5795 5.57951C2.79048 5.36853 3.07663 5.25 3.375 5.25Z" fill="white"/>
<path d="M14.625 23.2501H12.375C7.965 9.07505 8.64 11.2688 8.1675 9.75005H5.625C5.32663 9.75005 5.04048 9.63152 4.82951 9.42054C4.61853 9.20957 4.5 8.92342 4.5 8.62505C4.5 8.32668 4.61853 8.04053 4.82951 7.82955C5.04048 7.61858 5.32663 7.50005 5.625 7.50005H9C9.24959 7.48938 9.49563 7.56209 9.69932 7.70672C9.90302 7.85134 10.0528 8.05965 10.125 8.2988C14.7937 23.7338 14.625 22.8563 14.625 23.2501Z" fill="#FFAC00"/>
<path d="M29.2504 10.875L27.0004 23.25H12.3191L8.5166 10.875H29.2504Z" fill="#FFAC00"/>
<path d="M15.75 25.5C16.9926 25.5 18 24.4926 18 23.25C18 22.0074 16.9926 21 15.75 21C14.5074 21 13.5 22.0074 13.5 23.25C13.5 24.4926 14.5074 25.5 15.75 25.5Z" fill="#FFAC00"/>
<path d="M23.625 25.5C24.8676 25.5 25.875 24.4926 25.875 23.25C25.875 22.0074 24.8676 21 23.625 21C22.3824 21 21.375 22.0074 21.375 23.25C21.375 24.4926 22.3824 25.5 23.625 25.5Z" fill="#FFAC00"/>
<path d="M4.5 30H29.25V32.25H4.5V30Z" fill="#D9D9D9"/>
<path d="M4.5 34.5H18V36.75H4.5V34.5Z" fill="#D9D9D9"/>
<path d="M20.25 34.5H29.25V36.75H20.25V34.5Z" fill="#D9D9D9"/>
<path d="M58.5 10.875H67.5V13.125H58.5V10.875Z" fill="#D9D9D9"/>
<path d="M7.875 39C6.97989 39 6.12145 39.3556 5.48851 39.9885C4.85558 40.6215 4.5 41.4799 4.5 42.375V44.625C4.5 45.5201 4.85558 46.3785 5.48851 47.0115C6.12145 47.6444 6.97989 48 7.875 48C8.77011 48 9.62855 47.6444 10.2615 47.0115C10.8944 46.3785 11.25 45.5201 11.25 44.625V42.375C11.25 41.4799 10.8944 40.6215 10.2615 39.9885C9.62855 39.3556 8.77011 39 7.875 39ZM9 44.625C9 44.9234 8.88147 45.2095 8.6705 45.4205C8.45952 45.6315 8.17337 45.75 7.875 45.75C7.57663 45.75 7.29048 45.6315 7.0795 45.4205C6.86853 45.2095 6.75 44.9234 6.75 44.625V42.375C6.75 42.0766 6.86853 41.7905 7.0795 41.5795C7.29048 41.3685 7.57663 41.25 7.875 41.25C8.17337 41.25 8.45952 41.3685 8.6705 41.5795C8.88147 41.7905 9 42.0766 9 42.375V44.625Z" fill="#50D9D7"/>
<path d="M16.3458 39.1687C15.6483 38.7412 15.2208 39.1687 12.9708 40.2937C12.7274 40.4402 12.5484 40.6733 12.4697 40.9462C12.3911 41.2192 12.4186 41.5118 12.5468 41.7653C12.675 42.0188 12.8943 42.2144 13.1608 42.3129C13.4272 42.4114 13.721 42.4054 13.9833 42.2962L14.602 41.9925V46.875C14.602 47.1733 14.7205 47.4595 14.9315 47.6705C15.1425 47.8814 15.4286 48 15.727 48C16.0254 48 16.3115 47.8814 16.5225 47.6705C16.7335 47.4595 16.852 47.1733 16.852 46.875C16.8745 39.5625 17.0545 39.6075 16.3458 39.1687Z" fill="#50D9D7"/>
<path d="M33.75 32.25L42.75 23.25L52.875 33.375L64.125 22.125V46.875H33.75V32.25Z" fill="#00BEBD"/>
<path d="M19.125 45.75H29.25V48H19.125V45.75Z" fill="#D9D9D9"/>
<path d="M52.8747 34.4997C52.211 34.4997 52.8747 34.9272 42.7497 24.836L34.5485 33.0485C34.3366 33.2603 34.0493 33.3793 33.7497 33.3793C33.4501 33.3793 33.1628 33.2603 32.951 33.0485C32.7391 32.8366 32.6201 32.5493 32.6201 32.2497C32.6201 31.9501 32.7391 31.6628 32.951 31.451L41.951 22.451C42.0556 22.3455 42.18 22.2618 42.3171 22.2047C42.4542 22.1476 42.6012 22.1182 42.7497 22.1182C42.8982 22.1182 43.0453 22.1476 43.1824 22.2047C43.3195 22.2618 43.4439 22.3455 43.5485 22.451L52.8747 31.7885L63.326 21.326C63.5378 21.1141 63.8251 20.9951 64.1247 20.9951C64.4243 20.9951 64.7116 21.1141 64.9235 21.326C65.1353 21.5378 65.2543 21.8251 65.2543 22.1247C65.2543 22.4243 65.1353 22.7116 64.9235 22.9235C52.7397 35.096 53.5497 34.4997 52.8747 34.4997Z" fill="#FFAC00"/>
</svg>
