<svg width="72" height="72" viewBox="0 0 72 72" fill="none" xmlns="http://www.w3.org/2000/svg">
<path d="M10.4989 24.0112C8.01426 24.0112 6 26.0255 6 28.5102V49.5052C6 51.9899 8.01426 54.0042 10.4989 54.0042C12.9836 54.0042 14.9979 51.9899 14.9979 49.5052V28.5102C14.9979 26.0255 12.9836 24.0112 10.4989 24.0112Z" fill="#4CAF50"/>
<path d="M61.4872 24.0112C59.0025 24.0112 56.9883 26.0255 56.9883 28.5102V49.5052C56.9883 51.9899 59.0025 54.0042 61.4872 54.0042C63.9719 54.0042 65.9862 51.9899 65.9862 49.5052V28.5102C65.9862 26.0255 63.9721 24.0112 61.4872 24.0112Z" fill="#4CAF50"/>
<path d="M52.4889 24.0112H19.4968C18.6685 24.0112 17.9971 24.6827 17.9971 25.5109V49.5052C17.9964 53.0689 20.504 56.1407 23.9957 56.8535V67.501C23.9957 69.9857 26.01 71.9999 28.4947 71.9999C30.9793 71.9999 32.9936 69.9857 32.9936 67.501V57.0034H38.9922V67.501C38.9922 69.9857 41.0065 71.9999 43.4912 71.9999C45.9759 71.9999 47.9901 69.9857 47.9901 67.501V56.8535C51.4819 56.1407 53.9895 53.0689 53.9888 49.5052V25.5109C53.9886 24.6827 53.3172 24.0112 52.4889 24.0112Z" fill="#4CAF50"/>
<path d="M46.8956 6.23146L50.5517 2.57832C51.1473 2.00287 51.1638 1.0536 50.5885 0.457767C50.013 -0.137922 49.0638 -0.154371 48.4679 0.420931C48.4554 0.433022 48.4432 0.445254 48.4311 0.457767L44.1721 4.71686C38.9559 2.45094 33.0332 2.45094 27.8169 4.71686L23.558 0.454814C22.9623 -0.120629 22.0129 -0.104039 21.4374 0.491649C20.8762 1.07286 20.8762 1.99416 21.4374 2.57522L25.0906 6.23132C20.637 9.17813 17.9697 14.1721 17.9973 19.5122C17.9973 20.3404 18.6688 21.0119 19.497 21.0119H52.4893C53.3175 21.0119 53.989 20.3404 53.989 19.5122C54.0164 14.1722 51.3491 9.17827 46.8956 6.23146Z" fill="#4CAF50"/>
<path d="M28.4948 15.0131C29.3231 15.0131 29.9945 14.3416 29.9945 13.5134C29.9945 12.6851 29.3231 12.0137 28.4948 12.0137C27.6666 12.0137 26.9951 12.6851 26.9951 13.5134C26.9951 14.3416 27.6666 15.0131 28.4948 15.0131Z" fill="#FAFAFA"/>
<path d="M43.4909 15.0131C44.3192 15.0131 44.9906 14.3416 44.9906 13.5134C44.9906 12.6851 44.3192 12.0137 43.4909 12.0137C42.6626 12.0137 41.9912 12.6851 41.9912 13.5134C41.9912 14.3416 42.6626 15.0131 43.4909 15.0131Z" fill="#FAFAFA"/>
</svg>
