<svg width="72" height="72" viewBox="0 0 72 72" fill="none" xmlns="http://www.w3.org/2000/svg">
<path d="M22.2227 29.1118H49.7777V52.9085H22.2227V29.1118Z" fill="#596C80"/>
<path d="M22.2227 35.9662C23.5656 36.4893 25.0352 36.5943 26.4388 36.2674C27.8425 35.9405 29.1145 35.1969 30.088 34.1342C31.6963 35.6251 33.8083 36.4535 36.0014 36.4535C38.1944 36.4535 40.3064 35.6251 41.9147 34.1342C42.8878 35.1968 44.1594 35.9404 45.5626 36.2673C46.9659 36.5943 48.4352 36.4893 49.7777 35.9662V29.1118H22.2227V35.9662Z" fill="#475666"/>
<path d="M51.831 27.9969L47.2727 19.0913H24.7272L20.1689 27.9969C19.9889 28.61 19.9326 29.2527 20.0031 29.8878C20.0736 30.5229 20.2696 31.1376 20.5796 31.6963C20.8897 32.2551 21.3076 32.7466 21.8092 33.1425C22.3108 33.5383 22.8861 33.8306 23.5016 34.0022C24.1171 34.1739 24.7605 34.2217 25.3946 34.1426C26.0287 34.0636 26.6407 33.8593 27.1952 33.5418C27.7497 33.2243 28.2356 32.7997 28.6246 32.2928C29.0137 31.786 29.2982 31.2068 29.4616 30.5891L29.8254 29.2866C30.1662 30.6667 30.9594 31.8928 32.0786 32.7693C33.1978 33.6458 34.5784 34.122 35.9999 34.122C37.4215 34.122 38.8021 33.6458 39.9212 32.7693C41.0404 31.8928 41.8337 30.6667 42.1745 29.2866L42.5383 30.5891C42.7017 31.2068 42.9862 31.786 43.3752 32.2928C43.7643 32.7997 44.2502 33.2243 44.8047 33.5418C45.3592 33.8593 45.9712 34.0636 46.6053 34.1426C47.2394 34.2217 47.8828 34.1739 48.4983 34.0022C49.1138 33.8306 49.689 33.5383 50.1906 33.1425C50.6922 32.7466 51.1102 32.2551 51.4203 31.6963C51.7303 31.1376 51.9263 30.5229 51.9968 29.8878C52.0673 29.2527 52.0109 28.61 51.831 27.9969Z" fill="#D9575D"/>
<path d="M19.9917 29.1118C19.9473 30.293 20.338 31.4495 21.0897 32.3617C21.8414 33.274 22.9019 33.8786 24.0698 34.0608C25.2377 34.243 26.4319 33.9902 27.4258 33.3503C28.4197 32.7104 29.1441 31.7279 29.4616 30.5893L29.8255 29.2867C30.1662 30.6668 30.9595 31.893 32.0787 32.7695C33.1979 33.6459 34.5784 34.1222 36 34.1222C37.4215 34.1222 38.8021 33.6459 39.9213 32.7695C41.0405 31.893 41.8338 30.6668 42.1745 29.2867L42.5383 30.5893C42.8559 31.7279 43.5803 32.7104 44.5742 33.3503C45.568 33.9902 46.7622 34.243 47.9302 34.0608C49.0981 33.8786 50.1585 33.274 50.9103 32.3617C51.662 31.4495 52.0527 30.293 52.0083 29.1118H19.9917Z" fill="#CC5257"/>
<path d="M28.4854 39.1309H43.5153V47.8988H28.4854V39.1309Z" fill="#BAD5F8"/>
<path d="M36 34.1212C36.9246 34.1213 37.8381 33.9199 38.677 33.5312C39.5159 33.1424 40.2601 32.5756 40.8577 31.8701C41.4553 31.1646 41.8921 30.3373 42.1376 29.4459C42.3832 28.5545 42.4316 27.6203 42.2795 26.7083L39.7572 19.0913H32.2428L29.7205 26.7083C29.5684 27.6203 29.6168 28.5545 29.8623 29.4459C30.1079 30.3373 30.5446 31.1646 31.1423 31.8701C31.7399 32.5756 32.4841 33.1424 33.323 33.5312C34.1619 33.9199 35.0754 34.1213 36 34.1212Z" fill="#F2F2F2"/>
<path d="M29.7861 29.1118C30.0941 30.531 30.8785 31.8021 32.0091 32.7136C33.1396 33.6252 34.5481 34.1223 36.0003 34.1223C37.4525 34.1223 38.861 33.6252 39.9916 32.7136C41.1221 31.8021 41.9065 30.531 42.2145 29.1118H29.7861Z" fill="#E6E6E6"/>
<path d="M43.0391 39.1309L34.2724 47.8988H28.9619L37.7287 39.1309H43.0391Z" fill="#DFEAF8"/>
<path d="M52.4912 17.86L54.1401 19.5088L66.9218 6.72832L69.7741 9.58178L71.3506 0.649414L62.4183 2.22599L65.2717 5.07828L52.4912 17.86Z" fill="#7A8899"/>
<path d="M18.6844 54.9643L17.0355 53.3154L5.07828 65.2715L2.22599 62.418L0.649414 71.3504L9.58178 69.7738L6.72832 66.9215L18.6844 54.9643Z" fill="#7A8899"/>
<path d="M34.8336 15.0101H37.1658V7.43042H41.2005L35.9997 0L30.7988 7.43042H34.8336V15.0101Z" fill="#7A8899"/>
<path d="M37.1658 56.9897H34.8336V64.5694H30.7988L35.9997 71.9999L41.2005 64.5694H37.1658V56.9897Z" fill="#7A8899"/>
<path d="M56.9902 34.834V37.1662H64.5699V41.201L72.0003 36.0001L64.5699 30.7993V34.834H56.9902Z" fill="#7A8899"/>
<path d="M15.0101 37.1662V34.834H7.43042V30.7993L0 36.0001L7.43042 41.201V37.1662H15.0101Z" fill="#7A8899"/>
<path d="M54.9643 53.3154L53.3154 54.9643L65.2715 66.9215L62.418 69.7738L71.3504 71.3504L69.7738 62.418L66.9215 65.2715L54.9643 53.3154Z" fill="#7A8899"/>
<path d="M17.86 19.5088L19.5088 17.86L6.72832 5.07828L9.58178 2.22599L0.649414 0.649414L2.22599 9.58178L5.07828 6.72832L17.86 19.5088Z" fill="#7A8899"/>
</svg>
