<svg width="73" height="73" viewBox="0 0 73 73" fill="none" xmlns="http://www.w3.org/2000/svg">
<path d="M68.4422 53.0436C68.4422 55.6415 67.6718 58.181 66.2285 60.3411C64.7852 62.5011 62.7338 64.1847 60.3336 65.1789C57.9335 66.173 55.2925 66.4331 52.7445 65.9263C50.1965 65.4195 47.8561 64.1685 46.0191 62.3315C44.1821 60.4945 42.9311 58.1541 42.4243 55.6061C41.9174 53.0582 42.1776 50.4171 43.1717 48.017C44.1659 45.6169 45.8495 43.5654 48.0095 42.1221C50.1696 40.6788 52.7091 39.9085 55.307 39.9085C57.0349 39.8977 58.7478 40.2302 60.3463 40.8865C61.9447 41.5428 63.397 42.5099 64.6189 43.7317C65.8407 44.9536 66.8078 46.4059 67.4641 48.0043C68.1205 49.6028 68.4529 51.3157 68.4422 53.0436Z" fill="#EEEFEE"/>
<path d="M51.7699 20.9559C51.7746 23.034 51.3382 25.0895 50.4895 26.9865C49.6408 28.8835 48.3992 30.5787 46.8467 31.9602C46.8467 31.9797 46.8369 31.9797 46.8272 31.9894C44.303 34.2397 41.0833 35.5561 37.7056 35.7186C34.3278 35.8812 30.9966 34.8802 28.268 32.8826C25.5393 30.8851 23.5785 28.012 22.7129 24.743C21.8473 21.474 22.1293 18.007 23.5118 14.9209C24.8943 11.8348 27.2936 9.31631 30.3092 7.78599C33.3248 6.25566 36.774 5.8061 40.0811 6.51238C43.3881 7.21865 46.3528 9.03801 48.4802 11.6667C50.6075 14.2954 51.7687 17.5742 51.7699 20.9559Z" fill="#EEEFEE"/>
<path d="M31.6183 16.7217H31.4052C31.0908 16.757 30.8027 16.9141 30.6027 17.1592C30.4026 17.4044 30.3065 17.7181 30.335 18.0332C30.3293 18.3695 30.44 18.6974 30.6483 18.9615C30.9098 19.2455 31.2476 19.4482 31.6213 19.5452" fill="#FCD462"/>
<path d="M31.6182 20.03C31.5781 20.03 31.5382 20.0248 31.4995 20.0144C31.0403 19.894 30.6242 19.6469 30.2988 19.3012C30.0043 18.9458 29.8445 18.4979 29.8473 18.0363C29.8184 17.5923 29.9655 17.1546 30.2569 16.8183C30.5483 16.4819 30.9604 16.2739 31.4041 16.2393H31.6172C31.6811 16.2393 31.7443 16.2518 31.8034 16.2763C31.8624 16.3007 31.916 16.3366 31.9612 16.3817C32.0064 16.4269 32.0422 16.4806 32.0666 16.5396C32.0911 16.5986 32.1037 16.6619 32.1037 16.7257C32.1037 16.7896 32.0911 16.8529 32.0666 16.9119C32.0422 16.9709 32.0064 17.0246 31.9612 17.0697C31.916 17.1149 31.8624 17.1507 31.8034 17.1752C31.7443 17.1996 31.6811 17.2122 31.6172 17.2122H31.4051C31.0879 17.2122 30.8213 17.5897 30.8213 18.0363C30.8159 18.2608 30.8876 18.4802 31.0246 18.6581C31.2173 18.8624 31.4645 19.0072 31.7369 19.0755C31.852 19.1043 31.9526 19.1742 32.0197 19.2721C32.0868 19.3699 32.1159 19.4889 32.1015 19.6067C32.087 19.7244 32.03 19.8329 31.9411 19.9115C31.8523 19.9902 31.7378 20.0337 31.6191 20.0338L31.6182 20.03Z" fill="#323C6B"/>
<path d="M42.5261 16.7217H42.7402C43.0545 16.7573 43.3424 16.9144 43.5424 17.1595C43.7424 17.4046 43.8386 17.7182 43.8104 18.0332C43.8161 18.3695 43.7054 18.6974 43.4971 18.9615C43.1336 19.3133 42.6829 19.5618 42.1914 19.6815" fill="#FCD462"/>
<path d="M42.192 20.1681C42.0733 20.168 41.9588 20.1245 41.87 20.0458C41.7812 19.9671 41.7242 19.8587 41.7097 19.7409C41.6952 19.6232 41.7243 19.5042 41.7914 19.4063C41.8586 19.3085 41.9592 19.2386 42.0743 19.2097C42.4802 19.1108 42.8528 18.9064 43.1543 18.6172C43.2706 18.4451 43.3301 18.241 43.3245 18.0334C43.3245 17.5868 43.056 17.2093 42.7408 17.2093H42.5267C42.3977 17.2093 42.2739 17.158 42.1827 17.0668C42.0915 16.9756 42.0402 16.8518 42.0402 16.7228C42.0402 16.5938 42.0915 16.47 42.1827 16.3788C42.2739 16.2876 42.3977 16.2363 42.5267 16.2363H42.7408C43.1843 16.2712 43.5964 16.4793 43.8877 16.8156C44.179 17.1519 44.3262 17.5894 44.2975 18.0334C44.3028 18.482 44.1533 18.9187 43.8743 19.2701C43.4441 19.7027 42.9031 20.0086 42.3107 20.1545C42.2718 20.1637 42.232 20.1683 42.192 20.1681Z" fill="#323C6B"/>
<path d="M46.8463 31.9598C46.8463 31.9793 46.8365 31.9793 46.8268 31.989C44.1171 34.4067 40.6111 35.7404 36.9796 35.7351C33.3481 35.7297 29.8461 34.3855 27.1436 31.9598C27.1611 30.3513 27.8032 28.8125 28.9344 27.6687C30.0655 26.5249 31.5969 25.8656 33.2052 25.8301C33.2733 25.8982 33.3414 25.976 33.4095 26.0441C33.8975 26.5336 34.4805 26.9179 35.1227 27.1736C35.7648 27.4293 36.4525 27.5508 37.1433 27.5308C37.8342 27.5107 38.5136 27.3495 39.1399 27.057C39.7661 26.7645 40.3258 26.347 40.7846 25.8301C41.5917 25.836 42.3893 26.0045 43.1299 26.3255C43.8704 26.6464 44.5387 27.1133 45.0949 27.6982C46.179 28.8575 46.8018 30.3732 46.8463 31.9598Z" fill="#05AFD6"/>
<path d="M31.3429 35.094C31.2139 35.094 31.0902 35.0427 30.9989 34.9515C30.9077 34.8603 30.8564 34.7365 30.8564 34.6075V30.6183C30.8564 30.4893 30.9077 30.3656 30.9989 30.2743C31.0902 30.1831 31.2139 30.1318 31.3429 30.1318C31.472 30.1318 31.5957 30.1831 31.6869 30.2743C31.7782 30.3656 31.8294 30.4893 31.8294 30.6183V34.6075C31.8294 34.7365 31.7782 34.8603 31.6869 34.9515C31.5957 35.0427 31.472 35.094 31.3429 35.094Z" fill="#323C6B"/>
<path d="M42.6545 35.094C42.5254 35.094 42.4017 35.0427 42.3105 34.9515C42.2192 34.8603 42.168 34.7365 42.168 34.6075V30.6183C42.168 30.4893 42.2192 30.3656 42.3105 30.2743C42.4017 30.1831 42.5254 30.1318 42.6545 30.1318C42.7835 30.1318 42.9072 30.1831 42.9985 30.2743C43.0897 30.3656 43.1409 30.4893 43.1409 30.6183V34.6075C43.1409 34.7365 43.0897 34.8603 42.9985 34.9515C42.9072 35.0427 42.7835 35.094 42.6545 35.094Z" fill="#323C6B"/>
<path d="M50.2407 9.75686C50.1719 9.75688 50.1039 9.74232 50.0412 9.71414C49.9785 9.68597 49.9225 9.64481 49.8768 9.5934C48.0444 7.52593 45.7456 5.92494 43.1711 4.92313C43.0585 4.87171 42.9698 4.77933 42.9229 4.66479C42.8761 4.55025 42.8746 4.42217 42.9189 4.30661C42.9632 4.19105 43.0498 4.0967 43.1612 4.04277C43.2726 3.98884 43.4003 3.97938 43.5184 4.01632C46.2381 5.07363 48.6664 6.76442 50.6017 8.94832C50.6635 9.01828 50.7038 9.10454 50.7179 9.19681C50.7321 9.28909 50.7193 9.38347 50.6813 9.46871C50.6432 9.55395 50.5815 9.62644 50.5033 9.67753C50.4252 9.72862 50.334 9.75616 50.2407 9.75686Z" fill="#323C6B"/>
<path d="M52.255 12.5541C52.1703 12.5542 52.0871 12.5321 52.0135 12.4902C51.94 12.4482 51.8787 12.3877 51.8357 12.3148L51.7675 12.199C51.6498 11.9986 51.5331 11.7981 51.4056 11.6035C51.3406 11.4956 51.3201 11.3667 51.3483 11.2439C51.3764 11.1211 51.4511 11.0141 51.5566 10.9452C51.6621 10.8764 51.7902 10.8512 51.9139 10.8749C52.0377 10.8986 52.1474 10.9694 52.22 11.0723C52.3552 11.2786 52.4817 11.4926 52.6092 11.7067L52.6753 11.8205C52.7189 11.8944 52.7421 11.9784 52.7428 12.0641C52.7434 12.1498 52.7214 12.2342 52.6789 12.3087C52.6364 12.3831 52.575 12.445 52.5009 12.4881C52.4268 12.5313 52.3427 12.554 52.257 12.5541H52.255Z" fill="#323C6B"/>
<path d="M47.055 67.1278C46.9629 67.1276 46.8729 67.1012 46.7952 67.0519C44.4217 65.6734 42.4568 63.6893 41.1014 61.3026C41.069 61.2455 41.0485 61.1825 41.0412 61.1173C41.0338 61.0521 41.0397 60.9861 41.0585 60.9233C41.0773 60.8604 41.1086 60.802 41.1505 60.7516C41.1925 60.7012 41.2442 60.6597 41.3025 60.6298C41.3609 60.5999 41.4247 60.582 41.4902 60.5774C41.5556 60.5728 41.6213 60.5814 41.6833 60.6028C41.7453 60.6242 41.8023 60.6579 41.851 60.7019C41.8996 60.7459 41.9389 60.7993 41.9663 60.8589C43.2524 63.0846 45.0969 64.9361 47.3177 66.2307C47.4066 66.2872 47.4748 66.3711 47.512 66.4697C47.5492 66.5683 47.5533 66.6764 47.5238 66.7775C47.4943 66.8787 47.4327 66.9676 47.3483 67.0307C47.2639 67.0939 47.1613 67.1279 47.0559 67.1278H47.055Z" fill="#323C6B"/>
<path d="M40.5735 59.3177C40.4721 59.3177 40.3732 59.286 40.2907 59.227C40.2082 59.1681 40.1461 59.0848 40.1133 58.9888C40.0452 58.7942 39.9868 58.5938 39.9294 58.3943L39.8661 58.1774C39.8323 58.0547 39.8479 57.9236 39.9095 57.8123C39.9712 57.701 40.074 57.6183 40.196 57.5819C40.3179 57.5455 40.4492 57.5583 40.5618 57.6176C40.6744 57.6769 40.7593 57.778 40.7983 57.8991L40.8634 58.1229C40.917 58.3058 40.9705 58.4897 41.0327 58.6687C41.0584 58.7421 41.0661 58.8206 41.0552 58.8976C41.0442 58.9746 41.015 59.0479 40.9699 59.1113C40.9249 59.1746 40.8653 59.2263 40.7961 59.2619C40.727 59.2974 40.6503 59.3159 40.5725 59.3158L40.5735 59.3177Z" fill="#323C6B"/>
<path d="M42.3605 16.3438L42.1951 17.3654V17.3752C41.353 17.1585 40.5716 16.7522 39.9105 16.1872C39.2495 15.6223 38.7263 14.9138 38.3811 14.1157C37.4847 14.958 36.488 15.6867 35.4135 16.2854C34.2952 16.8737 33.0649 17.2186 31.8038 17.2973C31.2953 15.7349 31.3855 14.0392 32.0567 12.5395C32.535 11.699 33.2291 11.0015 34.0673 10.5191C34.9055 10.0367 35.8573 9.78699 36.8243 9.7957C37.8731 9.70445 38.9257 9.92205 39.8524 10.4217C40.7791 10.9213 41.5393 11.6812 42.0394 12.6076C42.5373 13.7881 42.6497 15.0957 42.3605 16.3438Z" fill="#707583"/>
<path d="M42.2468 17.8689C42.194 17.8684 42.1415 17.8622 42.0901 17.8504C41.2755 17.6563 40.5117 17.2909 39.8493 16.7785C39.187 16.2661 38.6414 15.6186 38.2488 14.8789C37.4502 15.5878 36.5742 16.2044 35.6374 16.7169C34.4624 17.3379 33.1691 17.7027 31.8428 17.7871C31.735 17.7952 31.6277 17.7671 31.5377 17.7074C31.4476 17.6477 31.3801 17.5597 31.3456 17.4573C30.7967 15.7644 30.9009 13.9274 31.6375 12.3074C32.1547 11.3936 32.9061 10.6342 33.8144 10.1075C34.7227 9.58075 35.755 9.30567 36.8049 9.31059C37.9465 9.21489 39.0911 9.4548 40.0982 10.0009C41.1053 10.5469 41.9308 11.3753 42.4735 12.3842C43.0178 13.6556 43.1452 15.0669 42.8373 16.4152V16.4221L42.6719 17.4437C42.6723 17.5112 42.6563 17.5778 42.6253 17.6378C42.5943 17.6978 42.5492 17.7494 42.4939 17.7881C42.4234 17.843 42.336 17.8716 42.2468 17.8689ZM37.0647 10.2797C36.9908 10.2797 36.9158 10.2797 36.8399 10.2797C35.958 10.2703 35.0895 10.4961 34.3239 10.9339C33.5583 11.3717 32.9232 12.0057 32.484 12.7705C31.9241 14.0291 31.8091 15.4407 32.158 16.7733C33.2171 16.6627 34.2453 16.3503 35.1869 15.8529C36.2252 15.2707 37.189 14.5647 38.0571 13.7503C38.112 13.7003 38.1778 13.6638 38.2492 13.6437C38.3207 13.6236 38.3958 13.6204 38.4687 13.6345C38.5414 13.6478 38.6101 13.6775 38.6696 13.7213C38.7291 13.7652 38.7779 13.822 38.8122 13.8875C39.096 14.5407 39.5065 15.1312 40.0201 15.6247C40.5336 16.1183 41.14 16.505 41.8041 16.7626L41.879 16.2761C42.1463 15.1274 42.0508 13.924 41.6056 12.8318C41.1663 12.0215 40.5069 11.3518 39.7035 10.9001C38.9 10.4484 37.9853 10.233 37.0647 10.2787V10.2797Z" fill="#323C6B"/>
<path d="M42.1961 17.3757V19.3119C42.1961 20.6899 41.6487 22.0114 40.6743 22.9858C39.6999 23.9602 38.3784 24.5076 37.0004 24.5076C35.6224 24.5076 34.3008 23.9602 33.3265 22.9858C32.3521 22.0114 31.8047 20.6899 31.8047 19.3119V17.2978C33.0659 17.2191 34.2961 16.8742 35.4144 16.2859C36.4889 15.6872 37.4856 14.9585 38.382 14.1162C38.7273 14.9143 39.2504 15.6228 39.9115 16.1877C40.5725 16.7527 41.3539 17.159 42.1961 17.3757Z" fill="#FCD462"/>
<path d="M36.9995 24.9844C36.2537 24.9862 35.5148 24.8407 34.8252 24.5564C34.1356 24.2721 33.509 23.8545 32.9811 23.3275C32.4532 22.8006 32.0345 22.1746 31.7491 21.4855C31.4636 20.7965 31.3169 20.0578 31.3174 19.3119V17.2979C31.317 17.1748 31.3633 17.0563 31.4469 16.966C31.5305 16.8757 31.6452 16.8205 31.7679 16.8114C32.9624 16.7384 34.1278 16.4124 35.1869 15.855C36.2252 15.2728 37.189 14.5667 38.0572 13.7524C38.112 13.7024 38.1778 13.6658 38.2492 13.6457C38.3207 13.6256 38.3959 13.6225 38.4687 13.6366C38.5414 13.6499 38.6102 13.6796 38.6697 13.7234C38.7292 13.7672 38.7779 13.8241 38.8122 13.8895C39.1214 14.6266 39.5972 15.282 40.2022 15.8043C40.8072 16.3266 41.525 16.7016 42.2993 16.8999C42.4076 16.9237 42.5046 16.9837 42.5741 17.07C42.6437 17.1564 42.6816 17.2639 42.6817 17.3747V19.311C42.6789 20.8163 42.079 22.259 41.0138 23.3226C39.9485 24.3862 38.5049 24.9838 36.9995 24.9844ZM32.2904 17.7357V19.3119C32.2904 20.5609 32.7865 21.7587 33.6696 22.6418C34.5528 23.525 35.7506 24.0211 36.9995 24.0211C38.2485 24.0211 39.4463 23.525 40.3294 22.6418C41.2126 21.7587 41.7087 20.5609 41.7087 19.3119V17.7552C40.225 17.2845 38.9836 16.2533 38.2488 14.881C37.4501 15.5892 36.5741 16.2051 35.6374 16.717C34.5966 17.2661 33.4606 17.6119 32.2904 17.7357Z" fill="#323C6B"/>
<path d="M50.5247 49.2715H50.3359C50.0559 49.3027 49.7993 49.4424 49.6212 49.6607C49.4431 49.879 49.3577 50.1585 49.3834 50.4391C49.3785 50.7379 49.4767 51.0293 49.6617 51.2641C49.894 51.5156 50.1935 51.6953 50.5247 51.7818" fill="#FCD462"/>
<path d="M50.5246 52.2655C50.485 52.2658 50.4455 52.2612 50.4069 52.2519C49.9882 52.1424 49.6088 51.9171 49.3123 51.6019C49.0401 51.274 48.8926 50.8605 48.8959 50.4343C48.8691 50.0246 49.0053 49.6208 49.2749 49.311C49.5444 49.0012 49.9254 48.8105 50.3349 48.7803H50.5246C50.6537 48.7803 50.7774 48.8315 50.8686 48.9228C50.9599 49.014 51.0111 49.1377 51.0111 49.2668C51.0111 49.3958 50.9599 49.5195 50.8686 49.6108C50.7774 49.702 50.6537 49.7533 50.5246 49.7533H50.3359C50.0878 49.7533 49.8698 50.0704 49.8698 50.4343C49.8653 50.621 49.9247 50.8036 50.0382 50.952C50.2033 51.1227 50.4124 51.2446 50.6424 51.3042C50.7574 51.333 50.8579 51.4028 50.9251 51.5006C50.9922 51.5983 51.0214 51.7172 51.007 51.8349C50.9927 51.9526 50.9359 52.061 50.8472 52.1398C50.7586 52.2185 50.6442 52.2622 50.5256 52.2626L50.5246 52.2655Z" fill="#323C6B"/>
<path d="M60.2225 49.2715H60.4113C60.6913 49.3027 60.9479 49.4424 61.126 49.6607C61.3041 49.879 61.3895 50.1585 61.3638 50.4391C61.3688 50.7379 61.2705 51.0293 61.0856 51.2641C60.7624 51.5769 60.3618 51.7979 59.9248 51.9044" fill="#FCD462"/>
<path d="M59.9255 52.389C59.8075 52.3882 59.6937 52.3445 59.6055 52.266C59.5173 52.1875 59.4606 52.0796 59.4461 51.9624C59.4316 51.8452 59.4601 51.7268 59.5265 51.6291C59.5929 51.5314 59.6925 51.4613 59.8068 51.4316C60.1584 51.3465 60.4811 51.1696 60.7419 50.9189C60.8358 50.7762 60.8834 50.608 60.8781 50.4373C60.8781 50.0753 60.6601 49.7562 60.412 49.7562H60.2233C60.0942 49.7562 59.9705 49.7049 59.8793 49.6137C59.788 49.5225 59.7368 49.3987 59.7368 49.2697C59.7368 49.1407 59.788 49.0169 59.8793 48.9257C59.9705 48.8345 60.0942 48.7832 60.2233 48.7832H60.412C60.8215 48.8134 61.2026 49.0041 61.4721 49.3139C61.7416 49.6237 61.8778 50.0275 61.8511 50.4373C61.8555 50.8486 61.718 51.2489 61.4619 51.5708C61.0717 51.9638 60.5809 52.2419 60.0433 52.3745C60.0048 52.3844 59.9652 52.3893 59.9255 52.389Z" fill="#323C6B"/>
<path d="M64.0653 62.8188C61.6599 64.9785 58.5412 66.1732 55.3085 66.1732C52.0758 66.1732 48.9571 64.9785 46.5518 62.8188C46.5673 61.3887 47.1383 60.0208 48.144 59.004C49.1497 57.9873 50.5113 57.4013 51.9411 57.3701C51.9966 57.4392 52.0571 57.5043 52.122 57.5647C52.9659 58.4103 54.111 58.8862 55.3056 58.888C55.9419 58.8905 56.5714 58.7568 57.1517 58.4958C57.732 58.2348 58.2498 57.8527 58.6701 57.375C59.3892 57.3791 60.1001 57.5283 60.7602 57.8136C61.4202 58.099 62.0159 58.5147 62.5114 59.0358C63.4696 60.0675 64.0216 61.4114 64.0653 62.8188Z" fill="#FE7058"/>
<path d="M50.2795 65.6591C50.1504 65.6591 50.0267 65.6079 49.9355 65.5166C49.8442 65.4254 49.793 65.3017 49.793 65.1726V61.6281C49.793 61.4991 49.8442 61.3753 49.9355 61.2841C50.0267 61.1929 50.1504 61.1416 50.2795 61.1416C50.4085 61.1416 50.5322 61.1929 50.6235 61.2841C50.7147 61.3753 50.7659 61.4991 50.7659 61.6281V65.1726C50.7659 65.3017 50.7147 65.4254 50.6235 65.5166C50.5322 65.6079 50.4085 65.6591 50.2795 65.6591Z" fill="#323C6B"/>
<path d="M60.3361 65.6591C60.2071 65.6591 60.0833 65.6079 59.9921 65.5166C59.9009 65.4254 59.8496 65.3017 59.8496 65.1726V61.6281C59.8496 61.4991 59.9009 61.3753 59.9921 61.2841C60.0833 61.1929 60.2071 61.1416 60.3361 61.1416C60.4651 61.1416 60.5889 61.1929 60.6801 61.2841C60.7713 61.3753 60.8226 61.4991 60.8226 61.6281V65.1726C60.8226 65.3017 60.7713 65.4254 60.6801 65.5166C60.5889 65.6079 60.4651 65.6591 60.3361 65.6591Z" fill="#323C6B"/>
<path d="M60.069 48.9353L59.9221 49.8431V49.8519C59.1751 49.6578 58.4821 49.296 57.8959 48.7939C57.3097 48.2918 56.8456 47.6627 56.5391 46.9543C55.7408 47.7011 54.8551 48.3486 53.9014 48.8828C52.9067 49.4062 51.8124 49.713 50.6906 49.7828C50.2377 48.3938 50.3171 46.886 50.9134 45.5523C51.3863 44.7995 52.0438 44.1801 52.8233 43.7528C53.6029 43.3254 54.4787 43.1043 55.3677 43.1105C56.2567 43.1166 57.1293 43.3498 57.9029 43.7879C58.6765 44.2259 59.3253 44.8544 59.7878 45.6136C60.229 46.6636 60.3274 47.8261 60.069 48.9353Z" fill="#707583"/>
<path d="M59.9747 50.3465C59.9216 50.3457 59.8688 50.3392 59.8171 50.327C59.0976 50.1548 58.4225 49.8328 57.8357 49.3822C57.249 48.9316 56.7638 48.3624 56.4117 47.7117C55.7109 48.3289 54.9437 48.8664 54.1242 49.3142C53.0718 49.8693 51.9133 50.1943 50.7256 50.2677C50.6189 50.275 50.5128 50.2469 50.4236 50.1878C50.3344 50.1287 50.2672 50.0419 50.2324 49.9408C49.7394 48.4213 49.8324 46.7725 50.4931 45.3182C51.0094 44.4893 51.7298 43.8068 52.5854 43.3361C53.4409 42.8655 54.403 42.6223 55.3795 42.6301C56.356 42.6378 57.3141 42.8961 58.1622 43.3802C59.0102 43.8643 59.7198 44.5581 60.2228 45.395C60.7075 46.537 60.8208 47.8026 60.5468 49.0125L60.3999 49.9213C60.4005 49.9889 60.3846 50.0555 60.3535 50.1156C60.3225 50.1756 60.2773 50.2271 60.2219 50.2657C60.1512 50.3202 60.0639 50.3487 59.9747 50.3465ZM55.3687 43.597H55.1741C54.3993 43.588 53.6361 43.7859 52.9633 44.1702C52.2905 44.5545 51.7323 45.1113 51.3464 45.7832C50.862 46.8755 50.7592 48.099 51.0545 49.2568C51.9732 49.1561 52.8646 48.8824 53.6815 48.4502C54.6001 47.932 55.4536 47.3062 56.2239 46.5859C56.2793 46.5372 56.3451 46.5017 56.4162 46.4822C56.4873 46.4626 56.562 46.4595 56.6345 46.4731C56.707 46.4865 56.7756 46.5163 56.8349 46.5601C56.8942 46.6039 56.9428 46.6607 56.977 46.726C57.4738 47.861 58.3915 48.7591 59.5369 49.2315L59.5943 48.8569C59.8351 47.8479 59.7545 46.7889 59.3637 45.828C58.9759 45.1173 58.395 44.5307 57.6881 44.136C56.9813 43.7412 56.1772 43.5544 55.3687 43.597Z" fill="#323C6B"/>
<path d="M59.922 49.8516V51.5728C59.922 52.7967 59.4358 53.9705 58.5704 54.836C57.7049 55.7014 56.5311 56.1876 55.3072 56.1876C54.0833 56.1876 52.9095 55.7014 52.044 54.836C51.1786 53.9705 50.6924 52.7967 50.6924 51.5728V49.7825C51.8142 49.7127 52.9085 49.406 53.9032 48.8825C54.8569 48.3484 55.7426 47.7008 56.5409 46.9541C56.8473 47.6622 57.311 48.2912 57.8969 48.7933C58.4827 49.2954 59.1753 49.6573 59.922 49.8516Z" fill="#FCD462"/>
<path d="M55.3112 56.6709C54.6411 56.6723 53.9772 56.5414 53.3577 56.2859C52.7382 56.0303 52.1752 55.655 51.7009 55.1815C51.2267 54.708 50.8505 54.1455 50.594 53.5264C50.3375 52.9073 50.2057 52.2436 50.2061 51.5735V49.7832C50.2057 49.6603 50.2518 49.5419 50.3352 49.4516C50.4186 49.3614 50.5331 49.306 50.6556 49.2967C51.7093 49.2313 52.7373 48.9435 53.6718 48.4522C54.5903 47.934 55.4438 47.3082 56.2142 46.5879C56.2696 46.5392 56.3353 46.5038 56.4065 46.4842C56.4776 46.4646 56.5522 46.4615 56.6248 46.4751C56.6973 46.4885 56.7658 46.5183 56.8251 46.5621C56.8845 46.6059 56.9331 46.6627 56.9672 46.728C57.238 47.3754 57.6549 47.9513 58.1852 48.4108C58.7156 48.8702 59.345 49.2007 60.0243 49.3765C60.1324 49.4004 60.2292 49.4605 60.2985 49.5468C60.3679 49.6332 60.4057 49.7406 60.4057 49.8513V51.5725C60.4044 52.9236 59.8674 54.219 58.9124 55.1748C57.9574 56.1305 56.6623 56.6685 55.3112 56.6709ZM51.179 50.2239V51.5735C51.179 52.6684 51.614 53.7184 52.3882 54.4926C53.1624 55.2668 54.2125 55.7018 55.3074 55.7018C56.4022 55.7018 57.4523 55.2668 58.2265 54.4926C59.0007 53.7184 59.4357 52.6684 59.4357 51.5735V50.2269C58.1445 49.8023 57.0626 48.9033 56.4088 47.7117C55.7089 48.3288 54.9427 48.8662 54.1242 49.3142C53.2083 49.7996 52.2091 50.1082 51.179 50.2239Z" fill="#323C6B"/>
<path d="M31.8201 53.0438C31.8231 54.8902 31.4344 56.7162 30.6797 58.4013C29.9249 60.0863 28.8213 61.5921 27.4417 62.8193C27.4417 62.8358 27.4329 62.8358 27.4242 62.8446C25.1797 64.8453 22.3168 66.0154 19.3135 66.1595C16.3102 66.3036 13.3484 65.4129 10.9227 63.6363C8.49695 61.8597 6.75419 59.3046 5.98543 56.3978C5.21666 53.491 5.46844 50.4085 6.69871 47.6649C7.92898 44.9214 10.0633 42.683 12.7451 41.3236C15.427 39.9641 18.4941 39.5659 21.4342 40.1955C24.3743 40.825 27.0094 42.4442 28.8995 44.7826C30.7895 47.121 31.8201 50.0371 31.8191 53.0438H31.8201Z" fill="#EEEFEE"/>
<path d="M47.7903 31.0265C49.6307 27.8947 50.2523 24.1945 49.5362 20.6332C48.8201 17.072 46.8166 13.8996 43.9087 11.7226C41.0008 9.54557 37.3925 8.51668 33.7737 8.83262C30.155 9.14856 26.7796 10.7872 24.293 13.4351C25.3482 11.6493 26.7678 10.1059 28.4594 8.90539C30.151 7.70493 32.0766 6.87439 34.1106 6.4679C36.1447 6.06141 38.2416 6.08811 40.2647 6.54624C42.2877 7.00437 44.1915 7.88365 45.852 9.12679C47.5125 10.3699 48.8924 11.949 49.9018 13.7611C50.9112 15.5732 51.5274 17.5777 51.7103 19.6439C51.8931 21.7101 51.6386 23.7917 50.9632 25.7529C50.2877 27.7141 49.2066 29.511 47.7903 31.0265Z" fill="#E1E6E9"/>
<path d="M64.7493 62.1615C65.902 60.1792 66.5065 57.9259 66.5007 55.6329C66.5009 53.0155 65.7191 50.4578 64.2557 48.2877C62.7923 46.1177 60.7139 44.4344 58.2872 43.4537C55.8605 42.473 53.1962 42.2396 50.6359 42.7835C48.0757 43.3274 45.7364 44.6238 43.918 46.5064C44.8406 44.8849 46.098 43.4786 47.6066 42.381C49.1151 41.2834 50.8402 40.5198 52.6669 40.1409C54.4936 39.762 56.38 39.7766 58.2006 40.1837C60.0213 40.5908 61.7343 41.3811 63.2257 42.5019C64.717 43.6227 65.9526 45.0483 66.85 46.6839C67.7474 48.3194 68.2861 50.1274 68.4303 51.9874C68.5744 53.8474 68.3207 55.7167 67.686 57.471C67.0513 59.2253 66.0502 60.8243 64.7493 62.1615Z" fill="#E1E6E9"/>
<path d="M28.1262 62.1608C29.2789 60.1786 29.8834 57.9253 29.8776 55.6322C29.8779 53.0136 29.0954 50.4547 27.6308 48.284C26.1661 46.1134 24.0861 44.43 21.6578 43.4501C19.2295 42.4702 16.5637 42.2385 14.0027 42.7847C11.4417 43.3309 9.10239 44.6301 7.28516 46.5154C8.20755 44.8946 9.46453 43.4887 10.9725 42.3914C12.4804 41.2941 14.2047 40.5304 16.0307 40.1513C17.8567 39.7721 19.7425 39.7861 21.5626 40.1924C23.3827 40.5987 25.0955 41.3879 26.587 42.5075C28.0784 43.6271 29.3143 45.0515 30.2125 46.6859C31.1107 48.3203 31.6506 50.1272 31.7962 51.9865C31.9418 53.8457 31.6899 55.7146 31.0571 57.4689C30.4243 59.2232 29.4252 60.8227 28.1262 62.1608Z" fill="#E1E6E9"/>
<path d="M13.9065 49.2715H13.7178C13.4378 49.3027 13.1811 49.4424 13.003 49.6607C12.8249 49.879 12.7395 50.1585 12.7652 50.4391C12.7605 50.7377 12.8584 51.029 13.0425 51.2641C13.275 51.5159 13.5749 51.6956 13.9065 51.7818" fill="#FCD462"/>
<path d="M13.9065 52.2655C13.8668 52.2657 13.8273 52.2611 13.7888 52.2518C13.3703 52.1424 12.9913 51.9171 12.6951 51.6019C12.422 51.2745 12.274 50.8607 12.2777 50.4343C12.251 50.0244 12.3873 49.6205 12.657 49.3107C12.9268 49.0009 13.308 48.8102 13.7177 48.7803H13.9065C14.0355 48.7803 14.1592 48.8315 14.2505 48.9228C14.3417 49.014 14.393 49.1377 14.393 49.2668C14.393 49.3958 14.3417 49.5195 14.2505 49.6108C14.1592 49.702 14.0355 49.7532 13.9065 49.7532H13.7177C13.4686 49.7532 13.2507 50.0704 13.2507 50.4343C13.2462 50.6207 13.3056 50.803 13.419 50.951C13.584 51.1222 13.7931 51.2444 14.0232 51.3042C14.1383 51.333 14.2388 51.4028 14.3059 51.5006C14.3731 51.5983 14.4022 51.7172 14.3879 51.8349C14.3736 51.9526 14.3167 52.061 14.2281 52.1398C14.1394 52.2185 14.0251 52.2622 13.9065 52.2625V52.2655Z" fill="#323C6B"/>
<path d="M23.6044 49.2715H23.7931C24.0731 49.3027 24.3298 49.4424 24.5079 49.6607C24.686 49.879 24.7714 50.1585 24.7457 50.4391C24.7506 50.7379 24.6523 51.0293 24.4674 51.2641C24.1445 51.5768 23.7442 51.7978 23.3076 51.9044" fill="#FCD462"/>
<path d="M23.3064 52.389C23.1884 52.388 23.0748 52.3441 22.9868 52.2655C22.8987 52.187 22.8423 52.0791 22.8279 51.9619C22.8135 51.8448 22.8421 51.7265 22.9085 51.6289C22.9749 51.5313 23.0745 51.4612 23.1887 51.4316C23.5405 51.3472 23.8634 51.1701 24.1237 50.9189C24.2172 50.776 24.2644 50.6079 24.259 50.4373C24.259 50.0753 24.042 49.7562 23.7929 49.7562H23.6042C23.4751 49.7562 23.3514 49.7049 23.2602 49.6137C23.1689 49.5225 23.1177 49.3987 23.1177 49.2697C23.1177 49.1407 23.1689 49.0169 23.2602 48.9257C23.3514 48.8345 23.4751 48.7832 23.6042 48.7832H23.7929C24.2024 48.8134 24.5835 49.0041 24.853 49.3139C25.1225 49.6237 25.2587 50.0275 25.2319 50.4373C25.2361 50.8486 25.0987 51.2488 24.8428 51.5708C24.4522 51.9637 23.9611 52.2417 23.4232 52.3744C23.3851 52.3843 23.3458 52.3892 23.3064 52.389Z" fill="#323C6B"/>
<path d="M27.4422 62.8188C27.4422 62.8353 27.4335 62.8353 27.4247 62.8441C25.0174 64.9933 21.9019 66.1791 18.6748 66.1744C15.4477 66.1697 12.3357 64.9749 9.93457 62.8188C9.94837 61.3897 10.5176 60.022 11.5217 59.0051C12.5259 57.9882 13.8863 57.4019 15.3151 57.3701C15.3754 57.4392 15.4358 57.4995 15.4961 57.5647C15.9152 57.9842 16.4128 58.317 16.9606 58.544C17.5083 58.7711 18.0955 58.8879 18.6884 58.888C19.3247 58.8905 19.9542 58.7568 20.5345 58.4958C21.1148 58.2348 21.6326 57.8527 22.053 57.375C22.7709 57.3782 23.4807 57.5271 24.1395 57.8126C24.7982 58.098 25.3922 58.5142 25.8855 59.0358C26.8513 60.0629 27.4055 61.4094 27.4422 62.8188Z" fill="#27CCBC"/>
<path d="M60.0497 65.2843C60.5105 64.9708 60.9494 64.6262 61.3633 64.2529C61.3211 62.8441 60.7678 61.4988 59.8065 60.468C59.3237 59.9568 58.7436 59.5472 58.1004 59.2631C57.4571 58.9791 56.7636 58.8264 56.0605 58.814C57.069 58.6404 57.9885 58.1292 58.6681 57.3643C59.3874 57.3705 60.0982 57.521 60.7583 57.8067C61.4185 58.0925 62.0146 58.5078 62.5114 59.028C63.4674 60.066 64.0197 61.4123 64.0681 62.8226C62.8898 63.8812 61.528 64.7154 60.0497 65.2843Z" fill="#EA6453"/>
<path d="M46.846 31.9305C46.846 31.95 46.8363 31.95 46.8265 31.9597C45.5893 33.0689 44.1709 33.9574 42.633 34.5867C43.154 34.2302 43.6513 33.8402 44.1217 33.4192C44.1314 33.4094 44.1411 33.4094 44.1411 33.39C44.0967 31.8034 43.4739 30.2877 42.3898 29.1283C41.3567 28.0424 39.9543 27.3828 38.459 27.2797C39.3588 27.0174 40.1653 26.5045 40.7844 25.8008C41.5915 25.8067 42.3891 25.9752 43.1296 26.2962C43.8702 26.6171 44.5385 27.084 45.0947 27.6689C46.1787 28.8283 46.8016 30.3439 46.846 31.9305Z" fill="#27A2DB"/>
<path d="M25.8889 58.9987C25.3946 58.4779 24.8003 58.0621 24.1416 57.7762C23.483 57.4904 22.7734 57.3403 22.0554 57.335C21.3467 58.1279 20.3782 58.6417 19.3242 58.7837V58.8285C19.332 58.8197 19.3427 58.8129 19.3505 58.8042C20.069 58.8063 20.7796 58.9549 21.4387 59.241C22.0978 59.5271 22.6917 59.9445 23.184 60.4679C24.153 61.4937 24.7076 62.8421 24.7408 64.2528C24.7408 64.2723 24.731 64.2723 24.7213 64.282C24.342 64.6208 23.9424 64.9359 23.5245 65.2258C24.958 64.6593 26.2791 63.8423 27.4262 62.8128C27.4359 62.8031 27.4456 62.8031 27.4456 62.7836C27.408 61.3739 26.854 60.027 25.8889 58.9987Z" fill="#21B3A9"/>
<path d="M56.0601 58.8138C56.0189 58.8258 55.9764 58.8323 55.9336 58.8333L55.9628 58.8041C55.9955 58.8025 56.0283 58.8058 56.0601 58.8138Z" fill="white"/>
<path d="M56.0601 58.8138C56.0189 58.8258 55.9764 58.8323 55.9336 58.8333L55.9628 58.8041C55.9955 58.8025 56.0283 58.8058 56.0601 58.8138Z" fill="white"/>
<path d="M13.6613 65.6591C13.5323 65.6591 13.4085 65.6079 13.3173 65.5166C13.2261 65.4254 13.1748 65.3017 13.1748 65.1726V61.6281C13.1748 61.4991 13.2261 61.3753 13.3173 61.2841C13.4085 61.1929 13.5323 61.1416 13.6613 61.1416C13.7903 61.1416 13.9141 61.1929 14.0053 61.2841C14.0965 61.3753 14.1478 61.4991 14.1478 61.6281V65.1726C14.1478 65.3017 14.0965 65.4254 14.0053 65.5166C13.9141 65.6079 13.7903 65.6591 13.6613 65.6591Z" fill="#323C6B"/>
<path d="M23.7179 65.6591C23.5889 65.6591 23.4652 65.6079 23.3739 65.5166C23.2827 65.4254 23.2314 65.3017 23.2314 65.1726V61.6281C23.2314 61.4991 23.2827 61.3753 23.3739 61.2841C23.4652 61.1929 23.5889 61.1416 23.7179 61.1416C23.847 61.1416 23.9707 61.1929 24.0619 61.2841C24.1532 61.3753 24.2044 61.4991 24.2044 61.6281V65.1726C24.2044 65.3017 24.1532 65.4254 24.0619 65.5166C23.9707 65.6079 23.847 65.6591 23.7179 65.6591Z" fill="#323C6B"/>
<path d="M23.455 48.9355L23.3071 49.8433V49.852C22.5591 49.6579 21.8651 49.2961 21.2776 48.7941C20.6902 48.2921 20.2246 47.663 19.9163 46.9545C19.1196 47.7032 18.2336 48.3509 17.2785 48.8829C16.2868 49.4051 15.196 49.7118 14.0774 49.7829C13.6232 48.3946 13.7005 46.887 14.2944 45.5524C14.7205 44.806 15.3377 44.1866 16.0827 43.7579C16.8276 43.3291 17.6732 43.1066 18.5327 43.1132C19.4653 43.0311 20.4015 43.2242 21.2256 43.6686C22.0496 44.113 22.7252 44.7893 23.1689 45.6137C23.6116 46.6632 23.7118 47.8257 23.455 48.9355Z" fill="#707583"/>
<path d="M23.3606 50.3465C23.3072 50.3457 23.254 50.3392 23.202 50.3271C22.4813 50.1558 21.8047 49.8346 21.2164 49.3843C20.6281 48.934 20.1414 48.3647 19.7879 47.7137C19.0883 48.3301 18.3224 48.8669 17.5043 49.3142C16.4533 49.8653 15.2986 50.1901 14.1145 50.2677C14.007 50.2777 13.8994 50.2509 13.8093 50.1916C13.7191 50.1324 13.6517 50.0443 13.6182 49.9418C13.1198 48.4239 13.209 46.7744 13.8683 45.3192C14.3347 44.4993 15.0106 43.8181 15.8268 43.3453C16.6429 42.8724 17.57 42.6248 18.5133 42.6279C19.5388 42.5416 20.5671 42.7577 21.4711 43.2495C22.3752 43.7413 23.1153 44.4872 23.6 45.3951C24.0888 46.5338 24.205 47.798 23.9318 49.0067V49.0135L23.7848 49.9213C23.7852 49.989 23.7691 50.0557 23.7379 50.1157C23.7067 50.1757 23.6614 50.2272 23.6058 50.2658C23.5356 50.3198 23.4492 50.3483 23.3606 50.3465ZM18.7468 43.596C18.6816 43.596 18.6154 43.596 18.5522 43.596C17.7763 43.589 17.0124 43.7882 16.3388 44.1734C15.6652 44.5586 15.1061 45.1158 14.7187 45.7881C14.2412 46.8815 14.1386 48.102 14.4268 49.2597C15.3432 49.1583 16.2322 48.8846 17.047 48.4531C17.9661 47.9371 18.8194 47.3118 19.5884 46.5908C19.6436 46.5418 19.7093 46.5059 19.7805 46.4861C19.8517 46.4662 19.9264 46.4628 19.9991 46.4761C20.0718 46.4894 20.1405 46.5191 20.2 46.5629C20.2595 46.6067 20.3082 46.6635 20.3425 46.729C20.8406 47.8662 21.7619 48.7648 22.9111 49.2344L22.9685 48.8637C23.2121 47.854 23.1286 46.793 22.7301 45.8339C22.3453 45.1228 21.7669 44.5352 21.0619 44.1391C20.357 43.7431 19.5543 43.5548 18.7468 43.596Z" fill="#323C6B"/>
<path d="M23.3078 49.8516V51.5728C23.3078 52.7967 22.8216 53.9705 21.9561 54.836C21.0907 55.7014 19.9169 56.1876 18.6929 56.1876C17.469 56.1876 16.2952 55.7014 15.4298 54.836C14.5643 53.9705 14.0781 52.7967 14.0781 51.5728V49.7825C15.1966 49.7114 16.2875 49.4047 17.2792 48.8825C18.2343 48.3505 19.1203 47.7028 19.9169 46.9541C20.2253 47.6626 20.6909 48.2917 21.2783 48.7937C21.8658 49.2957 22.5598 49.6575 23.3078 49.8516Z" fill="#FCD462"/>
<path d="M18.6882 56.6705C18.0188 56.6708 17.3558 56.5391 16.7372 56.283C16.1187 56.0269 15.5566 55.6515 15.0832 55.1781C14.6099 54.7047 14.2344 54.1427 13.9783 53.5241C13.7222 52.9055 13.5906 52.2426 13.5908 51.5731V49.7828C13.5905 49.66 13.6366 49.5415 13.72 49.4513C13.8034 49.361 13.9178 49.3057 14.0403 49.2963C15.0942 49.2315 16.1223 48.9437 17.0566 48.4518C17.9756 47.9357 18.829 47.3104 19.598 46.5895C19.6532 46.5405 19.7189 46.5046 19.7901 46.4847C19.8612 46.4649 19.936 46.4614 20.0087 46.4748C20.0813 46.4881 20.15 46.5178 20.2095 46.5616C20.269 46.6054 20.3177 46.6622 20.352 46.7277C20.6238 47.3757 21.0419 47.9521 21.5737 48.4116C22.1054 48.871 22.7363 49.2012 23.4169 49.3761C23.525 49.4001 23.6217 49.4601 23.6911 49.5465C23.7604 49.6328 23.7982 49.7402 23.7983 49.8509V51.5721C23.796 52.9256 23.2565 54.2228 22.2983 55.1788C21.3402 56.1348 20.0417 56.6713 18.6882 56.6705ZM14.5638 50.2226V51.5731C14.5638 52.668 14.9987 53.7181 15.773 54.4923C16.5472 55.2665 17.5972 55.7014 18.6921 55.7014C19.787 55.7014 20.8371 55.2665 21.6113 54.4923C22.3855 53.7181 22.8204 52.668 22.8204 51.5731V50.2323C21.5276 49.8086 20.4438 48.91 19.7877 47.7182C19.0881 48.3346 18.3222 48.8714 17.5041 49.3187C16.5882 49.7989 15.5913 50.1054 14.5638 50.2226Z" fill="#323C6B"/>
<path d="M55.3109 66.6613C51.9552 66.6645 48.7173 65.4242 46.2224 63.18C46.1695 63.1324 46.1277 63.0737 46.1 63.0081C46.0722 62.9426 46.0592 62.8717 46.0619 62.8006C46.0778 61.2446 46.6996 59.7561 47.7952 58.6512C48.8909 57.5463 50.3741 56.912 51.9299 56.8829C52.0069 56.8796 52.0835 56.8957 52.1527 56.9297C52.2219 56.9637 52.2814 57.0145 52.3259 57.0775C52.3518 57.1088 52.3801 57.1381 52.4105 57.1651C52.7876 57.5508 53.2372 57.8582 53.7334 58.0695C54.2297 58.2809 54.7628 58.3922 55.3022 58.3969C55.8697 58.3976 56.4308 58.2773 56.9481 58.0439C57.4654 57.8105 57.9269 57.4695 58.3019 57.0435C58.3454 56.9878 58.402 56.9436 58.4667 56.915C58.5313 56.8863 58.602 56.8739 58.6726 56.8791C59.4557 56.8848 60.2298 57.0481 60.9485 57.3591C61.6673 57.6702 62.3161 58.1227 62.8564 58.6898C63.8994 59.8087 64.5004 61.2686 64.5474 62.7977C64.5499 62.8686 64.5368 62.9393 64.5091 63.0047C64.4813 63.0701 64.4396 63.1286 64.3868 63.1761C61.8965 65.4201 58.6631 66.6618 55.3109 66.6613ZM47.0475 62.6108C49.3411 64.5962 52.2731 65.6889 55.3066 65.6889C58.3401 65.6889 61.2721 64.5962 63.5657 62.6108C63.4793 61.399 62.9807 60.2532 62.1529 59.364C61.2926 58.462 60.1189 57.9246 58.874 57.8627C58.4102 58.3408 57.855 58.7206 57.2414 58.9795C56.6277 59.2385 55.9682 59.3712 55.3022 59.3699C53.9795 59.3647 52.7121 58.8382 51.7752 57.9046L51.7333 57.8637C50.5058 57.9419 49.3499 58.4689 48.4857 59.3443C47.6216 60.2197 47.1097 61.3824 47.0475 62.6108Z" fill="#323C6B"/>
<path d="M18.6889 66.6609C15.3363 66.6631 12.1017 65.4228 9.61009 63.1796C9.5572 63.132 9.51541 63.0733 9.48767 63.0077C9.45993 62.9422 9.44692 62.8713 9.44955 62.8002C9.46396 61.2452 10.0841 59.7572 11.1782 58.6522C12.2723 57.5472 13.7541 56.9123 15.3088 56.8825C15.3798 56.8786 15.4507 56.8916 15.5157 56.9205C15.5807 56.9495 15.6378 56.9935 15.6824 57.0489C15.7301 57.1044 15.7797 57.152 15.8254 57.1997C16.2116 57.591 16.674 57.8989 17.1839 58.1043C17.6939 58.3097 18.2405 58.4083 18.7901 58.394C19.3397 58.3797 19.8805 58.2528 20.379 58.0211C20.8776 57.7894 21.3233 57.4578 21.6886 57.047C21.7332 56.9924 21.7899 56.9491 21.8543 56.9206C21.9187 56.892 21.9889 56.879 22.0593 56.8825C22.8429 56.8863 23.6175 57.0488 24.3366 57.3602C25.0556 57.6716 25.7042 58.1254 26.2431 58.6942C27.2931 59.8095 27.8951 61.2727 27.9341 62.804V62.8186C27.9322 62.8996 27.9119 62.979 27.8748 63.051C27.8377 63.1229 27.7848 63.1856 27.72 63.2341C25.2346 65.4499 22.0186 66.6702 18.6889 66.6609ZM10.4381 62.6104C12.7309 64.5941 15.661 65.6865 18.6928 65.688C21.7246 65.6894 24.6558 64.5998 26.9504 62.6182C26.8716 61.4019 26.3713 60.251 25.5357 59.3636C24.6797 58.46 23.5078 57.9218 22.2646 57.8613C21.803 58.3341 21.2522 58.7105 20.6441 58.9687C20.036 59.227 19.3826 59.362 18.722 59.3659C18.0613 59.3698 17.4064 59.2425 16.7953 58.9914C16.1842 58.7403 15.629 58.3704 15.1619 57.9032L15.121 57.8623C13.8934 57.9402 12.7375 58.4673 11.8738 59.343C11.01 60.2188 10.499 61.3819 10.4381 62.6104Z" fill="#323C6B"/>
<path d="M37.0003 36.2221C33.2409 36.2257 29.6136 34.836 26.8191 32.3214C26.7662 32.2738 26.7244 32.2151 26.6967 32.1495C26.6689 32.0839 26.6559 32.0131 26.6585 31.9419C26.676 30.2074 27.3688 28.548 28.59 27.3161C29.8112 26.0841 31.4645 25.3768 33.1989 25.3442C33.2641 25.3423 33.3291 25.3541 33.3896 25.3787C33.45 25.4034 33.5047 25.4403 33.5501 25.4872L33.7554 25.7023C34.6148 26.5588 35.7772 27.0419 36.9905 27.0469C37.6386 27.0489 38.2796 26.9128 38.871 26.6477C39.4624 26.3826 39.9905 25.9947 40.4203 25.5096C40.4649 25.4551 40.5217 25.4117 40.586 25.383C40.6504 25.3543 40.7206 25.341 40.791 25.3442C41.6627 25.351 42.5242 25.5331 43.324 25.8798C44.1239 26.2265 44.8457 26.7306 45.4466 27.3622C46.612 28.6078 47.2828 30.2359 47.3332 31.941V31.9585C47.3313 32.0382 47.3117 32.1165 47.2761 32.1878C47.2404 32.259 47.1895 32.3216 47.127 32.371C44.3409 34.858 40.7349 36.2293 37.0003 36.2221ZM27.6422 31.7464C30.2367 34.0001 33.5571 35.242 36.9937 35.2442C40.4303 35.2463 43.7523 34.0085 46.3496 31.7581C46.2632 30.366 45.6949 29.0474 44.7422 28.0286C43.7582 26.9972 42.4136 26.3861 40.9895 26.323C40.4769 26.854 39.8636 27.2776 39.1855 27.5689C38.5073 27.8601 37.778 28.0133 37.0399 28.0195C36.3019 28.0257 35.5701 27.8847 34.8872 27.6047C34.2043 27.3248 33.584 26.9116 33.0626 26.3892L33.0004 26.324C31.5943 26.4062 30.2686 27.0064 29.2791 28.0087C28.2896 29.011 27.7064 30.3443 27.6422 31.7512V31.7464Z" fill="#323C6B"/>
<path d="M28.3014 32.8975L23.7178 40.9021L28.3014 32.8975Z" fill="#EEEFEE"/>
<path d="M23.7168 41.3881C23.6317 41.3879 23.5481 41.3653 23.4744 41.3227C23.4008 41.2801 23.3395 41.219 23.2969 41.1453C23.2543 41.0716 23.2317 40.9881 23.2314 40.903C23.2312 40.8179 23.2533 40.7342 23.2955 40.6603L27.8782 32.6547C27.9427 32.5425 28.0491 32.4606 28.174 32.427C28.2989 32.3933 28.4321 32.4106 28.5442 32.4751C28.6563 32.5397 28.7382 32.6461 28.7719 32.771C28.8056 32.8959 28.7882 33.029 28.7237 33.1411L24.14 41.1468C24.0969 41.2206 24.0351 41.2818 23.9608 41.3242C23.8865 41.3666 23.8023 41.3886 23.7168 41.3881Z" fill="#323C6B"/>
<path d="M45.6982 32.8975L50.2819 40.9021L45.6982 32.8975Z" fill="#EEEFEE"/>
<path d="M50.2828 41.388C50.197 41.3883 50.1127 41.3658 50.0383 41.3229C49.964 41.28 49.9023 41.2182 49.8596 41.1438L45.2759 33.1382C45.244 33.0827 45.2233 33.0214 45.215 32.9579C45.2068 32.8944 45.2111 32.8299 45.2277 32.768C45.2444 32.7062 45.2731 32.6482 45.3122 32.5975C45.3512 32.5467 45.3999 32.5042 45.4554 32.4722C45.5109 32.4403 45.5722 32.4196 45.6357 32.4113C45.6992 32.403 45.7638 32.4074 45.8256 32.424C45.8875 32.4407 45.9454 32.4694 45.9962 32.5085C46.0469 32.5475 46.0895 32.5962 46.1214 32.6517L50.7041 40.6573C50.7464 40.7312 50.7684 40.8149 50.7682 40.9C50.7679 40.9851 50.7454 41.0687 50.7027 41.1424C50.6601 41.216 50.5989 41.2772 50.5252 41.3198C50.4515 41.3624 50.3679 41.3849 50.2828 41.3851V41.388Z" fill="#323C6B"/>
<path d="M42.1797 53.5257H31.8195C31.6905 53.5257 31.5667 53.4745 31.4755 53.3832C31.3843 53.292 31.333 53.1682 31.333 53.0392C31.333 52.9102 31.3843 52.7865 31.4755 52.6952C31.5667 52.604 31.6905 52.5527 31.8195 52.5527H42.1797C42.3087 52.5527 42.4325 52.604 42.5237 52.6952C42.6149 52.7865 42.6662 52.9102 42.6662 53.0392C42.6662 53.1682 42.6149 53.292 42.5237 53.3832C42.4325 53.4745 42.3087 53.5257 42.1797 53.5257Z" fill="#323C6B"/>
<path d="M18.6886 66.6611C15.5024 66.6662 12.4149 65.5558 9.96187 63.5225C7.50883 61.4892 5.84499 58.6613 5.25903 55.5294C4.67308 52.3976 5.202 49.1594 6.754 46.3768C8.30601 43.5942 10.7832 41.4426 13.7557 40.2955C16.7282 39.1484 20.0086 39.0781 23.0275 40.0968C26.0465 41.1155 28.6135 43.1589 30.2834 45.8725C31.9532 48.586 32.6203 51.7986 32.1691 54.9526C31.7179 58.1067 30.1768 61.0033 27.8131 63.1399C27.7853 63.1766 27.7526 63.2094 27.7158 63.2372C25.2309 65.451 22.0166 66.6702 18.6886 66.6611ZM18.6886 40.3908C16.6413 40.3902 14.6244 40.8865 12.8113 41.8372C10.9981 42.7879 9.4428 44.1645 8.27892 45.8487C7.11505 47.533 6.3774 49.4746 6.12933 51.5068C5.88126 53.539 6.13019 55.601 6.85473 57.5158C7.57927 59.4306 8.75776 61.1409 10.289 62.4998C11.8202 63.8588 13.6585 64.8257 15.6458 65.3176C17.6331 65.8095 19.7101 65.8116 21.6984 65.3238C23.6867 64.836 25.527 63.8729 27.061 62.5172C27.0787 62.4948 27.0982 62.474 27.1194 62.4549C29.0277 60.7478 30.3728 58.5015 30.9765 56.0133C31.5802 53.525 31.4141 50.9121 30.5001 48.5203C29.5862 46.1285 27.9676 44.0706 25.8584 42.6189C23.7493 41.1673 21.249 40.3903 18.6886 40.3908Z" fill="#323C6B"/>
<path d="M36.9995 36.2222C33.4296 36.2291 29.9699 34.9859 27.2209 32.7084C24.4718 30.4309 22.6069 27.2629 21.9497 23.754C21.2925 20.2451 21.8845 16.6169 23.623 13.4989C25.3614 10.3809 28.1367 7.96992 31.4671 6.68438C34.7975 5.39885 38.4729 5.31986 41.8554 6.46114C45.238 7.60241 48.1142 9.89191 49.9851 12.9323C51.8559 15.9728 52.6032 19.5722 52.0973 23.1061C51.5915 26.64 49.8644 29.8852 47.2157 32.2787C47.1881 32.3157 47.1554 32.3484 47.1184 32.376C44.3336 34.8595 40.7308 36.2288 36.9995 36.2222ZM36.9995 6.67299C34.6868 6.67246 32.4086 7.23329 30.3605 8.30732C28.3124 9.38135 26.5556 10.9365 25.241 12.8391C23.9264 14.7418 23.0933 16.9351 22.8132 19.2307C22.5332 21.5263 22.8145 23.8556 23.6331 26.0186C24.4517 28.1815 25.783 30.1134 27.5128 31.6483C29.2427 33.1833 31.3192 34.2754 33.5641 34.8309C35.8091 35.3864 38.1553 35.3887 40.4013 34.8375C42.6473 34.2864 44.7259 33.1983 46.4587 31.6667C46.4775 31.6411 46.499 31.6176 46.5229 31.5967C48.6786 29.6684 50.1979 27.1309 50.8798 24.3202C51.5617 21.5095 51.3741 18.5579 50.3418 15.8562C49.3094 13.1544 47.481 10.8298 45.0985 9.18999C42.716 7.55018 39.8918 6.67246 36.9995 6.67299Z" fill="#323C6B"/>
<path d="M55.3108 66.6611C52.1219 66.6665 49.0319 65.5544 46.5777 63.5182C44.1236 61.4819 42.4605 58.6501 41.8774 55.5149C41.2944 52.3798 41.8282 49.1394 43.3862 46.357C44.9442 43.5745 47.4278 41.4259 50.4055 40.2845C53.3831 39.1431 56.6666 39.0811 59.6852 40.1092C62.7039 41.1373 65.2669 43.1906 66.9288 45.9122C68.5908 48.6338 69.2466 51.8517 68.7824 55.0067C68.3182 58.1616 66.7632 61.0542 64.3877 63.1817C61.8955 65.4225 58.6623 66.6618 55.3108 66.6611ZM55.3108 40.3908C52.8109 40.3912 50.3672 41.1328 48.2887 42.5218C46.2101 43.9108 44.5901 45.8849 43.6333 48.1946C42.6766 50.5042 42.4261 53.0456 42.9136 55.4976C43.4011 57.9496 44.6046 60.202 46.3719 61.97C48.1393 63.7381 50.3913 64.9425 52.843 65.4309C55.2948 65.9193 57.8363 65.6698 60.1463 64.7139C62.4563 63.7581 64.4311 62.1388 65.8209 60.0608C67.2108 57.9828 67.9533 55.5394 67.9546 53.0394C67.9508 49.6868 66.6176 46.4726 64.2474 44.1015C61.8772 41.7304 58.6634 40.3959 55.3108 40.3908Z" fill="#323C6B"/>
</svg>
