<svg width="73" height="73" viewBox="0 0 73 73" fill="none" xmlns="http://www.w3.org/2000/svg">
<path d="M72.9996 4.88751V53.4476C72.9996 55.5949 71.2593 57.3351 69.1121 57.3351H14.6688C12.5215 57.3351 10.7812 55.5949 10.7812 53.4476V4.88751C10.7812 2.74023 12.5215 1 14.6688 1H69.1121C71.2593 1 72.9996 2.74023 72.9996 4.88751Z" fill="#C4E2F2"/>
<path d="M18.7227 49.3154H23.8088V57.3349H18.7227V49.3154Z" fill="#83B2C6"/>
<path d="M28.7988 40.4902H33.8833V57.335H28.7988V40.4902Z" fill="#83B2C6"/>
<path d="M72.9996 4.88751V9.53088H10.7812V4.88751C10.7812 2.74023 12.5209 1 14.6688 1H69.1121C71.2593 1 72.9996 2.74023 72.9996 4.88751Z" fill="#83B2C6"/>
<path d="M15.9286 6.66336C14.9046 6.66336 14.4437 5.33072 15.2463 4.69406C16.0329 4.07058 17.2101 4.79513 17.0113 5.77511C16.9074 6.28488 16.4499 6.66336 15.9286 6.66336Z" fill="#E5E5E5"/>
<path d="M23.4295 6.66251C22.4176 6.66251 21.9485 5.35129 22.7308 4.70695C23.0884 4.41251 23.6108 4.37681 24.0063 4.61851C24.4056 4.86295 24.6116 5.35294 24.505 5.80833C24.3891 6.30216 23.9382 6.66251 23.4295 6.66251Z" fill="#E5E5E5"/>
<path d="M19.6807 6.66268C19.2302 6.66268 18.8155 6.37869 18.6518 5.96011C18.4744 5.50637 18.626 4.97518 19.0144 4.6802C19.8229 4.06661 21.0034 4.84115 20.7491 5.83047C20.6249 6.31222 20.18 6.66268 19.6807 6.66268Z" fill="#E5E5E5"/>
<path d="M59.5399 33.2105C59.5399 42.9581 51.6379 50.86 41.8892 50.86C39.0064 50.86 36.2867 50.1685 33.8829 48.9435C31.9576 47.9624 30.2355 46.6369 28.7985 45.0483C25.9651 41.9166 24.2402 37.766 24.2402 33.2105C24.2402 23.4629 32.1416 15.5615 41.8892 15.5615V33.2105L55.8226 22.3763C58.1528 25.3679 59.5399 29.1274 59.5399 33.2105Z" fill="#FF491F"/>
<path d="M33.8833 40.4902V48.9437C31.9579 47.9626 30.2358 46.6371 28.7988 45.0485V40.4902H33.8833Z" fill="#ED3618"/>
<path d="M57.5248 14.1891L43.5908 24.9865V7.39844C49.2537 7.39844 54.2959 10.0571 57.5248 14.1891Z" fill="#83B2C6"/>
<path d="M59.5386 33.2107C59.5386 39.0955 56.6575 44.3085 52.2283 47.5149L41.8896 33.2107L55.822 22.376C58.1516 25.3681 59.5386 29.1276 59.5386 33.2107Z" fill="#2C92BF"/>
<path d="M59.7313 14.1891L45.7979 24.9865V7.39844C51.4608 7.39844 56.5029 10.0571 59.7313 14.1891Z" fill="#FF8E1D"/>
<path d="M1 35.416H6.08612V68.3788H1V35.416Z" fill="#32CC77"/>
<path d="M10.7812 27.915H15.8668V68.3788H10.7812V27.915Z" fill="#32CC77"/>
<path d="M20.9297 49.3154H26.0158V68.3789H20.9297V49.3154Z" fill="#32CC77"/>
<path d="M31.0039 40.4902H36.09V68.3785H31.0039V40.4902Z" fill="#32CC77"/>
<path d="M69.184 53.1025H57.4907C56.8815 53.1025 56.3877 52.6087 56.3877 51.9995C56.3877 51.3903 56.8815 50.8965 57.4907 50.8965H69.1835C69.7932 50.8965 70.287 51.3903 70.287 51.9995C70.287 52.6087 69.7932 53.1025 69.184 53.1025Z" fill="#FF491F"/>
<path d="M69.1844 48.4332H61.021C60.4118 48.4332 59.918 47.9393 59.918 47.3296C59.918 46.7204 60.4118 46.2266 61.021 46.2266H69.1844C69.7936 46.2266 70.2874 46.7204 70.2874 47.3296C70.2874 47.9393 69.7936 48.4332 69.1844 48.4332Z" fill="#FF8E1D"/>
</svg>
