<svg width="73" height="73" viewBox="0 0 73 73" fill="none" xmlns="http://www.w3.org/2000/svg">
<g clip-path="url(#clip0_581_407)">
<path d="M39.8886 68.0742H34.2205L33.6455 68.4466V70.1844C33.6455 71.7393 34.9059 72.9997 36.4608 72.9997H37.5386C39.0935 72.9997 40.3539 71.7392 40.3539 70.1844V68.4466L39.8886 68.0742Z" fill="#6B7ED9"/>
<path d="M37.7743 70.1844V68.4466L38.3493 68.0742H34.2205L33.6455 68.4466V70.1844C33.6455 71.7393 34.9059 72.9997 36.4608 72.9997H37.5386C38.1013 72.9997 38.6243 72.8328 39.0641 72.5483C38.2887 72.047 37.7743 71.1765 37.7743 70.1844Z" fill="#4D66D2"/>
<path d="M37.3089 1.00203C25.1187 0.83609 14.914 10.8792 14.8926 23.0707C14.8793 30.6555 18.6865 37.3533 24.4983 41.3458C26.0674 42.4237 26.9816 44.2258 26.9795 46.1294L26.9762 49.0474L27.759 50.1246L45.6197 50.1444L46.971 49.0696L46.9742 46.091C46.9764 44.1937 47.9244 42.4302 49.4893 41.3573C55.2931 37.3783 59.1036 30.7027 59.112 23.1343C59.1255 11.0176 49.3896 1.16656 37.3089 1.00203Z" fill="#FFE02F"/>
<path d="M34.3236 50.1245L33.5407 49.0473L33.544 46.1293C33.5461 44.2257 32.6319 42.4234 31.0628 41.3457C25.251 37.3532 21.4438 30.6553 21.4571 23.0706C21.4764 12.0888 29.7592 2.85153 40.3124 1.2477C39.3307 1.10033 38.3285 1.01581 37.3089 1.00203C25.1187 0.835952 14.914 10.8791 14.8926 23.0706C14.8793 30.6553 18.6865 37.3532 24.4983 41.3457C26.0674 42.4236 26.9816 44.2257 26.9795 46.1293L26.9762 49.0473L27.759 50.1245L45.6197 50.1443L45.6289 50.137L34.3236 50.1245Z" fill="#FBC700"/>
<path d="M30.4322 24.7591C29.8321 24.7591 29.3457 24.2727 29.3457 23.6726V21.0269C29.3457 20.4269 29.8321 19.9404 30.4322 19.9404C31.0322 19.9404 31.5186 20.4269 31.5186 21.0269V23.6726C31.5186 24.2727 31.0322 24.7591 30.4322 24.7591Z" fill="#FFF1AF"/>
<path d="M43.5669 24.7591C42.9669 24.7591 42.4805 24.2727 42.4805 23.6726V21.0269C42.4805 20.4269 42.9669 19.9404 43.5669 19.9404C44.167 19.9404 44.6534 20.4269 44.6534 21.0269V23.6726C44.6535 24.2727 44.1671 24.7591 43.5669 24.7591Z" fill="#FFF1AF"/>
<path d="M34.1563 50.1449C33.5563 50.1449 33.0699 49.6585 33.0699 49.0584V40.32C33.0699 39.7311 32.8955 39.1618 32.5653 38.6738L30.2233 35.2119C29.6492 34.3631 29.3457 33.373 29.3457 32.3482V26.4175C29.3457 25.8175 29.8321 25.3311 30.4322 25.3311C31.0322 25.3311 31.5186 25.8175 31.5186 26.4175V32.3482C31.5186 32.9373 31.693 33.5064 32.0231 33.9944L34.365 37.4563C34.9392 38.3051 35.2427 39.2954 35.2427 40.32V49.0584C35.2428 49.6583 34.7564 50.1449 34.1563 50.1449Z" fill="#FFF1AF"/>
<path d="M39.8423 50.1449C39.2423 50.1449 38.7559 49.6585 38.7559 49.0584V40.32C38.7559 39.2954 39.0593 38.3051 39.6335 37.4563L41.9755 33.9943C42.3055 33.5064 42.4799 32.9372 42.4799 32.3482V26.4175C42.4799 25.8175 42.9663 25.3311 43.5664 25.3311C44.1664 25.3311 44.6528 25.8175 44.6528 26.4175V32.3482C44.6528 33.3728 44.3494 34.3631 43.7752 35.2119L41.4332 38.674C41.1032 39.1618 40.9287 39.7311 40.9287 40.32V49.0584C40.9288 49.6583 40.4424 50.1449 39.8423 50.1449Z" fill="#FFF1AF"/>
<path d="M10.9867 16.7532C10.8024 16.7532 10.6156 16.7063 10.4445 16.6074L7.05712 14.6517C6.53751 14.3518 6.35934 13.6872 6.65943 13.1676C6.95939 12.6478 7.62384 12.4696 8.14359 12.7699L11.531 14.7256C12.0506 15.0255 12.2287 15.6901 11.9286 16.2097C11.7274 16.5583 11.3622 16.7532 10.9867 16.7532Z" fill="#FFE02F"/>
<path d="M66.3979 33.9202C66.2135 33.9202 66.0268 33.8733 65.8557 33.7744L62.4683 31.8187C61.9485 31.5186 61.7705 30.8542 62.0706 30.3346C62.3706 29.8148 63.0351 29.6366 63.5548 29.9369L66.9421 31.8925C67.4619 32.1926 67.6399 32.8571 67.3398 33.3767C67.1386 33.7253 66.7734 33.9202 66.3979 33.9202Z" fill="#FFE02F"/>
<path d="M8.94996 24.3585H5.03862C4.43857 24.3585 3.95215 23.8721 3.95215 23.272C3.95215 22.672 4.43857 22.1855 5.03862 22.1855H8.9501C9.55015 22.1855 10.0366 22.672 10.0366 23.272C10.0366 23.8721 9.55015 24.3585 8.94996 24.3585Z" fill="#FFE02F"/>
<path d="M68.9608 24.3585H65.0494C64.4493 24.3585 63.9629 23.8721 63.9629 23.272C63.9629 22.672 64.4493 22.1855 65.0494 22.1855H68.9608C69.5609 22.1855 70.0473 22.672 70.0473 23.272C70.0473 23.8721 69.5609 24.3585 68.9608 24.3585Z" fill="#FFE02F"/>
<path d="M7.60134 33.9202C7.22573 33.9202 6.86067 33.7253 6.65943 33.3767C6.35934 32.857 6.53751 32.1925 7.05712 31.8925L10.4445 29.9369C10.9641 29.6366 11.6287 29.8148 11.9286 30.3346C12.2287 30.8543 12.0506 31.5188 11.531 31.8187L8.14359 33.7744C7.97259 33.8733 7.7857 33.9202 7.60134 33.9202Z" fill="#FFE02F"/>
<path d="M63.0125 16.7532C62.637 16.7532 62.2718 16.5583 62.0706 16.2096C61.7705 15.69 61.9485 15.0256 62.4683 14.7255L65.8557 12.7698C66.3753 12.4697 67.0399 12.6478 67.3398 13.1675C67.6399 13.6871 67.4619 14.3516 66.9421 14.6517L63.5548 16.6073C63.3836 16.7062 63.1969 16.7532 63.0125 16.7532Z" fill="#FFE02F"/>
<path d="M45.5381 62.207H33.9355L33.252 62.8407L36.0013 67.2842C36.37 67.88 36.9588 68.2929 37.6262 68.4467H41.0814C41.9616 68.4467 42.779 67.9912 43.2421 67.2428L45.9332 62.8934L45.5381 62.207Z" fill="#8896E0"/>
<path d="M36.0481 67.2427L33.3569 62.8933L34.0973 62.207H28.8058L28.0654 62.8933L30.7567 67.2427C31.2198 67.9911 32.0372 68.4466 32.9174 68.4466H38.2089C37.3287 68.4466 36.5114 67.9911 36.0481 67.2427Z" fill="#6B7ED9"/>
<path d="M47.1681 49.0586H26.8307C26.1884 49.0586 25.668 49.5792 25.668 50.2213V52.5074C25.668 53.1495 26.1886 53.6701 26.8307 53.6701H47.1681C47.8102 53.6701 48.3308 53.1495 48.3308 52.5074V50.2213C48.3308 49.5792 47.8104 49.0586 47.1681 49.0586Z" fill="#DBEDFF"/>
<path d="M32.1942 52.5074V50.2213C32.1942 49.5792 32.7148 49.0586 33.3569 49.0586H26.8307C26.1886 49.0586 25.668 49.5792 25.668 50.2213V52.5074C25.668 53.1495 26.1886 53.6701 26.8307 53.6701H33.3569C32.7148 53.6701 32.1942 53.1495 32.1942 52.5074Z" fill="#B5DCFF"/>
<path d="M47.1681 58.2822H26.8307C26.1884 58.2822 25.668 58.8028 25.668 59.4449V61.7311C25.668 62.3731 26.1886 62.8937 26.8307 62.8937H47.1681C47.8102 62.8937 48.3308 62.3731 48.3308 61.7311V59.4449C48.3308 58.8028 47.8104 58.2822 47.1681 58.2822Z" fill="#DBEDFF"/>
<path d="M32.1942 61.7311V59.4449C32.1942 58.8028 32.7148 58.2822 33.3569 58.2822H26.8307C26.1886 58.2822 25.668 58.8028 25.668 59.4449V61.7311C25.668 62.3732 26.1886 62.8937 26.8307 62.8937H33.3569C32.7148 62.8937 32.1942 62.3732 32.1942 61.7311Z" fill="#B5DCFF"/>
<path d="M44.5256 26.9972H29.4736C28.5455 26.9972 27.7861 26.2378 27.7861 25.3097V24.749C27.7861 23.8209 28.5455 23.0615 29.4736 23.0615H44.5254C45.4536 23.0615 46.2129 23.8209 46.2129 24.749V25.3097C46.2131 26.2378 45.4537 26.9972 44.5256 26.9972Z" fill="#FFF1AF"/>
<path d="M35.4401 25.2586V24.7999C35.4401 23.8438 36.2224 23.0615 37.1785 23.0615H29.5245C28.5684 23.0615 27.7861 23.8438 27.7861 24.7999V25.2586C27.7861 26.2148 28.5684 26.9971 29.5245 26.9971H37.1785C36.2224 26.9971 35.4401 26.2148 35.4401 25.2586Z" fill="#FFEB7E"/>
<path d="M47.1681 53.5254H26.8307C26.1884 53.5254 25.668 54.046 25.668 54.6881V57.264C25.668 57.9061 26.1886 58.4267 26.8307 58.4267H47.1681C47.8102 58.4267 48.3308 57.9061 48.3308 57.264V54.6881C48.3308 54.046 47.8104 53.5254 47.1681 53.5254Z" fill="#B5DCFF"/>
<path d="M32.1942 57.264V54.6881C32.1942 54.046 32.7148 53.5254 33.3569 53.5254H26.8307C26.1886 53.5254 25.668 54.046 25.668 54.6881V57.264C25.668 57.9061 26.1886 58.4267 26.8307 58.4267H33.3569C32.7148 58.4269 32.1942 57.9063 32.1942 57.264Z" fill="#8BCAFF"/>
</g>
<defs>
<clipPath id="clip0_581_407">
<rect width="72" height="72" fill="white" transform="translate(1 1)"/>
</clipPath>
</defs>
</svg>
