<svg width="72" height="73" viewBox="0 0 72 73" fill="none" xmlns="http://www.w3.org/2000/svg">
<path d="M50.301 0.0966797C50.4685 0.0966797 50.6361 0.0966797 50.8131 0.0966797C51.2242 5.17427 49.2861 8.96824 46.9307 11.7157C44.6195 14.4442 41.4547 17.0905 36.336 16.689C35.9945 11.6841 37.9358 8.17151 40.2881 5.43036C42.4696 2.87576 46.4691 0.602542 50.301 0.0966797Z" fill="black"/>
<path d="M65.7957 52.9468C65.7957 52.9974 65.7957 53.0417 65.7957 53.0891C64.3571 57.4458 62.3052 61.1797 59.8012 64.6449C57.5153 67.7907 54.7141 72.0241 49.7124 72.0241C45.3904 72.0241 42.5197 69.2451 38.0902 69.1692C33.4047 69.0933 30.8279 71.493 26.5439 72.0969C26.0539 72.0969 25.5638 72.0969 25.0832 72.0969C21.9374 71.6416 19.3986 69.1502 17.5491 66.9054C12.0952 60.2723 7.88077 51.7043 7.09668 40.7397C7.09668 39.6648 7.09668 38.593 7.09668 37.518C7.42865 29.6708 11.2416 23.2906 16.3097 20.1986C18.9844 18.5545 22.6614 17.1539 26.7557 17.7799C28.5105 18.0518 30.3031 18.6525 31.8744 19.2469C33.3636 19.8192 35.2258 20.834 36.99 20.7803C38.1851 20.7455 39.3739 20.1227 40.5784 19.6832C44.1068 18.4091 47.5657 16.9484 52.1247 17.6345C57.6039 18.4628 61.4927 20.8973 63.8955 24.6533C59.2606 27.6031 55.5962 32.0484 56.2222 39.6395C56.7787 46.535 60.7876 50.5693 65.7957 52.9468Z" fill="black"/>
</svg>
