<?xml version="1.0" standalone="no"?>
<!DOCTYPE svg PUBLIC "-//W3C//DTD SVG 1.1//EN" "http://www.w3.org/Graphics/SVG/1.1/DTD/svg11.dtd" >
<svg xmlns="http://www.w3.org/2000/svg">
<metadata>Generated by IcoMoon</metadata>
<defs>
<font id="icomoon" horiz-adv-x="1024">
<font-face units-per-em="1024" ascent="960" descent="-64" />
<missing-glyph horiz-adv-x="1024" />
<glyph unicode="&#x20;" horiz-adv-x="512" d="" />
<glyph unicode="&#xe900;" glyph-name="apple-logo" d="M843.383 289.868c-28.311 40.612-42.457 86.366-42.457 137.225 0 46.358 13.35 88.83 39.995 127.388 14.359 20.922 37.75 45.121 70.16 72.613-21.33 26.248-42.662 46.761-64.009 61.534-38.562 26.662-82.258 39.993-131.074 39.993-29.121 0-64.616-6.971-106.453-20.929-40.207-13.948-69.544-20.929-87.996-20.929-13.956 0-42.259 6.149-84.925 18.463-43.075 12.309-79.385 18.459-108.923 18.459-70.563 0-128.819-29.542-174.766-88.612-46.358-59.898-69.542-136.613-69.542-230.153 0-99.282 30.16-202.451 90.464-309.529 61.123-106.254 122.868-159.389 185.226-159.389 20.922 0 48.001 6.977 81.226 20.925 33.236 13.527 62.362 20.306 87.39 20.306 26.658 0 57.637-6.563 92.917-19.685 37.329-13.116 66.054-19.681 86.153-19.681 52.51 0 105.235 40.207 158.15 120.613 34.454 51.279 59.687 102.558 75.687 153.843-36.512 11.085-68.916 36.93-97.225 77.544zM634.144 765.543c25.852 25.845 44.927 54.156 57.239 84.92 11.891 30.768 17.827 58.67 17.827 83.698 0 1.636-0.088 3.69-0.31 6.154-0.185 2.461-0.295 4.507-0.295 6.149-0.414 1.233-0.923 3.49-1.535 6.768s-1.123 5.535-1.543 6.768c-72.203-16.829-123.482-47.186-153.843-91.085-30.76-44.308-46.768-97.021-48.001-158.147 27.488 2.464 48.811 5.945 63.998 10.46 22.17 7.387 44.298 22.162 66.464 44.315z" />
<glyph unicode="&#xe901;" glyph-name="book" d="M1004.151 754.208c-0.067 0-0.134 0-0.198 0v0h-67.287v23.025c0.362 9.113-5.533 17.303-14.291 19.849-46.714 12.242-94.818 18.38-143.11 18.261-79.395 0-187.571-17.864-267.562-99.244-79.395 82.174-188.365 99.244-267.562 99.244-48.292 0.119-96.396-6.019-143.11-18.261-8.758-2.546-14.653-10.736-14.291-19.849v-22.826h-66.89c-10.962 0-19.849-8.887-19.849-19.849v-633.971c0-10.962 8.887-19.849 19.849-19.849 3.409 0.010 6.759 0.898 9.726 2.58 1.985 0.992 200.473 109.565 477.562 39.698h4.764c1.583-0.191 3.181-0.191 4.764 0 277.883 70.463 476.371-37.911 477.562-39.698 6.141-3.545 13.708-3.545 19.849 0 6.104 3.523 9.882 10.021 9.924 17.070v633.971c0 10.962-8.885 19.849-19.849 19.849zM39.698 132.146v582.364h47.439v-497.808c-0.124-10.962 8.662-19.948 19.623-20.072 1.072-0.012 2.144 0.062 3.203 0.223 41.062 6.27 82.519 9.587 124.055 9.924 57.537 0.997 114.833-7.657 169.509-25.605-123.472 14.931-248.713-1.945-363.829-49.027zM234.017 246.277c-36.103-0.082-72.163-2.402-107.978-6.947v522.222c38.646 8.609 78.11 13.003 117.703 13.1 74.235 0 176.654-17.070 247.713-97.259l0.595-494.434c-41.286 26.994-121.872 63.318-258.035 63.318zM531.75 677.393c71.059 79.395 173.479 97.259 247.713 97.259 39.591-0.117 79.055-4.508 117.703-13.1v-522.222c-35.614 4.588-71.476 6.974-107.382 7.146-135.369 0-216.154-36.323-258.035-63.318v494.235zM984.104 132.146c-115.361 47.21-240.89 64.089-364.623 49.027 54.934 18.013 112.503 26.669 170.303 25.605 41.797-0.233 83.521-3.483 124.849-9.726 10.837-1.645 20.958 5.808 22.603 16.646 0.161 1.059 0.236 2.131 0.223 3.203v497.61h47.439l-0.794-582.364z" />
<glyph unicode="&#xe902;" glyph-name="bookmark" d="M796.445 960h-568.891c-62.861 0-113.208-50.915-113.208-113.779l-0.568-910.221 398.221 170.667 398.221-170.667v910.221c0 62.864-50.915 113.779-113.776 113.779zM796.445 106.667l-284.445 123.733-284.445-123.733v739.555h568.888v-739.555z" />
<glyph unicode="&#xe903;" glyph-name="calendar-1" d="M136.533 823.467c-37.703 0-68.267-30.564-68.267-68.267v-750.933c0-37.703 30.564-68.267 68.267-68.267h750.933c37.703 0 68.267 30.564 68.267 68.267v750.933c0 37.703-30.564 68.267-68.267 68.267h-249.685l-78.148 66.901c8.418 21.356 1.593 45.704-16.698 59.574s-43.578 13.869-61.87 0c-18.291-13.869-25.116-38.218-16.698-59.574l-78.148-66.901zM921.6 755.2v-750.933c0-18.851-15.282-34.133-34.133-34.133h-750.933c-18.851 0-34.133 15.282-34.133 34.133v750.933c0 18.851 15.282 34.133 34.133 34.133h750.933c18.851 0 34.133-15.282 34.133-34.133zM512 925.867c9.426 0 17.067-7.641 17.067-17.067s-7.641-17.067-17.067-17.067-17.067 7.641-17.067 17.067 7.641 17.067 17.067 17.067zM486.707 864.546c15.588-9.268 34.997-9.268 50.586 0l47.991-41.079h-146.569zM136.533 652.8c0-18.851 15.282-34.133 34.133-34.133h68.267c18.851 0 34.133 15.282 34.133 34.133v68.267c0 18.851-15.282 34.133-34.133 34.133h-68.267c-18.851 0-34.133-15.282-34.133-34.133zM170.667 721.067h68.267v-68.267h-68.267zM785.067 618.667h68.267c18.851 0 34.133 15.282 34.133 34.133v68.267c0 18.851-15.282 34.133-34.133 34.133h-68.267c-18.851 0-34.133-15.282-34.133-34.133v-68.267c0-18.851 15.282-34.133 34.133-34.133zM785.067 721.067h68.267v-68.267h-68.267zM375.467 721.067h273.067c9.426 0 17.067 7.641 17.067 17.067s-7.641 17.067-17.067 17.067h-273.067c-9.426 0-17.067-7.641-17.067-17.067s7.641-17.067 17.067-17.067zM580.267 652.8c9.426 0 17.067 7.641 17.067 17.067s-7.641 17.067-17.067 17.067h-136.533c-9.426 0-17.067-7.641-17.067-17.067s7.641-17.067 17.067-17.067zM853.333 584.533h-682.667c-18.851 0-34.133-15.282-34.133-34.133v-512c0-18.851 15.282-34.133 34.133-34.133h682.667c18.851 0 34.133 15.282 34.133 34.133v512c0 18.851-15.282 34.133-34.133 34.133zM853.333 465.067h-68.267v85.333h68.267zM375.467 328.533h68.267v-68.267h-68.267zM341.333 260.267h-68.267v68.267h68.267zM546.133 362.667h-68.267v68.267h68.267zM580.267 430.933h68.267v-68.267h-68.267zM546.133 328.533v-68.267h-68.267v68.267zM443.733 362.667h-68.267v68.267h68.267zM443.733 226.133v-68.267h-68.267v68.267zM477.867 226.133h68.267v-68.267h-68.267zM580.267 226.133h68.267v-68.267h-68.267zM580.267 260.267v68.267h68.267v-68.267zM682.667 328.533h68.267v-68.267h-68.267zM682.667 362.667v68.267h68.267v-68.267zM682.667 465.067v85.333h68.267v-85.333zM648.533 465.067h-68.267v85.333h68.267zM546.133 465.067h-68.267v85.333h68.267zM443.733 465.067h-68.267v85.333h68.267zM341.333 465.067h-68.267v85.333h68.267zM341.333 430.933v-68.267h-68.267v68.267zM238.933 362.667h-68.267v68.267h68.267zM238.933 328.533v-68.267h-68.267v68.267zM238.933 226.133v-68.267h-68.267v68.267zM273.067 226.133h68.267v-68.267h-68.267zM341.333 123.733v-85.333h-68.267v85.333zM375.467 123.733h68.267v-85.333h-68.267zM477.867 123.733h68.267v-85.333h-68.267zM580.267 123.733h68.267v-85.333h-68.267zM682.667 123.733h68.267v-85.333h-68.267zM682.667 157.867v68.267h68.267v-68.267zM785.067 226.133h68.267v-68.267h-68.267zM785.067 260.267v68.267h68.267v-68.267zM785.067 362.667v68.267h68.267v-68.267zM238.933 550.4v-85.333h-68.267v85.333zM170.667 123.733h68.267v-85.333h-68.267zM785.067 38.4v85.333h68.267v-85.333z" />
<glyph unicode="&#xe904;" glyph-name="calendar" d="M527.8 134.6v0h-464.8c-18.2 0-33 14.8-33 33v546h771.4v-289.6c0-8.2 6.8-15 15-15s15 6.8 15 15v384.6c0 34.8-28.2 63-63 63h-545c-1.2 0-2.2-0.2-3.2-0.4v0.4h-157.2c-34.8 0.2-63-28.2-63-63v-641c0-34.8 28.2-63 63-63h464.8c8.2 0 15 6.8 15 15s-6.6 15-15 15zM30 808.6c0 18.2 14.8 33 33 33h157v0.4c1-0.2 2.2-0.4 3.2-0.4h545c18.2 0 33-14.8 33-33v-65.2h-771.2v65.2zM719.2 408v0c0 8.2-6.8 15-15 15-25 0-36.8 6.6-50.4 14.2-15.2 8.4-32.2 18-65 18s-49.8-9.6-65-18c-13.6-7.6-25.4-14.2-50.4-14.2s-36.8 6.6-50.4 14.2c-15.2 8.4-32.2 18-65 18s-49.8-9.6-65-18c-13.6-7.6-25.4-14.2-50.4-14.2s-36.8 6.6-50.4 14.2c-15.2 8.4-32.2 18-65 18-8.2 0-15-6.8-15-15s6.8-15 15-15c25 0 36.8-6.6 50.4-14.2 15.2-8.4 32.2-18 65-18s49.8 9.6 65 18c13.6 7.6 25.4 14.2 50.4 14.2s36.8-6.6 50.4-14.2c15.2-8.4 32.2-18 65-18s49.8 9.6 65 18c13.6 7.6 25.4 14.2 50.4 14.2s36.8-6.6 50.4-14.2c15.2-8.4 32.2-18 65-18 8.2 0 15 6.8 15 15zM1010.2 380l-45.4 45.4c-8.8 8.8-20.8 13.8-33.2 13.8s-24.4-4.8-33.2-13.8l-305.8-306c-7.8-7.8-13.4-17.4-16.2-28l-30.6-112.4c-1.4-5.2 0-10.8 3.8-14.6 2.8-2.8 6.6-4.4 10.6-4.4 1.4 0 2.6 0.2 4 0.6l112.4 30.6c10.6 2.8 20.2 8.6 28 16.2l305.8 305.8c8.8 8.8 13.8 20.8 13.8 33.2s-5 24.6-14 33.6zM581.4-3.6l20.2 74.4 54.2-54.2-74.4-20.2zM684.8 30.4l-24.2 24.2 38.2 38.2c5.8 5.8 5.8 15.4 0 21.2s-15.4 5.8-21.2 0l-38.2-38.2-24.2 24.2 259.6 259.6 24.2-24.2-173-173.2c-5.8-5.8-5.8-15.4 0-21.2 3-3 6.8-4.4 10.6-4.4s7.6 1.4 10.6 4.4l173.2 173.2 24.2-24.2-259.8-259.6zM989 334.6l-23.4-23.4-69.4 69.4 23.4 23.4c3.2 3.2 7.6 5 12 5 4.6 0 8.8-1.8 12-5l45.4-45.4c3.2-3.2 5-7.6 5-12s-1.8-8.8-5-12zM653.8 293v0c-15.2 8.4-32.2 18-65 18s-49.8-9.6-65-18c-13.6-7.6-25.4-14.2-50.4-14.2s-36.8 6.6-50.4 14.2c-15.2 8.4-32.2 18-65 18s-49.8-9.6-65-18c-13.6-7.6-25.4-14.2-50.4-14.2s-36.8 6.6-50.4 14.2c-15.2 8.4-32.2 18-65 18-8.2 0-15-6.8-15-15s6.8-15 15-15c25 0 36.8-6.6 50.4-14.2 15.2-8.4 32.2-18 65-18s49.8 9.6 65 18c13.6 7.6 25.4 14.2 50.4 14.2s36.8-6.6 50.4-14.2c15.2-8.4 32.2-18 65-18s49.8 9.6 65 18c13.6 7.6 25.4 14.2 50.4 14.2s36.8-6.6 50.4-14.2c3.2-1.8 6.6-3.6 10.2-5.4 7.4-3.8 16.4-0.8 20.2 6.6s0.8 16.4-6.6 20.2c-3.2 1.4-6.2 3-9.2 4.8zM127.2 569.4c25 0 36.8-6.6 50.4-14.2 15.2-8.4 32.2-18 65-18s49.8 9.6 65 18c13.6 7.6 25.4 14.2 50.4 14.2s36.8-6.6 50.4-14.2c15.2-8.4 32.2-18 65-18s49.8 9.6 65 18c13.6 7.6 25.4 14.2 50.4 14.2s36.8-6.6 50.4-14.2c15.2-8.4 32.2-18 65-18 8.2 0 15 6.8 15 15s-6.8 15-15 15v0c-25 0-36.8 6.6-50.4 14.2-15.2 8.4-32.2 18-65 18s-49.8-9.6-65-18c-13.6-7.6-25.4-14.2-50.4-14.2s-36.8 6.6-50.4 14.2c-15.2 8.4-32.2 18-65 18s-49.8-9.6-65-18c-13.6-7.6-25.4-14.2-50.4-14.2s-36.8 6.6-50.4 14.2c-15.2 8.4-32.2 18-65 18-8.2 0-15-6.8-15-15 0-8.4 6.8-15 15-15z" />
<glyph unicode="&#xe905;" glyph-name="close" d="M792.799 776.813c-130.74 0-233.972-106.002-233.972-236.743s107.376-236.743 238.117-236.743c1.308 0 3.281 0.177 4.589 0.2-51.693-41.164-116.62-65.969-187.687-65.969-32.696 0-59.008-26.512-59.008-59.186s21.036-59.186 53.733-59.186c232.065 0.022 415.43 188.818 415.43 420.883 0 0.044 0 0.089 0 0.155 0 130.674-100.505 236.587-231.201 236.587zM238.294 776.813c-130.74 0-234.149-106.002-234.149-236.743s107.288-236.743 238.050-236.743c1.308 0 3.236 0.177 4.544 0.2-51.693-41.164-116.642-65.969-187.709-65.969-32.696 0-59.030-26.512-59.030-59.186s21.369-59.186 54.065-59.186c232.065 0.022 415.762 188.818 415.762 420.883 0 0.044 0 0.089 0 0.155 0 130.674-100.837 236.587-231.533 236.587z" />
<glyph unicode="&#xe906;" glyph-name="comment-white-oval-bubble" d="M955.424 704.852c-45.711 56.185-107.807 100.569-186.28 133.141s-164.192 48.856-257.145 48.856c-92.952 0-178.668-16.284-257.143-48.856s-140.568-76.948-186.284-133.141c-45.717-56.189-68.572-117.424-68.572-183.71 0-57.14 17.233-110.679 51.712-160.581 34.479-49.904 81.615-91.815 141.431-125.718-4.195-15.233-9.147-29.706-14.863-43.432-5.714-13.712-10.856-24.952-15.427-33.719-4.575-8.754-10.76-18.473-18.576-29.131-7.804-10.672-13.708-18.199-17.709-22.582-3.997-4.383-10.568-11.61-19.716-21.712-9.137-10.089-15.045-16.672-17.709-19.72-0.386-0.194-1.907-1.897-4.573-5.152-2.664-3.232-4.001-4.842-4.001-4.842l-3.428-5.144c-1.907-2.842-2.764-4.657-2.576-5.41 0.192-0.769-0.188-2.672-1.141-5.712-0.955-3.054-0.857-5.342 0.284-6.863v-0.574c1.525-6.473 4.569-11.715 9.141-15.713 4.571-3.987 9.723-5.986 15.431-5.986h2.86c24.768 3.054 46.48 7.231 65.143 12.567 99.813 25.521 187.435 71.616 262.859 138.289 28.569-3.048 56.189-4.569 82.852-4.569 92.952 0 178.672 16.282 257.145 48.864 78.473 32.576 140.568 76.944 186.28 133.131 45.719 56.185 68.576 117.426 68.576 183.712 0.002 66.276-22.853 127.519-68.572 183.708zM891.137 375.424c-39.821-44.945-93.534-80.665-161.151-107.136-67.617-26.465-140.288-39.713-218.001-39.713-23.235 0-47.995 1.521-74.28 4.575l-32.572 3.418-24.572-21.72c-46.85-41.146-99.236-73.712-157.14-97.713 17.521 30.85 30.854 63.616 40.001 98.276l15.427 54.864-49.712 28.561c-49.524 28.207-87.9 61.631-115.144 100.301-27.24 38.658-40.854 79.334-40.854 121.997 0 52.192 19.905 100.759 59.712 145.712 39.819 44.949 93.526 80.665 161.147 107.14 67.621 26.477 140.28 39.727 217.999 39.727 77.713 0 150.37-13.244 217.987-39.719 67.615-26.477 121.328-62.191 161.151-107.14 39.809-44.953 59.712-93.522 59.712-145.71s-19.902-100.767-59.709-145.72z" />
<glyph unicode="&#xe907;" glyph-name="connections" d="M611.12 377.394c-7.812 7.81-20.472 7.81-28.284 0l-0.226-0.226c-7.81-7.81-7.81-20.474 0-28.286 3.906-3.904 9.024-5.858 14.142-5.858s10.236 1.954 14.142 5.858l0.226 0.226c7.81 7.81 7.81 20.474 0 28.286zM611.008 546.996c-54.59 54.586-143.411 54.584-198.001 0-54.588-54.59-54.588-143.409 0-197.999 26.396-26.396 62.302-40.978 99.172-40.976 7.306 0 14.656 0.572 21.972 1.74 10.908 1.74 18.338 11.994 16.598 22.902s-12.026 18.334-22.902 16.598c-31.62-5.046-63.964 5.432-86.554 28.022-18.888 18.888-29.292 44.002-29.292 70.714s10.402 51.826 29.292 70.714c38.99 38.992 102.438 38.996 141.431 0 23.696-23.694 33.91-57.496 27.326-90.42-2.166-10.832 4.858-21.368 15.69-23.534 10.826-2.172 21.368 4.858 23.534 15.69 9.21 46.070-5.094 93.376-38.266 126.55zM512 960c-40.804 0-74-33.196-74-74 0-33.874 22.884-62.482 54-71.232v-150.741c0-11.044 8.956-20 20-20s20 8.956 20 20v150.741c31.116 8.748 54 37.358 54 71.232 0 40.804-33.196 74-74 74zM512.27 852.014c-0.090 0-0.18 0.014-0.27 0.014s-0.18-0.012-0.27-0.014c-18.622 0.148-33.73 15.33-33.73 33.986 0 18.748 15.252 34 34 34s34-15.252 34-34c0-18.656-15.108-33.838-33.73-33.986zM532 81.231v150.767c0 11.044-8.956 20-20 20s-20-8.956-20-20v-150.767c-31.116-8.748-54-37.358-54-71.232 0-40.804 33.196-74 74-74s74 33.196 74 74c0 33.874-22.884 62.484-54 71.232zM512-24c-18.748 0-34 15.252-34 34s15.252 34 34 34c18.748 0 34-15.252 34-34s-15.252-34-34-34zM295.999 468h-150.767c-8.75 31.116-37.358 54-71.232 54-40.804 0-74-33.196-74-74s33.196-74 74-74c33.874 0 62.482 22.884 71.232 54h150.767c11.044 0 20 8.956 20 20s-8.956 20-20 20zM74 414c-18.748 0-34 15.252-34 34s15.252 34 34 34 34-15.252 34-34c0-18.748-15.252-34-34-34zM950 522c-33.874 0-62.482-22.884-71.232-54h-150.741c-11.044 0-20-8.956-20-20s8.956-20 20-20h150.741c8.75-31.116 37.358-54 71.232-54 40.804 0 74 33.196 74 74s-33.196 74-74 74zM950 414c-18.658 0-33.838 15.106-33.986 33.73 0 0.092 0.014 0.18 0.014 0.27s-0.012 0.18-0.014 0.27c0.148 18.622 15.33 33.73 33.986 33.73 18.748 0 34-15.252 34-34s-15.252-34-34-34zM373.409 309.407c-7.814 7.808-20.474 7.808-28.286 0l-106.592-106.592c-10.944 6.17-23.336 9.47-36.244 9.47-19.766 0-38.348-7.698-52.326-21.674-28.852-28.852-28.852-75.796 0.002-104.652 14.426-14.426 33.376-21.638 52.324-21.638 18.952 0 37.9 7.212 52.326 21.638 13.976 13.978 21.676 32.56 21.676 52.326 0 12.908-3.302 25.3-9.472 36.244l106.592 106.592c7.81 7.81 7.81 20.474 0 28.286zM226.327 114.245c-13.258-13.258-34.828-13.252-48.082-0.002-13.256 13.258-13.256 34.828 0 48.084 6.422 6.424 14.96 9.958 24.042 9.958 9.078 0 17.61-3.532 24.032-9.95 0.002-0.002 0.006-0.006 0.008-0.010 0.004-0.004 0.008-0.006 0.010-0.010 6.416-6.42 9.95-14.954 9.95-24.032 0.002-9.076-3.536-17.616-9.96-24.038zM874.037 810.041c-28.852 28.852-75.8 28.85-104.648 0-13.978-13.976-21.678-32.56-21.678-52.326 0-12.906 3.302-25.3 9.472-36.244l-106.572-106.572c-7.81-7.81-7.81-20.474 0-28.286 3.908-3.904 9.024-5.858 14.144-5.858s10.236 1.954 14.142 5.858l106.572 106.572c10.944-6.17 23.336-9.47 36.244-9.47 19.766 0 38.348 7.698 52.326 21.674 13.976 13.976 21.674 32.56 21.674 52.326s-7.698 38.35-21.676 52.326zM845.755 733.673c-6.422-6.424-14.96-9.958-24.042-9.958-8.984 0-17.426 3.47-23.826 9.762-0.068 0.070-0.126 0.148-0.196 0.216-0.070 0.070-0.146 0.128-0.216 0.196-6.292 6.398-9.764 14.84-9.764 23.826 0 9.080 3.538 17.618 9.96 24.040 6.628 6.628 15.336 9.942 24.042 9.942s17.412-3.312 24.042-9.942c13.258-13.256 13.258-34.826 0-48.082zM874.039 190.613c-13.978 13.976-32.56 21.674-52.326 21.674-12.908 0-25.3-3.302-36.244-9.47l-106.572 106.572c-7.812 7.808-20.472 7.808-28.286 0-7.81-7.81-7.81-20.474 0-28.286l106.572-106.572c-6.17-10.944-9.472-23.336-9.472-36.244 0-19.766 7.7-38.348 21.676-52.326 14.426-14.426 33.376-21.638 52.324-21.638 18.952 0 37.9 7.212 52.328 21.64 28.852 28.854 28.852 75.798 0 104.65zM845.757 114.245c-13.262-13.258-34.83-13.254-48.084 0-6.424 6.422-9.96 14.96-9.96 24.042 0 8.984 3.472 17.426 9.764 23.826 0.070 0.068 0.148 0.126 0.216 0.196 0.070 0.070 0.128 0.146 0.196 0.218 6.398 6.29 14.84 9.76 23.826 9.76 9.080 0 17.62-3.536 24.042-9.958 13.254-13.258 13.254-34.828 0-48.084zM373.407 614.877l-106.592 106.592c6.17 10.944 9.472 23.338 9.472 36.244 0 19.766-7.7 38.35-21.676 52.326-28.852 28.85-75.796 28.854-104.652 0-13.976-13.976-21.674-32.56-21.674-52.326s7.698-38.35 21.674-52.326c13.98-13.976 32.562-21.674 52.328-21.674 12.908 0 25.3 3.302 36.244 9.47l106.592-106.592c3.906-3.904 9.024-5.858 14.142-5.858s10.236 1.954 14.142 5.858c7.81 7.81 7.81 20.474 0 28.286zM226.335 733.681c-0.002-0.002-0.006-0.006-0.010-0.008-0.004-0.004-0.006-0.008-0.010-0.010-6.42-6.416-14.954-9.948-24.032-9.948-9.080 0-17.62 3.536-24.042 9.958-13.254 13.256-13.254 34.826 0.002 48.082 6.63 6.628 15.336 9.942 24.042 9.942s17.414-3.314 24.042-9.942c0 0 0 0 0.002 0 6.422-6.422 9.958-14.958 9.958-24.042 0-9.078-3.534-17.61-9.952-24.032z" />
<glyph unicode="&#xe908;" glyph-name="donate" d="M822.863 958.453c-2.699 1.034-5.5 1.547-8.317 1.547-5.108 0.002-10.204-1.673-14.363-4.955-0.818-0.659-86.681-67.455-155.546-89.228-16.364-5.16-39.41-11.592-65.865-18.999-126.318-35.319-233.773-67.455-269.408-103.091-39.742-39.742-65.838-196.361-74.245-254.020-133.036-21.271-235.119-135.495-235.119-274.435 0-153.999 125.273-279.272 279.272-279.272s279.272 124.272 279.272 278.273c0 33.829-6.469 66.825-18.543 98.511 41.42 23.245 83.961 39.38 113.86 42.238 6.5 0.613 12.683 0.886 18.772 1.183 33.591 1.569 68.363 3.181 132.318 49.704 34.364 24.977 54.137 57.591 75.092 92.090 28.728 47.454 58.501 96.499 132.364 139.318 7.183 4.159 11.592 11.841 11.592 20.136 0 221.456-199.136 300.229-201.137 301.001zM279.272-18.455c-128.319 0-232.728 104.409-232.728 232.728s104.411 232.728 232.728 232.728c25.372 0 50.433-4.569 74.297-12.604-18.563-14.522-37.071-31.872-52.187-50.448-2.616 9.993-11.291 17.507-22.111 17.507-12.864 0-23.273-10.409-23.273-23.273v-24.449c-39.373-5.705-69.818-39.351-69.818-80.278 0-44.908 36.545-81.454 81.454-81.454h23.273c19.228 0 34.909-15.659 34.909-34.909s-15.683-34.909-34.909-34.909h-81.454c-12.864 0-23.273-10.409-23.273-23.273s10.409-23.273 23.273-23.273h46.545v-23.273c0-12.864 10.409-23.273 23.273-23.273s23.273 10.409 23.273 23.273v24.449c39.373 5.705 69.818 39.351 69.818 80.278 0 44.908-36.545 81.454-81.454 81.454h-23.273c-19.228 0-34.909 15.659-34.909 34.909s15.683 34.909 34.909 34.909h1.080c0.589-15.188 6.384-28.737 17.376-39.726 21.319-21.295 48.273-29.865 77.046-29.865 46.169 0 96.971 22.139 136.686 49.13 8.057-23.821 12.177-48.491 12.177-73.63-0.002-128.317-104.411-232.725-232.73-232.725zM840.226 522.136c-19.228-31.704-35.819-59.090-62.636-78.591-52.682-38.319-76.728-39.432-107.136-40.841-6.818-0.319-13.728-0.659-21.046-1.364-47.136-4.477-115.409-33.454-173.908-73.817-51.956-35.932-123.137-59.341-156.499-25.977-2.727 2.727-5.001 6.41-3.319 14.749 7.409 36.454 75.227 95.295 111.953 110.136 44.136 17.819 149.546 66.068 175.682 129.022 2.954 7.159 2.182 15.364-2.136 21.818-15.5 23.273-39.772 33.886-57.454 41.66-5.409 2.363-12.545 5.114-12.591 5.228-6.591 9.567-19.318 12.705-29.546 7.569-14.182-7.091-52.045-18-65.454-21.613-6.591-1.774-12.092-6.364-15-12.545l-55.835-118.163c-26.607 8.616-54.377 13.562-82.521 13.92 13.069 84.742 37.455 195.454 59.492 217.492 29.908 29.887 167.090 68.249 249.045 91.182 27 7.569 50.592 14.16 67.318 19.455 61.817 19.501 131.908 68.454 158.908 88.385 37.182-18.34 153.318-87.637 159.637-239.387-75.726-47.341-109.545-103.091-136.955-148.318zM412.59 470.569l46.091 97.501c12.545 3.567 33.545 9.818 49.909 16.091 4.955-2.819 10.501-5.249 16.455-7.841 9.591-4.228 20.136-8.841 28.318-15.295-24.273-34.025-88.137-68.956-140.773-90.456z" />
<glyph unicode="&#xe909;" glyph-name="download" d="M765.12 493.248c-5.184 11.456-16.576 18.752-29.12 18.752h-128v416c0 17.664-14.336 32-32 32h-128c-17.664 0-32-14.336-32-32v-416h-128c-12.544 0-23.936-7.36-29.12-18.752-5.248-11.456-3.2-24.832 5.056-34.304l224-256c6.080-6.976 14.848-10.944 24.064-10.944s17.984 4.032 24.064 10.944l224 256c8.32 9.408 10.24 22.848 5.056 34.304zM864 256v-192h-704v192h-128v-256c0-35.392 28.672-64 64-64h832c35.392 0 64 28.608 64 64v256h-128z" />
<glyph unicode="&#xe90a;" glyph-name="facebook-logo" d="M767.965 959.787l-132.79 0.213c-149.185 0-245.595-98.913-245.595-252.008v-116.192h-133.514c-11.537 0-20.88-9.353-20.88-20.891v-168.35c0-11.537 9.353-20.88 20.88-20.88h133.514v-424.8c0-11.537 9.343-20.88 20.88-20.88h174.198c11.537 0 20.88 9.353 20.88 20.88v424.8h156.109c11.537 0 20.88 9.343 20.88 20.88l0.064 168.35c0 5.54-2.205 10.845-6.115 14.765s-9.236 6.125-14.776 6.125h-156.163v98.498c0 47.342 11.282 71.375 72.952 71.375l89.453 0.032c11.527 0 20.869 9.353 20.869 20.88v156.322c0 11.516-9.332 20.859-20.848 20.88z" />
<glyph unicode="&#xe90b;" glyph-name="fast-forward-double-right-arrows" d="M430.12 779.386l331.391-331.386-331.391-331.386 131.242-131.247 462.638 462.633-462.638 462.633zM131.242-14.633l462.633 462.633-462.633 462.633-131.242-131.247 331.386-331.386-331.386-331.386z" />
<glyph unicode="&#xe90c;" glyph-name="favourites-filled-star-symbol" d="M979.438 602.76l-281.99 26.665c-17.776 1.616-33.137 12.928-40.401 29.897l-101.002 244.829c-16.16 40.401-73.538 40.401-89.698 0l-100.194-244.829c-6.464-16.968-22.624-28.281-40.401-29.897l-281.998-26.665c-42.017-4.040-58.985-56.561-27.473-84.842l212.508-186.652c13.736-12.12 19.392-29.897 15.352-47.673l-63.833-261.789c-9.696-41.217 34.745-75.146 71.914-53.337l235.133 138.179c15.352 8.888 33.937 8.888 49.289 0l235.141-138.179c37.169-21.808 81.61 11.312 71.905 53.337l-63.025 261.789c-4.040 17.776 1.616 35.553 15.352 47.673l212.508 186.652c30.705 28.281 12.928 80.802-29.089 84.842z" />
<glyph unicode="&#xe90d;" glyph-name="global" d="M929.327 743.546c-0.017 0.33-0.054 0.66-0.109 0.988-1.28 1.828-2.853 3.402-4.171 5.194-9.56 13.024-19.681 25.559-30.362 37.607-2.926 3.292-5.854 6.548-8.853 9.768-10.998 11.778-22.534 23.010-34.606 33.691-2.231 1.976-4.317 4.023-6.548 5.963-29.751 25.488-62.328 47.484-97.088 65.554-1.391 0.731-2.853 1.353-4.281 2.086-15.48 7.867-31.353 14.938-47.557 21.182-3.659 1.316-6.988 2.561-10.462 3.659-14.413 5.194-29.046 9.742-43.898 13.645-4.39 1.17-8.78 2.377-13.242 3.402-14.633 3.402-29.265 6-44.228 8.122-4.536 0.658-8.998 1.537-13.572 2.086-38.537 4.683-77.499 4.683-116.039 0-4.572-0.549-9.035-1.428-13.572-2.086-14.961-2.122-29.741-4.72-44.228-8.122-4.463-1.025-8.853-2.231-13.242-3.402-14.951-3.901-29.582-8.45-43.898-13.645-3.659-1.243-6.988-2.489-10.462-3.659-16.202-6.244-32.077-13.313-47.557-21.182-1.428-0.731-2.889-1.353-4.281-2.086-34.876-18.050-67.562-40.044-97.419-65.554-2.231-1.938-4.317-3.987-6.548-5.963-12.194-10.73-23.73-21.962-34.606-33.691-2.999-3.219-5.927-6.475-8.853-9.768-10.707-12.023-20.828-24.558-30.362-37.605-1.316-1.792-2.889-3.365-4.171-5.194-0.167-0.319-0.315-0.649-0.439-0.988-126.178-176.83-126.178-414.262 0-591.090 0.124-0.339 0.27-0.669 0.439-0.988 1.28-1.828 2.853-3.402 4.171-5.194 9.536-13.024 19.656-25.559 30.362-37.607 2.926-3.292 5.854-6.548 8.853-9.768 11.024-11.778 22.558-23.010 34.606-33.691 2.231-1.976 4.317-4.023 6.548-5.963 29.751-25.488 62.328-47.484 97.088-65.554 1.391-0.731 2.853-1.353 4.281-2.086 15.48-7.867 31.353-14.938 47.557-21.182 3.659-1.316 6.988-2.561 10.462-3.659 14.413-5.194 29.046-9.742 43.898-13.645 4.39-1.17 8.78-2.377 13.242-3.402 14.633-3.402 29.265-6 44.228-8.122 4.536-0.658 8.998-1.537 13.572-2.086 38.537-4.683 77.499-4.683 116.039 0 4.572 0.549 9.035 1.428 13.572 2.086 14.961 2.122 29.741 4.72 44.228 8.122 4.463 1.025 8.853 2.231 13.242 3.402 14.974 3.901 29.608 8.45 43.898 13.645 3.659 1.243 6.988 2.489 10.462 3.659 16.202 6.244 32.077 13.313 47.557 21.182 1.428 0.731 2.889 1.353 4.281 2.086 34.761 18.072 67.337 40.066 97.088 65.554 2.231 1.94 4.317 3.987 6.548 5.963 12.194 10.707 23.73 21.936 34.606 33.691 2.999 3.219 5.927 6.475 8.853 9.768 10.707 12.048 20.828 24.583 30.362 37.607 1.316 1.792 2.889 3.365 4.171 5.194 0.167 0.319 0.315 0.649 0.439 0.988 126.178 176.826 126.178 414.258 0 591.088zM887.587 674.331c34.986-57.619 56.112-122.574 61.713-189.751h-219.125c-2.684 43.59-9.543 86.819-20.485 129.097 61.897 11.592 121.809 32.019 177.897 60.654zM605.247 876.887c2.049-0.476 4.023-1.134 6.072-1.61 13.097-3.074 26.084-6.585 38.778-10.975 1.94-0.658 3.841-1.428 5.745-2.122 12.584-4.39 24.984-9.256 37.131-14.633 2.122-0.988 4.208-2.086 6.33-3.074 11.633-5.537 22.997-11.523 34.094-17.962l7.316-4.426c10.535-6.439 20.779-13.328 30.729-20.669 2.561-1.865 5.121-3.659 7.646-5.706 9.755-7.316 19.096-15.156 28.022-23.522 2.341-2.122 4.756-4.208 7.061-6.403 9.365-8.889 18.29-18.29 26.924-28.022 1.097-1.28 2.268-2.45 3.365-3.659-49.533-23.606-102.008-40.462-156.021-50.116-25.023 68.788-58.077 134.383-98.477 195.42 5.080-0.913 10.276-1.425 15.287-2.521zM367.172 484.583c2.885 39.581 9.624 78.788 20.121 117.061 41.448-4.924 83.152-7.365 124.891-7.316 41.778 0.013 83.52 2.516 125.001 7.5 10.477-38.336 17.18-77.604 20.009-117.246h-290.022zM657.194 411.417c-2.885-39.581-9.624-78.788-20.121-117.061-41.448 4.924-83.152 7.365-124.891 7.316-41.776 0.047-83.516-2.394-125.001-7.316-10.467 38.276-17.167 77.482-20.011 117.061h290.024zM512.182 863.13c41.63-59.003 75.87-122.889 101.954-190.227-33.865-3.597-67.897-5.404-101.954-5.414-34.019 0.041-68.014 1.858-101.845 5.451 26.116 67.292 60.315 131.157 101.845 190.19zM183.312 737.801c8.597 9.731 17.559 19.133 26.924 28.022 2.304 2.195 4.72 4.281 7.061 6.403 9.024 8.218 18.365 16.059 28.022 23.522 2.525 1.94 5.084 3.659 7.646 5.706 9.95 7.316 20.194 14.207 30.729 20.669l7.316 4.426c11.097 6.486 22.461 12.475 34.094 17.962 2.122 0.988 4.208 2.086 6.33 3.074 12.145 5.487 24.547 10.353 37.131 14.633 1.901 0.694 3.659 1.464 5.742 2.122 12.694 4.244 25.608 7.755 38.778 10.975 2.049 0.476 4.023 1.134 6.109 1.573 5.011 1.097 10.207 1.61 15.292 2.525-40.417-61.048-73.482-126.656-98.516-195.457-54.013 9.654-106.49 26.51-156.021 50.116 1.097 1.278 2.268 2.448 3.365 3.727zM136.779 674.331c56.075-28.632 115.975-49.060 177.861-60.654-10.93-42.28-17.778-85.509-20.449-129.097h-219.125c5.603 67.176 26.729 132.132 61.713 189.751zM136.779 221.667c-34.986 57.619-56.112 122.574-61.713 189.751h219.125c2.684-43.59 9.543-86.819 20.485-129.097-61.897-11.59-121.809-32.017-177.897-60.654zM419.119 19.113c-2.049 0.476-4.023 1.134-6.072 1.61-13.097 3.074-26.084 6.585-38.778 10.975-1.94 0.658-3.841 1.428-5.745 2.122-12.584 4.39-24.984 9.256-37.131 14.633-2.122 0.988-4.208 2.086-6.33 3.074-11.633 5.537-22.997 11.523-34.094 17.962l-7.316 4.426c-10.535 6.439-20.779 13.328-30.729 20.669-2.561 1.865-5.121 3.659-7.646 5.706-9.755 7.316-19.096 15.156-28.022 23.522-2.341 2.122-4.756 4.208-7.061 6.403-9.365 8.889-18.29 18.29-26.924 28.022-1.097 1.28-2.268 2.45-3.365 3.659 49.533 23.606 102.008 40.462 156.021 50.116 25.023-68.788 58.077-134.383 98.477-195.42-5.082 0.911-10.276 1.423-15.287 2.521zM512.182 32.868c-41.63 59.003-75.87 122.889-101.954 190.227 67.749 7.292 136.085 7.292 203.833 0l-0.036-0.036c-26.112-67.29-60.311-131.155-101.843-190.19zM841.055 158.199c-8.597-9.731-17.559-19.133-26.924-28.022-2.304-2.195-4.72-4.281-7.061-6.403-9.024-8.244-18.365-16.085-28.022-23.522-2.525-1.938-5.084-3.841-7.646-5.706-9.95-7.316-20.194-14.207-30.729-20.669l-7.316-4.426c-11.073-6.463-22.438-12.449-34.094-17.962-2.122-0.988-4.208-2.086-6.33-3.074-12.145-5.487-24.547-10.353-37.131-14.633-1.901-0.694-3.659-1.464-5.742-2.122-12.694-4.244-25.608-7.755-38.778-10.975-2.049-0.476-4.023-1.134-6.109-1.573-5.011-1.097-10.207-1.61-15.292-2.525 40.4 61.037 73.457 126.632 98.477 195.42 54.013-9.654 106.49-26.51 156.021-50.116-1.059-1.241-2.229-2.411-3.327-3.691zM887.587 221.667c-56.075 28.632-115.975 49.060-177.861 60.654 10.93 42.28 17.778 85.509 20.449 129.097h219.125c-5.603-67.174-26.729-132.13-61.713-189.751z" />
<glyph unicode="&#xe90e;" glyph-name="house-black-silhouette-without-door" d="M1011.172 459.992c18.562 20.415 16.77 51.705-4.002 69.87l-457.639 400.437c-20.772 18.165-54.075 17.785-74.41-0.858l-459.195-420.928c-20.335-18.643-21.333-49.893-2.21-69.77l11.513-11.99c19.1-19.878 49.973-22.248 68.912-5.277l34.318 30.733v-449.932c0-27.605 22.368-49.953 49.953-49.953h178.995c27.585 0 49.953 22.348 49.953 49.953v314.771h228.311v-314.771c-0.397-27.585 19.34-49.933 46.925-49.933h189.69c27.585 0 49.953 22.348 49.953 49.953v443.577c0 0 9.48-8.305 21.173-18.582 11.673-10.258 36.19-2.033 54.753 18.402l13.008 14.3z" />
<glyph unicode="&#xe90f;" glyph-name="i-know" d="M783.263 669.231c-20.086 0-38.659-6.572-53.709-17.666-14.747 30.184-45.759 51.028-81.555 51.028-20.139 0-38.758-6.605-53.828-17.751-14.793 30.058-45.735 50.797-81.436 50.797-16.178 0-31.384-4.257-44.548-11.71v145.358c0.003 50.019-40.693 90.712-90.712 90.712s-90.712-40.693-90.712-90.712v-336.63c-10.285 6.048-21.768 10.051-33.95 11.684-24.033 3.222-47.849-3.106-67.111-17.807-19.258-14.704-31.641-36.030-34.86-60.044s3.106-47.849 17.811-67.108l152.481-199.71c17.778-33.274 42.091-63.16 72.14-87.975l0.013-152.613c0-12.749 10.335-23.084 23.084-23.084h327.99c12.749 0 23.084 10.335 23.084 23.084l0.013 152.613c67.843 56.027 106.518 137.859 106.518 226.3v240.526c0.003 50.016-40.693 90.709-90.712 90.709zM205.349 427.399c-7.219 9.458-10.328 21.161-8.745 32.954s7.66 22.263 17.118 29.484c9.454 7.219 21.161 10.335 32.954 8.745 11.792-1.58 22.266-7.66 29.484-17.115l10.602-13.887v-129.589c0-6.015 0.195-11.997 0.551-17.946l-81.964 107.352zM827.812 337.993c0-77.799-35.519-149.533-97.443-196.808-5.718-4.366-9.075-11.149-9.075-18.345l-0.010-140.672h-281.829l-0.010 140.672c0 7.196-3.357 13.979-9.075 18.345-61.924 47.275-97.44 119.010-97.44 196.808v531.295c0 24.564 19.984 44.545 44.548 44.545 24.561 0 44.545-19.984 44.545-44.545v-387.058c0-12.749 10.335-23.084 23.084-23.084s23.084 10.335 23.084 23.084v162.697c0 24.564 19.984 44.548 44.548 44.548s44.548-19.984 44.548-44.548v-166.025c0-12.749 10.335-23.084 23.084-23.084s23.084 10.335 23.084 23.084v132.979c0 24.564 19.984 44.545 44.548 44.545s44.548-19.984 44.548-44.545v-23.595c0-1.115 0.106-2.2 0.257-3.271-0.152-2.15-0.257-4.31-0.257-6.496v-96.285c0-12.749 10.335-23.084 23.084-23.084s23.084 10.335 23.084 23.084v96.285c0 24.564 19.984 44.548 44.548 44.548s44.548-19.984 44.548-44.548v-240.526z" />
<glyph unicode="&#xe910;" glyph-name="invest" d="M392.533 772.905c0.006-12.388-1.476-24.732-4.416-36.766l33.167-8.117c3.578 14.692 5.385 29.762 5.382 44.883v0.7l-34.133-0.7zM374.999 701.562c-5.775-10.963-12.841-21.195-21.050-30.475l25.566-22.618c10.022 11.328 18.645 23.821 25.683 37.207l-30.199 15.885zM151.851 646.362l-19.366-28.117c12.469-8.585 25.926-15.635 40.083-21.001l12.066 31.934c-11.584 4.382-22.592 10.153-32.783 17.184zM326.251 646.528c-10.172-7.049-21.163-12.834-32.734-17.225l12.134-31.917c14.146 5.382 27.588 12.461 40.034 21.075l-19.435 28.066zM260.949 959.362l-3.966-33.899c12.297-1.438 24.373-4.363 35.966-8.708l12 31.949c-14.18 5.321-28.956 8.898-44 10.658zM215.767 959.221c-15.029-1.852-29.775-5.523-43.917-10.933l12.201-31.883c11.554 4.425 23.603 7.424 35.883 8.932l-4.166 33.884zM72.467 859.778c-7.008-13.421-12.363-27.642-15.951-42.351l33.167-8.083c2.933 12.030 7.315 23.659 13.050 34.633l-30.266 15.802zM131.868 927.13c-12.41-8.644-23.74-18.741-33.749-30.076l25.6-22.583c8.194 9.293 17.478 17.566 27.65 24.642l-19.501 28.017zM404.849 860.796l-30.133-16.017c5.796-10.923 10.24-22.511 13.233-34.507l33.133 8.25c-3.671 14.699-9.122 28.894-16.233 42.274zM103.017 701.289l-30.199-15.934c7.072-13.376 15.729-25.852 25.783-37.158l25.5 22.684c-8.228 9.25-15.307 19.46-21.084 30.409zM85.316 772.595l-34.133-0.083c0.028-15.125 1.875-30.191 5.5-44.875l33.133 8.201c-2.959 12.030-4.469 24.369-4.499 36.757zM345.084 927.772l-19.332-28.134c10.212-7.021 19.546-15.241 27.799-24.484l25.466 22.733c-10.078 11.281-21.47 21.314-33.933 29.886zM678.001 927.13c-12.41-8.644-23.74-18.741-33.749-30.076l25.6-22.583c8.194 9.293 17.478 17.566 27.65 24.642l-19.501 28.017zM618.601 859.778c-7.008-13.421-12.363-27.642-15.951-42.351l33.167-8.083c2.933 12.030 7.315 23.659 13.050 34.633l-30.266 15.802zM891.217 927.772l-19.332-28.134c10.212-7.021 19.546-15.241 27.799-24.484l25.466 22.733c-10.078 11.281-21.47 21.314-33.933 29.886zM938.667 772.905c0.006-12.388-1.476-24.732-4.416-36.766l33.167-8.117c3.578 14.692 5.385 29.762 5.382 44.883v0.7l-34.133-0.7zM807.083 959.362l-3.966-33.899c12.297-1.438 24.373-4.363 35.966-8.708l12 31.949c-14.18 5.321-28.956 8.898-44 10.658zM761.901 959.221c-15.027-1.852-29.775-5.523-43.917-10.933l12.201-31.883c11.554 4.425 23.603 7.424 35.883 8.932l-4.166 33.884zM921.133 701.562c-5.775-10.963-12.841-21.195-21.050-30.475l25.566-22.618c10.022 11.328 18.645 23.821 25.683 37.207l-30.199 15.885zM950.982 860.796l-30.133-16.017c5.796-10.923 10.24-22.511 13.233-34.507l33.133 8.25c-3.671 14.699-9.122 28.894-16.233 42.274zM697.984 646.362l-19.366-28.117c12.469-8.585 25.926-15.635 40.083-21.001l12.066 31.934c-11.584 4.382-22.592 10.153-32.783 17.184zM872.384 646.528c-10.172-7.049-21.163-12.834-32.734-17.225l12.134-31.917c14.146 5.382 27.588 12.461 40.034 21.075l-19.435 28.066zM649.15 701.289l-30.199-15.934c7.072-13.376 15.729-25.852 25.783-37.158l25.5 22.684c-8.228 9.248-15.307 19.458-21.084 30.409zM631.45 772.595l-34.133-0.083c0.028-15.125 1.875-30.191 5.5-44.875l33.133 8.201c-2.959 12.030-4.469 24.369-4.499 36.757zM1006.942 209.705c-0.002 0-0.006 0-0.009 0h-72.708c4.457 3.322 8.674 6.95 12.625 10.859 29.999 29.749 43.667 75.134 42.999 142.807-0.094 9.235-7.516 16.723-16.751 16.9-78.801 1.557-130.534-12.826-162.867-44.9-2.857-2.923-5.559-5.99-8.1-9.195v71.501c55.748 1.212 93.732 13.156 118.167 37.419 24.717 24.516 35.966 61.391 35.418 116.043-0.096 9.239-7.529 16.725-16.766 16.892-65.734 1.193-109.15-10.758-136.149-37.583-0.239-0.237-0.431-0.516-0.668-0.755v125.111c65.303 9.425 110.601 70.005 101.175 135.309s-70.005 110.598-135.309 101.171-110.601-70.005-101.175-135.309c7.567-52.425 48.751-93.609 101.175-101.175v-125.111c-0.235 0.239-0.429 0.518-0.666 0.755-27.017 26.825-70.85 38.767-136.149 37.583-9.239-0.166-16.67-7.652-16.766-16.892-0.55-54.65 10.701-91.524 35.418-116.043 24.435-24.26 62.419-36.207 118.167-37.419v-71.501c-2.539 3.202-5.244 6.272-8.1 9.195-32.35 32.075-83.667 46.351-162.867 44.9-9.235-0.177-16.655-7.663-16.751-16.9-0.668-67.676 13.001-113.058 42.999-142.807 3.951-3.908 8.171-7.537 12.625-10.859h-72.71c-9.423 0.002-17.065-7.635-17.067-17.058 0-0.002 0-0.006 0-0.009v-68.267c-0.002-9.423 7.635-17.065 17.058-17.067 0.002 0 0.006 0 0.009 0h6.517l80.617-161.233c2.893-5.781 8.802-9.434 15.266-9.434h238.933c6.464 0 12.373 3.652 15.266 9.434l80.617 161.233h6.517c9.423-0.002 17.065 7.635 17.067 17.058 0 0.002 0 0.006 0 0.009v68.267c0.002 9.427-7.635 17.069-17.058 17.071zM826.833 506.221c17.933 17.792 48.183 26.701 94.483 27.667-1.566-35.366-9.666-59.292-25.050-74.566-17.845-17.702-47.913-26.598-93.824-27.637-0.075 1.805-0.177 3.567-0.282 5.331-0.54 25.312 8.241 49.941 24.672 69.205zM767.691 431.684v0c-45.911 1.039-75.979 9.935-93.824 27.637-15.383 15.275-23.484 39.2-25.050 74.566 46.3-0.966 76.55-9.875 94.483-27.667 16.431-19.264 25.212-43.893 24.672-69.207-0.105-1.762-0.207-3.524-0.282-5.329zM834.268 311.13v0c23.217 23.025 61.984 34.3 121.284 35.066-1.483-48.407-12.034-80.866-32.734-101.391-23.074-22.884-61.555-34.131-120.23-35.021-0.107 3.665-0.218 7.332-0.422 10.854 2.679 42.34 13.020 71.571 32.102 90.492zM785.067 814.355c6.729-0.009 12.179-5.463 12.183-12.192h34.133c-0.038 18.959-11.627 35.983-29.25 42.972v11.377c46.176-9.425 75.968-54.498 66.543-100.674-6.839-33.513-33.030-59.701-66.543-66.543v11.377c17.623 6.989 29.212 24.013 29.25 42.972 0 32.717-25.818 40.766-41.25 45.583-16.668 5.193-17.25 6.701-17.25 12.934 0.004 6.729 5.455 12.183 12.183 12.194zM699.733 772.905c0.055 40.529 28.567 75.447 68.267 83.607v-11.379c-17.623-6.989-29.212-24.011-29.25-42.972 0-32.668 25.801-40.717 41.216-45.517 16.7-5.207 17.284-6.724 17.284-13.001 0.011-6.729-5.436-12.192-12.164-12.203s-12.192 5.436-12.203 12.164c0 0.013 0 0.026 0 0.038h-34.133c0.038-18.959 11.627-35.981 29.25-42.972v-11.379c-39.699 8.162-68.211 43.083-68.267 83.612zM614.583 346.195c59.283-0.766 98.067-12.043 121.284-35.068 19.081-18.921 29.423-48.151 32.102-90.49-0.205-3.522-0.314-7.189-0.422-10.854-58.675 0.89-97.156 12.143-120.23 35.021-20.7 20.525-31.251 52.983-32.734 101.391zM893.984-29.229h-217.835l-68.267 136.533h354.366l-68.265-136.533zM989.867 141.438h-409.6v34.133h409.6v-34.133zM460.809 209.705c-0.002 0-0.006 0-0.009 0h-72.708c4.457 3.322 8.674 6.95 12.625 10.859 30.001 29.749 43.667 75.134 42.999 142.807-0.094 9.235-7.516 16.723-16.751 16.9-78.884 1.557-130.534-12.826-162.867-44.9-2.857-2.923-5.559-5.99-8.1-9.195v71.501c55.748 1.212 93.732 13.156 118.167 37.419 24.717 24.516 35.966 61.391 35.418 116.043-0.096 9.239-7.529 16.725-16.766 16.892-65.818 1.193-109.133-10.758-136.149-37.583-0.239-0.237-0.431-0.516-0.668-0.755v125.111c65.303 9.425 110.601 70.005 101.175 135.309s-70.005 110.598-135.309 101.171-110.601-70.005-101.175-135.307c7.567-52.425 48.751-93.609 101.175-101.175v-125.111c-0.235 0.239-0.429 0.518-0.668 0.755-27.017 26.825-70.933 38.767-136.149 37.583-9.239-0.166-16.67-7.652-16.766-16.892-0.55-54.65 10.701-91.524 35.418-116.043 24.435-24.26 62.419-36.207 118.167-37.419v-71.501c-2.539 3.202-5.244 6.272-8.1 9.195-32.35 32.075-83.684 46.351-162.867 44.9-9.235-0.177-16.655-7.663-16.751-16.9-0.668-67.676 13.001-113.058 42.999-142.807 3.951-3.908 8.171-7.537 12.625-10.859h-72.708c-9.423 0.002-17.065-7.635-17.067-17.058 0-0.002 0-0.006 0-0.009v-68.267c-0.002-9.423 7.635-17.065 17.058-17.067 0.002 0 0.006 0 0.009 0h6.517l80.617-161.233c2.893-5.781 8.802-9.434 15.266-9.434h238.933c6.464 0 12.373 3.652 15.266 9.434l80.617 161.233h6.517c9.423-0.002 17.065 7.635 17.067 17.058 0 0.002 0 0.006 0 0.009v68.267c0.002 9.425-7.635 17.067-17.058 17.069zM280.7 506.221c17.933 17.792 48.183 26.701 94.483 27.667-1.566-35.366-9.666-59.292-25.050-74.566-17.845-17.702-47.913-26.598-93.824-27.637-0.075 1.805-0.177 3.567-0.282 5.331-0.54 25.312 8.241 49.941 24.672 69.205zM221.557 431.684c-45.911 1.039-75.979 9.935-93.824 27.637-15.383 15.275-23.484 39.2-25.050 74.566 46.3-0.966 76.55-9.875 94.483-27.667 16.431-19.264 25.212-43.893 24.672-69.207-0.105-1.762-0.207-3.524-0.282-5.329zM288.134 311.13v0c23.217 23.025 61.984 34.3 121.284 35.068-1.483-48.407-12.034-80.866-32.734-101.391-23.074-22.884-61.555-34.131-120.23-35.021-0.107 3.665-0.218 7.332-0.422 10.854 2.679 42.338 13.020 71.569 32.102 90.49zM238.933 814.347c6.729 0 12.183-5.455 12.183-12.183h34.133c-0.038 18.959-11.627 35.983-29.25 42.972v11.377c39.699-8.16 68.211-43.078 68.267-83.607-0.055-40.529-28.567-75.447-68.267-83.607v11.377c17.623 6.989 29.212 24.013 29.25 42.972 0 32.717-25.818 40.766-41.25 45.583-16.668 5.193-17.25 6.701-17.25 12.934 0 6.729 5.455 12.183 12.183 12.183zM153.6 772.905c0.055 40.529 28.567 75.447 68.267 83.607v-11.379c-17.623-6.989-29.212-24.011-29.25-42.972 0-32.668 25.801-40.717 41.216-45.517 16.7-5.207 17.284-6.724 17.284-13.001 0-6.729-5.455-12.183-12.183-12.183s-12.183 5.455-12.183 12.183h-34.133c0.038-18.959 11.627-35.981 29.25-42.972v-11.379c-39.699 8.162-68.211 43.083-68.267 83.612zM68.45 346.195c59.283-0.766 98.067-12.043 121.284-35.068 19.081-18.921 29.423-48.151 32.102-90.49-0.205-3.522-0.314-7.189-0.422-10.854-58.675 0.89-97.156 12.143-120.23 35.021-20.7 20.525-31.251 52.983-32.734 101.391zM347.851-29.229h-217.835l-68.267 136.533h354.366l-68.265-136.533zM443.733 141.438h-409.6v34.133h409.6v-34.133z" />
<glyph unicode="&#xe911;" glyph-name="life-insurance" d="M646.96 653.6l-214.96-214.976-124.448 124.448-22.624-22.624 135.76-135.76c2.895-2.894 6.895-4.685 11.312-4.685s8.417 1.79 11.312 4.685l226.272 226.288zM880 320h-11.616c22.796 20.072 38.331 47.917 42.443 79.355l0.069 0.645h1.104c0.034 0 0.075 0 0.115 0 26.43 0 47.856 21.426 47.856 47.856 0 15.756-7.614 29.733-19.363 38.453l-0.129 0.091c2.133 2.599 3.45 5.939 3.52 9.585v16.015c-0.094 71.193-46.592 131.5-110.866 152.307l-1.134 0.317v135.376c0 7.24-4.809 13.357-11.407 15.331l-0.113 0.029-384 112c-1.342 0.404-2.884 0.636-4.48 0.636s-3.138-0.232-4.594-0.665l0.114 0.029-384-112c-6.711-2.003-11.52-8.12-11.52-15.36v0-288c0.035-100.54 40.963-191.514 107.054-257.198l0.018-0.018 281.6-282.080c2.897-2.904 6.903-4.701 11.328-4.701s8.431 1.797 11.328 4.7v0l132.672 132.896v-121.6c0-8.837 7.163-16 16-16v0h384c8.837 0 16 7.163 16 16v0 224c-0.073 61.827-50.174 111.927-111.993 112h-0.007zM768 216.368l16 6.4 16-6.4v-129.744l-16-16-16 16zM789.952 254.864c-1.763 0.721-3.809 1.14-5.952 1.14s-4.189-0.419-6.060-1.178l0.108 0.039-10.048-4.032v37.168h32v-37.168zM584 249.376l-152-152.176-224.976 225.44c-48.718 48.359-78.91 115.322-79.024 189.338v228.022l304 88.608 304-88.608v-75.376c-65.408-21.124-111.906-81.431-112-152.613v-16.011c0.070-3.661 1.387-7.001 3.542-9.627l-0.022 0.027c-11.878-8.811-19.491-22.789-19.491-38.544 0-26.43 21.426-47.856 47.856-47.856 0.041 0 0.081 0 0.122 0h1.098c4.181-32.083 19.716-59.928 42.371-79.878l0.141-0.122h-11.616c-46.915-0.066-87.069-28.938-103.73-69.874l-0.27-0.75zM656 432c-8.837 0-16 7.163-16 16s7.163 16 16 16v0zM720 288h16v-49.968l-16-6.4zM832 288h16v-56.368l-16 6.4zM880 416c0-53.019-42.981-96-96-96s-96 42.981-96 96v0 69.616l125.6 55.808 66.4-53.104zM912 432v32c8.837 0 16-7.163 16-16s-7.163-16-16-16v0zM912 512h-10.384l-75.616 60.496c-2.713 2.185-6.2 3.507-9.997 3.507-2.353 0-4.588-0.508-6.6-1.42l0.101 0.041-140.912-62.624h-12.592c0 70.692 57.308 128 128 128s128-57.308 128-128v0zM432 6.64l-270.256 270.72c-60.329 59.928-97.688 142.916-97.744 234.629v276.011l368 107.328 368-107.328v-116.8c-4.799 0.52-10.365 0.816-16 0.816s-11.201-0.296-16.683-0.874l0.683 0.058v80.8c0 7.24-4.809 13.357-11.407 15.331l-0.113 0.029-320 93.28c-1.342 0.404-2.884 0.636-4.48 0.636s-3.138-0.232-4.594-0.665l0.114 0.029-320-93.28c-6.711-2.003-11.52-8.12-11.52-15.36v0-240c0.099-82.852 33.859-157.8 88.336-211.92l0.016-0.016 236.32-236.8c2.896-2.905 6.902-4.703 11.328-4.704v0c4.422 0.008 8.424 1.797 11.329 4.689l-0.001-0.001 132.672 132.816v-45.136zM960 0h-32v176h-32v-176h-224v176h-32v-176h-32v208c0.055 44.161 35.839 79.945 79.995 80h0.005v-80c0-0.004 0-0.008 0-0.012 0-8.837 7.163-16 16-16 2.144 0 4.19 0.422 6.059 1.187l-0.107-0.039 26.048 10.432v-123.568c0.001-4.418 1.792-8.417 4.688-11.312l32-32c2.895-2.894 6.895-4.685 11.312-4.685s8.417 1.79 11.312 4.685l32 32c2.896 2.895 4.687 6.894 4.688 11.312v0 123.568l26.048-10.432c1.762-0.726 3.808-1.148 5.952-1.148 8.837 0 16 7.163 16 16 0 0.004 0 0.009 0 0.013v-0.001 80c44.161-0.055 79.945-35.839 80-79.995v-0.005z" />
<glyph unicode="&#xe912;" glyph-name="lock" d="M877.653 594.24h-36.64v36.64c-0.214 181.702-147.418 328.906-329.12 329.12-181.702-0.214-328.906-147.418-329.12-329.12v-36.64h-36.426c-20.141 0-36.64-16.285-36.64-36.64v-585.173c0-20.141 16.285-36.64 36.64-36.64h731.306c20.141 0 36.64 16.285 36.64 36.64v585.388c0 20.141-16.499 36.426-36.64 36.426zM256.054 630.88c0 141.419 114.635 256.054 256.054 256.054s256.054-114.635 256.054-256.054v-36.64h-512.107v36.64zM841.013 9.281h-658.24v511.893h658.24v-511.893zM615.386 338.401c-15.427 43.926-56.996 73.281-103.493 73.066-60.424 0.214-109.492-48.854-109.707-109.278 0-46.497 29.141-88.065 73.066-103.493v-79.923c0-20.141 16.285-36.64 36.64-36.64s36.64 16.499 36.64 36.855v79.923c56.996 19.927 86.994 82.494 66.852 139.49zM511.893 265.12c-20.141 0-36.64 16.285-36.64 36.64s16.285 36.64 36.64 36.64 36.64-16.285 36.64-36.64-16.285-36.64-36.64-36.64z" />
<glyph unicode="&#xe913;" glyph-name="long-arrow-pointing-to-the-right" d="M1018.068 463.359l-227.55 207.411c-6.322 5.135-13.234 6.123-20.741 2.962-7.499-3.165-11.264-8.89-11.264-17.19v-132.742h-739.55c-5.533 0-10.079-1.775-13.63-5.33-3.549-3.553-5.332-8.099-5.332-13.628v-113.775c0-5.527 1.775-10.073 5.33-13.622 3.56-3.553 8.105-5.328 13.63-5.328h739.556v-132.74c0-7.912 3.771-13.637 11.266-17.182 7.514-3.174 14.425-1.974 20.748 3.545l227.55 209.793c3.95 3.948 5.92 8.68 5.92 14.216 0 5.123-1.982 9.66-5.932 13.61z" />
<glyph unicode="&#xe914;" glyph-name="magnifying-search-lenses-tool" d="M1003.189 56.833l-216.395 216.43c52.594 73.158 81.511 160.58 81.511 252.602 0 115.913-45.127 224.925-127.204 306.931-81.9 81.971-190.982 127.204-306.966 127.204-115.949 0-224.995-45.127-306.966-127.204-81.971-81.936-127.133-190.982-127.133-306.931s45.127-224.96 127.133-307.002c81.971-81.971 190.982-127.204 306.966-127.204 91.987 0 179.338 28.775 252.567 81.511l216.395-216.43c13.874-13.839 31.925-20.74 50.046-20.74 18.157 0 36.243 6.902 50.046 20.74 27.642 27.678 27.642 72.45 0 100.092zM227.296 318.991c-55.284 55.284-85.687 128.796-85.687 206.909s30.403 151.554 85.687 206.839c55.249 55.284 128.69 85.723 206.839 85.723s151.625-30.438 206.874-85.723c55.284-55.284 85.723-128.761 85.723-206.874s-30.403-151.59-85.723-206.909c-55.284-55.284-128.69-85.652-206.874-85.652s-151.66 30.438-206.839 85.687z" />
<glyph unicode="&#xe915;" glyph-name="medal-variant-with-star" d="M638.742 960l-126.745-169.012-126.739 169.012h-243.74l370.479-493.984 370.485 493.984zM511.997 466.016c-146.397 0-265.030-118.627-265.030-265.024 0-146.353 118.633-264.986 265.030-264.986 146.353 0 265.024 118.633 265.024 264.986 0 146.397-118.665 265.024-265.024 265.024zM607.551 53.833l-95.548 50.267-95.548-50.267 18.219 106.519-77.367 75.372 106.881 15.573 47.815 96.843 47.834-96.843 106.9-15.573-77.348-75.372 18.163-106.519z" />
<glyph unicode="&#xe916;" glyph-name="next" d="M776.847 476.1l-473.63 472.32c-15.518 15.466-40.642 15.44-56.134-0.080-15.48-15.518-15.44-40.656 0.080-56.134l445.438-444.208-445.454-444.206c-15.518-15.48-15.558-40.602-0.080-56.122 7.766-7.78 17.94-11.67 28.114-11.67 10.148 0 20.282 3.864 28.034 11.59l473.632 472.308c7.474 7.436 11.668 17.556 11.668 28.1s-4.206 20.652-11.668 28.102z" />
<glyph unicode="&#xe917;" glyph-name="plan" d="M940.947 960h-577.924c-19.297 0-35-15.703-35-35v-383.72l-182.985 203.72c-5.313 5.914-12.617 9.406-20.555 9.828-7.961 0.43-15.57-2.266-21.484-7.578l-41.141-36.953c-12.211-10.969-13.219-29.828-2.25-42.039l258.478-287.751c2.82-3.141 6.203-5.57 9.938-7.25v-231.54h-58.305c-8.289 0-15-6.719-15-15s6.711-15 15-15h413.533c2.758 0 5-2.242 5-5v-30.836c0-44.516 20.906-84.243 53.406-109.875h-531.494c-60.594 0-109.891 49.289-109.891 109.883v30.828c0 2.758 2.242 5 5 5h99.125c8.281 0 15 6.719 15 15s-6.719 15-15 15h-99.125c-19.297 0-35-15.703-35-35v-30.828c0-77.133 62.758-139.883 139.891-139.883h625.893c77.133 0 139.891 62.75 139.891 139.883v408.189c0 8.281-6.711 15-15 15s-15-6.719-15-15v-408.189c0-60.594-49.297-109.891-109.891-109.891h-7.93c-60.594 0-109.883 49.289-109.883 109.883v30.828c0 19.305-15.703 35-35 35h-325.22v220.696l42.797-21.274c3.398-1.688 7.039-2.516 10.648-2.516 5.75 0 11.414 2.094 15.914 6.133 7.32 6.578 9.844 16.789 6.43 26.024l-23 62.203c0.133 0.922 0.234 1.844 0.281 2.781 0.43 7.938-2.266 15.57-7.578 21.484l-45.492 50.641v417.119c0 2.758 2.242 5 5 5h577.924c2.758 0 5-2.242 5-5v-195.61c0-8.289 6.711-15 15-15s15 6.711 15 15v195.61c0 19.297-15.703 35-35 35zM122.873 724.78l17.813-19.836-40.789-36.649-17.82 19.836zM119.936 645.975l9.242 8.305 220.306-245.259-9.234-8.305zM372.031 388.943l17.32 15.563 10.961-29.617zM371.804 429.068l-220.306 245.259 9.234 8.297 220.306-245.259zM960.947 679.061c-8.281 0-15-6.711-15-15v-114.665c0-8.289 6.719-15 15-15 8.289 0 15 6.711 15 15v114.665c0 8.289-6.711 15-15 15zM479.344 658.788c-28.297 0-51.321-23.024-51.321-51.328 0-28.297 23.024-51.321 51.321-51.321 28.305 0 51.328 23.024 51.328 51.321 0 28.305-23.024 51.328-51.328 51.328zM479.344 586.139c-11.758 0-21.32 9.563-21.32 21.32s9.563 21.328 21.32 21.328 21.328-9.57 21.328-21.328c0-11.758-9.57-21.32-21.328-21.32zM575.797 589.241h73.5c8.281 0 15 6.719 15 15s-6.719 15-15 15h-73.5c-8.281 0-15-6.719-15-15s6.719-15 15-15zM832.009 583.288h-256.212c-8.281 0-15-6.711-15-15 0-8.281 6.719-15 15-15h256.212c8.281 0 15 6.719 15 15 0 8.289-6.719 15-15 15zM575.875 631.632h0.102c8.281 0.055 14.953 6.813 14.906 15.094-0.055 8.258-6.766 14.906-15 14.906-0.031 0-0.063 0-0.102 0h-0.148c-8.289-0.047-14.883-6.805-14.828-15.094 0.047-8.25 6.828-14.906 15.070-14.906zM479.344 500.334c-28.297 0-51.321-23.024-51.321-51.328 0-28.297 23.024-51.321 51.321-51.321 28.305 0 51.328 23.024 51.328 51.321 0 28.305-23.024 51.328-51.328 51.328zM479.344 427.685c-11.758 0-21.32 9.563-21.32 21.328 0 11.758 9.563 21.32 21.32 21.32s21.328-9.563 21.328-21.32c0-11.766-9.57-21.328-21.328-21.328zM575.797 430.787h73.5c8.281 0 15 6.719 15 15s-6.719 15-15 15h-73.5c-8.281 0-15-6.719-15-15s6.719-15 15-15zM832.009 424.834h-256.212c-8.281 0-15-6.711-15-15 0-8.281 6.719-15 15-15h256.212c8.281 0 15 6.719 15 15 0 8.289-6.719 15-15 15zM575.875 473.186h0.102c8.281 0.047 14.953 6.805 14.906 15.094-0.055 8.25-6.766 14.906-15 14.906-0.031 0-0.063 0-0.102 0h-0.148c-8.289-0.055-14.883-6.813-14.828-15.094 0.047-8.258 6.828-14.906 15.070-14.906zM479.344 341.88c-28.297 0-51.321-23.024-51.321-51.328 0-28.297 23.024-51.321 51.321-51.321 28.305 0 51.328 23.024 51.328 51.321 0 28.305-23.024 51.328-51.328 51.328zM479.344 269.232c-11.758 0-21.32 9.563-21.32 21.32s9.563 21.328 21.32 21.328 21.328-9.57 21.328-21.328-9.57-21.32-21.328-21.32zM575.797 272.333h73.5c8.281 0 15 6.719 15 15s-6.719 15-15 15h-73.5c-8.281 0-15-6.719-15-15s6.719-15 15-15zM575.797 236.38h256.212c8.281 0 15 6.719 15 15 0 8.289-6.719 15-15 15h-256.212c-8.281 0-15-6.711-15-15 0-8.281 6.719-15 15-15zM575.875 314.724h0.102c8.281 0.055 14.953 6.813 14.906 15.094-0.055 8.258-6.766 14.906-15 14.906-0.031 0-0.063 0-0.102 0h-0.148c-8.289-0.047-14.883-6.805-14.828-15.094 0.047-8.25 6.828-14.906 15.070-14.906zM869.462 763.437v86.993c0 8.289-6.719 15-15 15h-404.947c-8.289 0-15-6.711-15-15v-86.993c0-8.289 6.711-15 15-15h404.947c8.281 0 15 6.711 15 15zM839.462 778.437h-374.947v56.992h374.947z" />
<glyph unicode="&#xe918;" glyph-name="planning" d="M92.766 960v-135.442h-52.766v-59.884h52.766v-113.424h-52.766v-59.884h52.766v-113.424h-52.766v-59.884h52.766v-113.424h-52.766v-59.884h52.766v-113.424h-52.766v-59.884h52.766v-135.442h891.234v1024zM924-4.116h-771.234v75.56h52.764v59.884h-52.764v113.424h52.764v59.884h-52.764v113.424h52.764v59.884h-52.764v113.424h52.764v59.884h-52.764v113.422h52.764v59.884h-52.764v75.56h771.234zM618.408 726.384h194.568v-59.884h-194.568zM618.408 477.77h194.568v-59.884h-194.568zM618.408 209.538h194.568v-59.884h-194.568zM526.442 752.368l-42.426 42.344-97.036-96.848-44.912 44.824-42.428-42.342 87.34-87.168zM526.442 500.076l-42.426 42.344-97.036-96.848-44.912 44.824-42.428-42.344 87.34-87.166zM526.442 247.784l-42.426 42.342-97.036-96.846-44.914 44.824-42.426-42.344 87.34-87.166z" />
<glyph unicode="&#xe919;" glyph-name="play-button" d="M512-64c-136.76 0-265.334 53.258-362.040 149.96-96.702 96.706-149.96 225.28-149.96 362.040s53.258 265.334 149.96 362.040c96.706 96.702 225.28 149.96 362.040 149.96s265.334-53.258 362.040-149.96c96.702-96.706 149.96-225.28 149.96-362.040s-53.258-265.334-149.96-362.040c-96.706-96.702-225.28-149.96-362.040-149.96zM512 880c-238.206 0-432-193.794-432-432s193.794-432 432-432 432 193.794 432 432-193.794 432-432 432zM330 178.876v538.248l468.276-269.124-468.276-269.124zM410 578.876v-261.754l227.724 130.878-227.724 130.876z" />
<glyph unicode="&#xe91a;" glyph-name="playstore" horiz-adv-x="1022" d="M75.875 922.289c-12.125-16.023-18.875-35.734-18.875-56.828v-834.907c0-19.594 5.844-38 16.398-53.375l454.281 473.844zM569.274 494.414l147.375 153.719-518.039 299.086c-22.484 12.984-48.281 16.063-72.352 9.297zM569.274 407.64l-447.492-466.766c9.648-3.242 19.633-4.875 29.625-4.875 16.211 0 32.43 4.266 47.203 12.797l521.766 301.242zM921.657 529.765l-151.453 87.445-159.328-166.18 163.047-170.078 147.734 85.297c29.563 17.063 47.211 47.633 47.211 81.758 0 34.133-17.648 64.695-47.211 81.758z" />
<glyph unicode="&#xe91b;" glyph-name="property-1" d="M480.080 704c0-8.837-7.163-16-16-16s-16 7.163-16 16c0 8.837 7.163 16 16 16s16-7.163 16-16zM576.080 704c0-8.837-7.163-16-16-16s-16 7.163-16 16c0 8.837 7.163 16 16 16s16-7.163 16-16zM449.776 648.848l1.68-3.36c11.552-23.136 34.8-37.488 60.64-37.488s49.056 14.352 60.576 37.408l1.696 3.376-28.56 14.416-1.728-3.44c-6.096-12.176-18.352-19.76-31.984-19.76s-25.904 7.584-32 19.776l-1.696 3.376zM528 205.056v34.944h-32v-32h-32v-48c0-26.464 21.536-48 48-48 8.832 0 16-7.168 16-16v-16h-16c-8.832 0-16 7.168-16 16v16h-32v-16c0-20.832 13.424-38.432 32-45.056v-34.944h32v32h32v48c0 26.464-21.536 48-48 48-8.832 0-16 7.168-16 16v16h16c8.832 0 16-7.168 16-16v-16h32v16c0 20.832-13.424 38.432-32 45.056zM969.424 388.832l-44.352 8.88-7.488 29.936c-5.344 21.408-24.512 36.352-46.576 36.352h-110.032c-12.048 0-23.12-4.56-31.648-12.080-4.208 12.368-10.272 24.096-18.256 34.736-19.36 25.84-47.584 42.992-79.44 48.304l-43.424 7.232-7.344 22.032c26.864 17.2 46.816 44.112 55.008 75.776h4.208c35.296 0 64 28.704 64 64 0 15.136-5.504 28.896-14.336 39.856l11.52 42.96c1.872 7.424 2.816 15.072 2.816 22.736 0 39.264-24.8 74.656-61.68 88.064l-105.264 38.272c-14.752 5.392-30.192 8.112-45.888 8.112-42.064 0-82.24-20.080-107.456-53.728l-8.128-10.816c-31.312-4.128-55.568-31.024-55.568-63.456 0-25.744 9.040-57.392 13.936-72.608-8.592-10.896-13.936-24.464-13.936-39.392 0-35.296 28.704-64 64-64h4.208c8.192-31.664 28.144-58.576 54.992-75.776l-7.36-22.032-43.424-7.232c-29.472-4.912-55.728-20.064-74.832-42.72l-125.68 139.68-179.92-199.92h51.92v-192h224v-128h48.816c8.112-89.568 83.536-160 175.184-160s167.072 70.432 175.184 160h48.816v128c20.832 0 38.432 13.424 45.056 32h69.904c6.624-18.576 24.224-32 45.056-32s38.432 13.424 45.056 32h18.928c26.464 0 48 21.536 48 48v21.76c0 22.816-16.24 42.608-38.576 47.072zM594.624 508.688l-38.032-66.576-21.872 21.888 46.864 46.864zM640.096 672v64c17.648 0 32-14.352 32-32s-14.368-32-32-32zM352.096 704c0 17.648 14.352 32 32 32v-64c-17.648 0-32 14.352-32 32zM398.128 768h-14.032c-8.048 0-15.664-1.664-22.768-4.384-4.24 14.704-9.232 35.6-9.232 52.384 0 17.648 14.352 32 32 32h8l17.296 23.072c19.216 25.632 49.824 40.928 81.856 40.928 11.952 0 23.712-2.064 34.96-6.16l105.264-38.272c24.304-8.832 40.624-32.144 40.624-58 0-5.040-0.624-10.064-1.776-14.704l-8.304-30.976c-6.88 2.528-14.192 4.112-21.92 4.112h-14.032l-6.144 1.536c-35.344 8.832-68.64 23.568-98.96 43.776l-8.88 5.92-8.88-5.92c-30.336-20.224-63.632-34.944-98.976-43.776zM416.096 672v67.536c33.984 8.928 66.224 22.848 96 41.424 29.76-18.592 62-32.496 96-41.424v-67.536c0-52.944-43.072-96-96.016-96-52.928 0-95.984 43.056-95.984 96zM512.096 544c13.856 0 27.168 2.288 39.68 6.368l6.016-18.048-45.696-45.696-45.696 45.696 6.016 18.048c12.496-4.080 25.824-6.368 39.68-6.368zM442.608 510.864l46.864-46.864-21.872-21.872-38.048 66.56zM192 584.080l108.080-120.080h-216.16zM96 432h192v-160h-48v96h-96v-96h-48zM208 272h-32v64h32zM512-16c-79.408 0-144 64.592-144 144s64.592 144 144 144 144-64.592 144-144-64.592-144-144-144zM704 144h-16.816c-8.112 89.568-83.536 160-175.184 160s-167.072-70.432-175.184-160h-16.816v288h51.92l-32.576 36.192c14 18.288 34.016 30.496 56.64 34.736l64.592-113.040 51.504 51.504 51.504-51.504 64.576 113.040c22.944-4.288 43.28-16.736 57.312-35.456 11.392-15.168 17.792-33.184 18.528-51.472v-18.88l-41.408-8.288c-22.352-4.464-38.592-24.256-38.592-47.072v-21.76c0-26.464 21.536-48 48-48h18.944c2.704-7.584 7.184-14.224 13.056-19.52zM736 272c-8.832 0-16 7.168-16 16s7.168 16 16 16 16-7.168 16-16-7.168-16-16-16zM896 272c-8.832 0-16 7.168-16 16s7.168 16 16 16 16-7.168 16-16-7.168-16-16-16zM976 320c0-8.832-7.168-16-16-16h-18.944c-6.624 18.576-24.224 32-45.056 32s-38.432-13.424-45.056-32h-69.904c-6.624 18.576-24.224 32-45.056 32s-38.432-13.424-45.056-32h-18.928c-8.832 0-16 7.168-16 16v21.76c0 7.616 5.408 14.208 12.864 15.68l64.208 12.848 12.384 49.6c1.792 7.12 8.176 12.112 15.536 12.112h110.032c7.36 0 13.728-4.992 15.536-12.112l12.384-49.6 64.224-12.848c7.424-1.472 12.832-8.064 12.832-15.68z" />
<glyph unicode="&#xe91c;" glyph-name="property" d="M941.27 318.12c40.613 29.391 66.73 76.647 66.73 130.003 0 88.366-71.634 160-160 160s-160-71.634-160-160c0-53.356 26.117-100.612 66.264-129.681l0.466-0.321c-20.218-5.937-34.73-24.321-34.73-46.094 0-12.33 4.653-23.573 12.3-32.069l-0.038 0.043c-7.608-8.446-12.262-19.684-12.262-32.008 0-7.522 1.733-14.639 4.823-20.973l-0.125 0.284c-6.036 2.964-13.137 4.698-20.643 4.698-0.019 0-0.039 0-0.058 0h-2.749c1.743 4.769 2.752 10.275 2.752 16.016 0 26.501-21.483 47.984-47.984 47.984-0.006 0-0.011 0-0.017 0h-159.999c-26.51 0-48-21.49-48-48s21.49-48 48-48v0h2.752c-1.744-4.762-2.752-10.259-2.752-15.993 0-6.374 1.247-12.458 3.509-18.019l-0.115 0.32c-7.532-2.096-14.043-5.748-19.443-10.608l0.043 0.038c-8.431 7.608-19.656 12.262-31.967 12.262-0.009 0-0.019 0-0.028 0h-159.999c-0.016 0-0.036 0-0.055 0-7.506 0-14.607-1.734-20.925-4.822l0.282 0.124c2.965 6.052 4.698 13.171 4.698 20.695 0 14.76-6.672 27.962-17.165 36.754l-0.075 0.061c48.857 28.011 81.238 79.86 81.238 139.272 0 88.366-71.634 160-160 160s-160-71.634-160-160c0-52.214 25.011-98.587 63.707-127.791l0.405-0.293h-16.11c-0.010 0-0.021 0-0.033 0-26.492 0-47.968-21.476-47.968-47.968 0-12.332 4.654-23.578 12.301-32.075l-0.039 0.043c-7.608-8.452-12.261-19.695-12.261-32.025 0-22.018 14.839-40.571 35.061-46.203l0.337-0.080c-2.147-5.249-3.394-11.34-3.394-17.722 0-26.493 21.477-47.97 47.97-47.97 0.008 0 0.017 0 0.025 0h159.999c0.010 0 0.021 0 0.033 0 12.311 0 23.536 4.654 32.009 12.3l-0.042-0.038c8.431-7.608 19.656-12.262 31.967-12.262 0.012 0 0.023 0 0.035 0h159.998c0.010 0 0.021 0 0.033 0 12.311 0 23.536 4.654 32.009 12.3l-0.042-0.038c8.431-7.608 19.656-12.262 31.967-12.262 0.012 0 0.023 0 0.035 0h159.998c0.010 0 0.021 0 0.033 0 12.311 0 23.536 4.654 32.009 12.3l-0.042-0.038c8.431-7.608 19.656-12.262 31.967-12.262 0.012 0 0.023 0 0.035 0h159.998c26.496 0.018 47.968 21.502 47.968 48 0 22.015-14.821 40.569-35.030 46.227l-0.338 0.081c2.148 5.239 3.395 11.32 3.395 17.692s-1.247 12.453-3.51 18.012l0.115-0.32c20.56 5.712 35.399 24.265 35.399 46.283 0 12.33-4.653 23.573-12.299 32.069l0.038-0.043c7.608 8.443 12.262 19.678 12.262 32s-4.654 23.557-12.3 32.043l0.038-0.043c7.608 8.452 12.262 19.695 12.262 32.026 0 21.774-14.511 40.158-34.39 46.009l-0.339 0.086zM720 448c0 70.692 57.308 128 128 128s128-57.308 128-128c0-70.692-57.308-128-128-128v0c-70.659 0.082-127.918 57.34-128 127.992v0.008zM768 288h160c8.837 0 16-7.163 16-16s-7.163-16-16-16v0h-160c-8.837 0-16 7.163-16 16s7.163 16 16 16v0zM944 208c-0.010-8.832-7.168-15.99-15.999-16h-160.001c-8.837 0-16 7.163-16 16s7.163 16 16 16v0h160c8.832-0.010 15.99-7.168 16-15.999v-0.001zM912 80c-0.010-8.832-7.168-15.99-15.999-16h-160.001c-8.837 0-16 7.163-16 16s7.163 16 16 16v0h160c8.832-0.010 15.99-7.168 16-15.999v-0.001zM480 208c0.010 8.832 7.168 15.99 15.999 16h160.001c8.837 0 16-7.163 16-16s-7.163-16-16-16v0h-160c-8.832 0.010-15.99 7.168-16 15.999v0.001zM704 160c8.837 0 16-7.163 16-16s-7.163-16-16-16v0h-160c-8.837 0-16 7.163-16 16s7.163 16 16 16v0zM512 96h160c8.837 0 16-7.163 16-16s-7.163-16-16-16v0h-160c-8.837 0-16 7.163-16 16s7.163 16 16 16v0zM288 96h160c8.837 0 16-7.163 16-16s-7.163-16-16-16v0h-160c-8.837 0-16 7.163-16 16s7.163 16 16 16v0zM48 320c0 70.692 57.308 128 128 128s128-57.308 128-128c0-70.692-57.308-128-128-128v0c-70.659 0.082-127.918 57.34-128 127.992v0.008zM64 160h160c8.837 0 16-7.163 16-16s-7.163-16-16-16v0h-160c-8.837 0-16 7.163-16 16s7.163 16 16 16v0zM64 96h160c8.837 0 16-7.163 16-16s-7.163-16-16-16v0h-160c-8.837 0-16 7.163-16 16s7.163 16 16 16v0zM256 0h-160c-8.837 0-16 7.163-16 16s7.163 16 16 16v0h160c8.837 0 16-7.163 16-16s-7.163-16-16-16v0zM480 0h-160c-8.837 0-16 7.163-16 16s7.163 16 16 16v0h160c8.837 0 16-7.163 16-16s-7.163-16-16-16v0zM704 0h-160c-8.837 0-16 7.163-16 16s7.163 16 16 16v0h160c8.837 0 16-7.163 16-16s-7.163-16-16-16v0zM928 0h-160c-8.837 0-16 7.163-16 16s7.163 16 16 16v0h160c8.837 0 16-7.163 16-16s-7.163-16-16-16v0zM928 128h-160c-8.837 0-16 7.163-16 16s7.163 16 16 16v0h160c8.837 0 16-7.163 16-16s-7.163-16-16-16v0zM832 370.090v-18.090h32v18.090c18.701 5.998 32 23.233 32 43.575 0 17.776-10.156 33.18-24.983 40.726l-0.259 0.12-31.2 15.6c-4.516 2.293-7.556 6.904-7.556 12.224 0 7.547 6.117 13.665 13.664 13.666h4.668c7.544-0.008 13.658-6.122 13.666-13.665v-2.335h32v2.334c-0.028 20.333-13.314 37.555-31.676 43.486l-0.324 0.090v18.090h-32v-18.090c-18.701-5.998-32-23.233-32-43.575 0-17.776 10.156-33.18 24.983-40.726l0.259-0.12 31.2-15.6c4.516-2.293 7.556-6.904 7.556-12.224 0-7.547-6.117-13.665-13.664-13.666h-4.668c-7.544 0.008-13.658 6.122-13.666 13.665v2.335h-32v-2.334c0.028-20.333 13.314-37.555 31.676-43.486l0.324-0.090zM192 397.91v18.090h-32v-18.090c-18.701-5.998-32-23.233-32-43.575 0-17.776 10.156-33.18 24.983-40.726l0.259-0.12 31.2-15.6c4.516-2.293 7.556-6.904 7.556-12.224 0-7.547-6.117-13.665-13.664-13.666h-4.668c-7.544 0.008-13.658 6.122-13.666 13.665v2.335h-32v-2.334c0.028-20.333 13.314-37.555 31.676-43.486l0.324-0.090v-18.090h32v18.090c18.701 5.998 32 23.233 32 43.575 0 17.776-10.156 33.18-24.983 40.726l-0.259 0.12-31.2 15.6c-4.516 2.293-7.556 6.904-7.556 12.224 0 7.547 6.117 13.665 13.664 13.666h4.668c7.544-0.008 13.658-6.122 13.666-13.665v-2.335h32v2.334c-0.028 20.333-13.314 37.555-31.676 43.486l-0.324 0.090zM576 800h240v-160h32v176c0 8.837-7.163 16-16 16v0h-16v80c0 0 0 0 0 0 0 8.837-7.163 16-16 16-0.859 0-1.702-0.068-2.525-0.198l0.091 0.012-208-32c-7.728-1.223-13.566-7.836-13.566-15.814 0 0 0 0 0 0v0-48h-16c-8.837 0-16-7.163-16-16v0-224h32zM608 866.274l176 27.076v-61.35h-176zM240 704h224v-128h32v144c0 8.837-7.163 16-16 16v0h-16v48c0 8.837-7.163 16-16 16v0h-16v48c0 8.837-7.163 16-16 16v0h-16v32h-32v-32h-32v64h-32v-64h-16c-8.837 0-16-7.163-16-16v0-48h-16c-8.837 0-16-7.163-16-16v0-48h-16c-8.837 0-16-7.163-16-16v0-208h32zM304 832h96v-32h-96zM272 768h160v-32h-160zM656 288v272c0 8.836-7.164 15.999-16 15.999-0.699 0-1.388-0.045-2.064-0.132l0.080 0.008-256-32c-7.941-1.021-14.016-7.739-14.016-15.876v0-368h32v353.876l224 28v-61.876h-144v-32h144v-32h-144v-32h144v-32h-144v-32h144v-32zM272 672h32v-32h-32zM288 576h32v-32h-32zM400 656h32v-32h-32zM608 688h32v-32h-32zM688 768h32v-32h-32zM688 608h32v-32h-32zM752 672h32v-32h-32z" />
<glyph unicode="&#xe91d;" glyph-name="retirement-plan" d="M272 416v-34.272c-27.536-7.152-48-31.984-48-61.728 0-35.296 28.704-64 64-64 17.648 0 32-14.352 32-32s-14.352-32-32-32-32 14.352-32 32h-32c0-29.744 20.464-54.576 48-61.728v-34.272h32v34.272c27.536 7.152 48 31.984 48 61.728 0 35.296-28.704 64-64 64-17.648 0-32 14.352-32 32s14.352 32 32 32 32-14.352 32-32h32c0 29.744-20.464 54.576-48 61.728v34.272zM323.2 569.6l-35.2 26.4-35.184-26.4c-63.296-47.456-141.728-73.6-220.816-73.6h-16v-200.128c0-162.72 110.256-303.936 268.128-343.392l3.872-0.976 3.872 0.992c157.872 39.44 268.128 180.656 268.128 343.376v200.128h-16c-79.088 0-157.52 26.144-220.8 73.6zM528 295.872c0-146.672-98.48-274.144-240-311.36-141.52 37.216-240 164.688-240 311.36v168.464c80.496 3.28 159.488 31.28 224.016 79.664l15.984 12 16-12c64.512-48.384 143.504-76.384 224-79.664zM990.464 824.16l-68.304 68.304c-33.216 33.216-77.424 51.536-124.448 51.536h-362.256c-26.080 0-51.696-7.088-74.096-20.512l-25.36-15.232v35.744h-320v-288h320v32h59.264c33.088-20.96 71.168-32 110.416-32h22.32v-64c0-35.296 28.704-64 64-64s64 28.704 64 64v72.896c19.040 11.104 32 31.52 32 55.104 0 7.344-1.504 14.288-3.792 20.864 10.592 7.2 22.848 11.136 35.792 11.136 35.296 0 64-28.704 64-64v-608h-29.552l-21.344-128h229.776l-21.344 128h-29.536v608c0 16.416-2.304 32.48-6.304 48.016 10.976-10.112 25.52-16.016 40.464-16.016h2c32.992 0 59.84 26.848 59.84 59.84v2c0 15.76-6.384 31.168-17.536 42.32zM304 688h-256v224h256zM624 592c0-17.648-14.352-32-32-32s-32 14.352-32 32v64h64zM914.448 48l10.656-64h-154.224l10.656 64h130.464zM816 80v608c0 52.944-43.056 96-96 96-19.312 0-37.6-5.872-53.424-16.56-11.344 10.176-26.16 16.56-42.576 16.56h-41.376l17.936 17.936c9.072 9.072 21.12 14.064 33.952 14.064h170.976c6.048 0 11.888-1.2 17.36-3.328l-1.040-1.248c36.992-30.528 58.192-75.52 58.192-123.424v-608zM976 779.84c0-15.36-12.48-27.84-27.84-27.84h-2c-7.328 0-14.496 2.976-19.68 8.16l-64.4 64.4c-15.12 15.104-35.216 23.44-56.592 23.44h-170.976c-21.376 0-41.472-8.336-56.576-23.44l-40.56-40.56h-25.376v-32h112c17.648 0 32-14.352 32-32s-14.352-32-32-32h-118.32c-34.56 0-68.048 10.144-96.816 29.312l-4.016 2.688h-68.848v150.944l41.808 25.104c17.424 10.432 37.36 15.952 57.648 15.952h362.272c38.464 0 74.624-14.992 101.824-42.176l68.304-68.304c5.184-5.184 8.16-12.352 8.16-19.68v-2zM80 272c0-114.688 93.312-208 208-208s208 93.312 208 208-93.312 208-208 208-208-93.312-208-208zM464 272c0-97.040-78.96-176-176-176s-176 78.96-176 176 78.96 176 176 176 176-78.96 176-176zM400 288h32v-32h-32zM144 288h32v-32h-32z" />
<glyph unicode="&#xe91e;" glyph-name="right-chevron" d="M316.372 960l-120.744-120.748 391.252-391.252-391.252-391.252 120.744-120.748 512 512z" />
<glyph unicode="&#xe91f;" glyph-name="save-money" d="M525.368 401.145c-1.895 0.41-3.838 0.484-5.757 0.197-19.232 2.239-33.741 18.511-33.774 37.866 0 9.276-7.521 16.797-16.797 16.797s-16.797-7.521-16.797-16.797c0.049-32.322 21.668-60.633 52.834-69.187v-16.797c0-9.276 7.521-16.797 16.797-16.797s16.797 7.521 16.797 16.797v15.78c35.972 7.529 60.42 41.032 56.639 77.586-3.789 36.554-34.585 64.332-71.336 64.34-21.061 0-38.137 17.075-38.137 38.137s17.075 38.137 38.137 38.137 38.137-17.075 38.137-38.137c0-9.276 7.521-16.797 16.797-16.797s16.797 7.521 16.797 16.797c-0.049 33.938-23.825 63.209-57.033 70.213v15.287c0 9.276-7.521 16.797-16.797 16.797s-16.797-7.521-16.797-16.797v-16.313c-34.659-9.464-56.967-43.115-52.194-78.726s35.16-62.192 71.090-62.183c20.782 0 37.735-16.641 38.112-37.415 0.385-20.774-15.952-38.030-36.718-38.785zM280.408 492.846c0-134.52 109.046-243.566 243.566-243.566s243.566 109.046 243.566 243.566-109.046 243.566-243.566 243.566c-134.454-0.148-243.411-109.112-243.566-243.566zM523.974 702.819c115.968 0 209.973-94.005 209.973-209.973s-94.005-209.973-209.973-209.973-209.973 94.005-209.973 209.973c0.131 115.911 94.062 209.842 209.973 209.973zM850.342 207.87l-131.576-62.167c-18.166 33.79-53.014 55.294-91.364 56.377l-121.463 3.338c-19.232 0.549-38.104 5.421-55.204 14.254l-12.36 6.405c-63.282 32.986-138.711 32.904-201.928-0.213l0.771 28c0.254 9.276-7.053 17.002-16.329 17.256l-133.191 3.666c-9.276 0.254-16.993-7.053-17.248-16.329l-8.046-292.283c-0.254-9.276 7.053-17.002 16.329-17.256l133.651-3.666c9.104 0 16.551 7.242 16.797 16.337l0.385 13.983 34.602 18.527c13.582 7.307 29.46 9.046 44.296 4.847l206.627-57.992c0.361-0.107 0.722-0.189 1.091-0.271 14.935-3.125 30.157-4.691 45.411-4.683 32.314-0.016 64.25 6.947 93.619 20.43 0.722 0.328 1.419 0.714 2.083 1.148l299.591 193.784c7.463 4.831 9.875 14.631 5.503 22.374-22.242 39.465-71.574 54.499-112.048 34.134zM96.449-17.965l7.119 258.706 99.607-2.739-7.119-258.715zM640.082-13.569c-36.488-16.468-77.241-21.012-116.46-12.999l-206.069 57.845c-23.194 6.553-48.019 3.838-69.237-7.57l-17.682-9.473 4.732 172.009c56.032 37.267 127.893 41.097 187.567 10.006l12.36-6.405c21.603-11.154 45.428-17.305 69.729-18.010l121.472-3.338c34.118-0.984 63.094-25.277 70.016-58.706l-180.932 4.995c-9.276 0.254-16.993-7.061-17.256-16.329-0.254-9.276 7.061-17.002 16.329-17.256l200.14-5.495c9.095 0.008 16.534 7.25 16.78 16.337 0.205 7.299-0.336 14.607-1.624 21.791l134.955 63.766c0.131 0.057 0.262 0.123 0.394 0.189 19.142 9.686 42.287 6.446 58.033-8.128zM540.771 783.636v159.567c0 9.276-7.521 16.797-16.797 16.797s-16.797-7.521-16.797-16.797v-159.567c0-9.276 7.521-16.797 16.797-16.797s16.797 7.521 16.797 16.797zM666.745 783.636v75.585c0 9.276-7.521 16.797-16.797 16.797s-16.797-7.521-16.797-16.797v-75.585c0-9.276 7.521-16.797 16.797-16.797s16.797 7.521 16.797 16.797zM414.796 783.636v75.585c0 9.276-7.521 16.797-16.797 16.797s-16.797-7.521-16.797-16.797v-75.585c0-9.276 7.521-16.797 16.797-16.797s16.797 7.521 16.797 16.797z" />
<glyph unicode="&#xe920;" glyph-name="share-1" d="M948.664 789.336c0-76.586-62.078-138.672-138.664-138.672s-138.664 62.086-138.664 138.672c0 76.578 62.078 138.664 138.664 138.664s138.664-62.086 138.664-138.664zM810 618.664c-94.125 0-170.664 76.547-170.664 170.672 0 94.117 76.539 170.664 170.664 170.664s170.664-76.547 170.664-170.664c0-94.125-76.539-170.672-170.664-170.672zM810 896c-58.836 0-106.664-47.875-106.664-106.664 0-58.797 47.828-106.672 106.664-106.672s106.664 47.875 106.664 106.672c0 58.789-47.828 106.664-106.664 106.664zM948.664 106.664c0-76.578-62.078-138.664-138.664-138.664s-138.664 62.086-138.664 138.664c0 76.586 62.078 138.672 138.664 138.672s138.664-62.086 138.664-138.672zM810-64c-94.125 0-170.664 76.547-170.664 170.664 0 94.125 76.539 170.672 170.664 170.672s170.664-76.547 170.664-170.672c0-94.117-76.539-170.664-170.664-170.664zM810 213.336c-58.836 0-106.664-47.875-106.664-106.672 0-58.789 47.828-106.664 106.664-106.664s106.664 47.875 106.664 106.664c0 58.797-47.828 106.672-106.664 106.672zM351.336 448c0-76.586-62.086-138.664-138.672-138.664-76.578 0-138.664 62.078-138.664 138.664s62.086 138.664 138.664 138.664c76.586 0 138.672-62.078 138.672-138.664zM212.664 277.336c-94.117 0-170.664 76.539-170.664 170.664s76.547 170.664 170.664 170.664c94.125 0 170.672-76.539 170.672-170.664s-76.547-170.664-170.672-170.664zM212.664 554.664c-58.836 0-106.664-47.867-106.664-106.664s47.828-106.664 106.664-106.664c58.844 0 106.672 47.867 106.672 106.664s-47.828 106.664-106.672 106.664zM313.406 468.477c-14.852 0-29.273 7.727-37.125 21.547-11.648 20.438-4.477 46.508 15.961 58.203l395.898 225.703c20.438 11.734 46.508 4.563 58.203-15.953 11.648-20.438 4.477-46.508-15.961-58.203l-395.906-225.703c-6.656-3.797-13.906-5.594-21.070-5.594zM709.266 116.477c-7.172 0-14.422 1.797-21.078 5.594l-395.906 225.703c-20.438 11.648-27.602 37.719-15.953 58.203 11.602 20.477 37.711 27.688 58.195 15.953l395.906-225.703c20.438-11.648 27.602-37.719 15.953-58.203-7.891-13.82-22.313-21.547-37.117-21.547z" />
<glyph unicode="&#xe921;" glyph-name="share" d="M812 296c-59.272 0-111.938-28.804-144.756-73.142l-282.54 144.39c4.74 16.104 7.296 33.134 7.296 50.752 0 23.862-4.678 46.648-13.148 67.506l296.12 177.916c33.040-38.78 82.208-63.422 137.028-63.422 99.252 0 180 80.748 180 180s-80.748 180-180 180c-99.252 0-180-80.748-180-180 0-22.94 4.322-44.886 12.18-65.080l-296.86-178.36c-33.016 37.636-81.438 61.44-135.32 61.44-99.252 0-180-80.748-180-180s80.748-180 180-180c60.244 0 113.664 29.752 146.354 75.332l281.72-143.97c-5.246-16.868-8.074-34.79-8.074-53.362 0-99.252 80.748-180 180-180s180 80.748 180 180c0 99.252-80.748 180-180 180zM812 900c66.168 0 120-53.832 120-120s-53.832-120-120-120-120 53.832-120 120 53.832 120 120 120zM212 298c-66.168 0-120 53.832-120 120s53.832 120 120 120 120-53.832 120-120-53.832-120-120-120zM812-4c-66.168 0-120 53.832-120 120s53.832 120 120 120 120-53.832 120-120-53.832-120-120-120z" />
<glyph unicode="&#xe922;" glyph-name="tag" d="M987.42 960h-402.274c-9.698-0.002-18.998-3.857-25.855-10.716l-548.556-548.556c-14.29-14.273-14.303-37.428-0.028-51.719 0.009-0.009 0.019-0.019 0.028-0.028l402.274-402.274c14.282-14.275 37.43-14.275 51.71 0l548.556 548.556c6.868 6.866 10.723 16.18 10.716 25.891v402.274c0 20.198-16.373 36.571-36.571 36.571zM767.998 630.866c-40.394 0-73.14 32.746-73.14 73.14s32.746 73.14 73.14 73.14 73.14-32.746 73.14-73.14-32.746-73.14-73.14-73.14z" />
<glyph unicode="&#xe923;" glyph-name="technology" d="M1014.958 521.766l-62.246 26.948c-2.478 10.866-5.382 21.722-8.678 32.426l40.424 54.458c3.564 4.802 3.936 11.262 0.946 16.44l-60 103.922c-2.992 5.182-8.77 8.088-14.72 7.4l-67.466-7.83c-7.588 8.168-15.518 16.098-23.686 23.686l7.83 67.466c0.69 5.944-2.218 11.728-7.4 14.72l-103.922 60c-5.178 2.99-11.638 2.618-16.44-0.946l-54.46-40.422c-10.706 3.296-21.56 6.202-32.426 8.678l-26.948 62.246c-2.376 5.49-7.786 9.042-13.766 9.042h-120c-5.98 0-11.39-3.552-13.766-9.042l-26.948-62.246c-10.866-2.478-21.722-5.382-32.426-8.678l-54.458 40.424c-4.8 3.566-11.26 3.936-16.44 0.946l-103.924-60c-5.182-2.992-8.090-8.776-7.4-14.72l7.83-67.466c-8.166-7.588-16.096-15.518-23.686-23.686l-67.466 7.83c-5.948 0.69-11.728-2.218-14.72-7.4l-60-103.922c-2.99-5.178-2.618-11.638 0.946-16.44l40.424-54.458c-3.296-10.708-6.202-21.562-8.678-32.426l-62.246-26.95c-5.49-2.376-9.042-7.786-9.042-13.766v-120c0-5.98 3.552-11.39 9.042-13.766l62.246-26.948c2.478-10.864 5.382-21.72 8.678-32.426l-40.424-54.458c-3.564-4.802-3.936-11.262-0.946-16.44l60-103.924c2.992-5.18 8.778-8.094 14.72-7.4l67.466 7.83c7.59-8.166 15.52-16.096 23.686-23.686l-7.83-67.466c-0.69-5.944 2.218-11.728 7.4-14.72l103.924-60c5.18-2.992 11.638-2.618 16.44 0.946l54.458 40.424c10.708-3.296 21.562-6.202 32.426-8.678l26.948-62.246c2.376-5.49 7.786-9.042 13.766-9.042h120c5.98 0 11.39 3.552 13.766 9.042l26.948 62.246c10.864 2.478 21.72 5.382 32.426 8.678l54.458-40.424c4.8-3.566 11.262-3.938 16.44-0.946l103.922 60c5.182 2.992 8.090 8.776 7.4 14.72l-7.83 67.466c8.168 7.59 16.098 15.52 23.686 23.686l67.466-7.83c5.95-0.69 11.728 2.22 14.72 7.4l60 103.924c2.99 5.178 2.618 11.638-0.946 16.44l-40.424 54.458c3.296 10.706 6.202 21.56 8.678 32.426l62.246 26.948c5.492 2.376 9.044 7.786 9.044 13.766v120c0 5.98-3.552 11.39-9.042 13.766zM994 397.852l-60.256-26.086c-4.472-1.936-7.724-5.922-8.722-10.692-3.114-14.864-7.104-29.78-11.862-44.33-1.512-4.626-0.688-9.696 2.212-13.602l39.126-52.71-50.146-86.856-65.302 7.578c-4.838 0.556-9.644-1.26-12.894-4.882-10.176-11.34-21.088-22.25-32.428-32.428-3.624-3.25-5.442-8.058-4.882-12.894l7.578-65.302-86.856-50.146-52.712 39.126c-3.906 2.9-8.976 3.726-13.602 2.212-14.552-4.758-29.468-8.75-44.33-11.86-4.77-0.998-8.756-4.25-10.692-8.722l-26.084-60.258h-100.296l-26.086 60.258c-1.936 4.472-5.922 7.724-10.692 8.722-14.862 3.112-29.776 7.102-44.33 11.86-4.624 1.512-9.696 0.688-13.602-2.212l-52.71-39.126-86.856 50.146 7.578 65.302c0.56 4.834-1.258 9.642-4.88 12.892-11.34 10.178-22.252 21.090-32.43 32.43-3.25 3.624-8.056 5.434-12.892 4.88l-65.302-7.578-50.15 86.856 39.126 52.71c2.9 3.906 3.726 8.978 2.212 13.602-4.758 14.552-8.75 29.468-11.86 44.33-0.998 4.77-4.25 8.756-8.722 10.692l-60.256 26.088v100.296l60.258 26.086c4.472 1.936 7.724 5.922 8.722 10.692 3.112 14.862 7.102 29.776 11.86 44.33 1.512 4.626 0.688 9.696-2.212 13.602l-39.128 52.712 50.146 86.856 65.302-7.578c4.84-0.552 9.644 1.26 12.894 4.882 10.178 11.34 21.088 22.252 32.428 32.428 3.624 3.25 5.442 8.058 4.882 12.894l-7.578 65.302 86.856 50.146 52.71-39.126c3.906-2.9 8.976-3.728 13.602-2.212 14.55 4.758 29.466 8.748 44.33 11.862 4.77 1 8.756 4.25 10.692 8.722l26.088 60.254h100.296l26.086-60.256c1.936-4.472 5.922-7.724 10.692-8.722 14.864-3.114 29.78-7.104 44.33-11.862 4.626-1.516 9.696-0.688 13.602 2.212l52.712 39.126 86.856-50.146-7.578-65.302c-0.56-4.836 1.26-9.642 4.882-12.894 11.342-10.176 22.252-21.086 32.428-32.428 3.25-3.622 8.052-5.44 12.894-4.882l65.302 7.578 50.146-86.856-39.126-52.712c-2.9-3.906-3.726-8.978-2.212-13.602 4.758-14.55 8.748-29.466 11.862-44.33 1-4.77 4.25-8.756 8.722-10.692l60.254-26.084zM512 840c-93.148 0-183.44-33.26-254.244-93.652-6.302-5.376-7.054-14.844-1.678-21.146s14.844-7.054 21.146-1.678c65.38 55.764 148.758 86.476 234.776 86.476 199.608 0 362-162.392 362-362s-162.392-362-362-362-362 162.392-362 362c0 86.018 30.712 169.396 86.476 234.776 5.376 6.302 4.626 15.77-1.678 21.146s-15.772 4.626-21.146-1.678c-60.392-70.804-93.652-161.096-93.652-254.244 0-216.15 175.85-392 392-392s392 175.85 392 392-175.85 392-392 392zM512 116c183.066 0 332 148.934 332 332s-148.934 332-332 332-332-148.934-332-332 148.934-332 332-332zM497 615c0 8.272 6.728 15 15 15s15-6.728 15-15-6.728-15-15-15-15 6.728-15 15zM512 750c166.524 0 302-135.476 302-302 0-129.618-82.086-240.412-197-283.162v96.948l55.606 55.606c2.814 2.812 4.394 6.628 4.394 10.606v77.58c17.458 6.192 30 22.864 30 42.42 0 24.814-20.186 45-45 45s-45-20.186-45-45c0-19.556 12.542-36.228 30-42.42v-71.368l-55.606-55.606c-2.814-2.812-4.394-6.628-4.394-10.606v-112.57c-19.328-4.958-39.396-8.042-60-9.056v426.208c17.458 6.192 30 22.864 30 42.42 0 24.814-20.186 45-45 45s-45-20.186-45-45c0-19.556 12.542-36.228 30-42.42v-426.206c-20.604 1.012-40.672 4.098-60 9.056v112.57c0 3.978-1.58 7.794-4.394 10.606l-55.606 55.606v71.368c17.458 6.192 30 22.864 30 42.42 0 24.814-20.186 45-45 45s-45-20.186-45-45c0-19.556 12.542-36.228 30-42.42v-77.58c0-3.978 1.58-7.794 4.394-10.606l55.606-55.606v-96.948c-114.914 42.748-197 153.542-197 283.16 0 166.524 135.476 302 302 302zM647 448c0 8.272 6.728 15 15 15s15-6.728 15-15-6.728-15-15-15-15 6.728-15 15zM347 448c0 8.272 6.728 15 15 15s15-6.728 15-15-6.728-15-15-15-15 6.728-15 15z" />
<glyph unicode="&#xe924;" glyph-name="tick" d="M442.868 266.827c-11.125 0-22.249 4.238-29.136 12.449l-154.951 158.924c-16.687 16.687-15.098 42.909 1.324 58.007 16.687 16.687 42.909 15.098 58.007-1.324l125.815-130.053 265.933 251.894c16.687 15.098 42.909 15.098 58.007-1.324 15.098-16.687 15.098-42.909-1.324-58.007l-294.539-279.706c-8.476-6.887-19.601-10.86-29.136-10.86z" />
<glyph unicode="&#xe925;" glyph-name="twitter" d="M1024 765.504c-38.080-16.704-78.656-27.776-120.96-33.152 43.52 25.984 76.736 66.816 92.352 116.032-40.576-24.192-85.376-41.28-133.12-50.816-38.528 41.024-93.44 66.432-153.344 66.432-116.224 0-209.792-94.336-209.792-209.984 0-16.64 1.408-32.64 4.864-47.872-174.528 8.512-328.96 92.16-432.704 219.584-18.112-31.424-28.736-67.392-28.736-106.112 0-72.704 37.44-137.152 93.248-174.464-33.728 0.64-66.816 10.432-94.848 25.856 0-0.64 0-1.472 0-2.304 0-102.016 72.768-186.752 168.192-206.272-17.088-4.672-35.712-6.912-55.040-6.912-13.44 0-27.008 0.768-39.744 3.584 27.2-83.136 104.384-144.256 196.16-146.24-71.424-55.872-162.112-89.536-260.288-89.536-17.216 0-33.728 0.768-50.24 2.88 92.992-59.968 203.2-94.208 322.048-94.208 386.304 0 597.504 320 597.504 597.376 0 9.28-0.32 18.24-0.768 27.136 41.664 29.568 76.672 66.496 105.216 108.992z" />
<glyph unicode="&#xe926;" glyph-name="youtube" d="M980.48 732.16c-27.776 49.408-57.92 58.496-119.296 61.952-61.312 4.16-215.488 5.888-349.056 5.888-133.824 0-288.064-1.728-349.312-5.824-61.248-3.52-91.456-12.544-119.488-62.016-28.608-49.344-43.328-134.336-43.328-283.968 0-0.128 0-0.192 0-0.192 0-0.128 0-0.192 0-0.192v-0.128c0-148.992 14.72-234.624 43.328-283.456 28.032-49.408 58.176-58.368 119.424-62.528 61.312-3.584 215.552-5.696 349.376-5.696 133.568 0 287.744 2.112 349.12 5.632 61.376 4.16 91.52 13.12 119.296 62.528 28.864 48.832 43.456 134.464 43.456 283.456 0 0 0 0.192 0 0.32 0 0 0 0.128 0 0.192 0 149.696-14.592 234.688-43.52 284.032zM384 256v384l320-192-320-192z" />
</font>
</defs>
</svg>
