<svg xmlns="http://www.w3.org/2000/svg" width="535.5" height="481.785" viewBox="0 0 535.5 481.785"><defs><style>.a,.h{fill:none;}.a,.b,.c,.d,.e{stroke:#000;stroke-miterlimit:10;}.b,.g{fill:#ebebeb;}.c{fill:#e60078;}.d{fill:#e60978;}.e,.f{fill:#fff;}.h{stroke:#e30c78;stroke-linecap:round;stroke-linejoin:round;}.i{fill:#e40b79;}.j{fill:#1d1c1a;}.k{fill:#2c2c2c;}.l{fill:#a6a4a4;}.m{fill:#e4e4e3;}</style></defs><g transform="translate(-28.039 -97.454)"><path class="a" d="M524.538,459.277a100.337,100.337,0,0,0-15.519-20.985c-34.946-36.144-100.907-42.943-140.637-10.153a100.335,100.335,0,0,0-35.874,71.727,119.536,119.536,0,0,0,1.829,26.007c2.014,11.588,5.464,23.1,11.79,33.011,15.613,24.474,46.3,35.384,75.305,36.648,49.6,2.161,104.078-18.836,114.209-72.771C539.695,501.18,535.227,478.508,524.538,459.277Z" transform="translate(-146.185 -148.459)"/><path class="a" d="M527.018,353.694a32.447,32.447,0,0,1-.34-8.7q1.24-24.436,2.482-48.872" transform="translate(-239.437 -95.213)"/><path class="a" d="M723.117,556.988,790.06,554.6" transform="translate(-333.849 -219.363)"/><path class="a" d="M523.4,770.845l-6.339,58.209" transform="translate(-234.878 -323.227)"/><path class="a" d="M261.8,591.4a573.728,573.728,0,0,1-75.581,3.74" transform="translate(-75.975 -237.039)"/><path class="a" d="M648.81,409.389q17.142-10.263,33.788-21.325c9.38-6.233,18.635-12.652,27.888-19.07" transform="translate(-298.159 -130.216)"/><path class="a" d="M666.872,723.864a112.259,112.259,0,0,0,14.485,12.353c16.66,12.526,33.914,24.265,50.236,37.228" transform="translate(-306.834 -300.662)"/><path class="a" d="M302.411,706.925c-5.1,1.964-10.206,3.93-15.133,6.293-4.907,2.354-9.62,5.092-14.325,7.826l-35.564,20.667" transform="translate(-100.552 -292.526)"/><path class="a" d="M311.186,428.925c-12.629-6.9-25.265-13.813-38.245-20.032-4.281-2.051-8.6-4.029-12.752-6.334-8.442-4.689-16.125-10.7-24.8-14.944" transform="translate(-99.59 -139.16)"/><path class="b" d="M480.814,630.356c-10.513-.4-20.838-2.721-30.9-5.68-2.484-.73-4.955-1.5-7.419-2.3-1.492-.48-5.606-1.031-6.6-2.235-1.067-1.3-.076-4.929-.018-6.595q.132-3.731-.044-7.465c-.341-7.224-1.535-14.38-1.826-21.607a57.824,57.824,0,0,1,.431-10.673c.687-4.707,2-3.689,6.214-2.866q21.571,4.214,43.329,7.378a2.448,2.448,0,0,1,2.676,2.979l-.264,39.18c-.018,2.6,1.409,7.712-1.362,9.24A8.034,8.034,0,0,1,480.814,630.356Z" transform="translate(-194.957 -226.873)"/><path class="c" d="M578.676,607.574c-.048-1.525.006-3.051.059-4.575.178-5.075-.282-10.013-.321-15.093q-.036-4.806-.4-9.6c-.215-2.826.511-5.57-2.326-5.7-2.685-.125-6.8,2.085-9.4,2.88l-8.793,2.693c-2.236.685-7.868,1.295-9.483,2.9-1.507,1.5-.745,5.485-.77,7.663-.137,12.279-.243,24.559-.419,36.838-.059,4.156.488,3.951,4.364,3.184q4.436-.877,8.831-1.945c5-1.217,12.4-2.08,16.749-4.887C580.4,619.593,578.8,611.439,578.676,607.574Z" transform="translate(-249.175 -228.008)"/><path class="a" d="M482.582,562.577c-5.11-1.1-10.221-2.08-15.292-3.211-6.634-1.48-14.317-1.906-20.678-4.185-.357-.128-.781-.394-.7-.766.056-.267.346-.4.6-.5,4.378-1.617,9.309-1.891,13.894-2.919l15.15-3.4a25.223,25.223,0,0,1,13.578-.2l38.058,7.25a196.472,196.472,0,0,1-21.73,7.181,50.328,50.328,0,0,1-12.231,2.073A47.638,47.638,0,0,1,482.582,562.577Z" transform="translate(-200.7 -215.507)"/><path class="a" d="M522.214,504.444c1.366-4.039-1.4-8.2-4.02-11.568-4.9-6.3-9.892-12.7-16.391-17.336a61.2,61.2,0,0,0-11.54-6.227c-11.784-5.047-24.495-8.174-37.314-8.141S427.2,464.5,416.439,471.467a44.906,44.906,0,0,0-9.047,7.562,72.6,72.6,0,0,0-6.592,9.055c-5.07,7.777-10.359,16.448-9.148,25.653" transform="translate(-174.56 -174.49)"/><path class="a" d="M387.6,559.28c.946-.2,1.254,1.435,2.186,1.692,1.3.36,1.992-2.176,3.321-1.919" transform="translate(-172.7 -221.493)"/><path class="a" d="M395.892,630.809a36.91,36.91,0,0,0,1.721,20.872c1.877,4.812,4.743,9.165,7.588,13.477a35.1,35.1,0,0,0,5.6,7.077,30.452,30.452,0,0,0,9.8,5.342,114.332,114.332,0,0,0,76.025,1.306,52.688,52.688,0,0,0,10.51-4.629c12.989-7.851,19.388-23.582,20.488-38.719.265-3.648.232-7.5-1.5-10.717" transform="translate(-176.308 -253.089)"/><path class="a" d="M643.635,627.551a5.227,5.227,0,0,1,1.515-2.391.59.59,0,0,1,.767-.2l2.94.844" transform="translate(-295.673 -253.13)"/><g transform="translate(262.6 97.883)"><path class="a" d="M532.314,102.117c.251,1.145.347,2.6.562,4.424a147.131,147.131,0,0,1,.7,15.88q.223,24.982.445,49.965c.092,10.311-4.917,9-12.663,9.491-9.318.591-18.606,1.567-27.935,2.073-1.821.1-3.775.157-5.317-.817-2.181-1.378-2.739-4.26-3.08-6.818-3.058-22.524-5.826-46.118-5.636-68.766.02-2.334.154-4.945,1.855-6.545a7.7,7.7,0,0,1,3.367-1.607c4.2-1.129,7.974-.8,12.255-.984,9.993-.438,20.453-.973,30.42.082C530.792,98.867,531.835,99.93,532.314,102.117Z" transform="translate(-479.382 -97.883)"/><path class="d" d="M532.054,179.79c2.14-8.151-9.595-7.178-11.8-1.4-1.149,3.013,1.536,6.607,4.752,6.855S531.235,182.91,532.054,179.79Z" transform="translate(-498.884 -134.378)"/><path class="a" d="M539.476,163.456,546.333,151" transform="translate(-508.245 -123.397)"/><path class="a" d="M560.691,139.512c-.847-4.221-9.134-3.35-8.2,1.378a4.416,4.416,0,0,0,6.1,2.909A4.1,4.1,0,0,0,560.691,139.512Z" transform="translate(-514.462 -116.571)"/><path class="a" d="M530.68,149.126l-19.857-6.782" transform="translate(-494.483 -119.238)"/><path class="d" d="M501.873,137.024c2.249-.812,3.435-3.9,2.053-5.853C499.17,124.451,493.435,140.074,501.873,137.024Z" transform="translate(-488.113 -113.056)"/><path class="a" d="M532.254,196.122l4.591,10.8" transform="translate(-504.777 -145.067)"/><path class="a" d="M540.559,205.086l9.533-4.662" transform="translate(-508.766 -147.134)"/><path class="a" d="M566.45,194.512c2.488-5.56-8.095-4.641-5.836.517a3.153,3.153,0,0,0,4.608,1.167A4.341,4.341,0,0,0,566.45,194.512Z" transform="translate(-518.245 -142.479)"/><path class="a" d="M515.485,189.9a35.408,35.408,0,0,0-5.392,8.331" transform="translate(-494.133 -142.08)"/><path class="a" d="M509.843,210.106c2.677-5.524-7.122-5-7.295-.856a3.48,3.48,0,0,0,3.185,3.368A4.382,4.382,0,0,0,509.843,210.106Z" transform="translate(-490.508 -149.836)"/><path class="d" d="M541.956,222.894c6.6-.243,2.016-7.394-1.762-5.3C537.4,219.137,538.847,223.009,541.956,222.894Z" transform="translate(-507.876 -155.196)"/><path class="a" d="M518.637,146.6a50.612,50.612,0,0,1-3.877,7.109" transform="translate(-496.374 -121.28)"/><path class="a" d="M507.222,164.2c-.691-3.475,4.746-4.8,6-1.748C514.881,166.5,508.037,168.3,507.222,164.2Z" transform="translate(-492.725 -128.075)"/><path class="a" d="M479.676,117.826c3.512,1.136,8.448.1,12.11-.018l13.58-.428,27.16-.857" transform="translate(-479.523 -106.836)"/><path class="a" d="M490.586,246.283a393.28,393.28,0,0,0,48.553-2.629" transform="translate(-484.763 -167.897)"/></g><g transform="translate(412.327 166.86)"><path class="a" d="M788.781,292.6c-6.572-.625-17.719-4.134-20.351-10.85-2.595-6.621.5-17.32,5.193-22.367a20.788,20.788,0,0,1,22.124-5.12,4.225,4.225,0,0,0,1.729.423c1.78-.107,2.431-2.333,2.82-4.073,2.729-12.189,15.611-20.666,28.082-19.964s23.693,9.46,29.082,20.729a4.4,4.4,0,0,0,4.409,3.358c7.7,1.074,15.414,4.646,19.7,11.133s4.12,16.141-1.661,21.341c-4.706,4.234-11.615,4.688-17.946,4.685-17.684-.009-35.4-1.867-53.02-.325C802.228,292.159,795.492,293.24,788.781,292.6Z" transform="translate(-767.487 -230.61)"/><path class="e" d="M847.029,276.328c-5.073-3.81,8.079-7.721,10.066-8.043a49.766,49.766,0,0,1,6.005-.48c2.766-.109,24.554.114,20.669,7.21-1.524,2.783-5.354.465-7.35-.324a27.433,27.433,0,0,0-9.872-1.6,48.978,48.978,0,0,0-8.848.4,17.9,17.9,0,0,0-6.12,2.107C850.073,276.484,848.8,277.656,847.029,276.328Z" transform="translate(-805.136 -248.467)"/><path class="e" d="M856.759,295.9a2.816,2.816,0,0,1-2.193-.092c-1.177-.67-1.239-2.462-.48-3.584,1.736-2.566,4.623-2.6,7.353-3.083,6.136-1.088,12.221-1.356,18.236.571,1.649.529,5.931,3.059,3.281,5.207-1.952,1.582-6.761-1.267-8.708-1.941-3.321-1.15-6.967-.7-10.284.223-2.45.682-4.752,1.939-7.186,2.692Z" transform="translate(-808.841 -258.314)"/><path class="e" d="M870.065,311.862c-3.353,1.672-6.316-1.723-2.826-3.939a15.3,15.3,0,0,1,8.116-1.824c2.358.06,5.271.393,7.274,1.713a3.745,3.745,0,0,1,1.376,1.428,1.828,1.828,0,0,1-.122,1.9,2.864,2.864,0,0,1-1.443.79c-3.014.952-5.745-2.16-8.777-1.716A12.67,12.67,0,0,0,870.065,311.862Z" transform="translate(-814.646 -266.865)"/><path class="d" d="M882,326.571c3.851-2.43-2.7-6.121-5.216-2.359a1.9,1.9,0,0,0,.478,2.659,2.914,2.914,0,0,0,1.216.253A5.89,5.89,0,0,0,882,326.571Z" transform="translate(-819.822 -274.794)"/></g><g transform="translate(473.256 267.287)"><g transform="translate(46.121 50.801)"><path class="f" d="M974.79,521.7l-.554,2.1.174,18.794s.632,17.473.38,19.373c.38,0,.475.19.475.19s7.394-.522,9.021-.95l.1-.946s-.35-9.69-.414-17.667c.253-7.977.284-18.7.49-20.177C983.732,522.127,982.766,521.323,974.79,521.7Z" transform="translate(-973.84 -521.603)"/><g transform="translate(0 0.121)"><path class="a" d="M974.205,522.005a64.465,64.465,0,0,1,8.736,0" transform="translate(-973.825 -521.836)"/><path class="a" d="M974.205,524.354s.759,34.567.379,39.125" transform="translate(-973.825 -523.045)"/><path class="a" d="M993.471,522.161s-1.139,35.326,0,38.745" transform="translate(-982.836 -521.992)"/><path class="a" d="M973.474,598.936a65.433,65.433,0,0,0,10.256-.76" transform="translate(-973.474 -558.503)"/></g></g><g transform="translate(62.444 42.259)"><path class="g" d="M1015.716,505.539s-10.24-.7-10.818.6c.364,1.844.444,24.5.444,24.5l.619,22.817,8.195.379.576-1.492s-.345-40.4,1.079-44.741A8.251,8.251,0,0,1,1015.716,505.539Z" transform="translate(-1004.89 -505.254)"/><path class="a" d="M1004.882,505.35c0,1.9.76,45.962,1.14,49" transform="translate(-1004.882 -505.255)"/><path class="a" d="M1024.832,507.542c-.38,4.558-1.9,20.132-1.14,47.1" transform="translate(-1013.816 -506.308)"/><path class="a" d="M1016.192,505.262s-7.977-.38-9.116.38" transform="translate(-1005.935 -505.167)"/><path class="a" d="M1015.489,598.315s-7.217-1.139-9.876-.38" transform="translate(-1005.233 -549.599)"/></g><g transform="translate(79.147 29.531)"><path class="f" d="M1037.64,480.8l-.609,2.531.415,32.571.194,26.637,9.262-.386.76-2.707s-.57-26.084-.38-28.743c0-4.938-.375-29.142-.375-29.142s-1.335-1.035-5.7-.761A21.109,21.109,0,0,1,1037.64,480.8Z" transform="translate(-1037.026 -480.711)"/><path class="a" d="M1045.379,480.845s-6.458-.38-8.357,0" transform="translate(-1037.022 -480.676)"/><path class="a" d="M1056.026,481c0,1.9.76,58.5.76,59.637" transform="translate(-1046.15 -480.832)"/><path class="a" d="M1037.022,483.925c0,4.558.76,56.978.76,59.637" transform="translate(-1037.022 -482.237)"/><path class="a" d="M1047.658,598.679c-1.9.38-7.6.38-10.636.38" transform="translate(-1037.022 -537.353)"/></g><path class="h" d="M993.234,423.852c-1.14,4.938-3.039,26.21-28.869,37.226-9.876,3.8-22.791,8.737-30.768,11.4" transform="translate(-908.199 -423.852)"/><path class="c" d="M907.39,526.407s4.6.354,7.032,2.934c1.467-.607,3.49-1.568,3.49-1.568s.759-.253,1.164.2,1.771,1.771,1.771,2.125a14.96,14.96,0,0,1-1.517,3.744,15.064,15.064,0,0,1,2.378,7.285c1.771.81,3.339,1.366,3.439,1.973a17.8,17.8,0,0,1-.607,4.4,20.835,20.835,0,0,1-3.541.4,11.5,11.5,0,0,1-4.1,6.375c1.164,2.378,1.365,3.136,1.365,3.389a8.8,8.8,0,0,1-2.883,2.074c-.455,0-1.568-1.214-2.985-2.125a11.7,11.7,0,0,1-8.044,1.518,30.644,30.644,0,0,1-2.378,3.44,14.166,14.166,0,0,0-3.036-.809c-.1-.861.2-3.441-.3-3.845a13.5,13.5,0,0,1-7.386-6.628c-.607-.253-1.72-.151-4.1.506-.506-.253-1.417-4.1-2.429-4.756,1.164-.759,3.187-1.922,3.542-2.53-.3-2.074-1.163-4.806,2.023-8.6-1.214-1.568-3.137-2.074-3.036-2.681s1.973-3.491,2.631-3.642c.758.254,2.529,1.215,3.086,1.417a12.921,12.921,0,0,1,8.55-4.756,9.918,9.918,0,0,1,.961-3.49,5.9,5.9,0,0,1,3.743.05A14.149,14.149,0,0,1,907.39,526.407Zm-6.931,20.034c3.187,3.44,7.285,2.53,8.3,1.265a6.58,6.58,0,0,0,0-8.4c-3.288-3.39-7.234-1.72-8.5.3C898.334,542.394,898.84,544.823,900.459,546.441Z" transform="translate(-884.727 -471.225)"/></g><g transform="translate(447.931 443.236)"><path class="e" d="M911.436,828.5q1.262,19.35.933,38.755c-.033,1.954,13.3,4.337,15.032,4.56,6.848.881,14.4.359,20.709-2.521a1.628,1.628,0,0,0,1.161-1.83l.845-22.158q.211-5.54.423-11.081c.068-1.766.283-3.508.4-5.269a1.057,1.057,0,0,0-.145-.761c-.235-.279-.669-.239-1.028-.173-2.455.45-5.166,1.363-7.643,1.276l-30.328-1.064" transform="translate(-872.231 -793.903)"/><path class="e" d="M945.989,820.935c-.625-.146-1.259-.259-1.888-.362a99.045,99.045,0,0,0-19.811-1.311c-3.184.129-7.319.171-10.174,1.815-6,3.453-.664,6.18,3.69,6.707a146.2,146.2,0,0,0,19.793,1.039c3.278-.051,8.467.141,11.3-1.818C952.839,824.285,949.67,821.792,945.989,820.935Z" transform="translate(-872.231 -789.685)"/><path class="a" d="M912.465,847.32a13.546,13.546,0,0,0,4.553,1.165,187.81,187.81,0,0,0,22.069,1.565c3.761.045,7.657-.052,11.065-1.646" transform="translate(-872.725 -803.195)"/><path class="a" d="M913.208,867.182c6.377,3,13.662,3.219,20.709,3.293,5.693.061,11.628.008,16.717-2.545" transform="translate(-873.082 -812.734)"/><path class="a" d="M913.386,886.878a67.2,67.2,0,0,0,12.341,1.657c8.308.587,16.913,1.076,24.715-1.841" transform="translate(-873.167 -822.107)"/><path class="e" d="M887.373,815.693l1.723-43.015a6.529,6.529,0,0,0-.575-3.691c-1.435-2.339-9.584-.379-12.092-.4q-5.909-.041-11.818,0c-4.686.031-9.374-.175-14.061-.168-2.927,0-5.878-.021-8.8.2-3.373.251-4.421.046-5.247,3.533-1.172,4.948.047,11.9.15,17.012q.17,8.492.532,16.978.591,13.841,1.692,27.65c.332,4.158-.306,6.868,3.429,8.85,2.62,1.39,5.89,1.76,8.766,2.123,9.785,1.288,20.475,2.229,29.783-1.726,5.74-2.439,5.182-3.65,5.531-9.716C886.72,827.491,887.148,821.306,887.373,815.693Z" transform="translate(-835.997 -765.019)"/><path class="e" d="M885.887,764.924c-13.411-2.818-28.249-3.651-41.633-.471-2.82.67-7.724,3.262-4.766,6.588,2.323,2.612,10.318,2.1,13.455,2.34a159.98,159.98,0,0,0,31.591-.715,9.941,9.941,0,0,0,4.076-1.126,3.538,3.538,0,0,0,1.8-3.565C889.99,766.095,887.774,765.321,885.887,764.924Z" transform="translate(-837.233 -762.414)"/><path class="a" d="M836.5,798.585c3.017,1.764,6.539,2.425,10,2.936a150.021,150.021,0,0,0,26.025,1.552c5.623-.154,11.527-.723,16.179-3.886" transform="translate(-836.24 -779.787)"/><path class="a" d="M837.862,823.717A76.587,76.587,0,0,0,880.5,826.3c2.919-.665,5.889-1.549,8.2-3.451" transform="translate(-836.893 -791.44)"/><path class="a" d="M889.037,848.752c-8.372,2.821-17.19,3.29-25.956,3.161-7.761-.114-16.3-.114-23.142-4.294" transform="translate(-837.89 -803.338)"/><path class="a" d="M840.077,872.188c2.937,2.234,6.833,2.644,10.514,2.9q11.225.788,22.489.7c5.306-.04,10.787-.266,15.581-2.539" transform="translate(-837.957 -815.139)"/><path class="a" d="M842.006,891.415a88.289,88.289,0,0,0,47.235-1.477" transform="translate(-838.883 -823.664)"/><path class="e" d="M931.891,866.527c-9.971-12.554-34.724-12.171-38.5,8.381-1.6,8.728,2.936,18.443,11,22.139a24.124,24.124,0,0,0,6.9,1.88,25.249,25.249,0,0,0,10.359-.6,20.394,20.394,0,0,0,14.12-16.154A19.709,19.709,0,0,0,931.891,866.527Z" transform="translate(-863.409 -808.364)"/><path class="i" d="M916.2,880.17A6.839,6.839,0,0,0,918.093,883a5.849,5.849,0,0,0,.8.6,5.1,5.1,0,0,0,.835.43c.058.023.112.053.169.076a19.688,19.688,0,0,0,3.08.781c.066,2.04.119,4.156.151,6.439a12.113,12.113,0,0,1-2.937-2.244,1.989,1.989,0,0,0-1.5-.689,2.3,2.3,0,0,0-2.03,1.351,1.918,1.918,0,0,0,.391,2.137,16.058,16.058,0,0,0,6.114,4l0,.684a2.049,2.049,0,0,0,.59,1.5,2.286,2.286,0,0,0,1.623.653,1.893,1.893,0,0,0,1.99-1.95v-.13a6.7,6.7,0,0,0,4.475-1.751,9.7,9.7,0,0,0,3.288-6.976,5.251,5.251,0,0,0-1.506-3.546,6.2,6.2,0,0,0-.56-.516,14.054,14.054,0,0,0-6.035-2.515c-.022-.595-.049-1.191-.075-1.786q-.055-1.434-.116-2.862a11.9,11.9,0,0,1,2.022.72,1.881,1.881,0,0,0,2.671-1.422,2.309,2.309,0,0,0-.354-1.818,2.2,2.2,0,0,0-.867-.715,15.1,15.1,0,0,0-3.662-1.119v-.022a2.237,2.237,0,0,0-2.3-2.125,1.935,1.935,0,0,0-1.427.569,1.837,1.837,0,0,0-.48,1.391v.031a12.428,12.428,0,0,0-1.266.227,9.334,9.334,0,0,0-1.165.346,7.775,7.775,0,0,0-.916.4,7.608,7.608,0,0,0-.91.546,6.688,6.688,0,0,0-1.084.951,5.2,5.2,0,0,0-1.1,4.892,5.622,5.622,0,0,0,.191.627Zm14.784,8.1a5.425,5.425,0,0,1-2.124,3.6,3.386,3.386,0,0,1-1.515.542c-.032-2.342-.076-4.55-.147-6.715a9.993,9.993,0,0,1,3.172,1.373,1.359,1.359,0,0,1,.613,1.2Zm-8.177-7.75c-.284-.061-.569-.129-.844-.2a2.4,2.4,0,0,1-1.857-1.88,1.348,1.348,0,0,1,.244-.929,2.108,2.108,0,0,1,.791-.645,5.367,5.367,0,0,1,1.494-.471c.031.7.058,1.4.089,2.089s.058,1.356.084,2.035Zm0,0" transform="translate(-874.342 -814.177)"/></g><g transform="translate(226.348 523.343)"><path class="a" d="M428.605,971.813c-5.857-.557-15.794-3.685-18.14-9.672-2.313-5.9.449-15.439,4.629-19.937a18.528,18.528,0,0,1,19.721-4.564,3.778,3.778,0,0,0,1.542.377c1.586-.1,2.166-2.08,2.513-3.631,2.432-10.865,13.915-18.422,25.032-17.8s21.119,8.432,25.922,18.477a3.917,3.917,0,0,0,3.929,2.993c6.865.958,13.74,4.142,17.561,9.924s3.672,14.388-1.481,19.023c-4.195,3.774-10.353,4.178-16,4.175-15.763-.008-31.557-1.664-47.26-.29C440.592,971.418,434.587,972.382,428.605,971.813Z" transform="translate(-409.625 -916.555)"/><path class="a" d="M467.046,966.173c-2.286-1.013-4.927.536-6.537,2.449a10.787,10.787,0,0,0-2.672,6.239,7.194,7.194,0,0,0,2.624,6.093c2.328,1.76,5.529,1.615,8.438,1.39a3.537,3.537,0,0,0,2.388-.8" transform="translate(-432.776 -940.234)"/><path class="a" d="M491.466,966.155a72.4,72.4,0,0,1-.5,15.93" transform="translate(-448.694 -940.378)"/><path class="a" d="M490.532,964.836a44.771,44.771,0,0,1,8.2-.51,4.561,4.561,0,0,1,2.63.652c1.327.99,1.215,3.175.119,4.417A6.464,6.464,0,0,1,497,971.209c-1.652.113-3.324-.054-4.957.217l8.724,4.123c2.3,1.086,4.769,2.339,5.855,4.638" transform="translate(-448.485 -939.49)"/><path class="a" d="M529.82,964.45v15.877" transform="translate(-467.355 -939.56)"/><path class="a" d="M529.851,962.432q4.093,4.568,8.2,9.126,3.612-5.422,6.674-11.183-.251,8.089-.5,16.179" transform="translate(-467.37 -937.602)"/></g><g transform="translate(39.586 453.021)"><path class="j" d="M96.742,819.841a8.019,8.019,0,0,1-5.486-2.312,5.74,5.74,0,0,1-1.8-4.233,5.674,5.674,0,0,1,.389-1.77c-4-4.447-8.087-8.808-12.624-13.611a5.762,5.762,0,0,1-1.528.161,8.021,8.021,0,0,1-4.556-1.524c-2.193,1.083-4.376,2.1-6.426,3.047a2.651,2.651,0,0,1-.057.385c-.57,2.89-3.521,5.159-6.863,5.277h0c-.076,0-.152,0-.228,0a8.034,8.034,0,0,1-5.486-2.311,5.753,5.753,0,0,1-1.813-4.238,6.487,6.487,0,0,1,3.151-5.083c2.525-1.229,7-.958,9.444,1.172,1.67-.769,3.6-1.671,5.562-2.634a4.876,4.876,0,0,1-.019-.641,6.514,6.514,0,0,1,3.142-5.083c3.018-1.452,8.495-.712,10.365,2.221a5.584,5.584,0,0,1,.873,4.124,5.726,5.726,0,0,1-1.091,2.373c3.8,4.025,7.821,8.305,11.77,12.71a10.28,10.28,0,0,1,5-.162q.854-3.587,1.68-7.181c.683-2.933,1.367-5.866,2.079-8.794a5.9,5.9,0,0,1-2.326-4.693,6.514,6.514,0,0,1,3.142-5.083c3.018-1.457,8.5-.707,10.365,2.216a5.658,5.658,0,0,1,.873,4.129,4.161,4.161,0,0,1-.228.807c2.041,1.229,4.025,2.6,5.894,3.9a1.241,1.241,0,0,1,.114-.057c3-1.461,8.495-.7,10.355,2.221a5.587,5.587,0,0,1,.874,4.124c-.56,2.891-3.5,5.159-6.853,5.278-.076,0-.152,0-.238,0a8.024,8.024,0,0,1-5.477-2.3,5.755,5.755,0,0,1-1.813-4.243,5.41,5.41,0,0,1,.1-.821c-2.1-1.471-4.338-3-6.663-4.333a7.684,7.684,0,0,1-2.924.7c-.123,0-.247-.009-.361,0-.626,2.582-1.224,5.168-1.822,7.76-.722,3.08-1.433,6.165-2.183,9.236a5.6,5.6,0,0,1,.778,3.972c-.569,2.89-3.512,5.159-6.853,5.278C96.9,819.841,96.818,819.841,96.742,819.841Zm-19.2-23,.19.2c4.7,4.969,8.913,9.464,13.042,14.057l.209.228-.124.29a4.968,4.968,0,0,0-.437,1.7,4.79,4.79,0,0,0,1.519,3.517,7.047,7.047,0,0,0,4.8,2.027h.2c2.857-.1,5.458-2.079,5.942-4.495a4.612,4.612,0,0,0-.683-3.322l-.228-.119.085-.375c.769-3.137,1.5-6.284,2.231-9.425.636-2.724,1.262-5.448,1.918-8.163l.1-.4.408.033a6.317,6.317,0,0,0,.674.024,6.848,6.848,0,0,0,2.752-.717l.228-.114.228.128c2.544,1.433,4.973,3.108,7.242,4.7l.285.2-.095.337a3.954,3.954,0,0,0-.162.916A4.81,4.81,0,0,0,119.4,801.6a7.1,7.1,0,0,0,4.993,2.017c2.867-.1,5.467-2.079,5.942-4.49a4.628,4.628,0,0,0-.74-3.422c-1.595-2.473-6.464-3.142-9.132-1.865a2.024,2.024,0,0,0-.19.114l-.275.176-.351-.128c-2.041-1.428-4.215-2.937-6.455-4.266l-.38-.223.18-.4a4.463,4.463,0,0,0,.333-.987,4.638,4.638,0,0,0-.741-3.422c-1.594-2.483-6.493-3.151-9.131-1.865a5.546,5.546,0,0,0-2.591,4.238,5.044,5.044,0,0,0,2.193,4.1l.256.19-.076.309c-.741,3.023-1.443,6.056-2.145,9.083q-.882,3.838-1.794,7.66l-.114.479-.484-.124a9.112,9.112,0,0,0-5.212.128l-.313.114-.218-.247c-4.12-4.589-8.315-9.055-12.264-13.241l-.3-.318.285-.332a4.992,4.992,0,0,0,1.158-2.264,4.666,4.666,0,0,0-.741-3.417c-1.575-2.477-6.454-3.147-9.131-1.87a5.54,5.54,0,0,0-2.591,4.238,3.605,3.605,0,0,0,.067.817l.057.351-.323.161c-2.2,1.087-4.376,2.093-6.208,2.938l-.3.142-.237-.237c-2.06-2.036-6.312-2.316-8.59-1.225a5.576,5.576,0,0,0-2.6,4.238,4.786,4.786,0,0,0,1.528,3.517,7.026,7.026,0,0,0,4.8,2.031h.19c2.857-.1,5.467-2.079,5.951-4.494.029-.185.048-.37.067-.565l.029-.28.256-.119c2.193-1.015,4.556-2.117,6.92-3.289l.275-.132.247.185a6.992,6.992,0,0,0,4.186,1.5h.209a6.728,6.728,0,0,0,1.376-.2Z" transform="translate(-50.258 -781.241)"/><path class="k" d="M186.929,812.339a2.287,2.287,0,0,0,.441-.6c1.492-1.1,6.457.4,4.916,2.258-.045.054-.095.108-.149.163-1.334,1.307-5.857-.014-5.208-1.816Z" transform="translate(-115.872 -795.707)"/><path class="i" d="M154.417,790.764c1.154-1.46,6.753.108,5.131,2.068-.045.054-.095.109-.149.163-1.437,1.4-6.56-.231-4.983-2.231Z" transform="translate(-100.143 -785.54)"/><path class="i" d="M134.329,841.274c1.153-1.46,6.75.107,5.127,2.068a1.14,1.14,0,0,1-.149.162c-1.432,1.4-6.555-.23-4.978-2.23Z" transform="translate(-90.495 -809.8)"/><path class="k" d="M93.823,799.4c1.153-1.46,6.75.107,5.127,2.068-.045.053-.095.108-.149.162-1.432,1.4-6.56-.23-4.978-2.229Z" transform="translate(-71.039 -789.688)"/><path class="i" d="M58.929,813.227c1.153-1.46,6.75.108,5.133,2.068-.045.05-.095.1-.149.158-1.437,1.405-6.561-.226-4.984-2.226Z" transform="translate(-54.279 -796.329)"/><path class="j" d="M59.2,813.756" transform="translate(-54.555 -796.858)"/><path class="j" d="M102,858.6a9.015,9.015,0,0,1-6.1-2.5,5.427,5.427,0,0,1-1.737-4.044,5.183,5.183,0,0,1,.417-1.77c-4.461-4.6-9.122-9.179-13.63-13.611a8.583,8.583,0,0,1-1.415.166c-.076,0-.152,0-.228,0a8.956,8.956,0,0,1-4.926-1.538c-2.012.916-4.2,1.87-7,3.066a2.534,2.534,0,0,1-.057.371c-.608,2.9-3.778,5.163-7.366,5.277-.086.005-.162.005-.247.005a8.986,8.986,0,0,1-6.094-2.5,5.43,5.43,0,0,1-1.737-4.048,6.4,6.4,0,0,1,3.388-5.087c2.724-1.244,7.537-.968,10.137,1.2q3.047-1.31,6.065-2.662a4.537,4.537,0,0,1-.029-.626,6.415,6.415,0,0,1,3.389-5.093c3.208-1.443,9.112-.7,11.105,2.207a5.32,5.32,0,0,1,.949,4.157,5.558,5.558,0,0,1-1.177,2.359c3.9,3.82,8.362,8.234,12.729,12.719a11.587,11.587,0,0,1,5.439-.157c.645-2.505,1.272-5.011,1.9-7.517.712-2.824,1.414-5.643,2.155-8.462a5.787,5.787,0,0,1-2.506-4.7,6.507,6.507,0,0,1,3.379-5.083c3.2-1.457,9.1-.717,11.115,2.207a5.289,5.289,0,0,1,.949,4.148,6.064,6.064,0,0,1-.238.792c2.278,1.277,4.462,2.677,6.379,3.92a1.3,1.3,0,0,1,.161-.081c3.209-1.447,9.094-.707,11.1,2.212a5.282,5.282,0,0,1,.949,4.152c-.6,2.891-3.768,5.154-7.356,5.268-.085,0-.161,0-.238,0a8.983,8.983,0,0,1-6.113-2.511,5.4,5.4,0,0,1-1.737-4.034,3.988,3.988,0,0,1,.123-.812c-2.392-1.547-4.755-3.037-7.223-4.343a8.986,8.986,0,0,1-3.17.7,4.147,4.147,0,0,1-.418,0c-.731,2.776-1.423,5.557-2.117,8.339-.721,2.89-1.443,5.776-2.2,8.657a5.257,5.257,0,0,1,.835,3.977c-.607,2.895-3.778,5.159-7.356,5.268C102.164,858.6,102.079,858.6,102,858.6ZM81.254,835.61l.19.186c4.651,4.57,9.463,9.292,14.067,14.052l.238.242-.152.3a4.5,4.5,0,0,0-.465,1.689,4.546,4.546,0,0,0,1.461,3.327A7.962,7.962,0,0,0,102,857.626h.209c3.1-.095,5.932-2.069,6.445-4.5a4.329,4.329,0,0,0-.8-3.393l-.1-.109.009-.313c.779-2.943,1.519-5.9,2.259-8.856q1.082-4.364,2.212-8.732l.1-.389.408.029c.237.015.474,0,.721.024a8.125,8.125,0,0,0,3.018-.717l.218-.1.209.109c2.686,1.4,5.22,3.023,7.8,4.694l.313.2-.114.351a3.662,3.662,0,0,0-.18.921,4.546,4.546,0,0,0,1.452,3.3,7.988,7.988,0,0,0,5.42,2.226h.209c3.113-.1,5.942-2.074,6.445-4.5a4.3,4.3,0,0,0-.8-3.4c-1.727-2.5-7.034-3.166-9.91-1.875l-.009,0a1.043,1.043,0,0,0-.171.1l-.4.232-.247-.161c-2.06-1.348-4.47-2.9-6.967-4.267l-.4-.223.2-.418a4.432,4.432,0,0,0,.351-.992,4.331,4.331,0,0,0-.8-3.393c-1.727-2.5-7.052-3.165-9.919-1.875a5.531,5.531,0,0,0-2.809,4.228,4.988,4.988,0,0,0,2.373,4.082l.275.194-.086.328c-.769,2.919-1.5,5.842-2.231,8.766q-1,3.993-2.022,7.982l-.123.465-.465-.119a10.666,10.666,0,0,0-5.657.128l-.294.1-.218-.223c-4.537-4.68-9.217-9.288-13.241-13.241l-.341-.332.332-.347a4.838,4.838,0,0,0,1.244-2.255,4.32,4.32,0,0,0-.8-3.4c-1.718-2.5-7.034-3.161-9.91-1.875a5.528,5.528,0,0,0-2.819,4.238,3.891,3.891,0,0,0,.076.816l.057.365-.342.152c-2.211,1.007-4.451,1.979-6.692,2.938l-.285.124-.237-.214c-2.231-2.055-6.825-2.354-9.321-1.234a5.518,5.518,0,0,0-2.819,4.234,4.556,4.556,0,0,0,1.461,3.332,7.954,7.954,0,0,0,5.4,2.212h.209c3.1-.1,5.942-2.074,6.454-4.5a4.528,4.528,0,0,0,.067-.536l.009-.3.285-.118c3.038-1.3,5.353-2.312,7.489-3.285l.256-.119.228.166a8.165,8.165,0,0,0,4.594,1.514h.19a7.8,7.8,0,0,0,1.49-.2Z" transform="translate(-51.039 -799.858)"/><path class="k" d="M66.69,854.067c-.049.054-.1.107-.163.162-1.549,1.4-7.077-.23-5.375-2.23,1.248-1.46,7.286.109,5.537,2.068Z" transform="translate(-55.336 -814.951)"/><path class="i" d="M104.338,840.237a1.646,1.646,0,0,1-.158.163c-1.55,1.4-7.079-.229-5.375-2.23,1.243-1.459,7.28.109,5.533,2.068Z" transform="translate(-73.421 -808.309)"/><path class="k" d="M148.046,882.112c-.049.054-.1.108-.161.163-1.55,1.4-7.079-.23-5.376-2.231,1.248-1.459,7.286.109,5.537,2.068Z" transform="translate(-94.412 -828.422)"/><path class="k" d="M169.723,831.6c-.049.054-.1.107-.162.162-1.546,1.4-7.079-.23-5.371-2.23,1.243-1.46,7.28.108,5.533,2.068Z" transform="translate(-104.825 -804.162)"/><path class="i" d="M205.042,852.768c-.05.055-.1.1-.163.158-1.437,1.306-6.316-.014-5.618-1.816a2.307,2.307,0,0,0,.478-.6c1.609-1.1,6.965.4,5.3,2.262Z" transform="translate(-121.792 -814.329)"/><path class="j" d="M210.448,855.206" transform="translate(-127.198 -816.767)"/></g><g transform="translate(28.039 330.804)"><path class="j" d="M57.82,609.922c-9.038,0-16.9-3.14-22.206-8.9a29.649,29.649,0,0,1-7.108-15.837,1.939,1.939,0,0,1-.113-.9,45.942,45.942,0,0,1,1.065-16.936c1.79-7.145,5.029-12.56,9.633-16.112a22.915,22.915,0,0,1,7.362-3.765l.371-.11a21.877,21.877,0,0,1,6.8-1.285c7.407.419,14.573,1.086,20.787,4.528h0c6.173,3.428,11,9.179,14.339,17.094,4.758,11.274,3.683,22.261-2.951,30.141-6.07,7.207-16.451,11.831-27.091,12.072C58.408,609.922,58.112,609.922,57.82,609.922Zm-4.662-63.155a22.768,22.768,0,0,0-6.132,1.271l-.367.11A22.206,22.206,0,0,0,39.52,551.8c-4.476,3.442-7.63,8.733-9.382,15.714a45.5,45.5,0,0,0-1.045,16.75,1.687,1.687,0,0,0,.089.742,29.092,29.092,0,0,0,6.946,15.535c5.174,5.613,12.852,8.677,21.691,8.677.288,0,.574-.007.866-.014,10.443-.234,20.626-4.761,26.572-11.818C91.713,589.722,92.75,579,88.1,567.977c-3.281-7.77-8-13.4-14.037-16.75-6.08-3.373-13.16-4.026-20.484-4.446C53.44,546.774,53.3,546.767,53.158,546.767Z" transform="translate(-28.039 -546.071)"/><path class="l" d="M43.381,563.2c3.685-5.811,9.624-8.324,15.983-8.751a29.423,29.423,0,0,0-9.285,11.13,78.161,78.161,0,0,0-9.15,2.478,28.935,28.935,0,0,1,2.452-4.857Z" transform="translate(-34.23 -550.092)"/><path class="m" d="M36.3,600.913a43.967,43.967,0,0,1,.908-14.353,76.824,76.824,0,0,1,8.837-2.71A40.661,40.661,0,0,0,44.965,605a35.476,35.476,0,0,1-8.582-3.416c-.025-.222-.057-.441-.078-.666Z" transform="translate(-31.907 -564.216)"/><path class="l" d="M54.676,643.44c-8.876-2.305-14.266-8.579-16.406-16.708a41.679,41.679,0,0,0,8.794,2.847A35.265,35.265,0,0,0,55.3,643.587c-.205-.047-.413-.093-.622-.147Z" transform="translate(-32.953 -584.813)"/><path class="i" d="M62.93,633.527a73.013,73.013,0,0,0,8.377.591c.047,4.062.219,8.12.6,12.174a29.391,29.391,0,0,1-8.978-12.765Z" transform="translate(-44.798 -588.076)"/><path class="l" d="M69.13,604.8a61.179,61.179,0,0,1-9.569-.8,36.8,36.8,0,0,1,1.5-22.888,72.919,72.919,0,0,1,9.006-1.075c-.381,8.255-.883,16.511-.934,24.762Z" transform="translate(-42.628 -562.384)"/><path class="m" d="M74.586,566.482q-3.56.171-7.089.681a25.449,25.449,0,0,1,7.3-7.7c-.043,2.341-.122,4.682-.212,7.023Z" transform="translate(-46.991 -552.501)"/><path class="l" d="M106.433,559.974a25.922,25.922,0,0,1,8,8.711,62.847,62.847,0,0,0-12.64-3.319,52.356,52.356,0,0,0-7.364-9.754,31.278,31.278,0,0,1,12.008,4.363Z" transform="translate(-59.925 -550.653)"/><path class="l" d="M88.42,559.777a48.436,48.436,0,0,1,5.689,7.026q-2.936-.252-5.9-.254c.09-2.259.166-4.517.208-6.772Z" transform="translate(-56.941 -552.654)"/><path class="i" d="M87.046,579.822a65.3,65.3,0,0,1,8.334.491,35.739,35.739,0,0,1,4.072,14.106,25.514,25.514,0,0,1-1.006,9.066,106.19,106.19,0,0,1-10.812,1.1c-.507.025-1.02.047-1.529.064.053-8.277.563-16.554.94-24.83Z" transform="translate(-55.929 -562.281)"/><path class="m" d="M86.671,645.458c-.345-3.867-.5-7.736-.546-11.6a96.981,96.981,0,0,0,10.791-.839,36.335,36.335,0,0,1-10.245,12.441Z" transform="translate(-55.938 -587.831)"/><path class="l" d="M108.782,638.223A33.257,33.257,0,0,1,93.85,643.56a37.651,37.651,0,0,0,10.974-14.926,104.785,104.785,0,0,0,13.612-3.391,23.555,23.555,0,0,1-9.655,12.98Z" transform="translate(-59.649 -584.097)"/><path class="m" d="M128.2,600.471a1.532,1.532,0,0,0-.191.043,99.423,99.423,0,0,1-12.96,3.409,31.838,31.838,0,0,0,.836-7.324,35.153,35.153,0,0,0-3.293-14.446,55.618,55.618,0,0,1,12.22,3.914,2.013,2.013,0,0,0,.744.18,45.2,45.2,0,0,1,1.9,5.592,24.26,24.26,0,0,1,.74,8.632Z" transform="translate(-68.652 -563.401)"/><path class="j" d="M142.627,617.4" transform="translate(-83.076 -580.331)"/></g><g transform="translate(52.021 183.344)"><path class="a" d="M200.85,308.659c10.2.436,10.709-13.115,1.894-16.084a8.135,8.135,0,0,0-2.519-.458,6.833,6.833,0,0,0-4.6,1.809,9.331,9.331,0,0,0-2.432,3.926,8.628,8.628,0,0,0-.438,4.625C193.461,305.746,197.063,308.5,200.85,308.659Z" transform="translate(-131.063 -276.635)"/><path class="a" d="M194.607,305.984q.217.9.489,1.792a.235.235,0,0,0,.113.163.275.275,0,0,0,.142.01,16.381,16.381,0,0,0,2.067-.605c1.371-.339,3.044-.04,4.126-.822a6.363,6.363,0,0,0,.11-2.507l-.041-.453a3.189,3.189,0,0,0,1.225-1.183,14.313,14.313,0,0,0,1.941-4.119l.153-.9c0-.135.22-.15.374-.126l1.976.319a.384.384,0,0,0,.316-.038.264.264,0,0,0,.064-.148l1.591-7.924a28.718,28.718,0,0,0-3.513-.44l-.315-.186a17.111,17.111,0,0,0-2.382-6.025l-.246-.51,1.443-3.137q-5.91-1.862-11.847-3.645a7.715,7.715,0,0,1-.939,2.711l-.987-.022a19.328,19.328,0,0,0-6.21.255c-1.483.309-3.039.909-3.595,2.135l-.378.472a17.9,17.9,0,0,0-3.935-1.41l-3,10.409a.155.155,0,0,0,0,.122.234.234,0,0,0,.164.083l2.875.578-.066.528a19.019,19.019,0,0,0,1.665,7.769l.13.361a12.208,12.208,0,0,0-2.158,2.169L183.4,307a10.291,10.291,0,0,1,1.2-2.206l1.073-.006,2.472.472a12.109,12.109,0,0,0,5.088.242Z" transform="translate(-121.807 -268.656)"/><path class="d" d="M108.507,353.731q2.053,2.2,4.321,4.246a.984.984,0,0,0,.529.3.894.894,0,0,0,.432-.095c2.342-.99,3.609-3.154,5.292-4.866a27.621,27.621,0,0,1-1.9-2.359l.3-1.03a17.389,17.389,0,0,0,4.738-7.713l-.032-1.329q2.533.591,5.108.971,1.5-4.272,2.756-8.615a.353.353,0,0,0-.026-.348.514.514,0,0,0-.3-.121l-6.134-1.056-.163-.421a18.4,18.4,0,0,0-2.325-8.955l-.417-.682a20.362,20.362,0,0,0,2.393-2.838.337.337,0,0,0,.088-.248c-.022-.109-.142-.185-.25-.246q-3.523-2-7.193-3.777a.486.486,0,0,0-.193-.061.391.391,0,0,0-.3.19,33.442,33.442,0,0,0-2.077,2.961l-1.129-.35a24.43,24.43,0,0,0-16.772-3.021l-1.209-.157a21.074,21.074,0,0,0-2.914-4.664l-4.347,3.033a.483.483,0,0,0-.176.173.445.445,0,0,0,.02.318l.615,1.952a5.492,5.492,0,0,0,1.064,2.168l-1.328.959a20.716,20.716,0,0,0-6.388,8.732l-.958.712-3.085-.636a.652.652,0,0,0-.334-.01.467.467,0,0,0-.253.314q-.981,2.582-1.775,5.223l3.561.921.547,1.76A15.919,15.919,0,0,0,83.795,348l.557.571-2.793,3.245,7.537,5.371,3.175-3.053.986.545a17.021,17.021,0,0,0,10.34.725,4.6,4.6,0,0,0,2.646-1.45Z" transform="translate(-74.184 -284.958)"/><path class="e" d="M116.567,359.595c2.825-.946,4.412-3,6.083-5.017,1.516-1.835,2.717-3.124,2.758-5.581.07-4.175-2.5-9.063-6.3-11.844a11.926,11.926,0,0,0-6.368-2.46,11.313,11.313,0,0,0-5,1.056,15.3,15.3,0,0,0-7.625,7.2A11.644,11.644,0,0,0,98.9,347.28a11.485,11.485,0,0,0,4,9.1,15.358,15.358,0,0,0,10.357,3.742A11.308,11.308,0,0,0,116.567,359.595Z" transform="translate(-86.048 -297.081)"/><path class="a" d="M140.085,338.5q10.426-8.693,20.176-17.974c6.536-6.222,12.873-12.68,17.685-20.034a48.462,48.462,0,0,0,7.458-17.9c.475-2.673.811-4.916-.413-7.486-1.271-2.67-2.234-5.152-4.453-7.427a17.322,17.322,0,0,0-7.259-4.133,26.8,26.8,0,0,0-7.963-1.218,34.907,34.907,0,0,0-14.169,3.391c-4.358,1.95-8.359,4.41-12.529,6.631-8.6,4.581-17.948,8.168-26.052,13.358" transform="translate(-92.62 -262.327)"/></g></g></svg>